<?xml version="1.0" encoding="UTF-8"?> <svg xmlns="http://www.w3.org/2000/svg" width="256" height="306" viewBox="0 0 256 306" fill="none"> <path d="M55.7685 92.3072C37.9177 127.624 27.265 166.137 24.4297 205.607C55.0659 180.541 80.4083 149.629 98.9811 114.673C116.832 79.3557 127.485 40.8427 130.32 1.37256C99.6901 26.4454 74.3488 57.3557 55.7685 92.3072Z" fill="#616046"></path> <g style="mix-blend-mode:multiply" opacity="0.39"> <path d="M60.7326 126.524C38.6391 169.147 24.4766 205.653 24.4766 205.653C24.4766 205.653 46.1395 173.045 68.2557 130.421C90.3718 87.798 104.512 51.27 104.512 51.27C104.512 51.27 82.7807 83.9458 60.7326 126.524Z" fill="#616046"></path> </g> <path d="M0.749564 103.546C1.80821 138.818 9.87307 173.527 24.4746 205.652C37.7991 172.982 44.5002 137.99 44.1888 102.708C43.1294 67.4336 35.0807 32.7203 20.5091 0.579102C7.17071 33.2548 0.454293 68.2541 0.749564 103.546Z" fill="#616046"></path> <g style="mix-blend-mode:multiply" opacity="0.39"> <path d="M19.1494 128.246C19.9425 171.051 24.4745 205.653 24.4745 205.653C24.4745 205.653 27.579 170.892 26.7405 128.11C25.9021 85.3283 21.4608 50.6812 21.4608 50.6812C21.4608 50.6812 18.3337 85.4415 19.1494 128.246Z" fill="#616046"></path> </g> <path d="M147.611 164.615C110.27 186.959 68.8616 201.663 25.791 207.873C50.8843 172.321 82.787 142.105 119.649 118.978C156.995 96.6231 198.411 81.9114 241.492 75.6973C216.397 111.262 184.485 141.487 147.611 164.615Z" fill="#616046"></path> <path d="M140.949 231.236C101.366 231.127 62.1989 223.155 25.7227 207.782C61.9751 191.875 101.026 183.325 140.609 182.63C180.196 182.76 219.363 190.755 255.835 206.151C219.578 222.035 180.527 230.562 140.949 231.236Z" fill="#616046"></path> <path d="M106.663 276.375C75.716 259.429 48.4421 236.507 26.4238 208.938C61.5859 211.875 95.8149 221.765 127.125 238.034C158.082 255.003 185.357 277.957 207.364 305.561C172.195 302.601 137.964 292.68 106.663 276.375Z" fill="#616046"></path> <g style="mix-blend-mode:multiply" opacity="0.39"> <path d="M93.0216 248.775C55.27 228.607 26.4238 208.938 26.4238 208.938C26.4238 208.938 58.805 221.945 96.6698 242.113C134.535 262.28 163.154 281.949 163.154 281.949C163.154 281.949 130.773 268.942 93.0216 248.775Z" fill="#616046"></path> </g> <g style="mix-blend-mode:multiply" opacity="0.39"> <path d="M109.723 161.896C64.7201 189.496 25.8809 207.873 25.8809 207.873C25.8809 207.873 59.8709 181.542 104.942 153.965C150.012 126.388 188.784 107.988 188.784 107.988C188.784 107.988 154.726 134.319 109.723 161.896Z" fill="#616046"></path> </g> <g style="mix-blend-mode:multiply" opacity="0.39"> <path d="M112.692 211.408C64.6752 211.725 25.7227 207.782 25.7227 207.782C25.7227 207.782 64.6299 203.25 112.646 202.933C160.663 202.616 199.615 206.559 199.615 206.559C199.615 206.559 160.708 211.068 112.692 211.408Z" fill="#616046"></path> </g> </svg> 