<?xml version="1.0" encoding="UTF-8"?> <svg xmlns="http://www.w3.org/2000/svg" width="44" height="64" viewBox="0 0 44 64" fill="none"> <path fill-rule="evenodd" clip-rule="evenodd" d="M28.1925 31.0188C28.369 30.8248 28.3861 30.5647 28.298 30.366C28.2071 30.1613 27.9856 29.9876 27.6989 30.0145C26.891 30.0901 25.8123 30.4735 24.8846 31.4004C23.9951 32.2892 23.271 33.6507 23.0339 35.6499C21.385 36.442 19.8091 37.9078 18.4966 39.7659C18.4411 39.7256 18.3843 39.6888 18.3272 39.6551C18.0823 39.5105 17.7968 39.4015 17.5076 39.3179C16.9291 39.1505 16.2662 39.0647 15.7152 39.0263C15.4734 39.0095 15.308 39.1425 15.229 39.2316C15.1476 39.3233 15.1005 39.4267 15.0739 39.5111C15.0466 39.5978 15.0298 39.6999 15.0362 39.8065C15.042 39.902 15.0717 40.0732 15.2109 40.2152C15.3529 40.3601 15.4999 40.5968 15.4999 41C15.4999 41.6193 15.5427 42.3902 15.6288 43.0749C15.6719 43.417 15.7268 43.7464 15.7952 44.0287C15.8476 44.2448 15.9158 44.4686 16.0113 44.6533C15.6352 45.7457 15.3521 46.8776 15.1824 48.0187C14.1218 48.1437 13.2873 48.8681 12.8502 49.3756C12.6066 49.6583 12.7279 49.981 12.8145 50.1136C12.9053 50.2525 13.0902 50.4155 13.352 50.422C13.5538 50.427 13.8672 50.5789 14.238 50.888C14.5636 51.1594 14.8612 51.4906 15.0589 51.7462C15.6625 58.3678 20.7937 62 25.6856 62C30.5751 62 36.2579 58.3714 36.9333 51.7561C37.1309 51.4992 37.432 51.1629 37.7618 50.888C38.1327 50.5789 38.446 50.427 38.6478 50.422C38.9096 50.4155 39.0946 50.2525 39.1853 50.1136C39.2719 49.981 39.3932 49.6583 39.1497 49.3756C38.7097 48.8648 37.8672 48.1344 36.7969 48.0164C36.6151 46.9146 36.3168 45.8215 35.9246 44.7642C36.0546 44.5631 36.1412 44.2903 36.2046 44.0287C36.273 43.7464 36.328 43.417 36.371 43.0749C36.4571 42.3902 36.4999 41.6193 36.4999 41C36.4999 40.5968 36.6469 40.3601 36.789 40.2152C36.9281 40.0732 36.9578 39.902 36.9636 39.8065C36.9701 39.6999 36.9532 39.5978 36.9259 39.5111C36.8993 39.4267 36.8522 39.3233 36.7709 39.2316C36.6919 39.1425 36.5265 39.0095 36.2847 39.0263C35.7337 39.0647 35.0707 39.1505 34.4922 39.3179C34.203 39.4015 33.9175 39.5105 33.6726 39.6551C33.5449 39.7305 33.4179 39.8218 33.306 39.9324C31.8746 38.0059 30.1609 36.4822 28.4143 35.6632L27.4739 32.8419C27.3773 32.5522 27.4374 32.2159 27.6092 31.8592C27.7787 31.5073 28.0265 31.2011 28.1925 31.0188ZM27.2107 35.2148L26.5252 33.1581C26.3119 32.5184 26.4819 31.8953 26.7083 31.4253C26.7312 31.3778 26.7549 31.3312 26.7794 31.2856C26.3887 31.4592 25.9762 31.7234 25.5914 32.1078C24.955 32.7437 24.3727 33.7308 24.1054 35.2353C24.6309 35.0813 25.1597 35 25.6856 35C26.1877 35 26.6982 35.0741 27.2107 35.2148ZM23.6012 36.4898C23.6693 36.4757 23.7328 36.4476 23.7883 36.4085C24.4335 36.1402 25.0721 36 25.6856 36C27.8167 36 30.3856 37.6842 32.4934 40.5155C34.5681 43.3024 35.9999 46.955 35.9999 50.4286C35.9999 57.2361 30.4418 61 25.6856 61C21.0022 61 15.9999 57.3041 15.9999 50.4286C15.9999 46.9277 17.2933 43.2657 19.2129 40.4867C20.5425 38.5616 22.0851 37.1768 23.6012 36.4898ZM16.6358 43.0634C17.0184 42.1994 17.4575 41.3725 17.9416 40.5999C17.9094 40.574 17.869 40.5459 17.8187 40.5162C17.6712 40.4291 17.4719 40.3486 17.2297 40.2785C16.9486 40.1972 16.6332 40.1365 16.3174 40.0929C16.4288 40.3439 16.4999 40.6445 16.4999 41C16.4999 41.5807 16.5405 42.3098 16.621 42.9501C16.6258 42.9883 16.6308 43.0261 16.6358 43.0634ZM35.3788 42.9501C35.3622 43.082 35.3441 43.2086 35.3246 43.3282C34.9108 42.4393 34.4333 41.5874 33.907 40.7904C33.9219 40.7695 33.9353 40.7472 33.9471 40.7236C33.9687 40.6805 34.03 40.6054 34.1811 40.5162C34.3286 40.4291 34.528 40.3486 34.7701 40.2785C35.0513 40.1972 35.3666 40.1365 35.6824 40.0929C35.5711 40.3439 35.4999 40.6445 35.4999 41C35.4999 41.5807 35.4594 42.3098 35.3788 42.9501ZM15.0013 50.2256C15.0064 49.8369 15.0263 49.4471 15.06 49.0572C14.6891 49.1523 14.3459 49.3556 14.059 49.5893C14.3645 49.7254 14.6455 49.9258 14.8782 50.1198C14.9198 50.1545 14.9608 50.1898 15.0013 50.2256ZM36.9984 50.2257C36.9927 49.8364 36.9705 49.4459 36.9329 49.0554C37.3065 49.1497 37.6522 49.3541 37.9408 49.5893C37.6353 49.7254 37.3544 49.9258 37.1216 50.1198C37.08 50.1545 37.0389 50.1898 36.9984 50.2257ZM32.9999 50C32.9999 55.2115 29.042 58 25.7713 58C22.5713 58 18.9999 55.2821 18.9999 50C18.9999 47.3115 19.9299 44.4977 21.3055 42.3679C22.7199 40.178 24.4013 39 25.7713 39C26.4471 39 27.2357 39.28 28.0769 39.8756C28.9124 40.4672 29.7446 41.3331 30.4851 42.3967C31.9721 44.5329 32.9999 47.3372 32.9999 50ZM33.9999 50C33.9999 55.799 29.5584 59 25.7713 59C21.9843 59 17.9999 55.799 17.9999 50C17.9999 44.201 21.9843 38 25.7713 38C29.5584 38 33.9999 44.201 33.9999 50ZM26.9999 43.5C26.9999 43.7761 26.7761 44 26.4999 44C26.2238 44 25.9999 43.7761 25.9999 43.5C25.9999 43.2239 26.2238 43 26.4999 43C26.7761 43 26.9999 43.2239 26.9999 43.5ZM26.4999 41C26.7761 41 26.9999 40.7761 26.9999 40.5C26.9999 40.2239 26.7761 40 26.4999 40C26.2238 40 25.9999 40.2239 25.9999 40.5C25.9999 40.7761 26.2238 41 26.4999 41ZM23.9999 41.5C23.9999 41.7761 23.7761 42 23.4999 42C23.2238 42 22.9999 41.7761 22.9999 41.5C22.9999 41.2239 23.2238 41 23.4999 41C23.7761 41 23.9999 41.2239 23.9999 41.5ZM24.4999 46C24.7761 46 24.9999 45.7761 24.9999 45.5C24.9999 45.2239 24.7761 45 24.4999 45C24.2238 45 23.9999 45.2239 23.9999 45.5C23.9999 45.7761 24.2238 46 24.4999 46ZM26.9999 47.5C26.9999 47.7761 26.7761 48 26.4999 48C26.2238 48 25.9999 47.7761 25.9999 47.5C25.9999 47.2239 26.2238 47 26.4999 47C26.7761 47 26.9999 47.2239 26.9999 47.5ZM24.4999 51C24.7761 51 24.9999 50.7761 24.9999 50.5C24.9999 50.2239 24.7761 50 24.4999 50C24.2238 50 23.9999 50.2239 23.9999 50.5C23.9999 50.7761 24.2238 51 24.4999 51ZM24.9999 53.5C24.9999 53.7761 24.7761 54 24.4999 54C24.2238 54 23.9999 53.7761 23.9999 53.5C23.9999 53.2239 24.2238 53 24.4999 53C24.7761 53 24.9999 53.2239 24.9999 53.5ZM26.4999 57C26.7761 57 26.9999 56.7761 26.9999 56.5C26.9999 56.2239 26.7761 56 26.4999 56C26.2238 56 25.9999 56.2239 25.9999 56.5C25.9999 56.7761 26.2238 57 26.4999 57ZM29.9999 46.5C29.9999 46.7761 29.7761 47 29.4999 47C29.2238 47 28.9999 46.7761 28.9999 46.5C28.9999 46.2239 29.2238 46 29.4999 46C29.7761 46 29.9999 46.2239 29.9999 46.5ZM31.4999 50C31.7761 50 31.9999 49.7761 31.9999 49.5C31.9999 49.2239 31.7761 49 31.4999 49C31.2238 49 30.9999 49.2239 30.9999 49.5C30.9999 49.7761 31.2238 50 31.4999 50ZM27.9999 50.5C27.9999 50.7761 27.7761 51 27.4999 51C27.2238 51 26.9999 50.7761 26.9999 50.5C26.9999 50.2239 27.2238 50 27.4999 50C27.7761 50 27.9999 50.2239 27.9999 50.5ZM28.4999 55C28.7761 55 28.9999 54.7761 28.9999 54.5C28.9999 54.2239 28.7761 54 28.4999 54C28.2238 54 27.9999 54.2239 27.9999 54.5C27.9999 54.7761 28.2238 55 28.4999 55ZM30.9999 52.5C30.9999 52.7761 30.7761 53 30.4999 53C30.2238 53 29.9999 52.7761 29.9999 52.5C29.9999 52.2239 30.2238 52 30.4999 52C30.7761 52 30.9999 52.2239 30.9999 52.5ZM29.4999 44C29.7761 44 29.9999 43.7761 29.9999 43.5C29.9999 43.2239 29.7761 43 29.4999 43C29.2238 43 28.9999 43.2239 28.9999 43.5C28.9999 43.7761 29.2238 44 29.4999 44ZM22.9999 47.5C22.9999 47.7761 22.7761 48 22.4999 48C22.2238 48 21.9999 47.7761 21.9999 47.5C21.9999 47.2239 22.2238 47 22.4999 47C22.7761 47 22.9999 47.2239 22.9999 47.5ZM22.4999 56C22.7761 56 22.9999 55.7761 22.9999 55.5C22.9999 55.2239 22.7761 55 22.4999 55C22.2238 55 21.9999 55.2239 21.9999 55.5C21.9999 55.7761 22.2238 56 22.4999 56ZM20.9999 49.5C20.9999 49.7761 20.7761 50 20.4999 50C20.2238 50 19.9999 49.7761 19.9999 49.5C19.9999 49.2239 20.2238 49 20.4999 49C20.7761 49 20.9999 49.2239 20.9999 49.5ZM20.4999 53C20.7761 53 20.9999 52.7761 20.9999 52.5C20.9999 52.2239 20.7761 52 20.4999 52C20.2238 52 19.9999 52.2239 19.9999 52.5C19.9999 52.7761 20.2238 53 20.4999 53ZM21.9999 44.5C21.9999 44.7761 21.7761 45 21.4999 45C21.2238 45 20.9999 44.7761 20.9999 44.5C20.9999 44.2239 21.2238 44 21.4999 44C21.7761 44 21.9999 44.2239 21.9999 44.5Z" fill="#FFDC20"></path> <path fill-rule="evenodd" clip-rule="evenodd" d="M0.766101 7.11779C0.497884 7.18348 0.227203 7.01929 0.161517 6.75108C0.0958333 6.48286 0.260017 6.21218 0.528234 6.1465C3.16758 5.50013 7.42937 5.42625 11.8397 7.64947C16.0214 9.75741 20.2909 13.9071 23.4377 21.487C23.4074 21.2426 23.3772 21.0236 23.3501 20.8443C23.3089 20.5713 23.4969 20.3165 23.7699 20.2753C24.043 20.2341 24.2977 20.4221 24.3389 20.6952C24.3974 21.0827 24.4692 21.6401 24.5263 22.2405C24.5583 22.5777 24.4854 22.8905 24.3079 23.1471C24.1329 23.4001 23.8814 23.5625 23.6152 23.6495C23.0937 23.8199 22.4668 23.7219 21.9593 23.3992C21.6553 23.2059 21.351 23.0967 21.0523 23.0884C20.7763 23.0808 20.5587 22.8508 20.5664 22.5748C20.574 22.2987 20.804 22.0812 21.08 22.0888C21.6068 22.1034 22.0853 22.2943 22.4959 22.5553C22.6123 22.6294 22.7337 22.6778 22.8503 22.7049C19.7491 14.7697 15.4695 10.5991 11.3896 8.54243C7.21881 6.43998 3.20513 6.52049 0.766101 7.11779Z" fill="#FFDC20"></path> </svg> 