<?xml version="1.0" encoding="UTF-8"?> <svg xmlns="http://www.w3.org/2000/svg" width="584" height="192" viewBox="0 0 584 192" fill="none"> <path d="M94.1517 155.467C93.8345 154.515 94.6955 153.088 96.0778 149.961C98.2078 145.089 104.757 137.566 109.674 135.707C114.591 133.849 120.551 135.707 125.694 137.634C122.054 133.027 117.453 129.268 112.212 126.621C117.446 118.667 125.808 113.433 133.92 108.493L149.782 98.6584C150.135 98.3726 150.541 98.1594 150.976 98.0311C151.412 97.9027 151.868 97.8618 152.32 97.9106C153.001 98.1658 153.586 98.6247 153.997 99.2249C157.305 103.213 160.523 107.382 164.058 111.121C163.831 101.355 162.834 93.7411 168.794 85.4022C170.584 82.9323 172.374 78.7855 174.572 76.7688C177.767 73.823 183.636 73.3245 187.556 71.7836C191.377 70.5006 194.745 68.1397 197.255 64.9856C197.481 64.6684 197.731 64.3058 198.093 64.2605C198.28 64.2659 198.464 64.3112 198.632 64.3933C198.8 64.4753 198.948 64.5923 199.068 64.7363C204.166 69.427 209.332 74.0723 214.59 78.4683C215.904 76.3383 216.402 57.4172 215.972 57.4625C233.737 55.3098 248.512 43.5719 264.963 37.2497C266.19 36.641 267.566 36.3973 268.928 36.5473C270.268 36.9604 271.463 37.7464 272.373 38.8133C275.386 41.6231 289.141 58.029 293.107 56.9413C298.885 55.3551 290.841 39.4251 288.96 35.8675L296.415 31.3355C305.325 41.501 313.625 52.185 321.273 63.3314C318.576 59.3433 314.973 35.2557 317.375 30.769C321.296 23.4272 342.301 22.0902 349.892 20.1868C369.38 15.3602 388.958 10.511 408.922 8.24497C410.597 7.8881 412.342 8.07057 413.907 8.76618C419.141 11.8479 424.761 26.5996 425.509 32.2419L428.296 9.44595L460.133 3.44107C462.618 2.76755 465.227 2.6899 467.747 3.21445C470.515 4.31425 472.885 6.22593 474.545 8.69813C478.145 13.2357 481.188 18.1882 483.609 23.4498L480.006 3.05581C489.818 3.48635 504.932 -1.61215 513.838 0.789815C518.777 2.10409 531.354 20.504 529.224 25.3986C531.308 20.572 533.756 15.8588 536.158 11.2361C536.648 9.97757 537.595 8.94998 538.809 8.35825C540.071 8.10473 541.382 8.28857 542.525 8.87945C555.781 14.1139 570.963 18.2834 583.132 25.5346C584.355 26.2597 557.617 50.2566 556.71 49.5088C552.507 44.4698 549.75 38.3846 548.734 31.902C548.191 36.894 548.367 41.938 549.255 46.8802C550.773 53.4516 551.159 53.6783 545.562 57.3945C541.208 60.2728 537.174 63.6076 533.529 67.3422C528.363 72.8713 520.16 75.6811 516.942 82.5245C512.671 78.6251 509.307 73.8373 507.085 68.4979C506.931 73.0708 507.962 77.6058 510.076 81.6634C499.924 92.6761 487.099 100.856 474.432 108.855C471.554 106.292 468.901 103.487 466.501 100.471C467.247 101.692 467.71 103.065 467.855 104.489C468 105.912 467.824 107.35 467.339 108.697C467.152 109.363 466.754 109.951 466.206 110.374C465.467 110.757 464.636 110.93 463.804 110.872C460.399 111.073 457.145 112.35 454.514 114.52C449.216 109.979 445.056 104.259 442.368 97.82C442.227 102.809 442.668 107.798 443.682 112.685C443.999 114.203 445.948 118.282 445.382 119.664C444.815 121.046 440.986 122.179 439.762 122.814C427.934 128.841 416.785 135.685 404.39 140.239C397.608 135.139 392.292 128.339 388.981 120.525C389.615 128.079 390.257 135.692 390.907 143.367C390.983 143.81 390.903 144.267 390.68 144.658C390.351 144.997 389.906 145.199 389.434 145.225L383.044 146.29C375.976 137.984 370.761 128.265 367.749 117.783C366.927 130.209 367.55 142.687 369.607 154.968C362.65 155.966 356.6 159.002 349.892 160.52C341.168 162.514 333.079 166.344 324.785 169.584C320.328 166.266 316.544 162.129 313.636 157.393C314.4 161.925 315.933 166.294 318.168 170.309C310.366 172.868 302.274 174.444 294.081 175C287.283 166.865 280.122 158.05 278.967 147.491C274.466 157.585 273.781 168.971 277.041 179.532C262.41 184.395 247.135 187.046 231.721 187.395C230.808 187.477 229.888 187.361 229.024 187.055C228.308 186.68 227.676 186.164 227.166 185.537C223.932 182.038 221.278 178.045 219.303 173.708C217.898 170.604 217.513 165.709 214.975 163.375C215.224 165.437 214.839 167.545 214.975 169.607C215.242 171.904 215.689 174.177 216.312 176.405C217.341 180.428 219.412 184.109 222.317 187.078L221.184 188.483L207.86 186.783C207.547 186.766 207.244 186.672 206.976 186.511C206.691 186.262 206.493 185.929 206.409 185.559C204.702 180.574 202.957 175.544 201.175 170.468C199.611 165.936 196.235 158.481 197.005 153.609C194.205 157.854 192.481 162.719 191.983 167.781C191.486 172.843 192.23 177.949 194.15 182.659C180.804 181.005 152.977 186.534 144.298 173.595C140.48 166.836 138.804 159.076 139.494 151.343L136.707 167.975C136.633 168.585 136.449 169.176 136.163 169.72C133.625 173.708 105.459 160.792 101.38 159.093C96.5537 157.099 94.5143 156.623 94.1517 155.467Z" fill="#7A8C5B"></path> <mask id="mask0_2829_3827" style="mask-type:luminance" maskUnits="userSpaceOnUse" x="94" y="0" width="490" height="189"> <path d="M94.1517 155.467C93.8345 154.515 94.6955 153.088 96.0778 149.961C98.2078 145.089 104.757 137.566 109.674 135.707C114.591 133.849 120.551 135.707 125.694 137.634C122.054 133.027 117.453 129.268 112.212 126.621C117.446 118.667 125.808 113.433 133.92 108.493L149.782 98.6584C150.135 98.3726 150.541 98.1594 150.976 98.0311C151.412 97.9027 151.868 97.8618 152.32 97.9106C153.001 98.1658 153.586 98.6247 153.997 99.2249C157.305 103.213 160.523 107.382 164.058 111.121C163.831 101.355 162.834 93.7411 168.794 85.4022C170.584 82.9323 172.374 78.7855 174.572 76.7688C177.767 73.823 183.636 73.3245 187.556 71.7836C191.377 70.5006 194.745 68.1397 197.255 64.9856C197.481 64.6684 197.731 64.3058 198.093 64.2605C198.28 64.2659 198.464 64.3112 198.632 64.3933C198.8 64.4753 198.948 64.5923 199.068 64.7363C204.166 69.427 209.332 74.0723 214.59 78.4683C215.904 76.3383 216.402 57.4172 215.972 57.4625C233.737 55.3098 248.512 43.5719 264.963 37.2497C266.19 36.641 267.566 36.3973 268.928 36.5473C270.268 36.9604 271.463 37.7464 272.373 38.8133C275.386 41.6231 289.141 58.029 293.107 56.9413C298.885 55.3551 290.841 39.4251 288.96 35.8675L296.415 31.3355C305.325 41.501 313.625 52.185 321.273 63.3314C318.576 59.3433 314.973 35.2557 317.375 30.769C321.296 23.4272 342.301 22.0902 349.892 20.1868C369.38 15.3602 388.958 10.511 408.922 8.24497C410.597 7.8881 412.342 8.07057 413.907 8.76618C419.141 11.8479 424.761 26.5996 425.509 32.2419L428.296 9.44595L460.133 3.44107C462.618 2.76755 465.227 2.6899 467.747 3.21445C470.515 4.31425 472.885 6.22593 474.545 8.69813C478.145 13.2357 481.188 18.1882 483.609 23.4498L480.006 3.05581C489.818 3.48635 504.932 -1.61215 513.838 0.789815C518.777 2.10409 531.354 20.504 529.224 25.3986C531.308 20.572 533.756 15.8588 536.158 11.2361C536.648 9.97757 537.595 8.94998 538.809 8.35825C540.071 8.10473 541.382 8.28857 542.525 8.87945C555.781 14.1139 570.963 18.2834 583.132 25.5346C584.355 26.2597 557.617 50.2566 556.71 49.5088C552.507 44.4698 549.75 38.3846 548.734 31.902C548.191 36.894 548.367 41.938 549.255 46.8802C550.773 53.4516 551.159 53.6783 545.562 57.3945C541.208 60.2728 537.174 63.6076 533.529 67.3422C528.363 72.8713 520.16 75.6811 516.942 82.5245C512.671 78.6251 509.307 73.8373 507.085 68.4979C506.931 73.0708 507.962 77.6058 510.076 81.6634C499.924 92.6761 487.099 100.856 474.432 108.855C471.554 106.292 468.901 103.487 466.501 100.471C467.247 101.692 467.71 103.065 467.855 104.489C468 105.912 467.824 107.35 467.339 108.697C467.152 109.363 466.754 109.951 466.206 110.374C465.467 110.757 464.636 110.93 463.804 110.872C460.399 111.073 457.145 112.35 454.514 114.52C449.216 109.979 445.056 104.259 442.368 97.82C442.227 102.809 442.668 107.798 443.682 112.685C443.999 114.203 445.948 118.282 445.382 119.664C444.815 121.046 440.986 122.179 439.762 122.814C427.934 128.841 416.785 135.685 404.39 140.239C397.608 135.139 392.292 128.339 388.981 120.525C389.615 128.079 390.257 135.692 390.907 143.367C390.983 143.81 390.903 144.267 390.68 144.658C390.351 144.997 389.906 145.199 389.434 145.225L383.044 146.29C375.976 137.984 370.761 128.265 367.749 117.783C366.927 130.209 367.55 142.687 369.607 154.968C362.65 155.966 356.6 159.002 349.892 160.52C341.168 162.514 333.079 166.344 324.785 169.584C320.328 166.266 316.544 162.129 313.636 157.393C314.4 161.925 315.933 166.294 318.168 170.309C310.366 172.868 302.274 174.444 294.081 175C287.283 166.865 280.122 158.05 278.967 147.491C274.466 157.585 273.781 168.971 277.041 179.532C262.41 184.395 247.135 187.046 231.721 187.395C230.808 187.477 229.888 187.361 229.024 187.055C228.308 186.68 227.676 186.164 227.166 185.537C223.932 182.038 221.278 178.045 219.303 173.708C217.898 170.604 217.513 165.709 214.975 163.375C215.224 165.437 214.839 167.545 214.975 169.607C215.242 171.904 215.689 174.177 216.312 176.405C217.341 180.428 219.412 184.109 222.317 187.078L221.184 188.483L207.86 186.783C207.547 186.766 207.244 186.672 206.976 186.511C206.691 186.262 206.493 185.929 206.409 185.559C204.702 180.574 202.957 175.544 201.175 170.468C199.611 165.936 196.235 158.481 197.005 153.609C194.205 157.854 192.481 162.719 191.983 167.781C191.486 172.843 192.23 177.949 194.15 182.659C180.804 181.005 152.977 186.534 144.298 173.595C140.48 166.836 138.804 159.076 139.494 151.343L136.707 167.975C136.633 168.585 136.449 169.176 136.163 169.72C133.625 173.708 105.459 160.792 101.38 159.093C96.5537 157.099 94.5143 156.623 94.1517 155.467Z" fill="white"></path> </mask> <g mask="url(#mask0_2829_3827)"> <path d="M120.505 143.525L121.412 193.898" stroke="#717C57" stroke-miterlimit="10"></path> <path d="M158.415 143.163L175.773 214.361" stroke="#717C57" stroke-miterlimit="10"></path> <path d="M199.77 130.428L236.388 199.563" stroke="#717C57" stroke-miterlimit="10"></path> <path d="M241.079 117.851L306.748 199.019" stroke="#717C57" stroke-miterlimit="10"></path> <path d="M303.71 99.0435L371.736 162.967" stroke="#717C57" stroke-miterlimit="10"></path> <path d="M373.482 78.6719L458.728 141.893" stroke="#717C57" stroke-miterlimit="10"></path> <path d="M432.917 61.9946L511.638 111.801" stroke="#717C57" stroke-miterlimit="10"></path> <path d="M471.213 51.7974L564.799 70.8091" stroke="#717C57" stroke-miterlimit="10"></path> <path d="M519.82 39.9689L603.708 24.1069" stroke="#717C57" stroke-miterlimit="10"></path> <path d="M529.404 -6.59717L488.049 46.8351" stroke="#717C57" stroke-miterlimit="10"></path> <path d="M465.571 -11.832L450.072 57.3716" stroke="#717C57" stroke-miterlimit="10"></path> <path d="M435.999 -29.8467L399.449 67.546" stroke="#717C57" stroke-miterlimit="10"></path> <path d="M369.968 -9.36182L341.144 84.0427" stroke="#717C57" stroke-miterlimit="10"></path> <path d="M283.384 11.5757L263.443 102.873" stroke="#717C57" stroke-miterlimit="10"></path> <path d="M213.91 42.3701L223.858 116.718" stroke="#717C57" stroke-miterlimit="10"></path> <path d="M165.485 54.8789L184.225 130.631" stroke="#717C57" stroke-miterlimit="10"></path> <path d="M119.984 96.6416L146.904 137.566" stroke="#717C57" stroke-miterlimit="10"></path> </g> <g style="mix-blend-mode:multiply" opacity="0.21"> <path d="M193.879 154.605C202.943 151.932 212.007 148.918 221.366 149.054C227.098 149.054 232.696 150.436 238.496 150.481C247.357 150.481 255.967 147.762 264.397 144.975C280.689 139.605 297.118 134.166 311.983 125.555C316.923 122.677 321.817 119.392 327.437 118.327C334.371 117.035 341.577 119.278 348.533 118.191C358.436 116.65 365.982 108.878 374.774 104.074C381.753 100.267 389.571 98.3406 397.23 96.1653C443.388 83.1584 486.352 61.0197 528.975 38.9941C501.934 44.8404 474.689 49.4857 447.24 52.93C424.308 55.8078 401.286 57.8246 378.558 61.994C355.938 66.0538 333.731 72.1516 312.209 80.2127C307.224 82.0935 302.08 84.1101 296.755 83.9062C291.43 83.7023 286.876 81.4589 281.868 80.6658C274.684 79.5102 267.411 81.255 260.363 82.9318C246.541 86.3535 232.718 89.7298 219.213 94.2618C194.015 102.827 150.757 119.188 134.986 142.165C117.016 168.201 182.39 157.982 193.879 154.605Z" fill="#7A8C5B"></path> </g> <path d="M532.51 37.5896C542.866 25.5345 0 180.348 0 180.348L5.59702 191.247C5.59702 191.247 526.777 44.229 532.51 37.5896Z" fill="#ADB797"></path> </svg> 