<?xml version="1.0" encoding="UTF-8"?> <svg xmlns="http://www.w3.org/2000/svg" width="351" height="546" viewBox="0 0 351 546" fill="none"> <path d="M0.704292 0.0957031C-0.247428 30.6867 2.97033 83.5298 8.25011 91.5061C13.5299 99.4824 87.832 92.5938 89.5315 96.0381C91.231 99.4824 33.8785 123.003 30.0263 128.714C26.1741 134.424 32.9948 174.192 43.4864 200.614C53.978 227.036 71.1543 250.058 79.4025 268.889C87.6507 287.719 91.1404 284.977 99.5246 284.932C107.909 284.887 135.894 270.361 139.519 275.007C143.145 279.652 110.288 291.458 109.314 299.729C108.339 308 123.227 315.024 128.371 333.47C133.515 351.915 154.294 371.176 163.471 373.328C172.648 375.481 219.101 337.979 223.86 342.805C228.619 347.632 183.865 396.782 187.377 402.447C190.89 408.112 204.395 408.678 214.569 424.585C224.744 440.493 240.334 450.735 246.293 445.138C252.253 439.541 298.411 395.739 301.969 400.384C305.527 405.03 261.181 453.205 258.915 462.382C256.649 471.56 265.35 470.087 271.944 476.318C278.539 482.55 332.288 486.47 336.933 484.068C341.579 481.666 283.048 321.55 249.738 257.763C216.427 193.975 106.028 71.6786 106.028 71.6786L0.704292 0.0957031Z" fill="#585840"></path> <path d="M0.725586 0.141602C1.31475 1.5012 20.4171 44.9404 39.8594 63.7935C59.3017 82.6467 57.8061 106.848 66.8475 127.876C75.8888 148.904 78.8119 141.88 78.8119 141.88C78.8119 141.88 130.635 120.783 135.326 125.542C140.017 130.301 101.925 141.404 103.919 151.17C105.913 160.937 123.09 201.725 133.196 205.011C143.302 208.296 175.91 198.553 184.045 200.479C192.18 202.405 141.399 215.344 140.991 226.855C140.583 238.366 180.805 307.207 198.933 340.812C217.061 374.417 235.71 375.618 240.876 376.23C246.043 376.841 268.476 353.932 269.881 352.482C268.793 354.317 243.777 396.714 245.703 406.186C247.629 415.658 274.957 442.215 280.441 449.24C285.924 456.265 303.962 427.917 304.8 438.522C305.638 449.127 300.132 459.981 304.8 465.714C307.27 468.841 316.583 473.985 324.582 478.064C331.38 481.417 337.045 484.023 337.045 484.023C347.922 293.113 249.94 188.129 207.136 140.838C176.884 107.391 118.558 68.824 78.7893 43.6714C62.3155 33.2705 49.014 25.1809 42.216 20.6942C39.5875 18.9494 37.0043 17.3179 34.5117 15.845H34.3303C32.9028 14.9839 31.4299 14.1682 30.0023 13.3297C20.7409 7.90368 10.9263 3.48254 0.725586 0.141602Z" fill="#7A8C5B"></path> <mask id="mask0_2829_3955" style="mask-type:luminance" maskUnits="userSpaceOnUse" x="0" y="0" width="338" height="484"> <path d="M336.844 484C347.698 293.089 249.761 188.106 206.956 140.814C164.152 93.5227 65.1955 35.921 42.0143 20.7161C29.2337 12.035 15.3381 5.12157 0.705078 0.163574C0.705078 0.163574 20.1247 44.7358 39.8616 63.8608C59.5984 82.9858 57.8083 106.915 66.8496 127.921C75.891 148.926 78.8141 141.947 78.8141 141.947C78.8141 141.947 130.638 120.851 135.328 125.609C140.019 130.368 101.95 141.471 103.944 151.238C105.938 161.004 123.092 201.77 133.198 205.078C143.304 208.386 175.912 198.62 184.07 200.659C192.227 202.699 141.378 215.502 141.016 226.99C140.653 238.479 180.807 307.207 198.935 340.811C217.063 374.416 235.712 375.617 240.878 376.252C246.045 376.886 269.951 352.436 269.951 352.436C269.951 352.436 243.598 396.51 245.592 406.253C247.586 415.997 274.868 442.26 280.329 449.307C285.791 456.355 303.851 427.984 304.689 438.567C305.527 449.149 300.021 460.048 304.689 465.759C309.357 471.469 336.844 484 336.844 484Z" fill="white"></path> </mask> <g mask="url(#mask0_2829_3955)"> <path d="M77.8848 25.0443L-36.1857 21.7812" stroke="#717C57" stroke-miterlimit="10"></path> <path d="M133.72 62.6372L5.05612 80.3573" stroke="#717C57" stroke-miterlimit="10"></path> <path d="M213.754 105.238L37.7087 183.596" stroke="#717C57" stroke-miterlimit="10"></path> <path d="M266.529 168.187L25.8569 283.073" stroke="#717C57" stroke-miterlimit="10"></path> <path d="M317.967 203.695L111.308 341.446" stroke="#717C57" stroke-miterlimit="10"></path> <path d="M334.057 263.359L152.505 465.237" stroke="#717C57" stroke-miterlimit="10"></path> <path d="M356.285 322.457L233.921 493.563" stroke="#717C57" stroke-miterlimit="10"></path> </g> <g style="mix-blend-mode:multiply" opacity="0.21"> <path d="M206.933 140.814C176.682 107.368 118.355 68.8006 78.5869 43.6479C152.028 93.1147 208.293 148.246 223.339 179.087C241.467 216.476 253.295 236.213 271.945 280.671C290.594 325.13 294.899 324.224 305.391 366.326C315.882 408.429 328.255 422.568 328.209 446.52C327.697 457.106 326.417 467.64 324.38 478.04C331.178 481.394 336.843 484 336.843 484C347.72 293.089 249.738 188.105 206.933 140.814Z" fill="#7A8C5B"></path> </g> <path d="M0.702148 0.0957031C139.608 66.1043 371.306 235.352 332.331 523.542L341.01 539.653L350.233 545.137C350.233 545.137 359.614 381.622 306.861 268.685C254.109 155.747 135.756 57.2895 0.702148 0.0957031Z" fill="#ADB797"></path> </svg> 