<?xml version="1.0" encoding="UTF-8"?> <svg xmlns="http://www.w3.org/2000/svg" width="36" height="36" viewBox="0 0 36 36" fill="none"> <path d="M14.9999 24V31.4649C14.9999 31.4876 14.9923 31.5094 14.9783 31.5273C14.3221 32.3691 13.8344 34 16.9999 34" stroke="#FFDC20" stroke-linecap="round"></path> <path d="M14.9999 14V21.4649C14.9999 21.4876 14.9923 21.5094 14.9783 21.5273C14.3221 22.3691 13.8344 24 16.9999 24" stroke="#FFDC20" stroke-linecap="round"></path> <path d="M14.9999 4V11.4649C14.9999 11.4876 14.9923 11.5094 14.9783 11.5273C14.3221 12.3691 13.8344 14 16.9999 14" stroke="#FFDC20" stroke-linecap="round"></path> <path d="M19.0001 24V31.4649C19.0001 31.4876 19.0077 31.5094 19.0217 31.5273C19.6779 32.3691 20.1656 34 17.0001 34" stroke="#FFDC20" stroke-linecap="round"></path> <path d="M19.0001 14V21.4649C19.0001 21.4876 19.0077 21.5094 19.0217 21.5273C19.6779 22.3691 20.1656 24 17.0001 24" stroke="#FFDC20" stroke-linecap="round"></path> <path d="M19.0001 4V11.4649C19.0001 11.4876 19.0077 11.5094 19.0217 11.5273C19.6779 12.3691 20.1656 14 17.0001 14" stroke="#FFDC20" stroke-linecap="round"></path> <path d="M18.9703 4.02932C17.7795 5.17717 15.8644 4.50919 15.0246 4.01455C15.0082 4.00489 14.9957 3.99111 14.9874 3.974C14.8221 3.63326 14.6103 3 15.0002 3C15.3849 3 17.6507 2.07486 18.8613 1.55934C18.9273 1.53121 19.0002 1.57986 19.0002 1.65165V3.95858C19.0002 3.9851 18.9894 4.01092 18.9703 4.02932Z" stroke="#FFDC20" stroke-linecap="round"></path> <path d="M19.5 20L20.5 18.5M20.5 18.5C20.6647 15.8644 22.8482 10.5263 30.2365 10.016C30.3279 10.0097 30.3817 10.1187 30.3173 10.1839C28.9294 11.5893 26.3825 14.3524 26 15.5C25.5 17 23.5 19.5 20.5 18.5Z" stroke="#FFDC20" stroke-linecap="round"></path> <path d="M15 11L14.1818 9.8M14.1818 9.8C14.0474 7.69752 12.2707 3.44526 6.26704 3.01639C6.17513 3.00983 6.12242 3.12018 6.18781 3.1851C7.3313 4.32053 9.37234 6.49219 9.68182 7.4C10.0909 8.6 11.7273 10.6 14.1818 9.8Z" stroke="#FFDC20" stroke-linecap="round"></path> </svg> 