<?xml version="1.0" encoding="UTF-8"?> <svg xmlns="http://www.w3.org/2000/svg" width="313" height="110" viewBox="0 0 313 110" fill="none"> <path d="M50.0862 87.1575C49.9176 86.6518 50.3752 85.8932 51.1096 84.2317C52.2414 81.643 55.7211 77.6456 58.3339 76.6583C60.9466 75.671 64.1132 76.6583 66.8464 77.6817C64.912 75.2338 62.4672 73.2368 59.6824 71.8301C62.4637 67.6039 66.9066 64.8226 71.217 62.1978L79.6453 56.9723C79.8328 56.8204 80.0484 56.7072 80.2799 56.639C80.5113 56.5708 80.7539 56.549 80.9938 56.575C81.3556 56.7106 81.6667 56.9544 81.8848 57.2733C83.6427 59.3924 85.3524 61.6078 87.2307 63.5945C87.1103 58.4051 86.5805 54.3595 89.7471 49.9287C90.6983 48.6163 91.6495 46.4129 92.8174 45.3413C94.5151 43.776 97.6336 43.5112 99.7165 42.6924C101.747 42.0107 103.536 40.7562 104.87 39.0803C104.99 38.9118 105.123 38.7191 105.315 38.695C105.415 38.6979 105.512 38.722 105.601 38.7656C105.691 38.8092 105.77 38.8713 105.833 38.9479C108.542 41.4402 111.287 43.9085 114.081 46.2443C114.779 45.1125 115.044 35.0588 114.815 35.0829C124.255 33.9391 132.105 27.7022 140.846 24.3429C141.499 24.0195 142.23 23.8899 142.953 23.9697C143.665 24.1892 144.3 24.6068 144.784 25.1737C146.385 26.6667 153.693 35.3839 155.801 34.806C158.871 33.9631 154.596 25.4988 153.597 23.6085L157.558 21.2004C162.293 26.6018 166.703 32.2787 170.767 38.2014C169.334 36.0823 167.419 23.2834 168.696 20.8994C170.779 16.9983 181.94 16.2879 185.974 15.2765C196.328 12.7119 206.731 10.1353 217.339 8.93126C218.229 8.74164 219.156 8.83859 219.988 9.2082C222.769 10.8457 225.755 18.6839 226.152 21.682L227.633 9.5694L244.55 6.37871C245.87 6.02084 247.256 5.97958 248.596 6.2583C250.066 6.84268 251.325 7.85845 252.208 9.17205C254.12 11.5831 255.737 14.2146 257.024 17.0103L255.109 6.17401C260.323 6.40278 268.354 3.6937 273.086 4.96998C275.71 5.66832 282.393 15.4451 281.261 18.0458C282.369 15.4812 283.669 12.9768 284.945 10.5206C285.206 9.85187 285.709 9.30587 286.354 8.99145C287.025 8.85674 287.721 8.95443 288.329 9.26839C295.372 12.0497 303.439 14.2651 309.905 18.1181C310.555 18.5034 296.348 31.2541 295.866 30.8567C293.633 28.1793 292.168 24.9459 291.628 21.5014C291.339 24.1539 291.433 26.834 291.905 29.4601C292.711 32.9518 292.916 33.0722 289.942 35.0468C287.629 36.5762 285.486 38.3481 283.549 40.3325C280.803 43.2703 276.445 44.7634 274.735 48.3995C272.466 46.3276 270.678 43.7836 269.498 40.9466C269.416 43.3764 269.963 45.786 271.087 47.942C265.693 53.7936 258.878 58.1402 252.147 62.3904C250.618 61.0281 249.209 59.5377 247.933 57.9355C248.33 58.5842 248.576 59.3137 248.653 60.0702C248.73 60.8266 248.636 61.5907 248.379 62.3061C248.279 62.6602 248.068 62.9726 247.777 63.1972C247.384 63.4011 246.942 63.4928 246.501 63.462C244.691 63.5685 242.962 64.2474 241.564 65.4005C238.749 62.9874 236.539 59.9482 235.11 56.5268C235.036 59.1778 235.27 61.8285 235.809 64.4253C235.977 65.232 237.013 67.3992 236.712 68.1337C236.411 68.8681 234.376 69.4702 233.726 69.8073C227.441 73.01 221.517 76.6462 214.931 79.0663C211.327 76.3563 208.503 72.7428 206.743 68.5912C207.08 72.6047 207.422 76.6502 207.767 80.7279C207.807 80.9637 207.764 81.2062 207.646 81.4142C207.471 81.5941 207.235 81.7016 206.984 81.7152L203.589 82.2811C199.833 77.8678 197.062 72.7039 195.461 67.1343C195.025 73.7364 195.356 80.3669 196.449 86.8926C192.752 87.4223 189.538 89.0357 185.974 89.8424C181.338 90.902 177.04 92.9368 172.633 94.6586C170.265 92.8955 168.254 90.697 166.709 88.1809C167.115 90.5891 167.929 92.9102 169.117 95.0439C164.971 96.4037 160.672 97.241 156.318 97.5362C152.706 93.2137 148.901 88.53 148.287 82.9192C145.896 88.2831 145.532 94.3326 147.264 99.9443C139.49 102.528 131.373 103.937 123.183 104.122C122.698 104.166 122.209 104.104 121.75 103.942C121.37 103.743 121.034 103.468 120.763 103.135C119.045 101.276 117.634 99.154 116.585 96.8499C115.839 95.2004 115.634 92.5997 114.285 91.3595C114.418 92.4552 114.213 93.575 114.285 94.6706C114.427 95.8914 114.665 97.0991 114.996 98.2827C115.543 100.421 116.643 102.377 118.186 103.954L117.584 104.7L110.505 103.797C110.339 103.788 110.178 103.738 110.035 103.653C109.884 103.52 109.778 103.343 109.734 103.147C108.827 100.498 107.9 97.8252 106.953 95.1282C106.122 92.7201 104.328 88.7588 104.737 86.1701C103.249 88.426 102.333 91.0107 102.069 93.7003C101.804 96.3899 102.2 99.1034 103.22 101.606C96.1285 100.727 81.343 103.665 76.7315 96.7897C74.7025 93.1981 73.8124 89.0749 74.179 84.9661L72.698 93.8037C72.6588 94.1278 72.5609 94.4419 72.409 94.7309C71.0605 96.85 56.0943 89.9869 53.9271 89.0839C51.3625 88.0244 50.2789 87.7715 50.0862 87.1575Z" fill="#7A8C5B"></path> <mask id="mask0_2863_737" style="mask-type:luminance" maskUnits="userSpaceOnUse" x="49" y="5" width="262" height="100"> <path d="M49.5873 86.9616C49.4187 86.4608 49.8787 85.7091 50.6175 84.0627C51.7561 81.4976 55.2525 77.5351 57.8756 76.5549C60.4988 75.5747 63.6757 76.5499 66.4175 77.5612C64.4788 75.1382 62.0274 73.1624 59.2341 71.7713C62.0299 67.5829 66.4916 64.8241 70.8203 62.2205L79.2842 57.0373C79.4725 56.8867 79.6891 56.7743 79.9214 56.7066C80.1537 56.6389 80.3973 56.6171 80.638 56.6426C81.0009 56.7766 81.3128 57.0178 81.5314 57.3335C83.2933 59.431 85.0068 61.6239 86.8897 63.5901C86.7744 58.45 86.247 54.4433 89.4297 50.0518C90.3857 48.751 91.3426 46.5677 92.5158 45.5053C94.2212 43.9534 97.3511 43.6884 99.4424 42.8756C101.481 42.1986 103.278 40.9545 104.618 39.2933C104.739 39.1262 104.872 38.9353 105.065 38.9113C105.165 38.9141 105.263 38.9378 105.353 38.9809C105.442 39.024 105.521 39.0855 105.585 39.1613C108.301 41.6276 111.053 44.0701 113.854 46.3813C114.556 45.2597 114.833 35.3012 114.603 35.3252C124.078 34.1841 131.963 27.9996 140.739 24.6646C141.394 24.3437 142.128 24.2147 142.854 24.2931C143.568 24.5099 144.205 24.923 144.689 25.4841C146.295 26.9615 153.62 35.5897 155.735 35.0154C158.817 34.1779 154.537 25.7976 153.536 23.9261L157.514 21.5374C162.259 26.8835 166.68 32.5027 170.751 38.3656C169.316 36.2678 167.408 23.5921 168.691 21.2296C170.786 17.3638 181.988 16.6505 186.037 15.6452C196.432 13.0959 206.874 10.5348 217.521 9.33297C218.415 9.14438 219.345 9.2396 220.179 9.60499C222.969 11.2245 225.957 18.9858 226.353 21.955L227.852 9.95613L244.832 6.78107C246.158 6.42546 247.549 6.38339 248.892 6.6583C250.368 7.23586 251.63 8.24089 252.514 9.54126C254.431 11.9277 256.051 14.5329 257.339 17.301L255.43 6.56916C260.661 6.79124 268.724 4.10092 273.471 5.36098C276.105 6.05042 282.801 15.7286 281.662 18.3056C282.777 15.7644 284.084 13.2827 285.368 10.8486C285.63 10.186 286.135 9.64478 286.783 9.33278C287.456 9.19878 288.155 9.29493 288.764 9.60539C295.83 12.3542 303.924 14.5416 310.408 18.3524C311.061 18.7334 296.789 31.3754 296.306 30.9823C294.067 28.3322 292.601 25.1308 292.062 21.7194C291.77 24.347 291.861 27.0016 292.332 29.6023C293.138 33.0602 293.343 33.1793 290.356 35.1377C288.033 36.6546 285.88 38.4115 283.934 40.3788C281.176 43.2911 276.8 44.7737 275.081 48.3769C272.805 46.3266 271.014 43.8083 269.832 40.9992C269.748 43.406 270.295 45.7923 271.42 47.9269C266 53.7276 259.156 58.0388 252.397 62.2545C250.864 60.9065 249.451 59.4315 248.173 57.8455C248.57 58.4878 248.816 59.2102 248.893 59.9593C248.969 60.7085 248.874 61.4655 248.615 62.1743C248.515 62.5251 248.303 62.8348 248.01 63.0574C247.615 63.2597 247.172 63.3509 246.729 63.3209C244.913 63.4279 243.177 64.1018 241.773 65.2452C238.95 62.8574 236.735 59.849 235.305 56.4613C235.228 59.0872 235.46 61.7126 235.998 64.2842C236.166 65.0831 237.203 67.2289 236.9 67.9566C236.597 68.6844 234.555 69.2825 233.902 69.617C227.591 72.7947 221.642 76.4016 215.03 78.8044C211.416 76.1232 208.585 72.5465 206.824 68.4358C207.158 72.4109 207.496 76.4178 207.838 80.4564C207.879 80.6899 207.836 80.9302 207.717 81.1363C207.541 81.3147 207.303 81.4213 207.052 81.435L203.644 81.9985C199.879 77.6303 197.104 72.5179 195.504 67.0025C195.058 73.5423 195.384 80.1096 196.473 86.5724C192.763 87.1003 189.535 88.7012 185.958 89.5033C181.304 90.5568 176.988 92.576 172.564 94.2853C170.189 92.541 168.174 90.3652 166.626 87.8742C167.03 90.2592 167.845 92.5576 169.035 94.67C164.873 96.0205 160.557 96.8535 156.188 97.1498C152.568 92.8715 148.754 88.2355 148.144 82.6785C145.738 87.9935 145.367 93.9859 147.099 99.5428C139.294 102.109 131.147 103.511 122.928 103.702C122.441 103.746 121.95 103.685 121.49 103.524C121.108 103.327 120.771 103.056 120.5 102.726C118.777 100.886 117.364 98.7857 116.314 96.5044C115.566 94.8712 115.364 92.2953 114.012 91.0681C114.143 92.1533 113.937 93.2626 114.008 94.3478C114.149 95.5568 114.386 96.7529 114.717 97.925C115.264 100.042 116.366 101.979 117.913 103.539L117.308 104.279L110.204 103.391C110.038 103.382 109.876 103.333 109.733 103.248C109.581 103.117 109.476 102.942 109.431 102.748C108.524 100.125 107.596 97.478 106.649 94.8073C105.818 92.4228 104.021 88.5007 104.435 85.9363C102.939 88.172 102.017 90.7329 101.749 93.3972C101.481 96.0616 101.874 98.749 102.896 101.227C95.7798 100.362 80.9382 103.285 76.3176 96.4793C74.2852 92.9236 73.3963 88.8402 73.7685 84.7701L72.2729 93.5251C72.2332 93.8461 72.1346 94.1574 71.9819 94.4437C70.6263 96.5439 55.6139 89.759 53.4399 88.8664C50.8672 87.8191 49.78 87.5696 49.5873 86.9616Z" fill="white"></path> </mask> <g mask="url(#mask0_2863_737)"> <path d="M64.0869 80.8151L64.5728 107.575" stroke="#717C57" stroke-miterlimit="10"></path> <path d="M84.1973 80.6704L93.4913 118.4" stroke="#717C57" stroke-miterlimit="10"></path> <path d="M106.142 73.9442L125.727 110.497" stroke="#717C57" stroke-miterlimit="10"></path> <path d="M128.056 67.3136L163.149 110.156" stroke="#717C57" stroke-miterlimit="10"></path> <path d="M161.342 57.3101L197.673 91.0097" stroke="#717C57" stroke-miterlimit="10"></path> <path d="M198.403 46.5022L243.909 79.7956" stroke="#717C57" stroke-miterlimit="10"></path> <path d="M230 37.6184L272.006 63.8283" stroke="#717C57" stroke-miterlimit="10"></path> <path d="M250.388 32.1443L300.215 42.1032" stroke="#717C57" stroke-miterlimit="10"></path> <path d="M276.215 25.7535L320.887 17.3939" stroke="#717C57" stroke-miterlimit="10"></path> <path d="M281.456 1.11395L259.285 29.3668" stroke="#717C57" stroke-miterlimit="10"></path> <path d="M247.499 -1.69505L239.144 34.9931" stroke="#717C57" stroke-miterlimit="10"></path> <path d="M231.846 -11.2247L212.185 40.3568" stroke="#717C57" stroke-miterlimit="10"></path> <path d="M196.742 -0.353521L181.224 49.1355" stroke="#717C57" stroke-miterlimit="10"></path> <path d="M150.711 10.7549L139.962 59.158" stroke="#717C57" stroke-miterlimit="10"></path> <path d="M113.698 27.0948L119.027 66.5369" stroke="#717C57" stroke-miterlimit="10"></path> <path d="M87.9512 33.7648L97.9851 73.9062" stroke="#717C57" stroke-miterlimit="10"></path> <path d="M63.7681 55.9637L78.1602 77.5826" stroke="#717C57" stroke-miterlimit="10"></path> </g> <g style="mix-blend-mode:multiply" opacity="0.21"> <path d="M103.076 86.6998C107.893 85.279 112.709 83.6776 117.681 83.7499C120.728 83.7499 123.702 84.4843 126.784 84.5084C131.492 84.5084 136.067 83.0636 140.546 81.5826C149.203 78.7291 157.932 75.8394 165.831 71.264C168.456 69.7349 171.056 67.9891 174.042 67.4232C177.727 66.7369 181.555 67.9289 185.252 67.3509C190.513 66.5322 194.523 62.4024 199.195 59.8498C202.903 57.827 207.057 56.8036 211.127 55.6477C235.653 48.7365 258.481 36.9731 281.129 25.2699C266.761 28.3763 252.284 30.8446 237.7 32.6747C225.515 34.2038 213.282 35.2754 201.205 37.4909C189.186 39.648 177.387 42.888 165.951 47.1713C163.302 48.1707 160.569 49.2422 157.74 49.1339C154.91 49.0255 152.49 47.8335 149.829 47.4121C146.012 46.798 142.147 47.7251 138.403 48.6161C131.058 50.4342 123.714 52.2282 116.538 54.6363C103.149 59.1876 80.1636 67.8807 71.7835 80.0896C62.2355 93.924 96.9719 88.4938 103.076 86.6998Z" fill="#7A8C5B"></path> </g> <path d="M283.007 24.5235C288.51 18.1181 0.059082 100.378 0.059082 100.378L3.03305 106.169C3.03305 106.169 279.961 28.0514 283.007 24.5235Z" fill="#ADB797"></path> </svg> 