<?xml version="1.0" encoding="UTF-8"?> <svg xmlns="http://www.w3.org/2000/svg" width="353" height="251" viewBox="0 0 353 251" fill="none"> <path d="M199.923 120.775C206.896 163.722 205.263 207.626 195.119 249.937C170.951 213.692 154.635 172.79 147.22 129.862C139.805 86.9337 141.456 42.9289 152.065 0.676758C175.814 37.145 192.081 77.9677 199.923 120.775Z" fill="#616046"></path> <g style="mix-blend-mode:multiply" opacity="0.39"> <path d="M183.404 155.013C192.468 207.018 195.119 249.982 195.119 249.982C195.119 249.982 183.245 208.604 174.227 156.6C165.208 104.595 162.557 61.6089 162.557 61.6089C162.557 61.6089 174.385 102.986 183.404 155.013Z" fill="#616046"></path> </g> <path d="M259.427 151.614C244.691 188.359 222.791 221.805 195.004 250.004C193.205 210.429 199.704 170.915 214.084 134.002C228.465 97.088 250.409 63.591 278.506 35.6631C279.887 75.1956 273.401 114.609 259.427 151.614Z" fill="#616046"></path> <g style="mix-blend-mode:multiply" opacity="0.39"> <path d="M230.534 170.513C213.109 215.267 195.049 250.005 195.049 250.005C195.049 250.005 205.223 212.185 222.649 167.454C240.074 122.723 258.134 87.9629 258.134 87.9629C258.134 87.9629 247.915 125.782 230.534 170.513Z" fill="#616046"></path> </g> <path d="M98.8129 179.441C125.046 209.086 156.912 233.219 192.557 250.435C180.951 212.546 161.546 177.504 135.591 147.56C109.636 117.616 77.7033 93.4333 41.8457 76.5649C53.8298 114.293 73.1941 149.263 98.8129 179.441Z" fill="#616046"></path> <g style="mix-blend-mode:multiply" opacity="0.39"> <path d="M132.417 187.486C163.869 223.742 192.557 250.412 192.557 250.412C192.557 250.412 170.259 218.213 138.807 181.934C107.355 145.655 78.7129 119.03 78.7129 119.03C78.7129 119.03 100.965 151.23 132.417 187.486Z" fill="#616046"></path> </g> <path d="M88.9103 234.709C122.078 246.76 157.308 252.106 192.557 250.435C167.339 225.702 137.225 206.519 104.152 194.117C71.0785 181.714 35.7763 176.368 0.513672 178.421C25.9598 202.854 56.0072 221.987 88.9103 234.709Z" fill="#616046"></path> <g style="mix-blend-mode:multiply" opacity="0.39"> <path d="M118.663 226.733C158.749 241.779 192.557 250.436 192.557 250.436C192.557 250.436 161.4 234.71 121.314 219.663C81.2286 204.617 47.4199 195.961 47.4199 195.961C47.4199 195.961 78.7134 211.687 118.663 226.733Z" fill="#616046"></path> </g> <path d="M288.659 200.13C261.479 222.631 230.099 239.507 196.342 249.778C211.749 217.987 233.637 189.772 260.6 166.946C287.562 144.12 319.003 127.189 352.9 117.239C337.192 148.855 315.355 177.031 288.659 200.13Z" fill="#616046"></path> <g style="mix-blend-mode:multiply" opacity="0.39"> <path d="M257.954 202.623C225.256 230.245 196.342 249.778 196.342 249.778C196.342 249.778 220.384 224.49 252.992 196.844C285.6 169.199 314.604 149.689 314.604 149.689C314.604 149.689 290.63 174.977 257.954 202.623Z" fill="#616046"></path> </g> </svg> 