<?xml version="1.0" encoding="UTF-8"?> <svg xmlns="http://www.w3.org/2000/svg" width="190" height="295" viewBox="0 0 190 295" fill="none"> <path d="M3.17401 290.543C2.66831 274.289 4.37806 246.211 7.18347 241.973C9.98887 237.734 49.4692 241.395 50.3722 239.565C51.2752 237.734 20.8011 225.237 18.7542 222.202C16.7074 219.168 20.3315 198.037 25.9062 183.998C31.4809 169.959 40.6075 157.726 44.9902 147.721C49.3729 137.715 51.2271 139.172 55.682 139.196C60.1369 139.22 75.0068 146.938 76.9332 144.47C78.8597 142.002 61.4012 135.729 60.8835 131.334C60.3657 126.939 68.2762 123.207 71.0094 113.406C73.7425 103.605 84.7836 93.3707 89.6599 92.2268C94.5362 91.083 119.219 111.01 121.747 108.445C124.276 105.881 100.496 79.765 102.362 76.7549C104.229 73.7448 111.405 73.4438 116.811 64.9915C122.217 56.5392 130.501 51.097 133.667 54.0709C136.834 57.0449 161.36 80.3189 163.251 77.8506C165.141 75.3824 141.578 49.7845 140.374 44.9082C139.17 40.0318 143.793 40.8145 147.297 37.5034C150.801 34.1923 179.361 32.1093 181.829 33.3856C184.297 34.6618 153.197 119.739 135.498 153.633C117.798 187.526 59.1376 252.508 59.1376 252.508L3.17401 290.543Z" fill="#585840"></path> <path d="M3.1853 290.519C3.49835 289.797 13.6484 266.716 23.979 256.698C34.3096 246.68 33.5149 233.821 38.319 222.648C43.1231 211.474 44.6764 215.207 44.6764 215.207C44.6764 215.207 72.2126 226.416 74.705 223.888C77.1974 221.359 56.9575 215.46 58.0171 210.27C59.0766 205.081 68.2032 183.408 73.5732 181.662C78.9432 179.917 96.2693 185.094 100.592 184.071C104.914 183.047 77.9318 176.172 77.7151 170.056C77.4984 163.939 98.87 127.36 108.502 109.505C118.135 91.6488 128.044 91.0106 130.789 90.6855C133.534 90.3604 145.454 102.533 146.201 103.304C145.623 102.329 132.33 79.8011 133.354 74.7682C134.377 69.7353 148.898 55.6241 151.811 51.8915C154.725 48.159 164.309 63.2215 164.755 57.5866C165.2 51.9517 162.274 46.1844 164.755 43.1382C166.067 41.4766 171.016 38.7434 175.266 36.5762C178.878 34.7942 181.888 33.4096 181.888 33.4096C187.668 134.85 135.605 190.633 112.861 215.761C96.787 233.532 65.7952 254.025 44.6643 267.39C35.911 272.916 28.8433 277.215 25.2312 279.599C23.8345 280.526 22.4619 281.393 21.1375 282.175H21.0411C20.2826 282.633 19.5 283.066 18.7415 283.512C13.8204 286.395 8.60543 288.744 3.1853 290.519Z" fill="#7A8C5B"></path> <mask id="mask0_2863_819" style="mask-type:luminance" maskUnits="userSpaceOnUse" x="3" y="31" width="179" height="262"> <path d="M181.053 31.808C186.308 134.186 134.776 190.729 112.25 216.196C89.7243 241.663 37.765 272.792 25.5893 281.002C18.8757 285.689 11.5821 289.43 3.90674 292.124C3.90674 292.124 14.1784 268.17 24.5589 257.865C34.9394 247.56 34.0557 234.729 38.8385 223.44C43.6213 212.151 45.1367 215.888 45.1367 215.888C45.1367 215.888 72.2324 227.083 74.6998 224.52C77.1673 221.956 57.2533 216.089 58.3197 210.846C59.3861 205.603 68.4624 183.696 73.7632 181.898C79.064 180.1 96.1207 185.262 100.398 184.149C104.675 183.036 78.0712 176.287 77.9071 170.126C77.7431 163.964 98.9288 127.005 108.499 108.937C118.07 90.8689 127.84 90.181 130.548 89.8285C133.255 89.4761 145.721 102.535 145.721 102.535C145.721 102.535 132.018 78.9558 133.084 73.7246C134.15 68.4934 148.499 54.3421 151.375 50.5492C154.251 46.7563 163.647 61.9318 164.11 56.2535C164.573 50.5753 161.713 44.7418 164.171 41.6678C166.629 38.5939 181.053 31.808 181.053 31.808Z" fill="white"></path> </mask> <g mask="url(#mask0_2863_819)"> <path d="M44.1625 277.243L-16.4087 279.065" stroke="#717C57" stroke-miterlimit="10"></path> <path d="M73.7455 257.36L5.59042 247.849" stroke="#717C57" stroke-miterlimit="10"></path> <path d="M115.967 234.862L23.2452 192.855" stroke="#717C57" stroke-miterlimit="10"></path> <path d="M143.825 201.498L17.1318 139.914" stroke="#717C57" stroke-miterlimit="10"></path> <path d="M171.086 182.662L62.6064 108.866" stroke="#717C57" stroke-miterlimit="10"></path> <path d="M179.46 151.04L84.6724 43.01" stroke="#717C57" stroke-miterlimit="10"></path> <path d="M191.456 119.554L127.747 28.0438" stroke="#717C57" stroke-miterlimit="10"></path> </g> <g style="mix-blend-mode:multiply" opacity="0.21"> <path d="M112.753 215.773C96.6791 233.545 65.6872 254.037 44.5564 267.402C83.5792 241.118 113.475 211.824 121.47 195.437C131.102 175.57 137.387 165.083 147.297 141.46C157.206 117.837 159.494 118.318 165.068 95.9474C170.643 73.5765 177.217 66.0633 177.193 53.3366C176.921 47.712 176.241 42.1146 175.158 36.5885C178.77 34.8065 181.78 33.4219 181.78 33.4219C187.56 134.862 135.497 190.645 112.753 215.773Z" fill="#7A8C5B"></path> </g> <path d="M3.17358 290.543C76.981 255.47 200.094 165.54 179.384 12.4113L183.996 3.85058L188.896 0.936831C188.896 0.936831 193.881 87.82 165.851 147.829C137.821 207.838 74.9341 260.154 3.17358 290.543Z" fill="#ADB797"></path> </svg> 