<?xml version="1.0" encoding="UTF-8"?> <svg xmlns="http://www.w3.org/2000/svg" width="36" height="36" viewBox="0 0 36 36" fill="none"> <path fill-rule="evenodd" clip-rule="evenodd" d="M17.865 0C17.8558 0 17.8467 0.000247093 17.8377 0.000734988C17.8286 0.000247095 17.8195 0 17.8103 0C16.8979 0 16.409 0.746945 16.1653 1.38692C15.9585 1.93 15.8612 2.55057 15.8262 3.05689C15.5145 3.13644 15.2559 3.2999 15.0705 3.54961C14.8335 3.86862 14.769 4.25853 14.7725 4.60821C14.7782 5.16356 14.9575 5.774 15.1568 6.26581C14.9584 6.39946 14.7949 6.56664 14.6689 6.7647C14.4777 7.06533 14.3908 7.40868 14.3704 7.75812C14.3304 8.44347 14.5417 9.22992 14.8501 9.99598C15.4596 11.5102 16.5365 13.1543 17.3641 14.2397V15.7756L15.1473 13.7123C14.9114 12.373 14.4471 10.5168 13.7696 9.07218C13.4189 8.32453 12.9871 7.63409 12.4582 7.19644C12.1885 6.97329 11.878 6.80294 11.5277 6.7381C11.2969 6.69538 11.0631 6.7012 10.8301 6.75537C10.6059 6.27438 10.2812 5.72724 9.8785 5.34475C9.62495 5.10392 9.29556 4.88552 8.90062 4.84161C8.59148 4.80724 8.29563 4.88518 8.02502 5.05917C7.63059 4.73979 7.11 4.38826 6.57158 4.16964C5.93708 3.91201 5.05725 3.76097 4.43561 4.42888C4.42881 4.43618 4.42228 4.44363 4.416 4.45122C4.41073 4.45641 4.40554 4.46174 4.40045 4.46721C3.77881 5.13513 3.99251 6.00187 4.29495 6.61627C4.5516 7.13764 4.93954 7.6317 5.28636 8.00223C5.13221 8.28461 5.07568 8.58528 5.13212 8.89116C5.20421 9.28194 5.44566 9.59484 5.70404 9.83047C6.11441 10.2047 6.68341 10.4893 7.17924 10.6785C7.1419 10.9148 7.15285 11.1484 7.212 11.3755C7.30179 11.7203 7.49395 12.0178 7.73585 12.2708C8.21028 12.767 8.92989 13.1482 9.70075 13.4444C11.2247 14.0299 13.1624 14.3619 14.5208 14.4954L16.8036 16.62C14.3742 16.9851 11.8944 18.1618 10.3674 19.8524C9.43022 20.89 8.82836 22.1498 8.86362 23.5516C8.89894 24.9553 9.57089 26.4145 11.0099 27.8536C12.345 29.1887 13.3581 30.1431 14.1406 30.865C14.4122 31.1155 14.6535 31.3358 14.8697 31.5331L14.8698 31.5332C15.2822 31.9097 15.603 32.2026 15.8681 32.4628C16.2632 32.8505 16.5032 33.1361 16.6999 33.4693C16.9005 33.8091 17.0689 34.2199 17.2943 34.8774C17.3893 35.1547 17.6406 35.2787 17.8505 35.2857C18.0596 35.2925 18.3141 35.187 18.4299 34.924C18.9137 33.8257 20.6718 31.1665 24.6801 27.887C26.1342 26.6973 26.8755 25.3662 27.017 24.0129C27.1578 22.6663 26.6967 21.3737 25.8928 20.2684C24.4208 18.2443 21.73 16.7467 19.0379 16.5277L20.9259 14.6397C22.2731 14.4521 24.1465 14.0546 25.6157 13.4287C26.3755 13.1051 27.0809 12.6984 27.5373 12.1855C27.7699 11.924 27.9513 11.6198 28.0287 11.272C28.0796 11.0429 28.0822 10.809 28.0364 10.5742C28.5252 10.3674 29.0836 10.0625 29.4803 9.67385C29.73 9.4291 29.9601 9.10775 30.0181 8.71464C30.0636 8.40693 29.9963 8.10847 29.8321 7.8318C30.1654 7.44907 30.5354 6.94142 30.7732 6.41119C31.0534 5.78634 31.2359 4.91249 30.5907 4.2673L30.5785 4.25552C30.5706 4.24636 30.5623 4.23742 30.5536 4.22872C29.9084 3.58353 29.0346 3.76602 28.4097 4.04623C27.8795 4.28402 27.3718 4.65399 26.9891 4.98731C26.7124 4.82314 26.414 4.75586 26.1063 4.80129C25.7131 4.85933 25.3918 5.08939 25.147 5.33917C24.7584 5.73585 24.4535 6.29428 24.2467 6.783C24.0119 6.73722 23.778 6.73979 23.5489 6.79076C23.2011 6.86812 22.8969 7.04949 22.6354 7.28216C22.1225 7.7385 21.7158 8.44398 21.3922 9.20372C20.7524 10.7055 20.3513 12.6296 20.1691 13.9823L18.3641 15.7873V14.17C19.1843 13.0848 20.2287 11.4781 20.8253 9.99598C21.1337 9.22992 21.3449 8.44347 21.3049 7.75812C21.2845 7.40868 21.1977 7.06533 21.0065 6.7647C20.8805 6.56664 20.7169 6.39946 20.5185 6.26581C20.7179 5.774 20.8972 5.16356 20.9028 4.60821C20.9064 4.25853 20.8418 3.86862 20.6049 3.54961C20.4194 3.2999 20.1608 3.13644 19.8491 3.05689C19.8142 2.55057 19.7168 1.93 19.51 1.38692C19.2663 0.746945 18.7775 0 17.865 0ZM5.13246 5.14851C5.13925 5.14121 5.14579 5.13376 5.15206 5.12617C5.15734 5.12098 5.16252 5.11565 5.16761 5.11018C5.33712 4.92805 5.64684 4.87345 6.19537 5.09617C6.71416 5.30682 7.25358 5.69911 7.61209 6.0204C7.86329 6.24552 8.22335 6.20869 8.43671 6.00407C8.60994 5.83793 8.72329 5.82806 8.79013 5.83549C8.88189 5.84569 9.01721 5.90586 9.1898 6.0698C9.53844 6.40097 9.85476 6.97941 10.0502 7.47069C10.1904 7.82306 10.5851 7.92627 10.871 7.79429C11.0549 7.70937 11.2088 7.69607 11.3457 7.7214C11.4883 7.7478 11.6466 7.82285 11.8207 7.96689C12.1793 8.26362 12.5349 8.79472 12.8642 9.49681C13.2901 10.4048 13.632 11.5105 13.8788 12.5317L11.3669 10.1938C11.1647 10.0057 10.8484 10.017 10.6602 10.2192C10.4721 10.4213 10.4834 10.7377 10.6856 10.9258L13.2601 13.322C12.1965 13.1494 11.0261 12.8823 10.0594 12.5109C9.33552 12.2328 8.7803 11.9162 8.45864 11.5798C8.30249 11.4164 8.21628 11.2639 8.17973 11.1235C8.14466 10.9889 8.1469 10.8344 8.21841 10.6449C8.32956 10.3502 8.19834 9.96394 7.83682 9.84937C7.3328 9.68964 6.73317 9.41559 6.37787 9.09158C6.20198 8.93118 6.13227 8.80052 6.11552 8.70973C6.10332 8.64359 6.10504 8.52982 6.25833 8.34513C6.44714 8.11766 6.45807 7.75589 6.21553 7.52147C5.86937 7.1869 5.43943 6.67699 5.19214 6.17462C4.93068 5.64347 4.96295 5.33064 5.13246 5.14851ZM21.387 12.7644L23.8738 10.2775C24.0691 10.0823 24.3857 10.0823 24.5809 10.2775C24.7762 10.4728 24.7762 10.7894 24.5809 10.9847L22.151 13.4146C23.1814 13.2045 24.3001 12.9022 25.2238 12.5087C25.9373 12.2048 26.4808 11.8685 26.7902 11.5208C26.9404 11.352 27.021 11.1964 27.0525 11.0549C27.0828 10.919 27.075 10.7647 26.9967 10.5779C26.8751 10.2874 26.9924 9.89667 27.3495 9.76921C27.8475 9.59151 28.4369 9.29614 28.7804 8.95959C28.9504 8.79299 29.0154 8.65992 29.0289 8.56858C29.0387 8.50205 29.0329 8.38842 28.8731 8.20934C28.6762 7.98878 28.6523 7.62764 28.8863 7.38467C29.2203 7.03791 29.6316 6.5129 29.8607 6.002C30.103 5.46181 30.0595 5.15033 29.8836 4.9744C29.8749 4.96571 29.8666 4.95677 29.8587 4.94761L29.8465 4.93583C29.6706 4.7599 29.3591 4.71643 28.8189 4.95868C28.308 5.1878 27.783 5.59918 27.4362 5.93312C27.1933 6.16709 26.8321 6.1432 26.6116 5.94636C26.4325 5.78654 26.3188 5.78074 26.2523 5.79056C26.161 5.80405 26.0279 5.86903 25.8613 6.03905C25.5248 6.38251 25.2294 6.97192 25.0517 7.4699C24.9242 7.82707 24.5335 7.94436 24.243 7.82271C24.0562 7.74445 23.9019 7.73668 23.766 7.7669C23.6245 7.79839 23.4689 7.87907 23.3001 8.02926C22.9524 8.33866 22.6161 8.88217 22.3122 9.59562C21.9064 10.5481 21.5976 11.7079 21.387 12.7644ZM17.8103 1C17.8195 1 17.8286 0.999753 17.8377 0.999265C17.8467 0.999753 17.8558 1 17.865 1C18.1138 1 18.3648 1.18951 18.5755 1.74278C18.7747 2.26606 18.8551 2.92818 18.8641 3.40951C18.8705 3.74676 19.1428 3.98523 19.4379 4.002C19.6775 4.01562 19.762 4.09186 19.8021 4.14586C19.8571 4.21997 19.9053 4.36002 19.9029 4.59805C19.898 5.07889 19.6901 5.70453 19.4636 6.1823C19.3012 6.52498 19.4945 6.88421 19.7859 7.00358C19.9734 7.08038 20.088 7.18397 20.1627 7.3014C20.2405 7.42378 20.2935 7.59081 20.3066 7.81638C20.3337 8.28105 20.1872 8.90317 19.8976 9.62255C19.5224 10.5546 18.9446 11.5602 18.3641 12.4377V8C18.3641 7.72386 18.1403 7.5 17.8641 7.5C17.588 7.5 17.3641 7.72386 17.3641 8V12.5173C16.766 11.6213 16.1643 10.5829 15.7777 9.62255C15.4881 8.90317 15.3416 8.28105 15.3687 7.81638C15.3819 7.59081 15.4348 7.42378 15.5127 7.3014C15.5874 7.18397 15.7019 7.08038 15.8894 7.00358C16.1808 6.88421 16.3742 6.52498 16.2117 6.1823C15.9853 5.70453 15.7774 5.07889 15.7725 4.59805C15.7701 4.36002 15.8182 4.21997 15.8733 4.14586C15.9134 4.09186 15.9978 4.01562 16.2374 4.002C16.5326 3.98523 16.8048 3.74676 16.8112 3.40951C16.8203 2.92818 16.9006 2.26606 17.0999 1.74278C17.3105 1.18951 17.5615 1 17.8103 1ZM11.717 27.1464C10.406 25.8355 9.89049 24.6072 9.86331 23.5265C9.83607 22.4439 10.2967 21.4225 11.1095 20.5226C12.7521 18.7041 15.7349 17.5 18.3635 17.5C20.9553 17.5 23.6792 18.9249 25.0841 20.8566C25.7802 21.8138 26.1316 22.865 26.0224 23.9089C25.9139 24.9463 25.3428 26.0527 24.0468 27.113C20.6705 29.8755 18.8001 32.2528 17.9326 33.7219C17.8162 33.439 17.6971 33.1915 17.5611 32.961C17.3027 32.5233 16.9958 32.1683 16.5685 31.749C16.2906 31.4763 15.9483 31.1638 15.5249 30.7772L15.5247 30.7771C15.3108 30.5817 15.0762 30.3675 14.8187 30.13C14.0442 29.4155 13.041 28.4705 11.717 27.1464Z" fill="#FFDC20"></path> </svg> 