<?xml version="1.0" encoding="UTF-8"?> <svg xmlns="http://www.w3.org/2000/svg" width="446" height="462" viewBox="0 0 446 462" fill="none"> <path d="M398.003 82.2312C398.728 49.986 304.077 -2.6078 284.884 6.43354C265.691 15.4749 234.421 91.6351 213.437 94.9208C192.454 98.2065 267.3 26.9408 253.455 10.4216C239.61 -6.09749 164.424 0.677862 159.371 12.9143C154.317 25.1507 133.289 71.1505 123.794 70.9466C114.3 70.7426 145.027 17.3103 137.572 11.4414C130.117 5.57244 53.2538 -0.409793 46.4332 11.1695C36.3721 28.1418 16.9753 89.2558 26.2885 98.977C35.6018 108.698 79.5395 94.4449 84.5021 86.1287C89.4646 77.8125 101.52 88.3947 81.2843 102.195C61.0489 115.995 25.8806 116.063 21.8018 127.37C17.723 138.677 -7.81477 207.654 2.90341 219.551C13.6216 231.447 83.0744 185.81 92.501 187.94C101.928 190.07 109.088 209.218 79.4261 218.962C49.7642 228.705 0.00283678 244.59 2.38214 258.889C4.76144 273.187 31.5457 349.8 42.717 359.567C53.8884 369.333 113.529 336.567 126.355 316.944C139.181 297.32 158.079 278.286 161.047 285.22C164.016 292.153 116.883 359.476 88.8528 380.618C60.8223 401.76 73.1494 401.012 83.301 413.724C93.4527 426.437 153.184 469.491 164.877 456.506C176.57 443.522 212.712 362.671 211.421 337.949C210.129 313.227 226.24 353.517 220.099 372.37C213.959 391.223 191.004 437.2 201.042 453.583C211.081 469.967 254.611 458.115 281.553 452.858C308.496 447.601 342.985 394.305 345.591 365.866C345.591 365.866 421.569 363.85 433.647 316.218C445.725 268.587 443.119 258.05 430.951 251.116C418.782 244.182 363.288 261.834 350.281 250.119C337.274 238.404 411.078 247.853 433.375 228.388C455.673 208.923 443.255 133.669 429.455 115.292C415.655 96.9149 333.263 166.164 312.53 159.978C291.796 153.791 397.278 114.454 398.003 82.2312ZM202.946 262.038C202.973 263.99 202.481 265.914 201.518 267.613C199.252 271.827 196.692 276.337 192.341 278.308C191.528 278.727 190.627 278.946 189.712 278.946C188.798 278.946 187.897 278.727 187.084 278.308C184.818 276.971 184.614 273.776 184.705 271.238C184.818 264.44 189.237 259.908 194.358 255.988C195.192 255.194 196.288 254.734 197.439 254.696C198.199 254.797 198.914 255.111 199.502 255.603C200.545 256.325 201.402 257.286 202 258.405C202.599 259.524 202.923 260.769 202.946 262.038ZM173.103 209.241C174.746 214.663 174.746 220.451 173.103 225.873C172.239 228.553 170.738 230.983 168.729 232.957C166.721 234.93 164.263 236.387 161.569 237.203C157.716 238.223 153.66 237.588 149.695 237.634C145.163 237.634 140.291 238.54 136.529 236.07C135.838 235.683 135.296 235.077 134.988 234.348C134.785 233.759 134.83 233.079 134.671 232.444C134.218 230.677 132.247 229.725 131.272 228.139C129.663 225.578 131.091 222.27 132.519 219.619C135.147 214.588 137.98 205.298 142.648 201.921C147.31 199.119 152.334 196.969 157.581 195.531C159.47 195.207 161.41 195.364 163.224 195.985C165.037 196.607 166.665 197.674 167.959 199.089C170.535 201.962 172.309 205.464 173.103 209.241ZM309.199 203.122C309.568 203.909 309.76 204.768 309.76 205.638C309.76 206.507 309.568 207.366 309.199 208.153C307.386 213.047 302.831 216.401 298.209 218.939C289.646 223.575 280.17 226.274 270.45 226.847C268.184 227.006 265.578 226.847 264.445 224.876C263.845 223.54 263.772 222.026 264.241 220.639C266.847 210.328 276.636 203.621 286.629 202.103L296.418 200.607C299.758 199.767 303.266 199.877 306.547 200.924C307.643 201.355 308.573 202.125 309.199 203.122ZM254.815 132.876C255.01 136.529 254.136 140.159 252.299 143.323C247.926 152.137 225.493 179.873 213.777 165.983C212.917 164.874 212.355 163.563 212.146 162.176C211.194 156.511 214.412 150.982 218.015 146.518C224.268 138.709 231.96 132.171 240.675 127.257C242.906 125.739 245.571 124.991 248.266 125.127C250.008 125.552 251.575 126.509 252.749 127.865C253.922 129.221 254.644 130.91 254.815 132.695V132.876Z" fill="#A5BD7B"></path> <mask id="mask0_2829_3921" style="mask-type:luminance" maskUnits="userSpaceOnUse" x="0" y="0" width="446" height="462"> <path d="M398.003 82.2312C398.728 49.986 304.077 -2.6078 284.884 6.43354C265.691 15.4749 234.421 91.6351 213.437 94.9208C192.454 98.2065 267.3 26.9408 253.455 10.4216C239.61 -6.09749 164.424 0.677862 159.371 12.9143C154.317 25.1507 133.289 71.1505 123.794 70.9466C114.3 70.7426 145.027 17.3103 137.572 11.4414C130.117 5.57244 53.2538 -0.409793 46.4332 11.1695C36.3721 28.1418 16.9753 89.2558 26.2885 98.977C35.6018 108.698 79.5395 94.4449 84.5021 86.1287C89.4646 77.8125 101.52 88.3947 81.2843 102.195C61.0489 115.995 25.8806 116.063 21.8018 127.37C17.723 138.677 -7.81477 207.654 2.90341 219.551C13.6216 231.447 83.0744 185.81 92.501 187.94C101.928 190.07 109.088 209.218 79.4261 218.962C49.7642 228.705 0.00283678 244.59 2.38214 258.889C4.76144 273.187 31.5457 349.8 42.717 359.567C53.8884 369.333 113.529 336.567 126.355 316.944C139.181 297.32 158.079 278.286 161.047 285.22C164.016 292.153 116.883 359.476 88.8528 380.618C60.8223 401.76 73.1494 401.012 83.301 413.724C93.4527 426.437 153.184 469.491 164.877 456.506C176.57 443.522 212.712 362.671 211.421 337.949C210.129 313.227 226.24 353.517 220.099 372.37C213.959 391.223 191.004 437.2 201.042 453.583C211.081 469.967 254.611 458.115 281.553 452.858C308.496 447.601 342.985 394.305 345.591 365.866C345.591 365.866 421.569 363.85 433.647 316.218C445.725 268.587 443.119 258.05 430.951 251.116C418.782 244.182 363.288 261.834 350.281 250.119C337.274 238.404 411.078 247.853 433.375 228.388C455.673 208.923 443.255 133.669 429.455 115.292C415.655 96.9149 333.263 166.164 312.53 159.978C291.796 153.791 397.278 114.454 398.003 82.2312ZM202.946 262.038C202.973 263.99 202.481 265.914 201.518 267.613C199.252 271.827 196.692 276.337 192.341 278.308C191.528 278.727 190.627 278.946 189.712 278.946C188.798 278.946 187.897 278.727 187.084 278.308C184.818 276.971 184.614 273.776 184.705 271.238C184.818 264.44 189.237 259.908 194.358 255.988C195.192 255.194 196.288 254.734 197.439 254.696C198.199 254.797 198.914 255.111 199.502 255.603C200.545 256.325 201.402 257.286 202 258.405C202.599 259.524 202.923 260.769 202.946 262.038ZM173.103 209.241C174.746 214.663 174.746 220.451 173.103 225.873C172.239 228.553 170.738 230.983 168.729 232.957C166.721 234.93 164.263 236.387 161.569 237.203C157.716 238.223 153.66 237.588 149.695 237.634C145.163 237.634 140.291 238.54 136.529 236.07C135.838 235.683 135.296 235.077 134.988 234.348C134.785 233.759 134.83 233.079 134.671 232.444C134.218 230.677 132.247 229.725 131.272 228.139C129.663 225.578 131.091 222.27 132.519 219.619C135.147 214.588 137.98 205.298 142.648 201.921C147.31 199.119 152.334 196.969 157.581 195.531C159.47 195.207 161.41 195.364 163.224 195.985C165.037 196.607 166.665 197.674 167.959 199.089C170.535 201.962 172.309 205.464 173.103 209.241ZM309.199 203.122C309.568 203.909 309.76 204.768 309.76 205.638C309.76 206.507 309.568 207.366 309.199 208.153C307.386 213.047 302.831 216.401 298.209 218.939C289.646 223.575 280.17 226.274 270.45 226.847C268.184 227.006 265.578 226.847 264.445 224.876C263.845 223.54 263.772 222.026 264.241 220.639C266.847 210.328 276.636 203.621 286.629 202.103L296.418 200.607C299.758 199.767 303.266 199.877 306.547 200.924C307.643 201.355 308.573 202.125 309.199 203.122ZM254.815 132.876C255.01 136.529 254.136 140.159 252.299 143.323C247.926 152.137 225.493 179.873 213.777 165.983C212.917 164.874 212.355 163.563 212.146 162.176C211.194 156.511 214.412 150.982 218.015 146.518C224.268 138.709 231.96 132.171 240.675 127.257C242.906 125.739 245.571 124.991 248.266 125.127C250.008 125.552 251.575 126.509 252.749 127.865C253.922 129.221 254.644 130.91 254.815 132.695V132.876Z" fill="white"></path> </mask> <g mask="url(#mask0_2829_3921)"> <path d="M-16.881 81.2112L93.6545 65.5078" stroke="#9EAD7A" stroke-miterlimit="10"></path> <path d="M-33.8983 193.151L146.951 128.23" stroke="#9EAD7A" stroke-miterlimit="10"></path> <path d="M-7.95282 326.958L185.518 176.269" stroke="#9EAD7A" stroke-miterlimit="10"></path> <path d="M89.0538 447.17C100.271 438.423 236.049 237.633 236.049 237.633" stroke="#9EAD7A" stroke-miterlimit="10"></path> <path d="M220.641 507.332L279.965 307.97" stroke="#9EAD7A" stroke-miterlimit="10"></path> <path d="M321.456 327.23L478.762 296.458" stroke="#9EAD7A" stroke-miterlimit="10"></path> <path d="M258.121 268.428L485.333 147.582" stroke="#9EAD7A" stroke-miterlimit="10"></path> <path d="M207.703 199.541L407.586 -18.0176" stroke="#9EAD7A" stroke-miterlimit="10"></path> <path d="M161.703 151.276L222.432 -19.8975" stroke="#9EAD7A" stroke-miterlimit="10"></path> <path d="M84.8415 54.5627L107.887 -37.7314" stroke="#9EAD7A" stroke-miterlimit="10"></path> </g> <g style="mix-blend-mode:multiply" opacity="0.21"> <path d="M153.092 110.216C159.89 106.749 162.746 94.1499 166.031 85.4258C169.453 76.3618 174.823 66.9352 183.933 63.5362C185.466 64.1745 186.8 65.2142 187.793 66.5461C188.785 67.8779 189.401 69.4526 189.575 71.1047C189.893 74.4127 189.616 77.7509 188.759 80.9618C185.587 97.0504 180.738 115.79 180.012 131.969C179.287 148.149 194.379 159.637 202.333 171.783C206.525 178.173 209.584 186.331 216.767 188.891C233.989 195.032 247.562 162.311 264.58 168.928L244.571 201.014C240.039 208.379 241.988 226.235 250.78 231.424C252.547 232.489 254.7 232.738 256.558 233.69C261.521 236.137 263.22 242.301 267.072 246.244C272.488 251.773 281.552 252.09 288.826 249.416C296.1 246.742 302.15 241.666 308.54 237.293C314.93 232.92 322.136 229.068 329.954 229.43C326.033 241.644 309.038 243.366 300.632 253.042C290.48 264.734 298.547 277.175 307.702 286.647C310.151 289.402 313.128 291.639 316.455 293.227C319.782 294.814 323.393 295.721 327.076 295.892C332.741 295.892 338.587 293.626 343.89 295.507C350.28 297.886 352.954 305.5 353.452 312.298C353.951 319.096 352.772 326.143 354.925 332.692C355.809 335.343 357.191 337.813 358.052 340.487C359.205 344.579 358.997 348.935 357.46 352.899C355.924 356.863 353.141 360.221 349.532 362.467C338.053 369.38 325.535 374.399 312.46 377.332C303.94 379.235 294.332 384.379 293.947 393.194C285.789 394.531 278.085 387.892 275.388 380.051C272.692 372.211 274.369 363.623 276.612 355.692C278.289 349.8 280.374 343.795 279.49 337.745C278.887 334.48 277.794 331.325 276.25 328.386C267.773 310.44 255.873 294.321 241.217 280.936C239.112 278.703 236.404 277.129 233.422 276.404C225.763 275.271 221.072 284.177 217.56 291.043C211.017 303.399 200.696 313.34 188.102 319.413C187.74 304.956 196.464 292.108 203.556 279.531C208.881 270.127 213.141 259.84 212.847 248.872C212.416 233.01 203.398 230.042 192.045 220.91C180.692 211.778 175.435 196.664 165.555 185.742C161.182 180.915 149.875 172.825 142.895 175.386C141.054 176.389 138.987 176.904 136.891 176.882C134.917 176.279 133.171 175.094 131.883 173.483C128.24 170.047 123.848 167.507 119.053 166.063C114.259 164.62 109.194 164.313 104.26 165.166C101.065 165.756 97.9833 166.821 94.7883 167.296C90.9413 167.845 87.0205 167.541 83.3042 166.406C79.5878 165.27 76.1669 163.331 73.2839 160.725C72.8385 160.404 72.4708 159.986 72.2081 159.504C71.9453 159.022 71.794 158.486 71.7656 157.938C71.7656 156.692 73.1026 155.921 74.1903 155.332C80.9819 151.746 88.2106 149.057 95.6947 147.333C99.6602 146.427 104.011 145.611 106.685 142.552C109.359 139.493 109.653 134.53 109.291 130.202C108.339 118.396 106.05 106.046 104.192 94.3539C103.916 92.1026 103.384 89.8902 102.606 87.7598C101.3 85.1312 99.7197 82.6475 97.8927 80.35C93.2078 73.5389 90.2737 65.6783 89.3498 57.4634C110.378 66.9806 120.711 94.5351 140.154 107.791C145.683 111.507 149.852 111.915 153.092 110.216Z" fill="#A5BD7B"></path> </g> <path d="M72.1738 37.9082C159.755 170.311 405.276 458.342 405.276 458.342L426.825 437.948L72.1738 37.9082Z" fill="#DCE8C0"></path> </svg> 