<?xml version="1.0" encoding="UTF-8"?> <svg xmlns="http://www.w3.org/2000/svg" width="378" height="308" viewBox="0 0 378 308" fill="none"> <g opacity="0.29"> <path d="M232.484 297.711C251.949 307.41 311.205 264.741 311.205 250.442C311.205 236.144 273.702 195.084 277.691 181.488C281.679 167.892 303.749 233.878 317.776 230.162C331.803 226.446 349.273 178.588 343.223 171.994C337.173 165.399 315.193 139.363 318.025 133.63C320.858 127.897 344.673 161.978 350.406 159.123C356.139 156.268 381.745 111.061 376.737 103.583C369.26 92.5476 337.536 63.2029 328.925 66.0807C320.314 68.9585 316.348 99.8441 320.065 105.282C323.781 110.721 313.765 115.026 311.182 98.7111C308.599 82.3959 318.637 60.9369 312.881 55.1812C307.126 49.4256 272.479 14.1213 262.055 17.2031C251.632 20.2848 259.653 75.8245 255.642 80.9683C251.631 86.1122 237.9 84.9791 240.46 64.0866C243.021 43.1941 247.621 8.25238 238.194 5.66914C228.768 3.0859 174.361 -2.62441 165.184 1.38641C156.006 5.39723 158.907 51.2384 167.2 64.6758C175.494 78.1132 181.68 95.1535 176.582 94.9495C171.483 94.7456 144.019 46.6384 139.147 23.4346C134.275 0.230737 131.126 7.98047 120.543 10.5637C109.961 13.147 66.4313 37.1892 71.0086 48.066C75.5859 58.9428 114.538 104.172 129.925 110.472C145.311 116.771 116.17 115.004 106.426 105.94C96.6824 96.8756 75.2234 69.6836 62.3299 71.0206C49.4363 72.3575 44.2019 102.405 39.6699 120.351C35.1379 138.298 57.7979 174.735 74.385 184.389C74.385 184.389 53.8097 231.34 79.4155 252.369C105.021 273.397 112.182 274.847 119.909 269.409C127.636 263.97 132.78 225.041 143.657 220.463C154.533 215.886 127.636 258.237 133.074 277.408C138.513 296.578 188.116 310.65 203.298 307.41C218.48 304.169 199.853 234.127 209.529 223.25C219.205 212.374 213.042 287.99 232.484 297.711ZM178.689 127.104C177.491 126.559 176.465 125.697 175.72 124.611C173.517 122.225 172.149 119.187 171.823 115.955C171.781 115.335 171.892 114.713 172.144 114.144C172.397 113.576 172.785 113.078 173.273 112.692C174.089 112.357 174.977 112.235 175.854 112.338C176.73 112.441 177.565 112.766 178.281 113.281C182.337 115.276 183.901 119.309 184.807 123.546C185.097 124.274 185.097 125.085 184.807 125.812C184.525 126.253 184.124 126.607 183.651 126.832C182.905 127.267 182.066 127.518 181.203 127.565C180.34 127.613 179.479 127.455 178.689 127.104ZM219.477 124.045C215.698 123.486 212.172 121.814 209.348 119.241C207.962 117.949 206.91 116.34 206.283 114.552C205.655 112.764 205.471 110.851 205.745 108.976C206.482 106.399 207.54 103.924 208.895 101.612C210.141 98.8471 211.025 95.6067 213.608 94.0205C214.048 93.7186 214.57 93.5603 215.104 93.5673C215.525 93.6672 215.941 93.7881 216.35 93.9298C217.574 94.1564 218.729 93.2274 219.975 93.0914C221.992 92.8421 223.601 94.6549 224.825 96.2865C227.091 99.3456 231.985 103.742 232.688 107.616C233.076 111.264 232.954 114.948 232.325 118.561C231.974 119.808 231.318 120.948 230.416 121.878C229.514 122.808 228.395 123.498 227.159 123.886C224.669 124.6 222.036 124.647 219.522 124.022L219.477 124.045ZM184.309 208.793C183.723 208.788 183.145 208.658 182.614 208.412C182.083 208.165 181.61 207.809 181.227 207.366C178.973 204.597 177.762 201.124 177.805 197.554C177.438 190.996 178.513 184.436 180.955 178.338C181.499 176.956 182.383 175.393 183.855 175.234C184.849 175.25 185.798 175.648 186.507 176.344C192.058 180.876 193.305 188.785 191.401 195.311L189.498 201.723C189.067 204.004 187.989 206.112 186.393 207.796C185.83 208.353 185.096 208.704 184.309 208.793ZM242.794 195.809C240.524 194.86 238.569 193.289 237.152 191.277C233.028 186.065 222.536 164.425 234.365 161.298C235.286 161.06 236.253 161.06 237.174 161.298C240.913 162.34 243.338 165.83 245.037 169.388C248.029 175.461 249.821 182.055 250.317 188.807C250.62 190.602 250.308 192.446 249.433 194.042C248.659 195.005 247.598 195.696 246.404 196.014C245.209 196.332 243.945 196.26 242.794 195.809Z" fill="#ADB797"></path> <path d="M232.484 297.711C251.949 307.41 311.205 264.741 311.205 250.442C311.205 236.144 273.702 195.084 277.691 181.488C281.679 167.892 303.749 233.878 317.776 230.162C331.803 226.446 349.273 178.588 343.223 171.994C337.173 165.399 315.193 139.363 318.025 133.63C320.858 127.897 344.673 161.978 350.406 159.123C356.139 156.268 381.745 111.061 376.737 103.583C369.26 92.5476 337.536 63.2029 328.925 66.0807C320.314 68.9585 316.348 99.8441 320.065 105.282C323.781 110.721 313.765 115.026 311.182 98.7111C308.599 82.3959 318.637 60.9369 312.881 55.1812C307.126 49.4256 272.479 14.1213 262.055 17.2031C251.632 20.2848 259.653 75.8245 255.642 80.9683C251.631 86.1122 237.9 84.9791 240.46 64.0866C243.021 43.1941 247.621 8.25238 238.194 5.66914C228.768 3.0859 174.361 -2.62441 165.184 1.38641C156.006 5.39723 158.907 51.2384 167.2 64.6758C175.494 78.1132 181.68 95.1535 176.582 94.9495C171.483 94.7456 144.019 46.6384 139.147 23.4346C134.275 0.230737 131.126 7.98047 120.543 10.5637C109.961 13.147 66.4313 37.1892 71.0086 48.066C75.5859 58.9428 114.538 104.172 129.925 110.472C145.311 116.771 116.17 115.004 106.426 105.94C96.6824 96.8756 75.2234 69.6836 62.3299 71.0206C49.4363 72.3575 44.2019 102.405 39.6699 120.351C35.1379 138.298 57.7979 174.735 74.385 184.389C74.385 184.389 53.8097 231.34 79.4155 252.369C105.021 273.397 112.182 274.847 119.909 269.409C127.636 263.97 132.78 225.041 143.657 220.463C154.533 215.886 127.636 258.237 133.074 277.408C138.513 296.578 188.116 310.65 203.298 307.41C218.48 304.169 199.853 234.127 209.529 223.25C219.205 212.374 213.042 287.99 232.484 297.711ZM178.689 127.104C177.491 126.559 176.465 125.697 175.72 124.611C173.517 122.225 172.149 119.187 171.823 115.955C171.781 115.335 171.892 114.713 172.144 114.144C172.397 113.576 172.785 113.078 173.273 112.692C174.089 112.357 174.977 112.235 175.854 112.338C176.73 112.441 177.565 112.766 178.281 113.281C182.337 115.276 183.901 119.309 184.807 123.546C185.097 124.274 185.097 125.085 184.807 125.812C184.525 126.253 184.124 126.607 183.651 126.832C182.905 127.267 182.066 127.518 181.203 127.565C180.34 127.613 179.479 127.455 178.689 127.104ZM219.477 124.045C215.698 123.486 212.172 121.814 209.348 119.241C207.962 117.949 206.91 116.34 206.283 114.552C205.655 112.764 205.471 110.851 205.745 108.976C206.482 106.399 207.54 103.924 208.895 101.612C210.141 98.8471 211.025 95.6067 213.608 94.0205C214.048 93.7186 214.57 93.5603 215.104 93.5673C215.525 93.6672 215.941 93.7881 216.35 93.9298C217.574 94.1564 218.729 93.2274 219.975 93.0914C221.992 92.8421 223.601 94.6549 224.825 96.2865C227.091 99.3456 231.985 103.742 232.688 107.616C233.076 111.264 232.954 114.948 232.325 118.561C231.974 119.808 231.318 120.948 230.416 121.878C229.514 122.808 228.395 123.498 227.159 123.886C224.669 124.6 222.036 124.647 219.522 124.022L219.477 124.045ZM184.309 208.793C183.723 208.788 183.145 208.658 182.614 208.412C182.083 208.165 181.61 207.809 181.227 207.366C178.973 204.597 177.762 201.124 177.805 197.554C177.438 190.996 178.513 184.436 180.955 178.338C181.499 176.956 182.383 175.393 183.855 175.234C184.849 175.25 185.798 175.648 186.507 176.344C192.058 180.876 193.305 188.785 191.401 195.311L189.498 201.723C189.067 204.004 187.989 206.112 186.393 207.796C185.83 208.353 185.096 208.704 184.309 208.793ZM242.794 195.809C240.524 194.86 238.569 193.289 237.152 191.277C233.028 186.065 222.536 164.425 234.365 161.298C235.286 161.06 236.253 161.06 237.174 161.298C240.913 162.34 243.338 165.83 245.037 169.388C248.029 175.461 249.821 182.055 250.317 188.807C250.62 190.602 250.308 192.446 249.433 194.042C248.659 195.005 247.598 195.696 246.404 196.014C245.209 196.332 243.945 196.26 242.794 195.809Z" fill="#ADB797"></path> <mask id="mask0_2829_3808" style="mask-type:luminance" maskUnits="userSpaceOnUse" x="39" y="0" width="339" height="308"> <path d="M232.483 297.711C251.948 307.41 311.204 264.741 311.204 250.442C311.204 236.144 273.702 195.084 277.69 181.488C281.678 167.892 303.749 233.878 317.776 230.162C331.802 226.446 349.273 178.588 343.223 171.994C337.173 165.399 315.192 139.363 318.025 133.63C320.857 127.897 344.673 161.978 350.406 159.123C356.139 156.268 381.745 111.061 376.737 103.583C369.259 92.5476 337.535 63.2029 328.924 66.0807C320.313 68.9585 316.348 99.8441 320.064 105.282C323.78 110.721 313.765 115.026 311.181 98.7111C308.598 82.3959 318.637 60.9369 312.881 55.1812C307.125 49.4256 272.478 14.1213 262.055 17.2031C251.631 20.2848 259.653 75.8245 255.642 80.9683C251.631 86.1122 237.899 84.9791 240.46 64.0866C243.02 43.1941 247.62 8.25238 238.194 5.66914C228.767 3.0859 174.36 -2.62441 165.183 1.38641C156.006 5.39723 158.906 51.2384 167.2 64.6758C175.493 78.1132 181.68 95.1535 176.581 94.9495C171.483 94.7456 144.019 46.6384 139.147 23.4346C134.275 0.230737 131.125 7.98047 120.543 10.5637C109.961 13.147 66.4308 37.1892 71.0081 48.066C75.5855 58.9428 114.538 104.172 129.924 110.472C145.31 116.771 116.17 115.004 106.426 105.94C96.6819 96.8756 75.2229 69.6836 62.3294 71.0206C49.4358 72.3575 44.2014 102.405 39.6694 120.351C35.1374 138.298 57.7974 174.735 74.3845 184.389C74.3845 184.389 53.8092 231.34 79.415 252.369C105.021 273.397 112.181 274.847 119.908 269.409C127.635 263.97 132.779 225.041 143.656 220.463C154.533 215.886 127.635 258.237 133.074 277.408C138.512 296.578 188.115 310.65 203.297 307.41C218.479 304.169 199.853 234.127 209.529 223.25C219.205 212.374 213.041 287.99 232.483 297.711ZM178.688 127.104C177.491 126.559 176.464 125.697 175.72 124.611C173.517 122.225 172.149 119.187 171.822 115.955C171.781 115.335 171.891 114.713 172.144 114.144C172.397 113.576 172.784 113.078 173.273 112.692C174.089 112.357 174.977 112.235 175.853 112.338C176.729 112.441 177.565 112.766 178.281 113.281C182.337 115.276 183.9 119.309 184.807 123.546C185.097 124.274 185.097 125.085 184.807 125.812C184.524 126.253 184.124 126.607 183.651 126.832C182.904 127.267 182.065 127.518 181.202 127.565C180.34 127.613 179.478 127.455 178.688 127.104ZM219.476 124.045C215.698 123.486 212.171 121.814 209.347 119.241C207.962 117.949 206.91 116.34 206.282 114.552C205.655 112.764 205.47 110.851 205.744 108.976C206.481 106.399 207.539 103.924 208.894 101.612C210.141 98.8471 211.024 95.6067 213.608 94.0205C214.047 93.7186 214.57 93.5603 215.103 93.5673C215.524 93.6672 215.94 93.7881 216.349 93.9298C217.573 94.1564 218.729 93.2274 219.975 93.0914C221.992 92.8421 223.601 94.6549 224.824 96.2865C227.09 99.3456 231.985 103.742 232.687 107.616C233.075 111.264 232.953 114.948 232.325 118.561C231.974 119.808 231.318 120.948 230.416 121.878C229.514 122.808 228.394 123.498 227.158 123.886C224.669 124.6 222.035 124.647 219.522 124.022L219.476 124.045ZM184.308 208.793C183.723 208.788 183.145 208.658 182.613 208.412C182.082 208.165 181.609 207.809 181.226 207.366C178.972 204.597 177.761 201.124 177.805 197.554C177.438 190.996 178.513 184.436 180.954 178.338C181.498 176.956 182.382 175.393 183.855 175.234C184.848 175.25 185.797 175.648 186.506 176.344C192.058 180.876 193.304 188.785 191.401 195.311L189.497 201.723C189.066 204.004 187.989 206.112 186.393 207.796C185.829 208.353 185.095 208.704 184.308 208.793ZM242.794 195.809C240.524 194.86 238.568 193.289 237.151 191.277C233.027 186.065 222.536 164.425 234.364 161.298C235.286 161.06 236.252 161.06 237.174 161.298C240.913 162.34 243.337 165.83 245.037 169.388C248.028 175.461 249.821 182.055 250.317 188.807C250.619 190.602 250.308 192.446 249.433 194.042C248.659 195.005 247.597 195.696 246.403 196.014C245.209 196.332 243.944 196.26 242.794 195.809Z" fill="white"></path> </mask> <g mask="url(#mask0_2829_3808)"> <path d="M98.4943 4.46826C100.556 13.8042 184.126 154.296 184.126 154.296Z" fill="#ADB797"></path> </g> <g style="mix-blend-mode:multiply" opacity="0.21"> <path d="M285.645 140.224C285.781 145.413 292.692 150.716 296.975 155.225C301.258 159.734 305.722 165.898 305.201 172.424C304.369 173.18 303.349 173.696 302.248 173.92C301.147 174.143 300.006 174.065 298.946 173.693C296.911 172.92 295.025 171.801 293.372 170.385C284.467 163.813 274.428 155.497 264.753 150.398C255.077 145.3 243.747 151.237 234.048 152.664C228.972 153.39 223.103 152.914 219.478 156.562C210.799 165.309 226.865 182.961 217.937 191.458L204.114 170.045C200.942 165.128 189.453 161.23 183.72 165.105C182.565 165.898 181.794 167.122 180.707 168.005C177.806 170.271 173.546 169.592 170.034 170.815C165.094 172.537 162.307 177.976 161.853 183.165C161.791 188.391 162.377 193.605 163.598 198.687C164.437 203.853 164.686 209.405 162.239 214.005C155.917 208.114 159.746 197.237 156.256 189.351C152.042 179.789 142.117 181.148 133.71 184.003C131.329 184.714 129.113 185.892 127.191 187.467C125.269 189.043 123.68 190.985 122.516 193.181C120.907 196.648 120.635 200.885 117.984 203.559C114.698 206.777 109.282 206.278 105 204.579C100.717 202.879 96.7513 200.183 92.174 199.639C90.2932 199.412 88.3898 199.639 86.5316 199.299C83.702 198.839 81.0998 197.468 79.1203 195.395C77.1408 193.321 75.8922 190.658 75.5642 187.81C74.632 178.819 75.1599 169.736 77.1277 160.913C78.4193 155.18 77.9888 147.906 72.8223 145.051C74.3405 139.68 80.64 136.825 86.1691 137.505C91.6981 138.185 96.4794 141.584 100.671 145.232C103.501 148.16 106.902 150.474 110.665 152.03C112.832 152.583 115.068 152.819 117.304 152.732C130.665 152.678 143.888 150.023 156.234 144.915C158.216 144.279 159.971 143.083 161.287 141.47C164.187 137.12 160.086 131.704 156.936 127.535C151.267 120.02 148.154 110.888 148.054 101.476C156.982 105.373 162.307 114.392 167.949 122.345C171.886 128.531 177.432 133.528 183.992 136.802C193.849 141.108 198.2 136.44 207.015 132.112C215.83 127.784 226.593 128.962 236.088 126.062C240.28 124.77 248.46 120.193 248.913 115.208C248.822 113.795 249.095 112.383 249.706 111.106C250.649 110.089 251.871 109.372 253.219 109.044C256.344 107.809 259.14 105.868 261.389 103.371C263.638 100.875 265.278 97.8914 266.18 94.6549C266.724 92.5475 266.973 90.3495 267.585 88.2647C268.354 85.7594 269.666 83.4549 271.429 81.5158C273.192 79.5768 275.361 78.0512 277.782 77.0481C278.099 76.8522 278.459 76.7373 278.83 76.7136C279.202 76.6899 279.573 76.7581 279.912 76.9121C280.239 77.1843 280.491 77.5349 280.646 77.9312C280.801 78.3274 280.852 78.7565 280.796 79.1781C281.047 84.3489 280.613 89.5301 279.504 94.5869C278.609 97.1979 278.53 100.02 279.278 102.677C280.773 105.224 283.218 107.074 286.076 107.82C293.553 110.608 301.734 112.76 309.415 114.981C310.886 115.461 312.406 115.773 313.947 115.91C315.932 115.862 317.906 115.611 319.839 115.162C325.335 114.239 330.975 114.706 336.245 116.522C324.394 126.605 304.521 124.997 290.925 133.064C287.027 135.33 285.577 137.777 285.645 140.224Z" fill="#ADB797"></path> </g> <path d="M353.036 111.605C247.101 127.104 0.876953 194.269 0.876953 194.269L7.22176 213.303L353.036 111.605Z" fill="#ADB797"></path> </g> </svg> 