<?xml version="1.0" encoding="UTF-8"?> <svg xmlns="http://www.w3.org/2000/svg" width="305" height="252" viewBox="0 0 305 252" fill="none"> <path d="M301.378 123.045C292.654 132.109 276.249 151.325 256.784 158.78C237.319 166.235 220.324 161.975 204.394 157.194C189.959 152.843 180.487 153.636 161.068 160.23C147.472 170.631 160.637 251.074 160.637 251.074L140.243 245.862C140.243 245.862 150.554 190.458 146.86 161.091C125.718 153.704 116.042 152.639 100.996 157.171C85.1341 161.952 68.0938 166.235 48.6289 158.757C29.1639 151.279 12.7808 132.177 4.03402 123.045C-4.71274 113.913 4.7818 117.199 20.5985 117.357C36.4152 117.516 43.2585 112.213 65.9185 114.117C88.5785 116.02 96.4188 133.99 111.964 141.309C121.692 145.695 131.708 149.413 141.943 152.435C131.27 136.573 124.291 130.251 110.672 124.971C95.1499 118.966 79.1292 111.919 68.3657 94.0628C57.6022 76.2067 56.4013 51.0088 55.1323 38.4778C53.8633 25.9468 59.3244 34.3084 71.6968 44.1428C84.0691 53.9772 92.8159 54.0679 109.403 69.4087C125.99 84.7495 121.254 103.807 129.072 119.079C134.66 129.736 141.069 139.941 148.242 149.602C149.692 129.208 148.061 119.873 140.243 107.024C131.587 92.8165 123.135 77.5663 125.446 56.7418C127.758 35.9172 142.101 15.3193 148.741 4.62376C155.38 -6.07176 154.587 3.8533 158.439 19.1941C162.291 34.5349 169.18 39.9054 173.01 62.2481C176.839 84.5909 161.498 96.782 158.439 113.664C156.205 126.497 155.091 139.5 155.108 152.526C163.185 142.018 170.306 130.81 176.386 119.034C184.226 103.761 179.49 84.6815 196.078 69.3633C212.665 54.0452 221.389 53.9545 233.761 44.0974C246.133 34.2403 251.595 25.8561 250.326 38.4324C249.057 51.0087 247.878 76.2067 237.115 94.1081C226.351 112.009 210.308 119.034 194.786 125.016C181.19 130.296 174.188 136.528 163.515 152.48C173.754 149.436 183.771 145.688 193.494 141.264C209.062 134.035 217.061 116.088 239.539 114.072C262.018 112.055 268.997 117.493 284.859 117.312C300.721 117.131 310.08 113.913 301.378 123.045Z" fill="#5E7439"></path> <path d="M277.498 128.098C267.6 135.09 256.319 139.881 244.414 142.147C224.02 146.226 179.176 147.268 152.709 160.275C162.176 145.236 172.846 130.989 184.614 117.674C200.646 99.6688 215.627 80.7541 229.481 61.0239" stroke="#404024" stroke-miterlimit="10"></path> <path d="M87.6738 74.0769C104.442 103.535 126.626 121.391 133.424 135.689C138.193 145.027 144.745 153.341 152.708 160.162C151.918 149.905 151.918 139.602 152.708 129.345C153.864 108.067 146.114 79.4926 150.193 38.7046" stroke="#404024" stroke-miterlimit="10"></path> <path d="M152.707 160.162C139.768 155.177 115.295 147.925 95.8304 146.113C76.3655 144.3 39.6562 129.797 39.6562 129.797" stroke="#404024" stroke-miterlimit="10"></path> </svg> 