<?xml version="1.0" encoding="UTF-8"?> <svg xmlns="http://www.w3.org/2000/svg" width="191" height="108" viewBox="0 0 191 108" fill="none"> <path fill-rule="evenodd" clip-rule="evenodd" d="M1.26397 72.6978C1.08795 72.485 0.772775 72.4552 0.56 72.6313C0.347224 72.8073 0.317422 73.1224 0.493437 73.3352C8.59195 83.1252 37.8304 94.2226 86.6851 66.5413C84.396 68.7675 81.4858 71.2328 79.8183 72.5791C79.6034 72.7526 79.5699 73.0674 79.7433 73.2822C79.9168 73.4971 80.2316 73.5306 80.4465 73.3572C82.2452 71.9049 85.4887 69.1531 87.8716 66.7764C88.4065 66.2429 88.4221 65.5352 88.0587 65.0298C87.7085 64.5428 87.0494 64.2995 86.3636 64.5148C84.9827 64.9485 83.4732 65.2957 82.071 65.3882C80.6587 65.4814 79.4185 65.312 78.5236 64.7781C78.2864 64.6366 77.9795 64.7142 77.838 64.9513C77.6965 65.1885 77.7741 65.4954 78.0113 65.6369C79.159 66.3216 80.6385 66.485 82.1369 66.386C83.5575 66.2923 85.0522 65.9588 86.4121 65.5464C37.6105 93.2818 8.91873 81.9513 1.26397 72.6978Z" fill="#FFDC20"></path> <path fill-rule="evenodd" clip-rule="evenodd" d="M112.865 40C112.856 40 112.847 40.0002 112.838 40.0007C112.829 40.0002 112.82 40 112.81 40C111.898 40 111.409 40.7469 111.165 41.3869C110.959 41.93 110.861 42.5506 110.826 43.0569C110.515 43.1364 110.256 43.2999 110.07 43.5496C109.834 43.8686 109.769 44.2585 109.773 44.6082C109.778 45.1636 109.957 45.774 110.157 46.2658C109.958 46.3995 109.795 46.5666 109.669 46.7647C109.478 47.0653 109.391 47.4087 109.37 47.7581C109.33 48.4435 109.542 49.2299 109.85 49.996C110.46 51.5102 111.536 53.1543 112.364 54.2397V55.7756L110.147 53.7123C109.911 52.373 109.447 50.5168 108.77 49.0722C108.419 48.3245 107.987 47.6341 107.458 47.1964C107.189 46.9733 106.878 46.8029 106.528 46.7381C106.297 46.6954 106.063 46.7012 105.83 46.7554C105.606 46.2744 105.281 45.7272 104.878 45.3448C104.625 45.1039 104.296 44.8855 103.901 44.8416C103.591 44.8072 103.296 44.8852 103.025 45.0592C102.631 44.7398 102.11 44.3883 101.572 44.1696C100.937 43.912 100.057 43.761 99.4356 44.4289C99.4288 44.4362 99.4223 44.4436 99.416 44.4512C99.4107 44.4564 99.4055 44.4617 99.4005 44.4672C98.7788 45.1351 98.9925 46.0019 99.295 46.6163C99.5516 47.1376 99.9395 47.6317 100.286 48.0022C100.132 48.2846 100.076 48.5853 100.132 48.8912C100.204 49.2819 100.446 49.5948 100.704 49.8305C101.114 50.2047 101.683 50.4893 102.179 50.6785C102.142 50.9148 102.153 51.1484 102.212 51.3755C102.302 51.7203 102.494 52.0178 102.736 52.2708C103.21 52.767 103.93 53.1482 104.701 53.4444C106.225 54.0299 108.162 54.3619 109.521 54.4954L111.804 56.62C109.374 56.9851 106.894 58.1618 105.367 59.8524C104.43 60.89 103.828 62.1498 103.864 63.5516C103.899 64.9553 104.571 66.4145 106.01 67.8536C107.345 69.1887 108.358 70.1431 109.141 70.865C109.412 71.1155 109.654 71.3358 109.87 71.5331L109.87 71.5332C110.282 71.9097 110.603 72.2026 110.868 72.4628C111.263 72.8505 111.503 73.1361 111.7 73.4693C111.9 73.8091 112.069 74.2199 112.294 74.8774C112.389 75.1547 112.641 75.2787 112.851 75.2857C113.06 75.2925 113.314 75.187 113.43 74.924C113.914 73.8257 115.672 71.1665 119.68 67.887C121.134 66.6973 121.875 65.3662 122.017 64.0129C122.158 62.6663 121.697 61.3737 120.893 60.2684C119.421 58.2443 116.73 56.7467 114.038 56.5277L115.926 54.6397C117.273 54.4521 119.147 54.0546 120.616 53.4287C121.375 53.1051 122.081 52.6984 122.537 52.1855C122.77 51.924 122.951 51.6198 123.029 51.272C123.08 51.0429 123.082 50.809 123.036 50.5742C123.525 50.3674 124.084 50.0625 124.48 49.6738C124.73 49.4291 124.96 49.1078 125.018 48.7146C125.064 48.4069 124.996 48.1085 124.832 47.8318C125.165 47.4491 125.535 46.9414 125.773 46.4112C126.053 45.7863 126.236 44.9125 125.591 44.2673L125.579 44.2555C125.571 44.2464 125.562 44.2374 125.554 44.2287C124.908 43.5835 124.035 43.766 123.41 44.0462C122.879 44.284 122.372 44.654 121.989 44.9873C121.712 44.8231 121.414 44.7559 121.106 44.8013C120.713 44.8593 120.392 45.0894 120.147 45.3392C119.758 45.7358 119.453 46.2943 119.247 46.783C119.012 46.7372 118.778 46.7398 118.549 46.7908C118.201 46.8681 117.897 47.0495 117.635 47.2822C117.123 47.7385 116.716 48.444 116.392 49.2037C115.752 50.7055 115.351 52.6296 115.169 53.9823L113.364 55.7873V54.17C114.184 53.0848 115.229 51.4781 115.825 49.996C116.134 49.2299 116.345 48.4435 116.305 47.7581C116.285 47.4087 116.198 47.0653 116.006 46.7647C115.88 46.5666 115.717 46.3995 115.519 46.2658C115.718 45.774 115.897 45.1636 115.903 44.6082C115.906 44.2585 115.842 43.8686 115.605 43.5496C115.419 43.2999 115.161 43.1364 114.849 43.0569C114.814 42.5506 114.717 41.93 114.51 41.3869C114.266 40.7469 113.777 40 112.865 40ZM100.132 45.1485C100.139 45.1412 100.146 45.1338 100.152 45.1262C100.157 45.121 100.163 45.1157 100.168 45.1102C100.337 44.9281 100.647 44.8734 101.195 45.0962C101.714 45.3068 102.254 45.6991 102.612 46.0204C102.863 46.2455 103.223 46.2087 103.437 46.0041C103.61 45.8379 103.723 45.8281 103.79 45.8355C103.882 45.8457 104.017 45.9059 104.19 46.0698C104.538 46.401 104.855 46.9794 105.05 47.4707C105.19 47.8231 105.585 47.9263 105.871 47.7943C106.055 47.7094 106.209 47.6961 106.346 47.7214C106.488 47.7478 106.647 47.8229 106.821 47.9669C107.179 48.2636 107.535 48.7947 107.864 49.4968C108.29 50.4048 108.632 51.5105 108.879 52.5317L106.367 50.1938C106.165 50.0057 105.848 50.017 105.66 50.2192C105.472 50.4213 105.483 50.7377 105.686 50.9258L108.26 53.322C107.197 53.1494 106.026 52.8823 105.059 52.5109C104.336 52.2328 103.78 51.9162 103.459 51.5798C103.302 51.4164 103.216 51.2639 103.18 51.1235C103.145 50.9889 103.147 50.8344 103.218 50.6449C103.33 50.3502 103.198 49.9639 102.837 49.8494C102.333 49.6896 101.733 49.4156 101.378 49.0916C101.202 48.9312 101.132 48.8005 101.116 48.7097C101.103 48.6436 101.105 48.5298 101.258 48.3451C101.447 48.1177 101.458 47.7559 101.216 47.5215C100.869 47.1869 100.439 46.677 100.192 46.1746C99.9307 45.6435 99.9629 45.3306 100.132 45.1485ZM116.387 52.7644L118.874 50.2775C119.069 50.0823 119.386 50.0823 119.581 50.2775C119.776 50.4728 119.776 50.7894 119.581 50.9847L117.151 53.4146C118.181 53.2045 119.3 52.9022 120.224 52.5087C120.937 52.2048 121.481 51.8685 121.79 51.5208C121.94 51.352 122.021 51.1964 122.053 51.0549C122.083 50.919 122.075 50.7647 121.997 50.5779C121.875 50.2874 121.992 49.8967 122.35 49.7692C122.848 49.5915 123.437 49.2961 123.78 48.9596C123.95 48.793 124.015 48.6599 124.029 48.5686C124.039 48.502 124.033 48.3884 123.873 48.2093C123.676 47.9888 123.652 47.6276 123.886 47.3847C124.22 47.0379 124.632 46.5129 124.861 46.002C125.103 45.4618 125.06 45.1503 124.884 44.9744C124.875 44.9657 124.867 44.9568 124.859 44.9476L124.846 44.9358C124.671 44.7599 124.359 44.7164 123.819 44.9587C123.308 45.1878 122.783 45.5992 122.436 45.9331C122.193 46.1671 121.832 46.1432 121.612 45.9464C121.432 45.7865 121.319 45.7807 121.252 45.7906C121.161 45.804 121.028 45.869 120.861 46.0391C120.525 46.3825 120.229 46.9719 120.052 47.4699C119.924 47.8271 119.533 47.9444 119.243 47.8227C119.056 47.7445 118.902 47.7367 118.766 47.7669C118.624 47.7984 118.469 47.8791 118.3 48.0293C117.952 48.3387 117.616 48.8822 117.312 49.5956C116.906 50.5481 116.598 51.7079 116.387 52.7644ZM112.81 41C112.82 41 112.829 40.9998 112.838 40.9993C112.847 40.9998 112.856 41 112.865 41C113.114 41 113.365 41.1895 113.575 41.7428C113.775 42.2661 113.855 42.9282 113.864 43.4095C113.871 43.7468 114.143 43.9852 114.438 44.002C114.678 44.0156 114.762 44.0919 114.802 44.1459C114.857 44.22 114.905 44.36 114.903 44.598C114.898 45.0789 114.69 45.7045 114.464 46.1823C114.301 46.525 114.495 46.8842 114.786 47.0036C114.973 47.0804 115.088 47.184 115.163 47.3014C115.241 47.4238 115.293 47.5908 115.307 47.8164C115.334 48.281 115.187 48.9032 114.898 49.6225C114.522 50.5546 113.945 51.5602 113.364 52.4377V48C113.364 47.7239 113.14 47.5 112.864 47.5C112.588 47.5 112.364 47.7239 112.364 48V52.5173C111.766 51.6213 111.164 50.5829 110.778 49.6225C110.488 48.9032 110.342 48.281 110.369 47.8164C110.382 47.5908 110.435 47.4238 110.513 47.3014C110.587 47.184 110.702 47.0804 110.889 47.0036C111.181 46.8842 111.374 46.525 111.212 46.1823C110.985 45.7045 110.777 45.0789 110.772 44.598C110.77 44.36 110.818 44.22 110.873 44.1459C110.913 44.0919 110.998 44.0156 111.237 44.002C111.533 43.9852 111.805 43.7468 111.811 43.4095C111.82 42.9282 111.901 42.2661 112.1 41.7428C112.311 41.1895 112.562 41 112.81 41ZM106.717 67.1464C105.406 65.8355 104.89 64.6072 104.863 63.5265C104.836 62.4439 105.297 61.4225 106.11 60.5226C107.752 58.7041 110.735 57.5 113.363 57.5C115.955 57.5 118.679 58.9249 120.084 60.8566C120.78 61.8138 121.132 62.865 121.022 63.9089C120.914 64.9463 120.343 66.0527 119.047 67.113C115.671 69.8755 113.8 72.2528 112.933 73.7219C112.816 73.439 112.697 73.1915 112.561 72.961C112.303 72.5233 111.996 72.1683 111.569 71.749C111.291 71.4763 110.948 71.1638 110.525 70.7772L110.525 70.7771C110.311 70.5817 110.076 70.3675 109.819 70.13C109.044 69.4155 108.041 68.4705 106.717 67.1464Z" fill="#FFDC20"></path> <path fill-rule="evenodd" clip-rule="evenodd" d="M125.979 3.50023C126.038 3.4991 126.091 3.50713 126.135 3.51839C127.976 3.98455 128.818 5.39736 129.128 6.89119C129.337 7.89792 129.316 8.97488 129.199 9.91301C129.302 9.84607 129.407 9.78054 129.514 9.71717C130.717 9.00719 132.412 8.44193 133.82 9.61585C134.469 10.1562 135.362 11.2091 136.363 12.5163C137.374 13.8361 138.523 15.4535 139.688 17.155C142.018 20.5585 144.422 24.3151 145.925 26.7362L145.929 26.7426L145.929 26.7427C146.207 27.2054 146.535 27.97 146.634 28.798C146.731 29.6179 146.607 30.5685 145.895 31.311C145.531 31.8722 144.768 32.3713 143.647 32.3623C142.51 32.3532 141.034 31.8262 139.193 30.3946C135.599 27.5992 128.371 22.2363 125.204 19.9024L125.19 19.8925L125.177 19.8817C124.603 19.396 123.954 18.4782 123.84 17.2784C123.733 16.1566 124.101 14.8601 125.298 13.5157C124.246 13.5112 122.961 13.3841 121.827 12.9604C120.396 12.426 119.129 11.3801 118.994 9.47749C118.99 9.43175 118.992 9.37816 119.003 9.32008C119.08 8.9377 119.36 8.54318 119.864 8.31631C120.167 8.18003 120.537 8.10848 120.983 8.11997C120.748 7.79904 120.556 7.43679 120.471 7.04812C120.39 6.67716 120.405 6.27981 120.574 5.88791C120.742 5.4998 121.045 5.1544 121.476 4.85421C121.484 4.84862 121.492 4.8433 121.5 4.83825C121.765 4.64074 122.04 4.50779 122.323 4.44123C122.739 4.34355 123.133 4.39851 123.483 4.54408C123.851 4.69661 124.174 4.94896 124.448 5.23676C124.515 4.79634 124.651 4.44404 124.839 4.1703C125.151 3.7146 125.589 3.50769 125.979 3.50023ZM121.724 5.94723C121.609 6.06764 121.537 6.18152 121.492 6.28478C121.417 6.45955 121.405 6.63983 121.448 6.83372C121.539 7.24793 121.873 7.70064 122.305 8.09504C122.461 8.23759 122.499 8.4204 122.498 8.54754C122.497 8.67291 122.461 8.78442 122.416 8.87066C122.372 8.95678 122.301 9.05141 122.198 9.12469C122.094 9.19935 121.92 9.27275 121.713 9.2247C120.948 9.04754 120.507 9.12351 120.275 9.22806C120.095 9.30906 120.023 9.41284 119.997 9.47586C120.118 10.8099 120.986 11.5791 122.177 12.0236C123.405 12.4825 124.896 12.5541 125.975 12.5006C126.069 12.496 126.158 12.5173 126.235 12.5583C126.868 11.9246 127.062 11.7311 127.121 11.6719C127.133 11.6603 127.144 11.649 127.156 11.6357C127.244 11.5407 127.564 11.2022 128.034 10.7962C128.263 9.75829 128.407 8.33754 128.149 7.09439C127.892 5.85366 127.258 4.86252 125.957 4.50548C125.89 4.52048 125.775 4.57268 125.664 4.7354C125.52 4.94541 125.367 5.36622 125.407 6.15012C125.418 6.36274 125.315 6.52061 125.223 6.61069C125.132 6.69911 125.027 6.75166 124.934 6.78036C124.841 6.8091 124.725 6.82521 124.602 6.80392C124.476 6.78233 124.303 6.7123 124.19 6.53369C123.878 6.0395 123.492 5.63025 123.1 5.4677C122.917 5.39161 122.737 5.37115 122.552 5.41471C122.362 5.45922 122.127 5.58014 121.854 5.85357C121.815 5.89259 121.771 5.92381 121.724 5.94723ZM127.89 12.315C128.034 12.1589 128.917 11.2313 130.023 10.5783C131.16 9.90672 132.3 9.65041 133.18 10.3841C133.732 10.8438 134.564 11.8117 135.569 13.1243C136.472 14.3039 137.493 15.7316 138.541 17.2519L135.647 20.1465C135.451 20.3417 135.451 20.6583 135.647 20.8536C135.842 21.0488 136.158 21.0488 136.354 20.8536L139.116 18.0911C141.354 21.3771 143.631 24.9358 145.073 27.2602C145.294 27.6292 145.562 28.2581 145.641 28.9159C145.718 29.5717 145.602 30.1857 145.154 30.6394C145.122 30.6717 145.093 30.7082 145.068 30.7489C144.912 31.0027 144.481 31.3689 143.655 31.3624C142.818 31.3557 141.552 30.9621 139.807 29.6052C138.642 28.6991 137.098 27.5253 135.435 26.2725L138.354 23.3536C138.549 23.1583 138.549 22.8417 138.354 22.6465C138.158 22.4512 137.842 22.4512 137.647 22.6465L134.647 25.6465L134.639 25.6541L134.628 25.6659C132.673 24.1973 130.614 22.6641 128.851 21.3561L128.854 21.3536L131.854 18.3536C132.049 18.1583 132.049 17.8417 131.854 17.6465C131.658 17.4512 131.342 17.4512 131.147 17.6465L128.147 20.6465C128.11 20.6831 128.08 20.7241 128.057 20.7677C127.194 20.128 126.426 19.5612 125.811 19.1079C125.402 18.757 124.92 18.071 124.835 17.1838C124.752 16.312 125.047 15.161 126.354 13.8534C127.466 12.7409 127.753 12.4538 127.827 12.3798C127.85 12.3577 127.87 12.3367 127.89 12.315Z" fill="#FFDC20"></path> <path fill-rule="evenodd" clip-rule="evenodd" d="M154.972 44.0744C155.167 43.8792 155.484 43.8792 155.679 44.0744C156.236 44.6314 156.998 45.606 157.442 46.909C159.076 46.3083 162.246 46.2209 164.947 49.4554C165.151 49.6999 165.14 50.094 164.853 50.3135C164.125 50.8709 162.905 51.5065 161.489 51.6794C160.266 51.8287 158.898 51.6311 157.597 50.749C157.559 50.9067 157.514 51.0663 157.464 51.2279C157.938 51.3621 158.393 51.5283 158.827 51.7254C161.091 52.7545 162.735 54.6097 163.552 57.0618C165.186 61.9619 162.801 67.6082 157.874 70.0714C155.515 71.2513 152.726 72.1572 149.812 72.0151C146.88 71.8721 143.865 70.6704 141.074 67.7131C140.857 67.4831 140.851 67.1149 141.08 66.8803C141.74 66.2054 143.157 64.5457 144.024 62.8108C144.271 62.3168 144.409 61.5115 144.564 60.4428L144.603 60.1729C144.743 59.2018 144.903 58.0876 145.2 56.9922C145.854 54.5761 147.204 52.1449 150.552 51.3079C152.716 50.767 154.717 50.6803 156.486 51.002C157.472 47.9695 155.915 45.7248 154.972 44.7815C154.776 44.5863 154.776 44.2697 154.972 44.0744ZM157.78 49.6388C158.973 50.6123 160.237 50.8248 161.368 50.6867C162.368 50.5647 163.263 50.167 163.89 49.7668C161.506 47.1707 158.884 47.4041 157.696 47.8825C157.795 48.4264 157.832 49.0134 157.78 49.6388ZM158.413 52.6358C156.406 51.7235 153.812 51.5236 150.795 52.278C147.94 52.9916 146.771 55.0182 146.165 57.2537C145.885 58.2872 145.733 59.3424 145.592 60.3216L145.554 60.5867C145.406 61.6016 145.253 62.5891 144.919 63.258C144.093 64.9087 142.826 66.4666 142.062 67.2974C144.605 69.8737 147.284 70.8906 149.86 71.0162C152.542 71.147 155.155 70.3133 157.427 69.177C161.932 66.9244 164.071 61.7811 162.603 57.378C161.87 55.1784 160.413 53.5449 158.413 52.6358Z" fill="#FFDC20"></path> <path fill-rule="evenodd" clip-rule="evenodd" d="M90.0214 1.65508C90.2306 1.43935 90.5521 1.4212 90.7827 1.57495L92.0458 2.417C92.2778 2.57168 92.3727 2.86582 92.2748 3.12691L91.1068 6.24151C94.622 7.50396 97.4038 10.6349 98.6317 14.582C98.9997 14.5419 99.3736 14.5214 99.7523 14.5214C105.412 14.5214 109.999 19.1091 109.999 24.7684C109.999 30.4277 105.412 35.0155 99.7523 35.0155C96.749 35.0155 94.0475 33.7235 92.1733 31.665C90.7817 32.3442 89.2506 32.7208 87.6429 32.7208C81.1235 32.7208 75.9644 26.5829 75.9644 19.1791C75.9644 11.7754 81.1235 5.63746 87.6429 5.63746C87.687 5.63746 87.7311 5.63774 87.775 5.63831C87.9077 5.1267 88.0918 4.64191 88.3004 4.19649C88.8215 3.08415 89.5138 2.17864 90.0214 1.65508ZM91.227 3.07299L90.1485 5.94886C89.7064 5.83705 89.2546 5.7542 88.7945 5.70218C88.9034 5.32816 89.0444 4.96557 89.206 4.62069C89.6001 3.77927 90.1039 3.07045 90.514 2.59767L91.227 3.07299ZM89.8097 6.89677C89.4112 6.80004 89.0049 6.72948 88.5924 6.6866C88.5447 7.09676 88.5438 7.51363 88.6032 7.92985C88.7127 8.69596 88.9203 9.0632 89.083 9.2216C89.218 9.35309 89.3453 9.36644 89.4783 9.32653C89.6381 9.27858 89.807 9.14572 89.9119 8.97896C90.0232 8.80182 89.9972 8.70445 89.9899 8.68988C89.6674 8.04469 89.6963 7.37758 89.8097 6.89677ZM87.6133 8.07127C87.5438 7.58474 87.5423 7.10415 87.5916 6.6376C81.7864 6.67001 76.9644 12.198 76.9644 19.1791C76.9644 26.1808 81.8149 31.7208 87.6429 31.7208C89.0089 31.7208 90.3155 31.4196 91.5181 30.8687C90.2534 29.1644 89.5052 27.0538 89.5052 24.7684C89.5052 19.8357 92.9907 15.717 97.6331 14.7408C96.4623 11.1087 93.9129 8.31561 90.7694 7.18511C90.7102 7.48014 90.7022 7.87832 90.8844 8.2428C91.1099 8.694 90.9674 9.17884 90.7585 9.51115C90.5431 9.85383 90.188 10.1576 89.7657 10.2844C89.3165 10.4191 88.8034 10.3451 88.3853 9.93806C87.9949 9.5579 87.7367 8.93538 87.6133 8.07127ZM99.7523 34.0155C104.859 34.0155 108.999 29.8754 108.999 24.7684C108.999 19.6614 104.859 15.5214 99.7523 15.5214C94.6453 15.5214 90.5052 19.6614 90.5052 24.7684C90.5052 29.8754 94.6453 34.0155 99.7523 34.0155ZM107.136 24.7683C107.136 28.8464 103.83 32.1523 99.7524 32.1523C95.6744 32.1523 92.3685 28.8464 92.3685 24.7683C92.3685 20.6903 95.6744 17.3844 99.7524 17.3844C103.83 17.3844 107.136 20.6903 107.136 24.7683ZM108.136 24.7683C108.136 29.3987 104.383 33.1523 99.7524 33.1523C95.1221 33.1523 91.3685 29.3987 91.3685 24.7683C91.3685 20.138 95.1221 16.3844 99.7524 16.3844C104.383 16.3844 108.136 20.138 108.136 24.7683ZM98.8214 19.6448C98.8214 19.9021 98.6129 20.1106 98.3556 20.1106C98.0984 20.1106 97.8899 19.9021 97.8899 19.6448C97.8899 19.3876 98.0984 19.179 98.3556 19.179C98.6129 19.179 98.8214 19.3876 98.8214 19.6448ZM94.6291 21.9737C94.8864 21.9737 95.0949 21.7652 95.0949 21.508C95.0949 21.2507 94.8864 21.0422 94.6291 21.0422C94.3719 21.0422 94.1634 21.2507 94.1634 21.508C94.1634 21.7652 94.3719 21.9737 94.6291 21.9737ZM96.9582 24.3026C96.9582 24.5598 96.7496 24.7684 96.4924 24.7684C96.2351 24.7684 96.0266 24.5598 96.0266 24.3026C96.0266 24.0454 96.2351 23.8368 96.4924 23.8368C96.7496 23.8368 96.9582 24.0454 96.9582 24.3026ZM99.2873 30.3577C99.5445 30.3577 99.753 30.1491 99.753 29.8919C99.753 29.6346 99.5445 29.4261 99.2873 29.4261C99.03 29.4261 98.8215 29.6346 98.8215 29.8919C98.8215 30.1491 99.03 30.3577 99.2873 30.3577ZM94.1633 26.1657C94.1633 26.423 93.9547 26.6315 93.6975 26.6315C93.4403 26.6315 93.2317 26.423 93.2317 26.1657C93.2317 25.9085 93.4403 25.7 93.6975 25.7C93.9547 25.7 94.1633 25.9085 94.1633 26.1657ZM101.151 20.1106C101.408 20.1106 101.616 19.9021 101.616 19.6448C101.616 19.3876 101.408 19.179 101.151 19.179C100.893 19.179 100.685 19.3876 100.685 19.6448C100.685 19.9021 100.893 20.1106 101.151 20.1106ZM98.3556 22.9054C98.6129 22.9054 98.8214 22.6968 98.8214 22.4396C98.8214 22.1823 98.6129 21.9738 98.3556 21.9738C98.0984 21.9738 97.8899 22.1823 97.8899 22.4396C97.8899 22.6968 98.0984 22.9054 98.3556 22.9054ZM99.753 27.0972C99.753 27.3545 99.5445 27.563 99.2873 27.563C99.03 27.563 98.8215 27.3545 98.8215 27.0972C98.8215 26.84 99.03 26.6315 99.2873 26.6315C99.5445 26.6315 99.753 26.84 99.753 27.0972ZM96.4924 28.4946C96.7496 28.4946 96.9582 28.2861 96.9582 28.0289C96.9582 27.7716 96.7496 27.5631 96.4924 27.5631C96.2351 27.5631 96.0266 27.7716 96.0266 28.0289C96.0266 28.2861 96.2351 28.4946 96.4924 28.4946ZM103.48 21.508C103.48 21.7652 103.271 21.9737 103.014 21.9737C102.757 21.9737 102.548 21.7652 102.548 21.508C102.548 21.2507 102.757 21.0422 103.014 21.0422C103.271 21.0422 103.48 21.2507 103.48 21.508ZM104.877 24.7684C105.134 24.7684 105.343 24.5598 105.343 24.3026C105.343 24.0454 105.134 23.8368 104.877 23.8368C104.62 23.8368 104.411 24.0454 104.411 24.3026C104.411 24.5598 104.62 24.7684 104.877 24.7684ZM105.343 27.0972C105.343 27.3545 105.134 27.563 104.877 27.563C104.62 27.563 104.411 27.3545 104.411 27.0972C104.411 26.84 104.62 26.6315 104.877 26.6315C105.134 26.6315 105.343 26.84 105.343 27.0972ZM101.151 24.7684C101.408 24.7684 101.616 24.5598 101.616 24.3026C101.616 24.0454 101.408 23.8368 101.151 23.8368C100.893 23.8368 100.685 24.0454 100.685 24.3026C100.685 24.5598 100.893 24.7684 101.151 24.7684ZM102.548 26.1657C102.548 26.423 102.339 26.6315 102.082 26.6315C101.825 26.6315 101.616 26.423 101.616 26.1657C101.616 25.9085 101.825 25.7 102.082 25.7C102.339 25.7 102.548 25.9085 102.548 26.1657ZM102.082 29.4261C102.339 29.4261 102.548 29.2176 102.548 28.9604C102.548 28.7031 102.339 28.4946 102.082 28.4946C101.825 28.4946 101.616 28.7031 101.616 28.9604C101.616 29.2176 101.825 29.4261 102.082 29.4261Z" fill="#FFDC20"></path> <path fill-rule="evenodd" clip-rule="evenodd" d="M173.594 2.76529C173.312 2.33146 172.673 2.34295 172.407 2.78663L167.142 11.5607L157.491 14.1927C157.001 14.3264 156.812 14.921 157.135 15.3131L163.271 22.7636L162.832 32.41C162.81 32.9133 163.31 33.2753 163.781 33.0959L173 29.5839L182.219 33.0959C182.69 33.2753 183.19 32.9133 183.168 32.41L182.729 22.7636L188.867 15.3099C189.188 14.9207 189.004 14.3304 188.519 14.1919L179.311 11.5609L173.594 2.76529ZM167.938 12.1786L173.017 3.71291L178.534 12.2C178.626 12.3416 178.766 12.4451 178.928 12.4915L187.804 15.0276L181.884 22.217C181.774 22.3507 181.717 22.5206 181.725 22.6938L182.148 31.9986L173.249 28.6087C173.089 28.5475 172.911 28.5475 172.751 28.6087L163.852 31.9986L164.275 22.6938C164.283 22.5206 164.226 22.3507 164.116 22.217L158.202 15.0354L167.522 12.4937C167.696 12.4463 167.845 12.3333 167.938 12.1786ZM173.686 11.4896C173.536 10.7393 172.464 10.7393 172.314 11.4896L171.219 16.9652L165.699 16.2293C164.95 16.1294 164.596 17.1233 165.24 17.5193L170.079 20.4971L168.222 25.3248C167.958 26.0117 168.797 26.5887 169.344 26.0964L173.016 22.7919L177.083 26.1195C177.658 26.5899 178.473 25.9589 178.162 25.2844L175.945 20.4823L180.76 17.5193C181.404 17.1233 181.05 16.1294 180.301 16.2293L174.782 16.9652L173.686 11.4896ZM172.144 17.437L173 13.1566L173.856 17.437C173.928 17.7988 174.269 18.0423 174.635 17.9936L179.034 17.407L175.194 19.7702C174.893 19.9559 174.777 20.3379 174.926 20.6597L176.708 24.5206L173.449 21.8549C173.182 21.636 172.795 21.6451 172.538 21.8763L169.605 24.5164L171.102 20.6235C171.223 20.3089 171.102 19.9528 170.815 19.7761L166.966 17.407L171.365 17.9936C171.731 18.0423 172.072 17.7988 172.144 17.437Z" fill="#FFDC20"></path> </svg> 