<?xml version="1.0" encoding="UTF-8"?> <svg xmlns="http://www.w3.org/2000/svg" width="157" height="181" viewBox="0 0 157 181" fill="none"> <path d="M76.9885 88.3654C50.0338 85.5134 23.9146 77.3333 0.148438 64.3004C25.9536 55.9997 53.1528 52.9185 80.1609 55.2364C107.105 58.0772 133.216 66.2418 156.978 79.256C131.181 87.556 103.992 90.6523 76.9885 88.3654Z" fill="#616046"></path> <g style="mix-blend-mode:multiply" opacity="0.39"> <path d="M59.1308 72.8201C26.4098 69.7157 0.214844 64.3 0.214844 64.3C0.214844 64.3 27.0216 63.9374 59.7653 67.0645C92.509 70.1916 118.681 75.5847 118.681 75.5847C118.681 75.5847 91.8745 75.9472 59.1308 72.8201Z" fill="#616046"></path> </g> <path d="M48.6861 119.07C29.0351 104.185 12.5366 85.5454 0.148438 64.2324C24.1499 69.8726 46.7888 80.2331 66.7462 94.7101C86.4 109.598 102.905 128.237 115.307 149.547C91.2996 143.903 68.654 133.543 48.6861 119.07Z" fill="#616046"></path> <g style="mix-blend-mode:multiply" opacity="0.39"> <path d="M42.0921 98.585C18.0725 80.7742 0.148438 64.2324 0.148438 64.2324C0.148438 64.2324 21.1996 76.5368 45.2192 94.3476C69.2388 112.158 87.1628 128.7 87.1628 128.7C87.1628 128.7 66.1117 116.396 42.0921 98.585Z" fill="#616046"></path> </g> <path d="M58.3389 17.9835C36.2238 28.8943 16.4976 44.0914 0.306641 62.6917C24.9397 61.6758 49.1254 55.7758 71.459 45.3342C93.5744 34.4239 113.301 19.2268 129.491 0.625977C104.858 1.64185 80.6725 7.54194 58.3389 17.9835Z" fill="#616046"></path> <g style="mix-blend-mode:multiply" opacity="0.39"> <path d="M47.9825 36.859C21.0171 49.8205 0.396484 62.6913 0.396484 62.6913C0.396484 62.6913 23.3737 54.5564 50.2485 41.6176C77.1232 28.6787 97.8345 15.7852 97.8345 15.7852C97.8345 15.7852 74.9252 23.9201 47.9825 36.859Z" fill="#616046"></path> </g> <path d="M14.7638 128.7C5.69727 108.674 0.705808 87.0441 0.0800781 65.0703C16.4615 79.6778 29.7788 97.3931 39.2592 117.188C48.3278 137.215 53.3267 158.843 53.9656 180.818C37.576 166.212 24.2508 148.497 14.7638 128.7Z" fill="#616046"></path> <g style="mix-blend-mode:multiply" opacity="0.39"> <path d="M18.2979 109.824C6.96792 85.6458 0.169922 65.0479 0.169922 65.0479C0.169922 65.0479 11.4999 83.6744 22.6486 107.83C33.7974 131.986 40.8899 152.606 40.8899 152.606C40.8899 152.606 29.5373 134.002 18.2979 109.824Z" fill="#616046"></path> </g> </svg> 