<?xml version="1.0" encoding="UTF-8"?> <svg xmlns="http://www.w3.org/2000/svg" width="203" height="378" viewBox="0 0 203 378" fill="none"> <path d="M72.3957 217.944L94.7611 168.726C55.8765 142.441 49.8716 103.715 83.4311 65.7138C86.6261 102.264 101.559 113.3 101.083 152.207C109.807 133.512 123.109 111.419 121.477 90.7757C123.041 52.2537 157.439 22.5691 186.308 0.135742C176.994 17.6066 170.174 36.3917 162.356 54.5197C154.094 75.2626 141.608 94.0605 125.692 109.719C119.166 116.132 115.994 125.967 112.323 135.189C141.373 105.731 163.557 96.7806 202.963 83.6152C186.013 120.12 173.233 149.012 129.907 146.157C108.198 145.318 108.244 145.477 99.565 164.897C93.7414 177.926 87.7818 190.888 82.6833 204.574C105.502 174.414 143.389 175.479 176.586 164.919C155.603 192.451 125.783 224.13 87.5779 214.001C81.1877 212.573 77.4942 213.661 74.843 220.64C70.0844 233.194 63.9435 245.249 59.3435 258.233C85.6065 234.395 121.047 243.391 152.748 234.214C137.656 265.212 94.8291 280.848 66.0962 266.572C59.2982 263.218 56.0805 264.306 53.0893 271.376C44.6598 290.977 35.5732 310.306 26.6678 329.929C50.0756 318.735 70.8321 312.753 96.4606 316.9C47.1298 368.655 33.8284 321.115 20.7082 344.658C15.1792 355.422 9.7181 366.253 4.23438 377.04L2.39893 376.133C11.4629 355.92 20.5269 335.64 30.0215 315.586C32.8993 309.558 31.8569 307.156 25.92 303.87C1.9684 291.906 -4.58034 248.104 5.52602 225.807C5.91124 241.102 17.2865 247.787 23.3821 257.803C29.4776 267.818 35.3239 278.197 41.1702 288.258L64.8499 236.91C24.3565 225.58 17.8757 178.311 31.0865 143.46C40.7623 170.969 65.5297 189.324 72.3957 217.944Z" fill="#323824"></path> <mask id="mask0_2829_3733" style="mask-type:luminance" maskUnits="userSpaceOnUse" x="0" y="0" width="203" height="378"> <path d="M72.3937 217.944L94.7591 168.726C55.8746 142.441 49.8697 103.715 83.4291 65.7138C86.6242 102.264 101.557 113.3 101.081 152.207C109.805 133.512 123.107 111.419 121.475 90.7757C123.039 52.2537 157.437 22.5691 186.306 0.135742C176.992 17.6066 170.172 36.3917 162.354 54.5197C154.092 75.2626 141.606 94.0605 125.69 109.719C119.164 116.132 115.992 125.967 112.321 135.189C141.371 105.731 163.555 96.7806 202.961 83.6152C186.011 120.12 173.231 149.012 129.905 146.157C108.197 145.318 108.242 145.477 99.5631 164.897C93.7395 177.926 87.7798 190.888 82.6813 204.574C105.5 174.414 143.387 175.479 176.584 164.919C155.601 192.451 125.781 224.13 87.5759 214.001C81.1858 212.573 77.4922 213.661 74.841 220.64C70.0824 233.194 63.9416 245.249 59.3416 258.233C85.6045 234.395 121.045 243.391 152.746 234.214C137.655 265.212 94.8271 280.848 66.0942 266.572C59.2962 263.218 56.0785 264.306 53.0874 271.376C44.6579 290.977 35.5712 310.306 26.6659 329.929C50.0736 318.735 70.8302 312.753 96.4586 316.9C47.1278 368.655 33.8264 321.115 20.7063 344.658C15.1772 355.422 9.71615 366.253 4.23243 377.04L2.39697 376.133C11.461 355.92 20.525 335.64 30.0195 315.586C32.8973 309.558 31.855 307.156 25.9181 303.87C1.96644 291.906 -4.5823 248.104 5.52406 225.807C5.90928 241.102 17.2846 247.787 23.3801 257.803C29.4757 267.818 35.322 278.197 41.1682 288.258L64.8479 236.91C24.3545 225.58 17.8738 178.311 31.0845 143.46C40.7604 170.969 65.5277 189.324 72.3937 217.944Z" fill="white"></path> </mask> <g mask="url(#mask0_2829_3733)"> <path d="M193.739 -12.3506C168.813 11.5104 156.962 45.5004 142.731 76.9752C139.844 84.1296 135.928 90.8244 131.107 96.848C126.236 102.9 119.195 106.811 111.483 107.747" stroke="#4A4F3D" stroke-miterlimit="10"></path> <path d="M212.069 74.1421C203.413 75.7963 197.363 83.3647 191.97 90.344C185.172 99.0001 178.215 107.679 168.947 113.502C156.824 121.116 141.891 123.178 129.655 130.611C123.679 134.285 118.515 139.137 114.475 144.872C110.435 150.606 107.605 157.103 106.156 163.966" stroke="#4A4F3D" stroke-miterlimit="10"></path> <path d="M212.229 88.3047C206.201 98.1618 199.97 108.223 190.815 115.27C180.913 122.929 168.472 126.351 157.256 131.925C144.135 138.454 132.686 147.904 123.787 159.548" stroke="#4A4F3D" stroke-miterlimit="10"></path> <path d="M88.5046 53.3633C82.409 64.8972 76.4721 76.6578 73.5716 89.3701C70.6711 102.082 71.0111 115.95 77.0839 127.462C79.1181 130.696 80.8694 134.1 82.3184 137.636C85.9213 148.671 78.8514 160.092 72.1214 169.541" stroke="#4A4F3D" stroke-miterlimit="10"></path> <path d="M100.154 53.3633C88.3751 70.8625 83.6256 92.1586 86.8523 113.004C88.6651 124.334 92.8798 135.664 91.8375 147.198C90.9537 156.829 86.4444 165.689 82.0257 174.39" stroke="#4A4F3D" stroke-miterlimit="10"></path> <path d="M81.7052 222.973C81.4786 210.624 91.3584 200.109 102.439 194.648C113.52 189.187 126.006 187.442 137.766 183.613C158.792 176.7 177.127 163.38 190.201 145.521" stroke="#4A4F3D" stroke-miterlimit="10"></path> <path d="M93.3553 226.599C98.0233 216.742 107.79 210.148 118.009 206.205C128.229 202.262 139.129 200.789 149.733 198.07C160.338 195.351 170.943 191.272 178.557 183.432" stroke="#4A4F3D" stroke-miterlimit="10"></path> <path d="M56.2364 242.189C64.394 233.827 64.4394 220.096 59.8847 209.332C55.33 198.569 47.0592 189.912 39.672 180.848C32.5794 172.17 26.076 162.72 22.4957 152.183C18.9154 141.647 18.4622 129.524 23.2888 119.395" stroke="#4A4F3D" stroke-miterlimit="10"></path> <path d="M44.0697 241.441C49.1682 232.377 48.4658 220.866 44.5456 211.213C40.6254 201.56 33.85 193.357 26.9614 185.517C20.0727 177.676 12.8895 169.972 7.927 160.794" stroke="#4A4F3D" stroke-miterlimit="10"></path> <path d="M55.9885 281.187C52.6802 269.268 61.8122 256.85 73.0515 251.729C84.2909 246.608 97.1165 246.495 109.444 245.475C133.962 243.481 158.684 236.955 178.67 222.634" stroke="#4A4F3D" stroke-miterlimit="10"></path> <path d="M67.7486 275.953C70.3092 267.704 79.3732 263.331 87.8707 261.699C101.24 259.116 115.063 260.861 128.659 260.793C142.255 260.725 156.802 258.414 166.954 249.327" stroke="#4A4F3D" stroke-miterlimit="10"></path> <path d="M20.0718 317.104C25.9634 304.233 31.9683 289.549 26.6658 276.429C22.7683 266.708 13.5683 260.363 6.13584 252.998C-6.86024 240.016 -15.0174 222.974 -16.9774 204.71" stroke="#4A4F3D" stroke-miterlimit="10"></path> <path d="M23.1095 344.205C27.5056 331.266 42.1213 324.672 55.7173 323.335C69.3133 321.998 83.1132 324.4 96.5053 322.451C107.774 320.842 118.415 316.276 127.346 309.218" stroke="#4A4F3D" stroke-miterlimit="10"></path> <path d="M32.6252 342.256C33.0104 337.452 38.5168 335.005 43.2527 334.053C51.3707 332.423 59.705 332.17 67.9068 333.305C72.5404 334.194 77.2251 334.792 81.9334 335.095C86.7013 335.363 91.39 333.789 95.0308 330.699" stroke="#4A4F3D" stroke-miterlimit="10"></path> <path d="M20.4343 311.823C21.7485 298.091 15.9023 284.631 9.10426 272.621C2.30626 260.611 -5.21688 248.601 -7.91342 235.051" stroke="#4A4F3D" stroke-miterlimit="10"></path> </g> </svg> 