<?xml version="1.0" encoding="UTF-8"?> <svg xmlns="http://www.w3.org/2000/svg" width="603" height="258" viewBox="0 0 603 258" fill="none"> <path d="M0.337891 17.9001C17.4009 43.302 50.7563 84.3846 59.7523 87.7383C68.7484 91.092 125.059 42.2144 128.39 43.9365C131.721 45.6587 98.9315 98.3205 99.1581 105.277C99.3847 112.234 128.095 140.468 152.024 155.832C175.953 171.195 203.349 179.851 221.024 190.343C238.698 200.834 239.922 196.574 246.72 191.634C253.518 186.695 267.771 158.619 273.414 160.25C279.056 161.882 259.274 190.66 263.284 197.957C267.295 205.253 283.52 202.262 298.453 214.249C313.386 226.236 341.507 229.771 350.208 226.146C358.91 222.52 374.794 164.964 381.366 166.142C387.937 167.32 380.346 233.329 386.51 235.867C392.673 238.405 403.958 230.995 421.542 237.974C439.126 244.953 457.798 244.183 459.248 236.207C460.699 228.23 472.731 165.711 478.396 167.366C484.061 169.02 475.949 234.122 479.574 242.846C483.2 251.57 489.295 245.339 498.291 246.562C507.287 247.786 553.197 219.62 555.598 214.952C558 210.284 417.033 114.341 352.791 81.9827C288.55 49.6242 127.642 14.5918 127.642 14.5918L0.337891 17.9001Z" fill="#6F6F51"></path> <mask id="mask0_2829_3883" style="mask-type:luminance" maskUnits="userSpaceOnUse" x="0" y="14" width="556" height="234"> <path d="M0.333984 17.9001C17.397 43.302 50.7524 84.3846 59.7484 87.7383C68.7445 91.092 125.055 42.2144 128.386 43.9365C131.717 45.6587 98.9276 98.3205 99.1542 105.277C99.3808 112.234 128.091 140.468 152.02 155.832C175.949 171.195 203.345 179.851 221.02 190.343C238.695 200.834 239.918 196.574 246.716 191.634C253.514 186.695 267.767 158.619 273.41 160.25C279.052 161.882 259.27 190.66 263.281 197.957C267.291 205.253 283.516 202.262 298.449 214.249C313.382 226.236 341.503 229.771 350.204 226.146C358.906 222.52 374.79 164.964 381.362 166.142C387.933 167.32 380.342 233.329 386.506 235.867C392.669 238.405 403.954 230.995 421.538 237.974C439.122 244.953 457.794 244.183 459.244 236.207C460.695 228.23 472.727 165.711 478.392 167.366C484.057 169.02 475.945 234.122 479.57 242.846C483.196 251.57 489.291 245.339 498.287 246.562C507.284 247.786 553.193 219.62 555.595 214.952C557.997 210.284 417.029 114.341 352.788 81.9827C288.546 49.6242 127.638 14.5918 127.638 14.5918L0.333984 17.9001Z" fill="white"></path> </mask> <g mask="url(#mask0_2829_3883)"> <path d="M58.9558 24.4263L4.79834 69.6102" stroke="#636345" stroke-miterlimit="10"></path> <path d="M128.385 43.937L48.2595 131.178" stroke="#636345" stroke-miterlimit="10"></path> <path d="M231.195 52.8877L158.842 182.118" stroke="#636345" stroke-miterlimit="10"></path> <path d="M297.883 93.562L230.605 264.622" stroke="#636345" stroke-miterlimit="10"></path> <path d="M357.456 138.429L335.612 289.004" stroke="#636345" stroke-miterlimit="10"></path> <path d="M436.924 150.824L446.487 299.882" stroke="#636345" stroke-miterlimit="10"></path> <path d="M497.178 170.969L521.832 296.007" stroke="#636345" stroke-miterlimit="10"></path> </g> <path d="M0.361328 17.9228C1.65295 18.6705 42.5089 42.8487 69.293 46.7916C96.485 50.8251 108.993 71.3097 128.571 83.0476C148.15 94.7855 146.473 87.4436 146.473 87.4436C146.473 87.4436 176.248 40.0842 182.842 41.2172C189.436 42.3502 165.009 73.6437 172.283 80.3511C179.557 87.0585 217.331 110.24 227.46 107.022C237.589 103.804 258.391 76.8615 266.186 73.757C273.981 70.6526 240.195 110.693 246.63 120.255C253.066 129.818 325.736 162.267 359.93 179.058C394.124 195.849 410.099 185.856 414.654 183.386C419.209 180.916 424.058 149.17 424.353 147.13C424.556 149.238 428.884 198.274 436.045 204.845C443.206 211.416 480.821 217.036 489.319 219.483C497.816 221.931 495.981 188.439 502.915 196.552C509.849 204.664 511.639 216.719 518.777 218.781C522.629 219.869 533.189 218.622 542.071 217.263C549.458 216.084 555.667 214.838 555.667 214.838C453.085 53.5443 312.276 25.3779 250.006 11.9858C205.91 2.44599 136.049 5.18785 89.1205 7.88439C69.6556 9.06271 54.1335 10.1504 46.0665 10.5583C42.9168 10.5583 39.8803 10.8528 37.0025 11.1021H36.7985L31.8134 11.578C21.1338 12.5701 10.5903 14.697 0.361328 17.9228Z" fill="#8EA36A"></path> <mask id="mask1_2829_3883" style="mask-type:luminance" maskUnits="userSpaceOnUse" x="0" y="5" width="556" height="215"> <path d="M555.597 214.951C453.083 53.5443 312.297 25.3779 250.004 11.9859C187.712 -1.40618 73.6868 9.44797 45.951 10.581C30.5043 10.9689 15.1818 13.454 0.404297 17.9682C0.404297 17.9682 42.1441 42.8942 69.3588 46.8597C96.5735 50.8252 109.036 71.3778 128.637 83.1157C148.238 94.8535 146.539 87.5343 146.539 87.5343C146.539 87.5343 176.314 40.1749 182.908 41.3079C189.502 42.4409 165.097 73.7344 172.348 80.4191C179.6 87.1038 217.397 110.308 227.526 107.113C237.655 103.918 258.479 76.9521 266.274 73.8477C274.069 70.7432 240.26 110.783 246.696 120.323C253.131 129.863 325.802 162.358 359.996 179.239C394.19 196.121 410.165 186.037 414.72 183.567C419.274 181.097 424.441 147.311 424.441 147.311C424.441 147.311 428.837 198.432 436.111 205.117C443.385 211.802 480.887 217.308 489.385 219.755C497.882 222.203 496.047 188.711 502.981 196.823C509.914 204.936 511.727 216.991 518.843 219.03C525.958 221.07 555.597 214.951 555.597 214.951Z" fill="white"></path> </mask> <g mask="url(#mask1_2829_3883)"> <path d="M77.5848 -6.84473L-16.9753 57.0111" stroke="#869367" stroke-miterlimit="10"></path> <path d="M144.862 -8.86133L50.6639 80.555" stroke="#869367" stroke-miterlimit="10"></path> <path d="M234.709 -20.9619L137.407 145.362" stroke="#869367" stroke-miterlimit="10"></path> <path d="M314.292 -0.59082L185.787 233.102" stroke="#869367" stroke-miterlimit="10"></path> <path d="M376.787 -1.74609L289.251 230.678" stroke="#869367" stroke-miterlimit="10"></path> <path d="M424.644 37.3423L394.915 307.223" stroke="#869367" stroke-miterlimit="10"></path> <path d="M477.173 72.3975L477.558 282.728" stroke="#869367" stroke-miterlimit="10"></path> </g> <g style="mix-blend-mode:multiply" opacity="0.21"> <path d="M250.007 11.9858C205.911 2.44599 136.05 5.18785 89.1211 7.88439C177.495 5.25583 255.468 17.2203 285.674 33.4902C322.292 53.2497 343.344 62.427 384.404 87.6702C425.463 112.913 428.455 109.673 461.448 137.749C494.441 165.825 512.818 170.107 526.754 189.572C532.506 198.477 537.61 207.784 542.027 217.421C549.414 216.243 555.623 214.997 555.623 214.997C453.086 53.5443 312.277 25.3779 250.007 11.9858Z" fill="#8EA36A"></path> </g> <path d="M0.337891 17.9006C151.661 -9.49535 438.582 -7.13872 574.905 249.599L591.379 257.643L602.051 256.714C602.051 256.714 514.312 118.488 405.589 57.4196C296.867 -3.64907 143.504 -14.3446 0.337891 17.9006Z" fill="#C3CEAA"></path> </svg> 