<?xml version="1.0" encoding="UTF-8"?> <svg xmlns="http://www.w3.org/2000/svg" width="407" height="389" viewBox="0 0 407 389" fill="none"> <path d="M362.039 313.368C389.231 307.771 414.814 218.582 403.552 204.283C392.29 189.985 322.746 178.542 315.948 161.66C309.15 144.778 383.135 193.542 394.238 178.813C405.342 164.084 385.174 102.562 374.026 100.704C362.877 98.8462 320.344 90.1448 318.713 82.1685C317.081 74.1922 367.59 89.5783 371.057 82.1685C374.524 74.7587 364.712 9.45255 353.722 5.98557C337.611 0.841748 282.819 -3.55429 276.497 5.98557C270.175 15.5254 290.456 49.6287 298.432 52.144C306.408 54.6592 299.792 66.805 284.405 52.5292C269.019 38.2534 262.153 8.93139 251.911 7.70775C241.669 6.48411 179.263 -1.58286 171.264 9.67916C163.265 20.9412 214.839 70.2946 214.884 78.5655C214.93 86.8364 200.291 96.5349 186.446 73.6257C172.601 50.7164 149.737 12.2171 138.271 16.9757C126.805 21.7343 68.025 58.8287 61.9522 70.0454C55.8793 81.2621 94.8092 124.769 113.685 131.703C132.561 138.637 152.207 150.783 146.837 154.59C141.466 158.397 76.3413 131.93 53.2281 112.556C30.1149 93.1812 33.0833 103.492 24.5178 114.3C15.9524 125.109 -8.61107 183.413 4.50907 190.687C17.6292 197.961 92.09 212.554 112.484 206.708C132.878 200.862 102.355 222.094 85.4279 220.598C68.5009 219.103 25.6735 208.77 13.913 220.327C2.15243 231.883 20.4164 265.964 30.0242 287.445C39.6321 308.927 90.7757 327.463 115.022 324.155C115.022 324.155 131.337 387.24 173.462 388.146C215.587 389.053 223.881 384.861 227.325 373.35C230.769 361.838 205.322 318.965 212.596 305.777C219.87 292.589 226.192 356.105 246.767 370.993C267.342 385.88 327.799 361.09 340.489 345.954C353.178 330.817 279.465 275.481 280.644 256.968C281.822 238.455 334.982 318.965 362.039 313.368ZM174.21 185.068C172.588 185.463 170.89 185.416 169.293 184.932C165.327 183.867 161.067 182.666 158.574 179.335C158.058 178.745 157.692 178.04 157.507 177.278C157.321 176.517 157.322 175.722 157.509 174.961C158.212 172.831 160.75 172.038 162.948 171.608C168.567 170.407 173.303 173.216 177.563 176.729C178.367 177.268 178.96 178.068 179.24 178.995C179.288 179.65 179.163 180.306 178.878 180.898C178.491 181.916 177.865 182.826 177.052 183.552C176.24 184.278 175.265 184.797 174.21 185.068ZM212.732 149.945C208.51 152.353 203.666 153.449 198.819 153.094C196.408 152.894 194.081 152.113 192.037 150.819C189.993 149.525 188.293 147.755 187.081 145.662C185.804 142.502 184.914 139.2 184.429 135.827C183.523 132.111 181.869 128.146 183.206 124.497C183.395 123.844 183.793 123.271 184.339 122.866C184.792 122.571 185.381 122.503 185.857 122.231C187.262 121.506 187.692 119.671 188.825 118.56C190.661 116.725 193.697 117.269 196.19 117.949C200.881 119.195 209.197 119.761 212.89 123.002C216.145 126.378 218.913 130.192 221.116 134.332C221.752 135.851 221.998 137.505 221.832 139.143C221.665 140.782 221.092 142.353 220.164 143.713C218.24 146.428 215.639 148.592 212.618 149.99L212.732 149.945ZM244.139 262.338C243.552 262.794 242.873 263.117 242.149 263.285C241.426 263.453 240.674 263.463 239.946 263.313C235.512 262.333 231.569 259.812 228.82 256.197C223.284 249.946 219.199 242.549 216.856 234.534C216.453 233.673 216.284 232.721 216.368 231.774C216.452 230.827 216.784 229.918 217.332 229.141C218.314 228.387 219.541 228.024 220.776 228.122C229.84 228.303 237.386 235.192 240.558 243.236C241.623 245.887 242.666 248.516 243.708 251.144C245.058 253.761 245.64 256.708 245.385 259.642C245.251 260.682 244.772 261.647 244.025 262.383L244.139 262.338ZM292.382 203.422C289.379 204.306 286.185 204.306 283.182 203.422C274.979 201.451 247.492 188.059 256.851 175.641C257.618 174.708 258.608 173.984 259.729 173.534C264.261 171.63 269.518 173.284 273.936 175.414C281.637 179.143 288.558 184.304 294.33 190.619C295.98 192.156 297.092 194.181 297.503 196.398C297.497 197.975 296.986 199.508 296.044 200.773C295.101 202.037 293.778 202.966 292.268 203.422H292.382Z" fill="#95AC70"></path> <mask id="mask0_2829_3971" style="mask-type:luminance" maskUnits="userSpaceOnUse" x="0" y="0" width="407" height="389"> <path d="M362.038 313.368C389.23 307.771 414.813 218.581 403.551 204.283C392.289 189.984 322.745 178.541 315.947 161.659C309.149 144.778 383.134 193.542 394.237 178.813C405.341 164.084 385.173 102.562 374.025 100.704C362.876 98.8457 320.343 90.1443 318.712 82.168C317.08 74.1917 367.589 89.5778 371.056 82.168C374.523 74.7582 364.711 9.45206 353.721 5.98508C337.61 0.841259 282.818 -3.55478 276.496 5.98508C270.174 15.5249 290.455 49.6282 298.431 52.1435C306.407 54.6587 299.791 66.8045 284.404 52.5287C269.018 38.2529 262.152 8.9309 251.91 7.70726C241.668 6.48362 179.262 -1.58335 171.263 9.67867C163.264 20.9407 214.838 70.2942 214.884 78.5651C214.929 86.836 200.29 96.5345 186.445 73.6252C172.6 50.7159 149.736 12.2166 138.27 16.9752C126.804 21.7338 68.0241 58.8282 61.9512 70.0449C55.8783 81.2616 94.8082 124.769 113.684 131.703C132.56 138.637 152.206 150.782 146.836 154.589C141.465 158.396 76.3403 131.929 53.2271 112.555C30.1139 93.1808 33.0823 103.491 24.5169 114.3C15.9514 125.109 -8.61204 183.413 4.5081 190.687C17.6282 197.961 92.089 212.554 112.483 206.707C132.877 200.861 102.354 222.093 85.4269 220.598C68.4999 219.102 25.6725 208.769 13.912 220.326C2.15145 231.883 20.4154 265.963 30.0232 287.445C39.6311 308.927 90.7747 327.463 115.021 324.154C115.021 324.154 131.336 387.24 173.461 388.146C215.586 389.052 223.88 384.86 227.324 373.349C230.768 361.838 205.321 318.965 212.595 305.777C219.869 292.589 226.191 356.105 246.766 370.992C267.341 385.88 327.798 361.09 340.488 345.953C353.177 330.816 279.465 275.48 280.643 256.967C281.821 238.454 334.981 318.965 362.038 313.368ZM174.209 185.067C172.587 185.462 170.889 185.415 169.292 184.931C165.326 183.866 161.066 182.665 158.573 179.334C158.057 178.745 157.691 178.039 157.506 177.278C157.32 176.516 157.321 175.722 157.508 174.961C158.211 172.831 160.749 172.038 162.947 171.607C168.566 170.406 173.302 173.216 177.562 176.728C178.366 177.267 178.959 178.068 179.239 178.994C179.287 179.649 179.162 180.306 178.877 180.898C178.49 181.916 177.864 182.826 177.051 183.552C176.239 184.277 175.264 184.797 174.209 185.067ZM212.731 149.944C208.509 152.352 203.665 153.449 198.818 153.094C196.407 152.893 194.08 152.113 192.036 150.818C189.992 149.524 188.292 147.755 187.08 145.661C185.803 142.502 184.913 139.2 184.428 135.827C183.522 132.111 181.868 128.145 183.205 124.497C183.394 123.844 183.792 123.27 184.338 122.865C184.791 122.571 185.38 122.503 185.856 122.231C187.261 121.506 187.692 119.67 188.825 118.56C190.66 116.724 193.696 117.268 196.189 117.948C200.88 119.194 209.196 119.761 212.889 123.001C216.144 126.378 218.912 130.191 221.115 134.331C221.751 135.85 221.997 137.504 221.831 139.143C221.664 140.781 221.091 142.352 220.163 143.713C218.239 146.428 215.638 148.592 212.618 149.989L212.731 149.944ZM244.138 262.338C243.551 262.793 242.872 263.116 242.148 263.284C241.425 263.453 240.673 263.462 239.945 263.312C235.511 262.333 231.568 259.812 228.819 256.197C223.283 249.946 219.198 242.548 216.855 234.534C216.452 233.673 216.284 232.72 216.367 231.773C216.451 230.826 216.783 229.918 217.331 229.141C218.313 228.387 219.54 228.023 220.775 228.121C229.839 228.302 237.385 235.191 240.557 243.235C241.622 245.887 242.665 248.515 243.707 251.144C245.057 253.761 245.639 256.707 245.384 259.641C245.25 260.681 244.771 261.647 244.024 262.383L244.138 262.338ZM292.381 203.422C289.378 204.305 286.184 204.305 283.181 203.422C274.978 201.45 247.491 188.058 256.85 175.64C257.617 174.708 258.607 173.983 259.728 173.533C264.26 171.63 269.517 173.284 273.935 175.414C281.636 179.143 288.557 184.303 294.329 190.619C295.979 192.155 297.091 194.181 297.502 196.397C297.496 197.974 296.985 199.508 296.043 200.772C295.1 202.037 293.777 202.966 292.267 203.422H292.381Z" fill="white"></path> </mask> <g mask="url(#mask0_2829_3971)"> <path d="M282.953 -33.3745L317.374 55.9285" stroke="#8E9C6D" stroke-miterlimit="10"></path> <path d="M186.172 -26.0098L275.249 112.533" stroke="#8E9C6D" stroke-miterlimit="10"></path> <path d="M79.4211 21.4624L242.55 154.023" stroke="#8E9C6D" stroke-miterlimit="10"></path> <path d="M-2.31183 125.653C7.13739 133.312 201.039 208.045 201.039 208.045" stroke="#8E9C6D" stroke-miterlimit="10"></path> <path d="M-27.2162 247.134L150.733 258.26" stroke="#8E9C6D" stroke-miterlimit="10"></path> <path d="M142.643 296.646L198.658 422.114" stroke="#8E9C6D" stroke-miterlimit="10"></path> <path d="M179.556 232.405L324.286 398.91" stroke="#8E9C6D" stroke-miterlimit="10"></path> <path d="M227.393 177.047L447.625 302.062" stroke="#8E9C6D" stroke-miterlimit="10"></path> <path d="M258.844 129.302L413.522 147.045" stroke="#8E9C6D" stroke-miterlimit="10"></path> <path d="M324.805 46.4795L406.336 47.9296" stroke="#8E9C6D" stroke-miterlimit="10"></path> </g> </svg> 