<?xml version="1.0" encoding="UTF-8"?> <svg xmlns="http://www.w3.org/2000/svg" width="36" height="36" viewBox="0 0 36 36" fill="none"> <path fill-rule="evenodd" clip-rule="evenodd" d="M18.2054 2C17.8988 2 17.6222 2.09271 17.3974 2.28191C17.1818 2.46337 17.0488 2.70405 16.9634 2.94419C16.7976 3.41053 16.7669 4.00803 16.7669 4.57809C16.7669 4.86896 16.7754 5.17116 16.7837 5.46601L16.7837 5.46608L16.7839 5.473C16.7923 5.77282 16.8004 6.06528 16.8004 6.34614C16.8004 6.76072 16.7819 7.11771 16.7318 7.40406C16.5385 7.36381 16.3316 7.42063 16.1851 7.56722L14.7806 8.97164H13.4407C13.2134 8.97164 13.0057 9.10005 12.904 9.30332L11.9973 11.1168H10.7975C10.4661 11.1168 10.1975 11.3854 10.1975 11.7168V12.958L8.87486 13.8398C8.64973 13.9899 8.55291 14.2721 8.63847 14.5287L9.05287 15.772L7.70624 17.1186C7.54554 17.2793 7.48943 17.517 7.5613 17.7326L8.0007 19.0508L7.10077 20.4007C6.96641 20.6023 6.96641 20.8648 7.10077 21.0664L8.0007 22.4163L7.5613 23.7345C7.48943 23.9501 7.54554 24.1878 7.70624 24.3485L9.05287 25.6951L8.63847 26.9383C8.55291 27.195 8.64973 27.4772 8.87486 27.6273L10.1975 28.509V30.2866C10.1975 30.6179 10.4661 30.8866 10.7975 30.8866H11.9973L12.8958 32.6836C13.0216 32.9351 13.3052 33.0655 13.578 32.9973L15.3034 32.5659L16.1332 33.8106C16.2968 34.056 16.6144 34.1461 16.8825 34.0232L18.2054 33.4169L19.5284 34.0232C19.7964 34.1461 20.114 34.056 20.2776 33.8106L21.1074 32.5659L22.8329 32.9973C23.1057 33.0655 23.3893 32.9351 23.515 32.6836L24.4135 30.8866H25.6133C25.9447 30.8866 26.2133 30.6179 26.2133 30.2866V28.509L27.536 27.6273C27.7611 27.4772 27.8579 27.195 27.7724 26.9383L27.358 25.6951L28.7046 24.3485C28.8653 24.1878 28.9214 23.9501 28.8495 23.7345L28.4101 22.4163L29.3101 21.0664C29.4444 20.8648 29.4444 20.6023 29.3101 20.4007L28.4101 19.0508L28.8495 17.7326C28.9214 17.517 28.8653 17.2793 28.7046 17.1186L27.358 15.772L27.7724 14.5287C27.8579 14.2721 27.7611 13.9899 27.536 13.8398L26.2133 12.958V11.7168C26.2133 11.3854 25.9447 11.1168 25.6133 11.1168H24.4135L23.5068 9.30332C23.4052 9.10005 23.1974 8.97164 22.9701 8.97164H21.6302L20.3129 7.65434C20.3014 6.74761 20.2142 5.48432 19.9812 4.40549C19.8564 3.82762 19.6821 3.26522 19.432 2.8352C19.1882 2.41603 18.7951 2 18.2054 2ZM19.312 7.59675C19.2974 6.73839 19.2125 5.58291 19.0038 4.61662C18.8873 4.07723 18.7398 3.63411 18.5676 3.33791C18.389 3.03087 18.2593 3 18.2054 3C18.1098 3 18.068 3.0246 18.0414 3.04698C18.0056 3.0771 17.9543 3.14227 17.9056 3.2792C17.8033 3.56701 17.7669 4.00855 17.7669 4.57809C17.7669 4.85471 17.7751 5.14497 17.7835 5.44494L17.7835 5.44544V5.44549C17.7918 5.74253 17.8004 6.049 17.8004 6.34614C17.8004 6.89932 17.7721 7.47712 17.6295 7.9505L18.2054 8.33444L19.312 7.59675ZM16.6603 8.5062L17.9184 9.34497C17.9433 9.36237 17.9695 9.37735 17.9968 9.38983C18.0636 9.42061 18.1348 9.43548 18.2054 9.43542C18.3072 9.43532 18.4078 9.40419 18.4924 9.34497L19.7506 8.5062L21.0403 9.79591C21.1528 9.90843 21.3054 9.97164 21.4645 9.97164H22.7229L23.6296 11.7851C23.7313 11.9884 23.939 12.1168 24.1663 12.1168H25.2133V13.1721C25.2133 13.3727 25.3136 13.56 25.4805 13.6713L26.7271 14.5024L26.3311 15.6903C26.2592 15.9059 26.3154 16.1436 26.4761 16.3043L27.8227 17.6509L27.3996 18.9202C27.341 19.0958 27.3669 19.2887 27.4696 19.4427L28.3301 20.7335L27.4696 22.0243C27.3669 22.1784 27.341 22.3712 27.3996 22.5469L27.8227 23.8162L26.4761 25.1628C26.3154 25.3235 26.2592 25.5612 26.3311 25.7768L26.7271 26.9647L25.4805 27.7957C25.3136 27.907 25.2133 28.0944 25.2133 28.295V29.8866H24.1663C23.939 29.8866 23.7313 30.015 23.6296 30.2183L22.7641 31.9493L21.0765 31.5274C20.8305 31.4659 20.5724 31.5657 20.4317 31.7767L19.6348 32.972L18.4165 32.4136L18.4046 32.4083C18.3398 32.3801 18.2721 32.3667 18.2054 32.3668C18.1388 32.3667 18.0711 32.3801 18.0062 32.4083L17.9943 32.4136L16.776 32.972L15.9791 31.7767C15.8385 31.5657 15.5804 31.4659 15.3344 31.5274L13.6467 31.9493L12.7812 30.2183C12.6796 30.015 12.4718 29.8866 12.2445 29.8866H11.1975V28.295C11.1975 28.0944 11.0972 27.907 10.9303 27.7957L9.68376 26.9647L10.0797 25.7768C10.1516 25.5612 10.0955 25.3235 9.93479 25.1628L8.58816 23.8162L9.01125 22.5469C9.0698 22.3712 9.04398 22.1784 8.94127 22.0243L8.08074 20.7335L8.94127 19.4427C9.04398 19.2887 9.0698 19.0958 9.01125 18.9202L8.58816 17.6509L9.93479 16.3043C10.0955 16.1436 10.1516 15.9059 10.0797 15.6903L9.68376 14.5024L10.9303 13.6713C11.0972 13.56 11.1975 13.3727 11.1975 13.1721V12.1168H12.2445C12.4718 12.1168 12.6796 11.9884 12.7812 11.7851L13.6879 9.97164H14.9463C15.1054 9.97164 15.2581 9.90843 15.3706 9.79591L16.6603 8.5062ZM16.9966 12.3893C16.8309 12.1684 16.5175 12.1236 16.2966 12.2893C16.0757 12.455 16.0309 12.7684 16.1966 12.9893C16.5057 13.4015 17.0815 13.9298 17.8178 14.0896C18.1982 14.1722 18.6163 14.1542 19.0398 13.9739C19.4591 13.7954 19.853 13.471 20.2143 12.9893C20.3799 12.7684 20.3352 12.455 20.1143 12.2893C19.8933 12.1236 19.5799 12.1684 19.4143 12.3893C19.1319 12.7657 18.869 12.9597 18.648 13.0538C18.4314 13.1461 18.226 13.1549 18.0299 13.1124C17.6133 13.0219 17.2238 12.6922 16.9966 12.3893ZM16.9966 27.4052C16.8309 27.1843 16.5175 27.1395 16.2966 27.3052C16.0757 27.4709 16.0309 27.7843 16.1966 28.0052C16.5057 28.4173 17.0815 28.9456 17.8178 29.1055C18.1982 29.188 18.6163 29.1701 19.0398 28.9897C19.4591 28.8112 19.853 28.4868 20.2143 28.0052C20.3799 27.7843 20.3352 27.4709 20.1143 27.3052C19.8933 27.1395 19.5799 27.1843 19.4143 27.4052C19.1319 27.7816 18.869 27.9756 18.648 28.0697C18.4314 28.1619 18.226 28.1708 18.0299 28.1282C17.6133 28.0378 17.2238 27.7081 16.9966 27.4052ZM16.2966 19.7973C16.5175 19.6316 16.8309 19.6763 16.9966 19.8973C17.2238 20.2002 17.6133 20.5299 18.0299 20.6203C18.226 20.6629 18.4314 20.654 18.648 20.5618C18.869 20.4677 19.1319 20.2737 19.4143 19.8973C19.5799 19.6763 19.8933 19.6316 20.1143 19.7973C20.3352 19.9629 20.3799 20.2763 20.2143 20.4972C19.853 20.9789 19.4591 21.3033 19.0398 21.4818C18.6163 21.6622 18.1982 21.6801 17.8178 21.5975C17.0815 21.4377 16.5057 20.9094 16.1966 20.4972C16.0309 20.2763 16.0757 19.9629 16.2966 19.7973ZM22.8957 19.8973C22.73 19.6763 22.4166 19.6316 22.1957 19.7973C21.9747 19.9629 21.93 20.2763 22.0957 20.4972C22.4048 20.9094 22.9805 21.4377 23.7169 21.5975C24.0973 21.6801 24.5154 21.6622 24.9389 21.4818C25.3582 21.3033 25.7521 20.9789 26.1133 20.4972C26.279 20.2763 26.2343 19.9629 26.0133 19.7973C25.7924 19.6316 25.479 19.6763 25.3133 19.8973C25.031 20.2737 24.7681 20.4677 24.5471 20.5618C24.3305 20.654 24.1251 20.6629 23.929 20.6203C23.5124 20.5299 23.1228 20.2002 22.8957 19.8973ZM10.3975 19.7973C10.6184 19.6316 10.9318 19.6763 11.0975 19.8973C11.3247 20.2002 11.7142 20.5299 12.1308 20.6203C12.327 20.6629 12.5323 20.654 12.749 20.5618C12.9699 20.4677 13.2329 20.2737 13.5152 19.8973C13.6809 19.6763 13.9943 19.6316 14.2152 19.7973C14.4361 19.9629 14.4809 20.2763 14.3152 20.4972C13.954 20.9789 13.56 21.3033 13.1407 21.4818C12.7172 21.6622 12.2991 21.6801 11.9187 21.5975C11.1824 21.4377 10.6066 20.9094 10.2975 20.4972C10.1318 20.2763 10.1766 19.9629 10.3975 19.7973ZM20.7505 15.607C20.5849 15.3861 20.2715 15.3413 20.0505 15.507C19.8296 15.6727 19.7849 15.9861 19.9505 16.207C20.2596 16.6191 20.8354 17.1475 21.5718 17.3073C21.9522 17.3899 22.3703 17.3719 22.7938 17.1916C23.213 17.013 23.607 16.6886 23.9682 16.207C24.1339 15.9861 24.0891 15.6727 23.8682 15.507C23.6473 15.3413 23.3339 15.3861 23.1682 15.607C22.8859 15.9834 22.6229 16.1774 22.402 16.2715C22.1853 16.3638 21.98 16.3726 21.7839 16.3301C21.3672 16.2396 20.9777 15.9099 20.7505 15.607ZM20.0505 24.0875C20.2715 23.9218 20.5849 23.9666 20.7505 24.1875C20.9777 24.4904 21.3672 24.8201 21.7839 24.9105C21.98 24.9531 22.1853 24.9443 22.402 24.852C22.6229 24.7579 22.8859 24.5639 23.1682 24.1875C23.3339 23.9666 23.6473 23.9218 23.8682 24.0875C24.0891 24.2532 24.1339 24.5666 23.9682 24.7875C23.607 25.2691 23.213 25.5935 22.7938 25.7721C22.3703 25.9524 21.9522 25.9704 21.5718 25.8878C20.8354 25.728 20.2596 25.1996 19.9505 24.7875C19.7849 24.5666 19.8296 24.2532 20.0505 24.0875ZM13.2426 15.607C13.0769 15.3861 12.7635 15.3413 12.5426 15.507C12.3217 15.6727 12.2769 15.9861 12.4426 16.207C12.7517 16.6191 13.3275 17.1475 14.0639 17.3073C14.4442 17.3899 14.8623 17.3719 15.2859 17.1916C15.7051 17.013 16.0991 16.6886 16.4603 16.207C16.626 15.9861 16.5812 15.6727 16.3603 15.507C16.1394 15.3413 15.826 15.3861 15.6603 15.607C15.378 15.9834 15.115 16.1774 14.8941 16.2715C14.6774 16.3638 14.4721 16.3726 14.276 16.3301C13.8593 16.2396 13.4698 15.9099 13.2426 15.607ZM12.5426 24.0875C12.7635 23.9218 13.0769 23.9666 13.2426 24.1875C13.4698 24.4904 13.8593 24.8201 14.276 24.9105C14.4721 24.9531 14.6774 24.9443 14.8941 24.852C15.115 24.7579 15.378 24.5639 15.6603 24.1875C15.826 23.9666 16.1394 23.9218 16.3603 24.0875C16.5812 24.2532 16.626 24.5666 16.4603 24.7875C16.0991 25.2691 15.7051 25.5935 15.2859 25.7721C14.8623 25.9524 14.4442 25.9704 14.0639 25.8878C13.3275 25.728 12.7517 25.1996 12.4426 24.7875C12.2769 24.5666 12.3217 24.2532 12.5426 24.0875Z" fill="#FFDC20"></path> </svg> 