<?xml version="1.0" encoding="UTF-8"?> <svg xmlns="http://www.w3.org/2000/svg" width="305" height="253" viewBox="0 0 305 253" fill="none"> <path d="M300.72 124.832C291.996 133.896 275.59 153.112 256.126 160.567C236.661 168.022 219.666 163.762 203.736 158.981C189.301 154.63 179.829 155.423 160.41 162.017C146.814 172.418 159.979 252.861 159.979 252.861L139.585 247.65C139.585 247.65 149.895 192.246 146.202 162.878C125.06 155.491 115.384 154.426 100.338 158.958C84.476 163.74 67.4357 168.022 47.9708 160.544C28.5058 153.067 12.1 133.942 3.37588 124.81C-5.34822 115.678 4.12366 118.963 19.9403 119.122C35.757 119.281 42.6003 113.978 65.2603 115.882C87.9203 117.785 95.7607 135.754 111.305 143.074C121.028 147.53 131.045 151.315 141.285 154.404C130.612 138.542 123.632 132.22 110.014 126.94C94.4917 120.935 78.4711 113.888 67.7076 96.0315C56.9441 78.1754 55.7432 52.9775 54.4742 40.4465C53.2052 27.9155 58.6663 36.277 71.0386 46.1115C83.411 55.9459 92.1578 56.0366 108.745 71.3774C125.332 86.7183 120.596 105.775 128.414 121.048C134.002 131.705 140.411 141.91 147.584 151.571C149.034 131.177 147.403 121.841 139.585 108.993C130.929 94.7852 122.477 79.535 124.788 58.7105C127.099 37.886 141.443 17.288 148.083 6.59251C154.722 -4.10301 153.929 5.82205 157.781 21.1629C161.633 36.5037 168.522 41.8741 172.352 64.2169C176.181 86.5596 160.84 98.7507 157.781 115.632C155.547 128.465 154.433 141.468 154.45 154.494C162.541 144.047 169.685 132.9 175.796 121.184C183.636 105.911 178.9 86.8316 195.487 71.5134C212.074 56.1952 220.799 56.1046 233.171 46.2475C245.543 36.3904 251.004 28.0062 249.735 40.5825C248.466 53.1588 247.288 78.3114 236.525 96.1675C225.761 114.024 209.718 121.093 194.196 127.076C180.6 132.355 173.598 138.587 162.925 154.54C173.167 151.459 183.184 147.673 192.904 143.21C208.472 135.981 216.471 118.034 238.949 116.018C261.428 114.001 268.407 119.439 284.269 119.258C300.131 119.077 309.377 115.7 300.72 124.832Z" fill="#5E7439"></path> <path d="M276.793 129.772C266.895 136.765 255.614 141.555 243.709 143.821C223.315 147.9 178.471 148.942 152.004 161.949C161.471 146.91 172.141 132.664 183.909 119.348C199.941 101.343 214.922 82.4284 228.776 62.6982" stroke="#404024" stroke-miterlimit="10"></path> <path d="M86.9688 75.8634C103.737 105.321 125.921 123.178 132.719 137.476C137.488 146.814 144.039 155.128 152.003 161.949C151.213 151.691 151.213 141.389 152.003 131.131C153.159 109.853 145.409 81.2792 149.488 40.4912" stroke="#404024" stroke-miterlimit="10"></path> <path d="M152.002 161.949C139.063 156.964 114.59 149.713 95.1253 147.9C75.6604 146.087 38.9512 131.585 38.9512 131.585" stroke="#404024" stroke-miterlimit="10"></path> <path d="M144.355 99.9474C172.142 133.437 193 172.112 205.718 213.728C166.749 194.361 132.013 167.45 103.526 134.554C75.7274 101.062 54.8606 62.3797 42.1372 20.7549C81.119 40.1212 115.864 67.0398 144.355 99.9474Z" fill="#616046"></path> </svg> 