<?xml version="1.0" encoding="UTF-8"?> <svg xmlns="http://www.w3.org/2000/svg" width="151" height="169" viewBox="0 0 151 169" fill="none"> <path d="M84.9762 101.168L65.1337 80.3504C44.4363 94.257 24.1965 89.5132 12.1562 65.3482C30.7946 71.0553 39.2108 65.8659 58.2707 73.8968C50.7936 65.8659 42.6182 54.9092 32.095 51.5619C13.4324 43.1337 5.60619 20.257 0.33252 1.55835C7.08716 9.62539 14.9495 16.7172 22.3423 24.1822C30.9222 32.3866 37.7038 42.2843 42.257 53.2476C44.1113 57.7386 48.2772 61.2544 52.1422 64.9026C43.4491 44.7471 43.4249 32.0205 44.8096 9.92641C59.4266 25.5789 71.1057 37.6192 61.0641 58.3768C56.3202 68.888 56.4165 68.9121 64.2548 77.0514C69.5044 82.5177 74.7058 88.0322 80.425 93.2698C70.1184 76.0159 78.1975 57.5701 79.6062 39.0882C88.9857 54.9092 98.6541 75.9076 86.0478 92.7039C84.0732 95.5695 83.8805 97.6043 86.7822 100.301C92.0198 105.117 96.7276 110.572 102.218 115.424C95.7042 97.7367 107.191 82.0722 108.997 64.6257C121.254 78.2434 120.423 102.457 107.66 113.762C104.674 116.411 104.602 118.253 107.431 121.119C115.414 129.186 123.084 137.506 131.018 145.802C130.164 132.04 131.356 120.625 138.496 108.826C154.148 143.442 128.093 140.516 137.075 151.677C141.289 156.494 145.503 161.382 149.753 166.246L148.935 166.969C140.819 158.42 132.596 149.968 124.625 141.287C122.217 138.674 120.832 138.71 118.027 140.974C107.371 150.401 84.4946 144.887 75.5245 135.447C83.134 138.313 88.6967 134.038 94.8493 133.039C101.002 132.04 107.287 131.221 113.391 130.342L92.8265 108.645C79.1728 126.333 54.6104 120.12 40.0657 106.671C55.5014 107.393 69.5284 98.8565 84.9762 101.168Z" fill="#323824"></path> <mask id="mask0_2863_776" style="mask-type:luminance" maskUnits="userSpaceOnUse" x="1" y="1" width="148" height="167"> <path d="M84.7591 101.243L65.2603 80.3828C44.6738 94.5404 24.6699 89.8898 12.9183 65.6034C31.3302 71.2357 39.698 65.948 58.511 73.9206C51.1647 65.8721 43.1475 54.8782 32.753 51.5722C14.3362 43.1964 6.74751 20.1813 1.65674 1.36218C8.28756 9.45183 16.0218 16.5509 23.2885 24.0293C31.7253 32.2455 38.3701 42.1808 42.8015 53.2052C44.6059 57.7213 48.7056 61.2389 52.5065 64.8921C44.0407 44.6264 44.1053 31.7944 45.6297 9.5081C59.9913 25.1945 71.4696 37.2582 61.3843 58.2536C56.6148 68.8831 56.7101 68.9068 64.4131 77.0622C69.5721 82.5394 74.683 88.0655 80.3084 93.309C70.2252 75.9797 78.3515 57.328 79.8746 38.6835C89.05 54.5743 98.4754 75.6834 85.8788 92.7016C83.9041 95.6039 83.6992 97.6568 86.553 100.357C91.7046 105.179 96.3273 110.648 101.729 115.504C95.4033 97.7129 106.884 81.8432 108.793 64.2402C120.832 77.8904 119.842 102.31 107.128 113.793C104.154 116.483 104.069 118.341 106.85 121.212C114.697 129.294 122.232 137.632 130.029 145.945C129.279 132.074 130.538 120.558 137.689 108.613C152.943 143.414 127.17 140.635 135.984 151.83C140.122 156.658 144.26 161.559 148.434 166.436L147.619 167.17C139.644 158.604 131.562 150.135 123.731 141.434C121.366 138.816 119.995 138.861 117.202 141.162C106.587 150.738 83.9783 145.327 75.1638 135.868C82.6771 138.708 88.2137 134.361 94.3116 133.313C100.409 132.266 106.637 131.399 112.687 130.473L92.4787 108.731C78.8389 126.654 54.566 120.551 40.2606 107.086C55.5365 107.713 69.4823 99.0135 84.7591 101.243Z" fill="white"></path> </mask> <g mask="url(#mask0_2863_776)"> <path d="M-3.84863 -4.5708C2.74087 12.5467 16.863 25.1191 29.2802 38.4054C32.1709 41.2582 34.6356 44.5282 36.5975 48.1136C38.5588 51.751 39.0375 56.0447 37.9313 60.0784" stroke="#4A4F3D" stroke-miterlimit="10"></path> <path d="M42.4098 3.6464C41.4978 8.26827 43.9363 12.762 46.2241 16.8095C49.0605 21.8327 51.8485 27.0495 52.817 32.7845C54.07 40.2943 52.1129 48.1007 53.2596 55.6353C53.8514 59.3214 55.1696 62.837 57.1339 65.9689C59.0983 69.1008 61.6679 71.7835 64.6869 73.8544" stroke="#4A4F3D" stroke-miterlimit="10"></path> <path d="M49.3428 6.40588C52.8482 11.3398 56.4823 16.4179 58.0621 22.3292C59.7802 28.7471 58.975 35.6142 59.4316 42.2447C59.9741 50.0326 62.2561 57.568 66.1014 64.2688" stroke="#4A4F3D" stroke-miterlimit="10"></path> <path d="M7.37988 60.4076C11.7839 65.7489 16.3437 71.0526 21.9535 75.0437C27.5633 79.0348 34.4152 81.6023 41.2654 80.8503C43.2434 80.4813 45.2465 80.2847 47.2528 80.2625C53.3654 80.6502 57.515 86.4569 60.7708 91.6958" stroke="#4A4F3D" stroke-miterlimit="10"></path> <path d="M9.74268 54.7102C15.9239 64.0977 25.3839 70.7126 36.2307 73.2319C42.2045 74.5965 48.5336 74.7264 53.9354 77.5345C58.4662 79.9455 61.8858 83.9134 65.198 87.8331" stroke="#4A4F3D" stroke-miterlimit="10"></path> <path d="M88.9211 97.6376C82.9571 95.3143 79.8593 88.3513 79.4246 81.7968C78.9898 75.2424 80.6685 68.701 81.091 62.13C81.92 50.355 79.1453 38.6477 73.1562 28.6515" stroke="#4A4F3D" stroke-miterlimit="10"></path> <path d="M93.245 92.5744C89.4812 88.3077 88.2509 82.1749 88.3986 76.3747C88.5464 70.5746 89.9225 64.8665 90.6845 59.1003C91.4465 53.3341 91.5604 47.2688 89.3303 41.9596" stroke="#4A4F3D" stroke-miterlimit="10"></path> <path d="M93.6286 113.966C91.152 108.093 84.4206 105.278 78.2304 105.403C72.0401 105.527 66.1171 107.945 60.184 109.913C54.5037 111.756 48.5847 113.164 42.6487 112.826C36.7126 112.489 30.7241 110.245 26.6798 105.699" stroke="#4A4F3D" stroke-miterlimit="10"></path> <path d="M90.7986 119.74C87.3598 115.304 81.5909 113.346 76.065 113.372C70.539 113.398 65.1489 115.185 59.9264 117.094C54.704 119.004 49.4687 121.088 43.9638 121.758" stroke="#4A4F3D" stroke-miterlimit="10"></path> <path d="M112.527 121.903C106.196 121.195 102.062 114.216 101.777 107.63C101.491 101.044 103.98 94.6986 105.91 88.4044C109.744 75.8883 111.461 62.3802 108.53 49.665" stroke="#4A4F3D" stroke-miterlimit="10"></path> <path d="M112.542 115.095C109.041 112.203 108.787 106.857 109.677 102.338C111.06 95.2092 114.608 88.7333 117.255 81.9723C119.902 75.2113 121.639 67.5857 119.283 60.7652" stroke="#4A4F3D" stroke-miterlimit="10"></path> <path d="M123.28 146.72C118.167 141.119 112.166 135.088 104.671 135.124C99.1096 135.151 94.1567 138.52 89.0289 140.8C80.0509 144.766 70.0576 145.457 60.7088 142.758" stroke="#4A4F3D" stroke-miterlimit="10"></path> <path d="M137.24 150.657C131.936 145.927 131.648 137.41 133.666 130.414C135.683 123.418 139.567 117.114 141.235 110.011C142.648 104.14 142.544 98.0018 140.931 92.2145" stroke="#4A4F3D" stroke-miterlimit="10"></path> <path d="M138.253 145.605C136.012 144.47 135.924 141.245 136.409 138.718C137.226 134.375 138.75 130.197 140.916 126.359C142.261 124.238 143.472 122.033 144.543 119.755C145.617 117.45 145.788 114.818 145.02 112.408" stroke="#4A4F3D" stroke-miterlimit="10"></path> <path d="M120.841 145.444C114.343 141.913 106.597 142.199 99.3175 143.125C92.0382 144.052 84.6372 145.532 77.436 144.117" stroke="#4A4F3D" stroke-miterlimit="10"></path> </g> </svg> 