<?xml version="1.0" encoding="UTF-8"?> <svg xmlns="http://www.w3.org/2000/svg" width="154" height="173" viewBox="0 0 154 173" fill="none"> <path d="M87.1007 103.279L67.2582 82.461C46.5609 96.3676 26.321 91.6238 14.2807 67.4588C32.9191 73.1659 41.3353 67.9765 60.3952 76.0074C52.9181 67.9765 44.7428 57.0198 34.2195 53.6725C15.5569 45.2443 7.73071 22.3676 2.45703 3.66895C9.21167 11.736 17.0741 18.8278 24.4668 26.2928C33.0467 34.4972 39.8283 44.3949 44.3816 55.3582C46.2358 59.8492 50.4018 63.365 54.2667 67.0132C45.5736 46.8577 45.5495 34.1311 46.9341 12.037C61.5511 27.6895 73.2302 39.7298 63.1886 60.4874C58.4447 70.9986 58.541 71.0227 66.3793 79.162C71.6289 84.6283 76.8303 90.1428 82.5495 95.3803C72.2429 78.1265 80.322 59.6807 81.7308 41.1987C91.1102 57.0198 100.779 78.0182 88.1723 94.8144C86.1977 97.6801 86.005 99.7149 88.9068 102.412C94.1443 107.228 98.8521 112.682 104.343 117.535C97.8287 99.8473 109.315 84.1828 111.121 66.7363C123.378 80.354 122.548 104.567 109.785 115.873C106.799 118.522 106.727 120.364 109.556 123.23C117.539 131.297 125.208 139.617 133.143 147.912C132.288 134.15 133.48 122.736 140.62 110.936C156.273 145.552 130.217 142.627 139.199 153.788C143.413 158.604 147.628 163.493 151.878 168.357L151.059 169.079C142.944 160.531 134.72 152.078 126.75 143.397C124.342 140.784 122.957 140.821 120.151 143.084C109.496 152.512 86.6191 146.997 77.6491 137.558C85.2586 140.423 90.8212 136.149 96.9738 135.15C103.126 134.15 109.412 133.332 115.516 132.453L94.951 110.756C81.2973 128.443 56.7349 122.23 42.1902 108.781C57.6259 109.504 71.6529 100.967 87.1007 103.279Z" fill="#323824"></path> <mask id="mask0_2868_2109" style="mask-type:luminance" maskUnits="userSpaceOnUse" x="3" y="3" width="148" height="167"> <path d="M86.8821 103.425L67.409 82.467C46.9132 96.6461 26.965 91.9531 15.2084 67.5674C33.5713 73.2435 41.9032 67.9487 60.6699 75.9736C53.3331 67.8876 45.3222 56.8452 34.9551 53.514C16.5825 45.085 8.97767 21.9806 3.87015 3.08984C10.494 11.2161 18.2159 18.3499 25.4726 25.8637C33.8968 34.1194 40.5377 44.0977 44.9743 55.166C46.7809 59.7001 50.8737 63.2352 54.6688 66.906C46.1945 46.5592 46.2364 33.6831 47.7168 11.322C62.06 27.0815 73.5228 39.2018 63.5065 60.2564C58.771 70.9162 58.866 70.9401 66.5587 79.1338C71.7108 84.6367 76.8151 90.1886 82.4317 95.4576C72.3503 78.0552 80.4179 59.3499 81.9035 40.6433C91.0774 56.6009 100.51 77.7952 87.9832 94.8555C86.0199 97.7652 85.8193 99.8249 88.6688 102.538C93.8123 107.384 98.4298 112.877 103.823 117.758C97.4861 99.8966 108.902 83.9874 110.774 66.3263C122.799 80.0395 121.854 104.542 109.202 116.048C106.241 118.744 106.161 120.608 108.938 123.492C116.774 131.612 124.299 139.989 132.086 148.341C131.314 134.421 132.549 122.867 139.655 110.891C154.922 145.831 129.226 143.008 138.032 154.254C142.166 159.104 146.299 164.028 150.468 168.927L149.656 169.662C141.692 161.056 133.621 152.547 125.8 143.806C123.438 141.175 122.071 141.219 119.291 143.524C108.727 153.119 86.1812 147.66 77.3783 138.157C84.8725 141.016 90.3838 136.662 96.4603 135.619C102.537 134.575 108.743 133.714 114.772 132.792L94.5902 110.949C81.0254 128.916 56.8194 122.759 42.5361 109.229C57.7643 109.878 71.6502 101.167 86.8821 103.425Z" fill="white"></path> </mask> <g mask="url(#mask0_2868_2109)"> <path d="M-1.71896 -2.59082C4.88144 14.5897 18.984 27.2208 31.388 40.5658C34.2752 43.4315 36.7384 46.7152 38.7009 50.3145C40.6629 53.9661 41.1478 58.274 40.052 62.3189" stroke="#4A4F3D" stroke-miterlimit="10"></path> <path d="M44.4748 5.66474C43.5723 10.2952 46.0177 14.8023 48.3116 18.8618C51.1556 23.9001 53.9517 29.1324 54.9306 34.8811C56.197 42.409 54.2563 50.2291 55.4166 57.7817C56.0151 61.4766 57.3391 65.0018 59.3081 68.1434C61.2771 71.2849 63.8501 73.9773 66.8709 76.0571" stroke="#4A4F3D" stroke-miterlimit="10"></path> <path d="M51.3783 17.4688C54.8956 21.6466 58.542 25.9467 60.1364 30.9505C61.8705 36.3832 61.0827 42.1945 61.5559 47.8062C62.118 54.3976 64.4187 60.7764 68.2803 66.45" stroke="#4A4F3D" stroke-miterlimit="10"></path> <path d="M9.55017 62.4292C13.9518 67.7941 18.5088 73.1215 24.1103 77.1336C29.7117 81.1457 36.5491 83.7313 43.3786 82.9868C45.3504 82.6196 47.3475 82.4252 49.3481 82.4059C55.4442 82.8037 59.593 88.6351 62.8495 93.8955" stroke="#4A4F3D" stroke-miterlimit="10"></path> <path d="M11.9149 56.7271C18.0962 66.1539 27.5418 72.804 38.3624 75.3472C44.3218 76.7248 50.6332 76.8643 56.0249 79.6893C60.5474 82.1147 63.9647 86.1004 67.2748 90.0376" stroke="#4A4F3D" stroke-miterlimit="10"></path> <path d="M91.1226 99.8184C85.1462 97.482 82.0307 90.5024 81.5828 83.9363C81.1348 77.3702 82.8031 70.8204 83.2134 64.2389C84.0207 52.4454 81.2197 40.7141 75.2033 30.6919" stroke="#4A4F3D" stroke-miterlimit="10"></path> <path d="M95.4315 94.7078C91.6272 90.4328 90.3759 84.2937 90.5156 78.4893C90.6553 72.6849 92.0344 66.9742 92.7938 61.2046C93.5533 55.4349 93.6583 49.3651 91.3998 44.0489" stroke="#4A4F3D" stroke-miterlimit="10"></path> <path d="M95.7309 115.715C93.7638 110.139 88.4334 107.456 83.535 107.563C78.6365 107.669 73.9525 109.95 69.2598 111.805C64.767 113.542 60.0849 114.866 55.387 114.534C50.6892 114.202 45.9474 112.062 42.7413 107.742" stroke="#4A4F3D" stroke-miterlimit="10"></path> <path d="M93.4566 116.163C90.6657 114.042 85.9978 113.107 81.5314 113.12C77.0649 113.133 72.7127 113.988 68.4964 114.902C64.28 115.816 60.0538 116.812 55.6059 117.134" stroke="#4A4F3D" stroke-miterlimit="10"></path> <path d="M114.744 124.063C108.38 123.345 104.214 116.352 103.914 109.758C103.615 103.164 106.105 96.8149 108.032 90.5162C111.863 77.9913 113.562 64.4702 110.595 51.736" stroke="#4A4F3D" stroke-miterlimit="10"></path> <path d="M114.713 117.243C111.198 114.341 110.933 108.987 111.816 104.462C113.189 97.3248 116.733 90.8447 119.373 84.0777C122.014 77.3106 123.741 69.6762 121.366 62.8419" stroke="#4A4F3D" stroke-miterlimit="10"></path> <path d="M120.768 141.662C117.548 139.052 113.77 136.242 109.064 136.256C105.572 136.267 102.469 137.834 99.2533 138.895C93.6236 140.739 87.3506 141.057 81.4763 139.797" stroke="#4A4F3D" stroke-miterlimit="10"></path> <path d="M139.419 152.804C134.084 148.06 133.779 139.532 135.792 132.53C137.805 125.529 141.693 119.222 143.354 112.113C144.762 106.237 144.646 100.091 143.016 94.2938" stroke="#4A4F3D" stroke-miterlimit="10"></path> <path d="M140.409 147.744C138.165 146.603 138.071 143.372 138.551 140.84C139.36 136.49 140.876 132.307 143.035 128.465C144.376 126.342 145.584 124.134 146.65 121.854C147.72 119.546 147.886 116.909 147.113 114.493" stroke="#4A4F3D" stroke-miterlimit="10"></path> <path d="M122.958 147.565C118.429 142.473 113.032 142.861 107.96 144.17C102.889 145.479 97.7324 147.583 92.7146 145.53" stroke="#4A4F3D" stroke-miterlimit="10"></path> </g> </svg> 