<?xml version="1.0" encoding="UTF-8"?> <svg xmlns="http://www.w3.org/2000/svg" width="146" height="171" viewBox="0 0 146 171" fill="none"> <g opacity="0.29"> <path d="M57.2249 97.7697L75.3063 75.4669C58.9914 56.7066 61.1672 35.9822 83.5827 20.9812C80.2684 40.2597 86.4647 47.9108 80.9011 67.852C87.9162 59.4177 97.7705 49.8508 99.743 39.0187C105.799 19.4029 127.459 8.7757 145.29 1.10051C138.144 8.83597 132.102 17.5354 125.628 25.8371C118.579 35.391 109.629 43.3758 99.3464 49.2845C95.1219 51.6942 92.1182 56.3452 89.0313 60.5864C107.916 49.3809 120.517 47.7302 142.564 46.2844C128.931 62.7915 118.455 75.9249 96.621 68.6111C85.6069 65.2494 85.6066 65.3458 78.5786 74.1657C73.8291 80.0817 69.0076 85.9496 64.5335 92.2994C80.3323 79.8528 99.6225 85.5159 118.063 84.5641C103.613 95.8901 83.9923 108.168 65.7707 97.8179C62.6854 96.2274 60.6419 96.2876 58.3386 99.5168C54.1903 105.336 49.4181 110.698 45.2932 116.771C61.9967 108.047 78.9464 117.446 96.448 117C84.5041 130.905 60.4236 133.182 47.6249 121.964C44.6261 119.337 42.8228 119.494 40.3033 122.675C33.3231 131.627 26.0429 140.339 18.8104 149.243C32.3385 146.64 43.7938 146.363 56.3773 151.942C24.0581 171.919 23.6867 145.664 13.7584 156.015C9.46819 160.834 5.20202 165.654 0.923823 170.473L0.0961591 169.75C7.5456 160.605 14.8871 151.376 22.4804 142.351C24.7705 139.628 24.5694 138.254 21.967 135.76C11.3034 126.386 13.8942 102.975 22.0671 92.8656C20.1855 100.782 25.126 105.758 26.8309 111.734C28.5357 117.711 30.1921 123.856 31.8249 129.808L50.762 106.517C31.557 95.2393 34.6086 70.0568 46.0769 53.8991C47.3751 69.346 57.5739 82.1421 57.2249 97.7697Z" fill="#ADB797"></path> <path d="M57.2249 97.7697L75.3063 75.4669C58.9914 56.7066 61.1672 35.9822 83.5827 20.9812C80.2684 40.2597 86.4647 47.9108 80.9011 67.852C87.9162 59.4177 97.7705 49.8508 99.743 39.0187C105.799 19.4029 127.459 8.7757 145.29 1.10051C138.144 8.83597 132.102 17.5354 125.628 25.8371C118.579 35.391 109.629 43.3758 99.3464 49.2845C95.1219 51.6942 92.1182 56.3452 89.0313 60.5864C107.916 49.3809 120.517 47.7302 142.564 46.2844C128.931 62.7915 118.455 75.9249 96.621 68.6111C85.6069 65.2494 85.6066 65.3458 78.5786 74.1657C73.8291 80.0817 69.0076 85.9496 64.5335 92.2994C80.3323 79.8528 99.6225 85.5159 118.063 84.5641C103.613 95.8901 83.9923 108.168 65.7707 97.8179C62.6854 96.2274 60.6419 96.2876 58.3386 99.5168C54.1903 105.336 49.4181 110.698 45.2932 116.771C61.9967 108.047 78.9464 117.446 96.448 117C84.5041 130.905 60.4236 133.182 47.6249 121.964C44.6261 119.337 42.8228 119.494 40.3033 122.675C33.3231 131.627 26.0429 140.339 18.8104 149.243C32.3385 146.64 43.7938 146.363 56.3773 151.942C24.0581 171.919 23.6867 145.664 13.7584 156.015C9.46819 160.834 5.20202 165.654 0.923823 170.473L0.0961591 169.75C7.5456 160.605 14.8871 151.376 22.4804 142.351C24.7705 139.628 24.5694 138.254 21.967 135.76C11.3034 126.386 13.8942 102.975 22.0671 92.8656C20.1855 100.782 25.126 105.758 26.8309 111.734C28.5357 117.711 30.1921 123.856 31.8249 129.808L50.762 106.517C31.557 95.2393 34.6086 70.0568 46.0769 53.8991C47.3751 69.346 57.5739 82.1421 57.2249 97.7697Z" fill="#ADB797"></path> <mask id="mask0_2868_2244" style="mask-type:luminance" maskUnits="userSpaceOnUse" x="0" y="0" width="146" height="171"> <path d="M57.2667 97.7908L75.356 75.4587C59.2942 56.6981 61.5917 35.9579 83.9323 20.9292C80.5149 40.2234 86.6115 47.875 80.9581 67.8341C87.9747 59.3886 97.816 49.8074 99.8455 38.9664C105.985 19.3324 127.547 8.68106 145.29 0.986723C138.148 8.73305 132.095 17.4431 125.616 25.7556C118.559 35.3215 109.626 43.3188 99.3834 49.2395C95.1758 51.6542 92.1644 56.3107 89.0733 60.5573C107.885 49.3293 120.398 47.6677 142.283 46.2037C128.646 62.7328 118.165 75.8834 96.5499 68.5815C85.6444 65.2261 85.6435 65.3226 78.6115 74.154C73.8595 80.0778 69.0364 85.9534 64.5548 92.3111C80.3133 79.8436 99.4148 85.4956 117.717 84.5287C103.305 95.8738 83.7552 108.175 65.7454 97.8323C62.6949 96.2432 60.667 96.3051 58.3601 99.5382C54.2053 105.365 49.4344 110.734 45.3012 116.814C61.9325 108.072 78.6868 117.463 96.0545 117.004C84.111 130.927 60.2035 133.225 47.5799 122.009C44.6222 119.383 42.8319 119.541 40.3108 122.726C33.3253 131.69 26.0438 140.413 18.8082 149.329C32.2479 146.714 43.6155 146.428 56.0633 152.001C23.8631 172.017 23.6703 145.745 13.7504 156.109C9.46146 160.936 5.1964 165.762 0.919402 170.588L0.103046 169.865C7.55543 160.708 14.9012 151.467 22.4957 142.43C24.786 139.703 24.5957 138.329 22.0303 135.835C11.5129 126.462 14.24 103.033 22.4166 92.9107C20.4969 100.834 25.3654 105.81 27.0169 111.789C28.6684 117.768 30.2708 123.916 31.851 129.871L50.7958 106.549C31.8165 95.2786 35.0127 70.0765 46.4995 53.8988C47.6841 69.3553 57.7176 82.1522 57.2667 97.7908Z" fill="white"></path> </mask> <g mask="url(#mask0_2868_2244)"> <path d="M150.687 -4.28572C134.682 4.65328 123.971 20.5725 112.365 34.8639C109.9 38.1609 106.979 41.0846 103.691 43.5438C100.345 45.9816 96.2006 47.0149 92.1404 46.4238" fill="#ADB797"></path> <path d="M148.419 42.6568C143.769 42.3463 139.615 45.4302 135.895 48.2963C131.27 51.8516 126.465 55.3951 120.932 57.1391C113.716 59.428 105.761 58.4919 98.4854 60.6722C94.9227 61.7665 91.6106 63.5762 88.75 65.9915C85.8894 68.4069 83.5399 71.3774 81.8441 74.7232" fill="#ADB797"></path> <path d="M146.584 49.8984C142.142 54.1674 137.557 58.5211 131.909 60.9302C125.779 63.5451 118.952 63.635 112.45 64.9935C104.84 66.5955 97.6776 69.9286 91.5132 74.7372" fill="#ADB797"></path> <path d="M87.724 15.319C83.0849 20.4191 78.4916 25.6879 75.2958 31.8231C72.1 37.9583 70.3711 45.1165 71.8577 51.8986C72.4301 53.8383 72.8429 55.8248 73.0919 57.8376C73.403 64.0062 68.2697 68.9139 63.6053 72.8815" fill="#ADB797"></path> <path d="M93.6701 16.9111C85.3481 24.341 80.05 34.6715 78.8339 45.8395C78.1886 51.9608 78.7226 58.3221 76.6627 64.1071C74.9067 68.9279 71.4217 72.8946 68.0324 76.7288" fill="#ADB797"></path> <path d="M61.3176 101.7C62.9239 95.29 69.4303 91.198 75.8277 89.875C82.2252 88.552 88.8797 89.3207 95.4128 88.9286C107.13 88.2122 118.366 83.8137 127.538 76.3526" fill="#ADB797"></path> <path d="M66.8409 105.122C70.6072 100.642 76.5154 98.5511 82.29 97.94C88.0646 97.3289 93.8644 97.9309 99.6448 98.0113C105.425 98.0917 111.453 97.347 116.444 94.3587" fill="#ADB797"></path> <path d="M45.3982 108.044C50.5102 104.836 52.3887 97.7773 51.5447 91.6356C50.7006 85.494 47.8617 79.9198 45.4376 74.2732C43.184 68.8552 41.1858 63.16 40.8462 57.2107C40.5066 51.2613 41.895 45.0215 45.5923 40.4661" fill="#ADB797"></path> <path d="M39.2646 105.965C43.0254 101.963 44.2227 95.9633 43.582 90.4711C42.9413 84.9788 40.674 79.8492 38.3 74.9003C35.9261 69.9514 33.4119 65.0027 32.1862 59.6313" fill="#ADB797"></path> <path d="M40.2364 128.155C40.2001 121.513 46.6062 116.311 53.0842 115.14C59.5622 113.97 66.1224 115.677 72.5915 116.825C85.4217 119.11 99.018 119.075 111.202 114.366" fill="#ADB797"></path> <path d="M47.0436 127.024C49.4848 123.069 54.7505 122.028 59.3306 122.329C66.5434 122.8 73.3505 125.588 80.3467 127.412C87.3428 129.237 95.0822 130 101.547 126.652" fill="#ADB797"></path> <path d="M16.7522 141.653C21.4411 135.832 26.3236 129.083 25.4727 121.628C24.8368 116.1 21.1542 111.598 18.4712 106.807C13.7963 98.3881 12.0533 88.5323 13.5321 78.879" fill="#ADB797"></path> <path d="M14.8314 156.069C18.8919 149.962 27.3014 148.478 34.4483 149.632C41.5952 150.786 48.3276 153.907 55.5256 154.731C61.4976 155.405 67.5549 154.47 73.0882 152.019" fill="#ADB797"></path> <path d="M20.0007 156.281C20.8641 153.852 24.0427 153.327 26.5901 153.471C30.9725 153.728 35.2746 154.722 39.3191 156.412C41.5674 157.506 43.8839 158.453 46.2544 159.248C48.6572 160.031 51.2748 159.851 53.5684 158.744" fill="#ADB797"></path> <path d="M17.5719 138.98C20.0229 132.09 18.9204 124.419 17.2917 117.303C15.6631 110.187 13.5359 103.023 14.0065 95.7006" fill="#ADB797"></path> </g> </g> </svg> 