<?xml version="1.0" encoding="UTF-8"?> <svg xmlns="http://www.w3.org/2000/svg" width="36" height="36" viewBox="0 0 36 36" fill="none"> <path fill-rule="evenodd" clip-rule="evenodd" d="M15.6963 4.1565C15.1575 3.69847 14.1965 3.01538 13.0333 2.6676C11.8378 2.31013 10.4037 2.30321 9.03388 3.28168C7.64168 4.27611 6.60862 5.18089 5.81647 5.91156C5.58789 6.1224 5.38398 6.31407 5.20007 6.48694L5.20007 6.48694L5.20007 6.48695L5.20005 6.48696C4.72818 6.9305 4.38803 7.25023 4.10094 7.45228C3.75635 7.6948 3.63008 8.28778 4.07125 8.61518C4.88206 9.21689 6.11755 9.94038 7.42658 10.3001C8.72947 10.6581 10.212 10.6805 11.3786 9.7083C13.678 7.79215 15.0046 6.18549 15.6197 5.17536C16.23 5.09213 16.8111 5.03452 17.3329 5.00305C17.6227 4.98557 17.8898 4.97646 18.1304 4.975C15.5286 7.7692 12.2421 12.9671 12.2709 19.2927C8.85505 19.7583 6.22287 22.6872 6.22287 26.2308C6.22287 30.0983 9.35806 33.2335 13.2255 33.2335C15.728 33.2335 17.923 31.9208 19.161 29.9481C20.3362 31.6319 22.288 32.7335 24.4971 32.7335C28.0884 32.7335 30.9997 29.8221 30.9997 26.2308C30.9997 22.6395 28.0884 19.7282 24.4971 19.7282C23.5716 19.7282 22.6913 19.9215 21.8943 20.27C20.8632 18.2654 20.2648 16.0094 19.9602 13.7727C19.4897 10.3181 19.728 6.96414 20.1128 4.78046C20.21 4.22914 19.625 3.7647 19.1264 4.02297C18.6415 3.96292 17.9936 3.96138 17.2726 4.00487C16.7858 4.03423 16.2533 4.08497 15.6963 4.1565ZM14.3112 4.36992C13.8718 4.08388 13.3348 3.80149 12.7469 3.62569C11.7677 3.33292 10.6729 3.33985 9.61512 4.09542C8.26774 5.05783 7.26786 5.93325 6.49449 6.64661C6.30085 6.82522 6.11745 6.99768 5.94382 7.16096L5.94377 7.161L5.94377 7.16101C5.58185 7.50134 5.26232 7.80181 4.98081 8.03505C5.71014 8.53214 6.68966 9.06053 7.69156 9.33585C8.85146 9.6546 9.93497 9.60964 10.7384 8.94008C12.4542 7.51032 13.5788 6.28609 14.2537 5.39731C12.2905 5.76783 10.3283 6.36497 9.1673 7.13901C8.93754 7.29219 8.6271 7.23011 8.47392 7.00034C8.32075 6.77058 8.38283 6.46015 8.61259 6.30697C9.999 5.38268 12.2434 4.74132 14.3112 4.36992ZM18.9693 13.9077C18.5445 10.7884 18.6777 7.75568 18.9844 5.52612C16.4833 8.15646 13.2676 13.1579 13.272 19.2283C15.7551 19.2444 17.9307 20.553 19.161 22.5135C19.654 21.8072 20.2836 21.2033 21.0116 20.7402C19.9081 18.5994 19.284 16.2183 18.9693 13.9077ZM23.8168 23.0924C24.0359 22.8561 24.2376 22.5463 24.4018 22.1414C24.5055 21.8855 24.7971 21.7621 25.053 21.8659C25.3089 21.9696 25.4323 22.2612 25.3285 22.5171C24.8601 23.6724 24.1041 24.3073 23.3239 24.605C22.5635 24.8952 21.8101 24.8545 21.3262 24.7182C21.0604 24.6433 20.9056 24.3672 20.9805 24.1014C21.0553 23.8356 21.3315 23.6808 21.5973 23.7556C21.9002 23.841 22.4314 23.8753 22.9674 23.6708C22.9737 23.6683 22.9801 23.6659 22.9865 23.6634C22.4246 23.0242 21.931 22.3374 21.4987 21.6161C19.9912 22.5976 18.9944 24.2978 18.9944 26.2308C18.9944 29.2698 21.458 31.7335 24.4971 31.7335C27.5361 31.7335 29.9997 29.2698 29.9997 26.2308C29.9997 23.1918 27.5361 20.7282 24.4971 20.7282C23.7486 20.7282 23.035 20.8776 22.3845 21.1483C22.8015 21.838 23.2768 22.4902 23.8168 23.0924ZM12.3035 20.2985C9.42603 20.7421 7.22287 23.2292 7.22287 26.2308C7.22287 29.546 9.91035 32.2335 13.2255 32.2335C15.5652 32.2335 17.5932 30.8949 18.5838 28.9396C18.2054 28.115 17.9944 27.1975 17.9944 26.2308C17.9944 25.2641 18.2054 24.3466 18.5838 23.522C17.604 21.5881 15.6093 20.2574 13.3019 20.2286C13.3539 21.105 13.4748 22.0015 13.676 22.9143C13.9812 22.815 14.3069 22.6438 14.6463 22.3723C14.8619 22.1998 15.1765 22.2348 15.349 22.4504C15.5216 22.666 15.4866 22.9807 15.271 23.1532C14.2975 23.932 13.3275 24.1161 12.5014 23.9944C11.6962 23.8757 11.0589 23.4718 10.7035 23.1163C10.5082 22.921 10.5082 22.6045 10.7035 22.4092C10.8987 22.2139 11.2153 22.2139 11.4106 22.4092C11.6331 22.6318 12.0797 22.9214 12.6472 23.0051L12.6732 23.0087C12.4766 22.0875 12.3568 21.183 12.3035 20.2985Z" fill="#FFDC20"></path> </svg> 