<?xml version="1.0" encoding="UTF-8"?> <svg xmlns="http://www.w3.org/2000/svg" width="60" height="60" viewBox="0 0 60 60" fill="none"> <g filter="url(#filter0_dd_2750_4849)"> <ellipse cx="30" cy="26" rx="20" ry="20" fill="white"></ellipse> <path d="M49.5 26C49.5 36.7696 40.7696 45.5 30 45.5C19.2304 45.5 10.5 36.7696 10.5 26C10.5 15.2304 19.2304 6.5 30 6.5C40.7696 6.5 49.5 15.2304 49.5 26Z" stroke="white"></path> </g> <g clip-path="url(#clip0_2750_4849)"> <path d="M35.2053 25.5405H24.7702C24.5159 25.5405 24.3098 25.7464 24.3098 26.0001C24.3098 26.2538 24.5159 26.4597 24.7702 26.4597H35.2053C35.4596 26.4597 35.6657 26.2539 35.6657 26.0001C35.6657 25.7462 35.4596 25.5405 35.2053 25.5405Z" fill="#517D45"></path> <path d="M35.6227 25.675L31.1112 21.1709C30.9313 20.9915 30.6401 20.9915 30.4602 21.1709C30.2804 21.3504 30.2804 21.6415 30.4602 21.8209L34.6462 26L30.4602 30.1792C30.2804 30.3586 30.2804 30.6497 30.4602 30.8291C30.5501 30.9189 30.6678 30.9637 30.7857 30.9637C30.9036 30.9637 31.0213 30.9189 31.1112 30.8291L35.6227 26.325C35.8025 26.1454 35.8025 25.8544 35.6227 25.675Z" fill="#517D45"></path> </g> <defs> <filter id="filter0_dd_2750_4849" x="0" y="0" width="60" height="60" filterUnits="userSpaceOnUse" color-interpolation-filters="sRGB"> <feFlood flood-opacity="0" result="BackgroundImageFix"></feFlood> <feColorMatrix in="SourceAlpha" type="matrix" values="0 0 0 0 0 0 0 0 0 0 0 0 0 0 0 0 0 0 127 0" result="hardAlpha"></feColorMatrix> <feOffset dy="4"></feOffset> <feGaussianBlur stdDeviation="5"></feGaussianBlur> <feComposite in2="hardAlpha" operator="out"></feComposite> <feColorMatrix type="matrix" values="0 0 0 0 0 0 0 0 0 0 0 0 0 0 0 0 0 0 0.1 0"></feColorMatrix> <feBlend mode="normal" in2="BackgroundImageFix" result="effect1_dropShadow_2750_4849"></feBlend> <feColorMatrix in="SourceAlpha" type="matrix" values="0 0 0 0 0 0 0 0 0 0 0 0 0 0 0 0 0 0 127 0" result="hardAlpha"></feColorMatrix> <feOffset dy="4"></feOffset> <feGaussianBlur stdDeviation="5"></feGaussianBlur> <feComposite in2="hardAlpha" operator="out"></feComposite> <feColorMatrix type="matrix" values="0 0 0 0 0.839857 0 0 0 0 0.883333 0 0 0 0 0.783958 0 0 0 1 0"></feColorMatrix> <feBlend mode="normal" in2="effect1_dropShadow_2750_4849" result="effect2_dropShadow_2750_4849"></feBlend> <feBlend mode="normal" in="SourceGraphic" in2="effect2_dropShadow_2750_4849" result="shape"></feBlend> </filter> <clipPath id="clip0_2750_4849"> <rect width="11.4478" height="11.4286" fill="white" transform="translate(24.3098 20.2858)"></rect> </clipPath> </defs> </svg> 