<?xml version="1.0" encoding="UTF-8"?> <svg xmlns="http://www.w3.org/2000/svg" width="274" height="319" viewBox="0 0 274 319" fill="none"> <g opacity="0.29"> <path d="M107.753 182.23L141.743 140.286C110.903 105.005 114.913 66.0294 157.106 37.8177C150.943 74.0737 162.658 88.4628 152.257 125.965C165.445 110.103 183.981 92.1111 187.652 71.7397C198.982 34.8493 239.77 14.8631 273.352 0.428711C259.915 14.9764 248.562 31.3369 236.394 46.9497C223.148 64.9172 206.31 79.9339 186.95 91.046C178.996 95.578 173.354 104.325 167.553 112.301C203.106 91.2273 226.854 88.1229 268.412 85.4037C242.784 116.448 223.092 141.147 181.896 127.393C161.117 121.071 161.117 121.252 147.906 137.839C138.978 148.965 129.914 160 121.508 171.942C151.237 148.534 187.629 159.185 222.39 157.395C195.198 178.695 158.262 201.785 123.864 182.321C118.041 179.329 114.188 179.443 109.86 185.516C102.065 196.46 93.0919 206.544 85.3422 217.965C116.794 201.559 148.79 219.234 181.783 218.395C159.327 244.545 113.939 248.828 89.7609 227.731C84.0959 222.791 80.6969 223.086 75.9609 229.068C62.8408 245.904 49.1542 262.288 35.5582 279.033C61.0507 274.139 82.6456 273.618 106.393 284.109C45.5512 321.68 44.7355 272.303 26.0636 291.768C17.9967 300.832 9.97503 309.896 1.93073 318.96L0.367188 317.601C14.3711 300.402 28.171 283.044 42.4468 266.072C46.7522 260.951 46.367 258.368 41.4498 253.677C21.305 236.047 26.0863 192.019 41.4498 173.007C37.9375 187.895 47.2734 197.253 50.5138 208.493C53.7542 219.732 56.9039 231.289 60.0083 242.483L95.6072 198.681C59.3512 177.471 64.9935 130.112 86.5432 99.7248C89.0584 128.775 108.342 152.84 107.753 182.23Z" fill="#ADB797"></path> <path d="M107.753 182.23L141.743 140.286C110.903 105.005 114.913 66.0294 157.106 37.8177C150.943 74.0737 162.658 88.4628 152.257 125.965C165.445 110.103 183.981 92.1111 187.652 71.7397C198.982 34.8493 239.77 14.8631 273.352 0.428711C259.915 14.9764 248.562 31.3369 236.394 46.9497C223.148 64.9172 206.31 79.9339 186.95 91.046C178.996 95.578 173.354 104.325 167.553 112.301C203.106 91.2273 226.854 88.1229 268.412 85.4037C242.784 116.448 223.092 141.147 181.896 127.393C161.117 121.071 161.117 121.252 147.906 137.839C138.978 148.965 129.914 160 121.508 171.942C151.237 148.534 187.629 159.185 222.39 157.395C195.198 178.695 158.262 201.785 123.864 182.321C118.041 179.329 114.188 179.443 109.86 185.516C102.065 196.46 93.0919 206.544 85.3422 217.965C116.794 201.559 148.79 219.234 181.783 218.395C159.327 244.545 113.939 248.828 89.7609 227.731C84.0959 222.791 80.6969 223.086 75.9609 229.068C62.8408 245.904 49.1542 262.288 35.5582 279.033C61.0507 274.139 82.6456 273.618 106.393 284.109C45.5512 321.68 44.7355 272.303 26.0636 291.768C17.9967 300.832 9.97503 309.896 1.93073 318.96L0.367188 317.601C14.3711 300.402 28.171 283.044 42.4468 266.072C46.7522 260.951 46.367 258.368 41.4498 253.677C21.305 236.047 26.0863 192.019 41.4498 173.007C37.9375 187.895 47.2734 197.253 50.5138 208.493C53.7542 219.732 56.9039 231.289 60.0083 242.483L95.6072 198.681C59.3512 177.471 64.9935 130.112 86.5432 99.7248C89.0584 128.775 108.342 152.84 107.753 182.23Z" fill="#ADB797"></path> <mask id="mask0_2829_3630" style="mask-type:luminance" maskUnits="userSpaceOnUse" x="0" y="0" width="274" height="319"> <path d="M107.754 182.23L141.744 140.286C110.904 105.005 114.914 66.0294 157.107 37.8177C150.944 74.0737 162.659 88.4628 152.258 125.965C165.446 110.103 183.982 92.1111 187.653 71.7397C198.983 34.8493 239.771 14.8631 273.353 0.428711C259.916 14.9764 248.563 31.3369 236.395 46.9497C223.148 64.9172 206.311 79.9339 186.951 91.046C178.997 95.578 173.355 104.325 167.554 112.301C203.107 91.2273 226.855 88.1229 268.413 85.4037C242.785 116.448 223.093 141.147 181.897 127.393C161.118 121.071 161.118 121.252 147.907 137.839C138.979 148.965 129.915 160 121.508 171.942C151.238 148.534 187.63 159.185 222.391 157.395C195.199 178.695 158.263 201.785 123.865 182.321C118.041 179.329 114.189 179.443 109.861 185.516C102.066 196.46 93.0928 206.544 85.3431 217.965C116.795 201.559 148.791 219.234 181.784 218.395C159.328 244.545 113.94 248.828 89.7618 227.731C84.0968 222.791 80.6978 223.086 75.9619 229.068C62.8417 245.904 49.1551 262.288 35.5591 279.033C61.0516 274.139 82.6466 273.618 106.394 284.109C45.5521 321.68 44.7364 272.303 26.0645 291.768C17.9976 300.832 9.97594 309.896 1.93164 318.96L0.368103 317.601C14.372 300.402 28.1719 283.044 42.4477 266.072C46.7531 260.951 46.3679 258.368 41.4507 253.677C21.3059 236.047 26.0872 192.019 41.4507 173.007C37.9384 187.895 47.2743 197.253 50.5147 208.493C53.7551 219.732 56.9048 231.289 60.0092 242.483L95.6081 198.681C59.3521 177.471 64.9944 130.112 86.5441 99.7248C89.0594 128.775 108.343 152.84 107.754 182.23Z" fill="white"></path> </mask> <g mask="url(#mask0_2829_3630)"> <path d="M283.502 -9.76807C253.319 7.00033 233.288 36.8889 211.534 63.7183C206.919 69.908 201.431 75.3959 195.241 80.0108C188.94 84.5853 181.103 86.5202 173.397 85.4039" fill="#ADB797"></path> <path d="M279.309 78.606C270.517 78.0169 262.722 83.7952 255.743 89.1656C247.064 95.8276 238.046 102.467 227.622 105.73C214.026 110.013 198.98 108.245 185.27 112.324C178.558 114.372 172.33 117.761 166.967 122.287C161.603 126.814 157.215 132.382 154.068 138.655" fill="#ADB797"></path> <path d="M275.865 92.2021C267.549 100.201 258.961 108.359 248.333 112.868C236.8 117.763 223.906 117.921 211.647 120.459C197.298 123.452 183.826 129.692 172.264 138.7" fill="#ADB797"></path> <path d="M165.036 27.1226C156.221 36.7077 147.497 46.6102 141.47 58.1441C135.442 69.678 132.247 83.1381 135.216 95.8957C136.347 99.5446 137.173 103.281 137.685 107.067C138.388 118.669 128.621 127.892 119.739 135.347" fill="#ADB797"></path> <path d="M176.23 30.1138C160.395 44.0749 150.409 63.4959 148.268 84.4978C147.135 96.0091 148.268 107.974 144.415 118.85C141.13 127.914 134.513 135.369 128.078 142.575" fill="#ADB797"></path> <path d="M115.479 189.458C118.402 177.449 130.616 169.79 142.671 167.32C154.726 164.85 167.302 166.3 179.629 165.575C201.738 164.249 222.875 156.023 240.063 142.054" fill="#ADB797"></path> <path d="M125.879 195.939C132.904 187.578 144.007 183.68 154.884 182.547C165.761 181.414 176.706 182.547 187.605 182.706C198.504 182.864 209.857 181.482 219.216 175.908" fill="#ADB797"></path> <path d="M85.9752 201.604C95.9909 195.577 99.5712 182.298 97.8037 170.741C96.0362 159.185 90.3485 148.693 85.4766 138.066C80.9446 127.869 76.9112 117.15 76.1407 105.956C75.3703 94.7623 77.9988 83.0245 85.2047 74.459" fill="#ADB797"></path> <path d="M74.4184 197.707C81.647 190.184 83.8677 178.899 82.5307 168.566C81.1938 158.234 76.7071 148.58 72.0165 139.267C67.3258 129.954 62.3633 120.641 59.8934 110.534" fill="#ADB797"></path> <path d="M75.8466 239.265C75.6654 226.87 87.6525 217.172 99.8436 214.996C112.035 212.821 124.43 216.016 136.643 218.169C160.867 222.451 186.495 222.406 209.382 213.637" fill="#ADB797"></path> <path d="M88.6257 237.226C93.1577 229.884 103.06 227.958 111.694 228.524C125.29 229.408 138.16 234.597 151.371 237.996C164.582 241.395 179.175 242.823 191.298 236.614" fill="#ADB797"></path> <path d="M31.9764 264.894C41.0404 253.949 50.4669 241.26 48.6768 227.233C47.3398 216.832 40.066 208.357 34.7409 199.339C25.4611 183.494 21.8865 164.949 24.6119 146.79" fill="#ADB797"></path> <path d="M28.0789 291.881C35.6247 280.551 51.4414 277.809 64.9241 279.962C78.4068 282.115 91.1417 287.916 104.715 289.457C115.976 290.717 127.371 288.99 137.753 284.449" fill="#ADB797"></path> <path d="M37.7551 292.403C39.3413 287.871 45.3236 286.896 50.1275 287.168C58.392 287.654 66.5176 289.515 74.1697 292.675C78.4259 294.719 82.8082 296.49 87.2899 297.977C91.832 299.442 96.7628 299.109 101.067 297.048" fill="#ADB797"></path> <path d="M33.6751 259.886C38.4564 246.924 36.1224 232.49 32.7461 219.098C29.3697 205.706 24.9964 192.223 25.8121 178.446" fill="#ADB797"></path> </g> </g> </svg> 