<?xml version="1.0" encoding="UTF-8"?> <svg xmlns="http://www.w3.org/2000/svg" width="48" height="48" viewBox="0 0 48 48" fill="none"> <rect width="48" height="48" rx="24" fill="#F7D100"></rect> <g clip-path="url(#clip0_2844_4560)"> <path d="M34.5019 13.3613C33.1265 11.9732 31.4886 10.8727 29.6837 10.124C27.8787 9.37522 25.9428 8.99317 23.9887 9.00009C15.8006 9.00009 9.1275 15.6713 9.12 23.8613C9.12 26.4845 9.80625 29.0363 11.1019 31.2957L9 39.0001L16.8825 36.9338C19.0631 38.1206 21.5061 38.7426 23.9887 38.7432H23.9963C32.1863 38.7432 38.8575 32.072 38.865 23.8745C38.8669 21.9208 38.4822 19.9861 37.733 18.1817C36.9839 16.3774 35.8851 14.7392 34.5 13.3613H34.5019ZM23.9887 36.227C21.7744 36.2277 19.6007 35.6318 17.6963 34.502L17.2462 34.232L12.57 35.4582L13.8187 30.8963L13.5263 30.4257C12.2884 28.4576 11.6337 26.1789 11.6381 23.8538C11.6381 17.0551 17.1825 11.5088 23.9963 11.5088C25.6195 11.5059 27.2273 11.8244 28.7269 12.4458C30.2265 13.0672 31.5883 13.9793 32.7337 15.1295C33.8832 16.2752 34.7944 17.6371 35.4149 19.1368C36.0353 20.6364 36.3527 22.2441 36.3488 23.867C36.3413 30.6901 30.7969 36.227 23.9887 36.227V36.227ZM30.7669 26.9757C30.3975 26.7901 28.5731 25.892 28.23 25.7645C27.8887 25.6426 27.6394 25.5788 27.3956 25.9501C27.1462 26.3195 26.4338 27.1613 26.22 27.4032C26.0063 27.6526 25.785 27.6807 25.4137 27.497C25.0444 27.3095 23.8463 26.9195 22.4288 25.6501C21.3225 24.6657 20.5819 23.447 20.3606 23.0776C20.1469 22.7063 20.34 22.5076 20.5256 22.322C20.6887 22.157 20.895 21.887 21.0806 21.6732C21.2681 21.4595 21.33 21.302 21.4519 21.0545C21.5737 20.8032 21.5156 20.5895 21.4237 20.4038C21.33 20.2182 20.5894 18.3863 20.2762 17.6476C19.9762 16.9182 19.6706 17.0195 19.4419 17.0101C19.2281 16.997 18.9788 16.997 18.7294 16.997C18.5411 17.0016 18.3557 17.0452 18.1851 17.1249C18.0144 17.2046 17.862 17.3187 17.7375 17.4601C17.3962 17.8313 16.4419 18.7295 16.4419 20.5613C16.4419 22.3932 17.7731 24.1538 17.9606 24.4032C18.1444 24.6526 20.5744 28.4007 24.3037 30.0132C25.185 30.3976 25.8788 30.6245 26.4206 30.797C27.3113 31.082 28.1156 31.0388 28.7569 30.947C29.4694 30.8382 30.9525 30.047 31.2656 29.1788C31.5731 28.3088 31.5731 27.5663 31.4794 27.4107C31.3875 27.2532 31.1381 27.1613 30.7669 26.9757V26.9757Z" fill="#E8EFDF"></path> </g> <defs> <clipPath id="clip0_2844_4560"> <rect width="30" height="30" fill="white" transform="translate(9 9)"></rect> </clipPath> </defs> </svg> 