<?xml version="1.0" encoding="UTF-8"?> <svg xmlns="http://www.w3.org/2000/svg" width="36" height="36" viewBox="0 0 36 36" fill="none"> <path d="M10.9998 9.5C10.6665 9.5 9.79984 9.8 8.99984 11C8.2148 12.1775 6.08183 13.9329 6.00229 13.9981C5.99976 14.0002 5.99888 14.0007 5.99617 14.0026C4.49308 15.0085 1.00242 20.0047 3.49983 25.5C6.02602 31.0586 9.4997 31 10.9998 31" stroke="#FFDC20" stroke-linecap="round"></path> <path d="M24.3748 12C24.0415 12 23.1748 12.3 22.3748 13.5C21.5898 14.6775 19.4568 16.4329 19.3773 16.4981C19.3748 16.5002 19.3739 16.5007 19.3712 16.5026C17.8681 17.5085 14.3774 22.5047 16.8748 28C19.401 33.5586 22.8747 33.5 24.3748 33.5" stroke="#FFDC20" stroke-linecap="round"></path> <path d="M11 9.5C11.3333 9.5 12.2 9.8 13 11C13.785 12.1775 15.918 13.9329 15.9975 13.9981C16.0001 14.0002 16.0011 14.0009 16.0038 14.0027C16.6762 14.451 17.7462 15.2658 18.5 17M11 31C12.2047 31 14.6821 31.0378 16.9195 28.174" stroke="#FFDC20" stroke-linecap="round"></path> <path d="M11 9.5C11 9.5 11.7843 7.25109 9.45863 4.46431" stroke="#FFDC20" stroke-linecap="round"></path> <path d="M11.137 7.97826C12.5605 8.14554 15.7574 7.45579 17.239 3.38489C17.258 3.33259 17.2317 3.274 17.1787 3.2572C15.5668 2.74686 12.0936 2.5739 10.3467 5.79082" stroke="#FFDC20" stroke-linecap="round"></path> <path d="M24.3752 12C24.7085 12 25.5752 12.3 26.3752 13.5C27.1602 14.6775 29.2932 16.4329 29.3727 16.4981C29.3752 16.5002 29.3761 16.5007 29.3788 16.5026C30.8819 17.5085 34.3726 22.5047 31.8752 28C29.349 33.5586 25.8753 33.5 24.3752 33.5" stroke="#FFDC20" stroke-linecap="round"></path> <path d="M24 16C23.801 16 23.2836 16.1953 22.8059 16.9767C22.3431 17.734 21.0953 18.8582 21.0187 18.9269C21.0162 18.9292 21.0139 18.931 21.0112 18.933C20.113 19.5906 18.0321 22.8423 19.5223 26.4186C21.0305 30.0382 23.1044 30 24 30" stroke="#FFDC20" stroke-linecap="round"></path> <path d="M24 16C24.2388 16 24.8597 16.1953 25.4329 16.9767C25.991 17.7376 27.5001 18.869 27.5788 18.9278C27.5814 18.9297 27.5832 18.9309 27.5859 18.9326C28.6633 19.5891 31.1619 22.8414 29.3732 26.4186C27.5634 30.0382 25.0747 30 24 30" stroke="#FFDC20" stroke-linecap="round"></path> <circle cx="21.4658" cy="23.4658" r="0.465774" fill="#FFDC20"></circle> <circle cx="24.3291" cy="18.4658" r="0.465774" fill="#FFDC20"></circle> <circle cx="21.4658" cy="26.4658" r="0.465774" fill="#FFDC20"></circle> <circle cx="26.1923" cy="20.3289" r="0.465774" fill="#FFDC20"></circle> <circle cx="28.0556" cy="23.1235" r="0.465774" fill="#FFDC20"></circle> <circle cx="28.0556" cy="25.9182" r="0.465774" fill="#FFDC20"></circle> <circle cx="24.4658" cy="22.4658" r="0.465774" fill="#FFDC20"></circle> <circle cx="26.4658" cy="24.4658" r="0.465774" fill="#FFDC20"></circle> <circle cx="22.4658" cy="21.4658" r="0.465774" fill="#FFDC20"></circle> <circle cx="23.4658" cy="25.4658" r="0.465774" fill="#FFDC20"></circle> <circle cx="25.2607" cy="27.7813" r="0.465774" fill="#FFDC20"></circle> <circle cx="23.4658" cy="27.4658" r="0.465774" fill="#FFDC20"></circle> </svg> 