<?xml version="1.0" encoding="UTF-8"?> <svg xmlns="http://www.w3.org/2000/svg" width="36" height="36" viewBox="0 0 36 36" fill="none"> <path fill-rule="evenodd" clip-rule="evenodd" d="M18.5499 6.91359L16.2009 3.07479L16.6145 7.86778C16.6151 7.87365 16.6155 7.8795 16.6158 7.88533C16.9525 8.07506 17.2824 8.27916 17.5987 8.49815C17.857 8.04609 18.1835 7.49754 18.5499 6.91359ZM19.1512 5.98043L16.1683 1.10555C15.8378 0.565325 15.0043 0.839313 15.0588 1.4703L15.5659 7.34658C15.506 7.31858 15.4462 7.291 15.3864 7.26384C13.825 6.5546 12.2307 6.10326 11.1482 5.88361C10.5425 5.76068 10.2224 6.47692 10.5908 6.87728C10.9428 7.25986 11.6921 8.09033 12.3929 8.97043C12.7436 9.41077 13.0771 9.85732 13.3414 10.2624C13.4028 10.3565 13.4592 10.4464 13.5103 10.5318C12.1775 10.2289 10.886 10.0996 9.93759 10.0725C9.28187 10.0538 9.12241 10.8841 9.61255 11.1819C10.1484 11.5074 11.3002 12.2185 12.4412 12.9955C13.2909 13.5741 14.0976 14.165 14.6467 14.6507C13.2686 15.6272 11.5318 17.2827 10.3638 19.3994C9.08615 21.7146 8.47763 24.6094 9.80689 27.7438C12.1417 33.2494 16.0916 34.8337 18.4082 34.9607C18.4231 34.9635 18.4383 34.9656 18.4537 34.967C20.6035 35.1682 24.603 33.8512 27.1931 27.7438C28.5225 24.6094 27.9139 21.7145 26.6362 19.3994C25.5426 17.4177 23.9505 15.8403 22.6209 14.8458C22.8693 14.372 23.2728 13.7371 23.8012 13.1182C24.4047 12.4116 25.1479 11.7528 25.9808 11.3653C26.1645 11.2798 26.2593 11.1258 26.3003 11.0012C26.3402 10.8798 26.3406 10.759 26.3218 10.6578C26.3034 10.5587 26.2584 10.4357 26.162 10.3294C26.0561 10.2126 25.88 10.1136 25.6611 10.1381C25.0751 10.2035 24.4032 10.3191 23.69 10.5015C23.6951 10.0054 23.8907 9.43854 24.2246 8.84813C24.6577 8.08221 25.27 7.37263 25.7584 6.89899C26.188 6.48241 25.8122 5.78037 25.2425 5.8723C24.1586 6.04719 23.2228 6.32797 22.4181 6.68713C22.4148 6.63488 22.4127 6.57808 22.4121 6.51653C22.4088 6.1957 22.4459 5.80802 22.5113 5.3886C22.6418 4.5511 22.8763 3.6416 23.072 2.99505C23.1473 2.74608 23.055 2.49274 22.8665 2.34761C22.6709 2.19692 22.383 2.17452 22.1561 2.34297C21.3615 2.93266 20.4187 4.13468 19.582 5.3438C19.4361 5.55467 19.2921 5.76777 19.1512 5.98043ZM21.7314 4.15842C21.6513 4.51221 21.5788 4.87806 21.5232 5.23459C21.4533 5.68284 21.4081 6.13004 21.4121 6.52669C21.4143 6.74224 21.4309 6.96606 21.4769 7.17646C20.4874 7.77171 19.7474 8.50141 19.2084 9.28715C19.1253 9.40836 19.0471 9.53061 18.9738 9.65359C18.7935 9.46561 18.6013 9.28541 18.3995 9.11279C18.8698 8.28192 19.6097 7.06135 20.4044 5.91279C20.8534 5.26386 21.3075 4.6566 21.7314 4.15842ZM23.3541 8.35589C23.6059 7.91068 23.9063 7.48849 24.2112 7.11285C22.0951 7.68251 20.8028 8.73052 20.0331 9.85278C19.8635 10.1 19.7182 10.3525 19.5944 10.6065C19.5853 10.7201 19.5377 10.8302 19.4545 10.9155C19.1918 11.5424 19.054 12.1686 19.0025 12.7364C20.1552 11.8263 21.4587 11.2041 22.7025 10.7911C22.62 9.94577 22.9427 9.08345 23.3541 8.35589ZM18.4962 10.6163C17.6486 9.6154 16.3513 8.80048 14.9728 8.17431C14.0125 7.73808 13.036 7.40385 12.1897 7.16623C12.498 7.5213 12.8414 7.92833 13.1752 8.34748C13.5362 8.80078 13.8909 9.27445 14.1789 9.71593C14.4383 10.1135 14.6664 10.5188 14.7831 10.8753C15.9469 11.2436 17.1064 11.7743 18.0177 12.5339C18.0823 11.9288 18.2309 11.274 18.4962 10.6163ZM14.2609 11.761C15.7148 12.1941 17.0411 12.8478 17.8754 13.7804C17.5769 14.106 17.2973 14.4584 17.0418 14.8395L15.8732 14.4601C15.3051 13.8033 14.1243 12.9318 13.0041 12.1689C12.4974 11.8239 11.9895 11.4922 11.5328 11.2005C12.3867 11.3072 13.3358 11.4854 14.2609 11.761ZM23.0408 12.4689C22.4847 13.1201 22.0514 13.7902 21.7676 14.3204C21.6731 14.3056 21.5771 14.3138 21.4883 14.3427L18.5 15.3129L18.0358 15.1622C19.5678 13.0506 21.989 11.9477 24.0646 11.438C23.6849 11.7623 23.3424 12.1157 23.0408 12.4689ZM18.5001 16.3387C18.4488 16.3387 18.3968 16.3308 18.3454 16.3141L17.7467 16.1198C17.7052 16.1957 17.6434 16.2618 17.5637 16.3092L16.3628 17.0228L18.4608 18.8931L20.1767 16.981L19.3595 16.2526C19.3156 16.2135 19.2803 16.1684 19.2536 16.1196L18.6547 16.3141C18.6033 16.3308 18.5513 16.3387 18.5001 16.3387ZM14.1104 16.3547L14.8132 16.9811L13.0973 18.8931L12.3454 18.2228C12.9072 17.5081 13.5179 16.8796 14.1104 16.3547ZM11.2393 19.8825C11.4002 19.591 11.573 19.3086 11.755 19.0361L12.2695 19.4947L11.1165 20.1114C11.1566 20.0345 11.1975 19.9583 11.2393 19.8825ZM10.1456 25.313C9.99843 24.3241 10.0501 23.3731 10.246 22.4721L11.7893 23.8478L10.1456 25.313ZM11.2904 28.5424C11.1238 28.2263 10.9628 27.8928 10.8085 27.541L11.7258 28.1543L11.2904 28.5424ZM11.7993 29.4284C12.228 30.1136 12.6837 30.7017 13.1518 31.2048L14.6407 30.2094L12.5754 28.7366L11.7993 29.4284ZM16.4534 33.5024C15.642 33.1859 14.7555 32.6829 13.8845 31.9179L15.5112 30.8303L17.6999 32.3911L16.4534 33.5024ZM17.5765 33.8409C18.164 33.9657 18.6714 33.9897 19.0487 33.9544C19.1108 33.9486 19.1712 33.9544 19.228 33.97C19.4299 33.9526 19.6472 33.9202 19.8769 33.8695L18.544 32.9783L17.5765 33.8409ZM21.0726 33.466C21.7552 33.156 22.4897 32.6841 23.2238 31.9902L21.489 30.8303L19.3799 32.3343L21.0726 33.466ZM25.2204 29.4458C24.8025 30.1468 24.3669 30.7457 23.925 31.2561L22.3595 30.2094L24.4247 28.7366L25.2204 29.4458ZM18.5 28.7118L20.6187 30.2227L18.5001 31.7335L16.3815 30.2227L18.5 28.7118ZM25.716 28.548C25.8786 28.2302 26.0374 27.8947 26.1919 27.5408L25.2743 28.1543L25.716 28.548ZM23.5983 28.0977L21.4797 26.5868L19.3611 28.0977L21.4797 29.6085L23.5983 28.0977ZM17.6389 28.0977L15.5203 26.5868L13.4018 28.0977L15.5204 29.6085L17.6389 28.0977ZM24.4247 24.4867L26.3687 26.2197L24.4686 27.4901L22.3409 25.9727L24.4247 24.4867ZM18.5 24.462L20.6185 25.9727L18.5 27.4835L16.3815 25.9727L18.5 24.462ZM12.5753 24.4867L14.6591 25.9727L12.5315 27.4901L10.6313 26.2197L12.5753 24.4867ZM26.8545 25.3131C27.0016 24.3241 26.95 23.3731 26.754 22.4721L25.2108 23.8478L26.8545 25.3131ZM23.5983 23.8478L21.4797 22.337L19.3611 23.8478L21.4797 25.3587L23.5983 23.8478ZM17.6389 23.8478L15.5203 22.337L13.4017 23.8478L15.5203 25.3587L17.6389 23.8478ZM23.9355 20.2035L26.3484 21.4941L24.4247 23.2089L22.2799 21.6794L23.9355 20.2035ZM18.5 20.2121L20.6185 21.7229L18.5 23.2337L16.3815 21.7229L18.5 20.2121ZM13.0645 20.2035L14.7201 21.6794L12.5753 23.2089L10.6516 21.4941L13.0645 20.2035ZM25.8835 20.1114C25.8434 20.0345 25.8025 19.9583 25.7607 19.8826C25.5998 19.5911 25.427 19.3087 25.2451 19.0361L24.7306 19.4947L25.8835 20.1114ZM23.1121 19.5979L20.9231 17.6465L19.2457 19.5156L21.445 21.084L23.1121 19.5979ZM17.6999 19.5544L15.5596 17.6465L13.8437 19.5585L15.555 21.084L17.6999 19.5544ZM22.8739 16.3409C23.4713 16.8686 24.0878 17.5019 24.6546 18.2229L23.8635 18.9281L21.7263 17.0229L22.8739 16.3409ZM20.3235 15.7723L20.9435 16.3249L22.0498 15.6674C21.9 15.5547 21.7538 15.45 21.6125 15.3537L20.3235 15.7723ZM15.3873 15.3537L16.5686 15.7373L15.5798 16.3249L14.8917 15.7115C15.062 15.5819 15.2278 15.4625 15.3873 15.3537Z" fill="#FFDC20"></path> </svg> 