<?xml version="1.0" encoding="UTF-8"?> <svg xmlns="http://www.w3.org/2000/svg" width="36" height="36" viewBox="0 0 36 36" fill="none"> <path fill-rule="evenodd" clip-rule="evenodd" d="M10.9785 3.50023C11.0377 3.4991 11.0906 3.50713 11.1351 3.51839C12.9758 3.98455 13.8183 5.39736 14.1283 6.89119C14.3372 7.89792 14.3156 8.97488 14.1988 9.91301C14.3017 9.84607 14.4069 9.78054 14.5142 9.71717C15.7166 9.00719 17.4116 8.44193 18.8203 9.61585C19.4687 10.1562 20.3618 11.2091 21.3628 12.5163C22.3735 13.8361 23.5229 15.4535 24.6878 17.155C27.0181 20.5585 29.4223 24.3151 30.9251 26.7362L30.929 26.7426L30.929 26.7427C31.2066 27.2054 31.5353 27.97 31.6336 28.798C31.731 29.6179 31.607 30.5685 30.8954 31.311C30.531 31.8722 29.7676 32.3713 28.6465 32.3623C27.5095 32.3532 26.0339 31.8262 24.1933 30.3946C20.5992 27.5992 13.371 22.2363 10.2036 19.9024L10.1902 19.8925L10.1774 19.8817C9.60307 19.396 8.95379 18.4782 8.8398 17.2784C8.73323 16.1566 9.10074 14.8601 10.2978 13.5157C9.24601 13.5112 7.96085 13.3841 6.82675 12.9604C5.39616 12.426 4.12863 11.3801 3.9937 9.47749C3.99046 9.43175 3.99188 9.37816 4.00344 9.32008C4.07953 8.9377 4.36043 8.54318 4.86404 8.31631C5.16655 8.18003 5.53728 8.10848 5.98265 8.11997C5.74778 7.79904 5.55632 7.43679 5.471 7.04812C5.38958 6.67716 5.40494 6.27981 5.5744 5.88791C5.74221 5.4998 6.04484 5.1544 6.47609 4.85421C6.48411 4.84862 6.49224 4.8433 6.50047 4.83825C6.76525 4.64074 7.03984 4.50779 7.32307 4.44123C7.73872 4.34355 8.13255 4.39851 8.48333 4.54408C8.85086 4.69661 9.17366 4.94896 9.44814 5.23676C9.51538 4.79634 9.65119 4.44404 9.83869 4.1703C10.1508 3.7146 10.5887 3.50769 10.9785 3.50023ZM6.72401 5.94723C6.60943 6.06764 6.53692 6.18152 6.49227 6.28478C6.4167 6.45955 6.40519 6.63983 6.44775 6.83372C6.53867 7.24793 6.87332 7.70064 7.30471 8.09504C7.46062 8.23759 7.49901 8.4204 7.49817 8.54754C7.49733 8.67291 7.46099 8.78442 7.41633 8.87066C7.37174 8.95678 7.3014 9.05141 7.19845 9.12469C7.09355 9.19935 6.92002 9.27275 6.71262 9.2247C5.94798 9.04754 5.50686 9.12351 5.27477 9.22806C5.09498 9.30906 5.02333 9.41284 4.99679 9.47586C5.11849 10.8099 5.98649 11.5791 7.17667 12.0236C8.40519 12.4825 9.8957 12.5541 10.9754 12.5006C11.0688 12.496 11.1575 12.5173 11.2345 12.5583C11.8681 11.9246 12.0618 11.7311 12.1211 11.6719C12.1327 11.6603 12.1436 11.649 12.1559 11.6357C12.2438 11.5407 12.5639 11.2022 13.0335 10.7962C13.2629 9.75829 13.4072 8.33754 13.1492 7.09439C12.8917 5.85366 12.2579 4.86252 10.9567 4.50548C10.89 4.52048 10.7752 4.57268 10.6637 4.7354C10.5199 4.94541 10.3673 5.36622 10.4068 6.15012C10.4175 6.36274 10.3147 6.52061 10.2227 6.61069C10.1324 6.69911 10.0268 6.75166 9.9342 6.78036C9.84144 6.8091 9.72527 6.82521 9.60171 6.80392C9.47642 6.78233 9.30325 6.7123 9.19043 6.53369C8.8783 6.0395 8.49171 5.63025 8.10003 5.4677C7.91668 5.39161 7.7372 5.37115 7.55184 5.41471C7.36244 5.45922 7.12708 5.58014 6.85365 5.85357C6.81464 5.89259 6.77078 5.92381 6.72401 5.94723ZM12.8897 12.315C13.0343 12.1589 13.9167 11.2313 15.0227 10.5783C16.1599 9.90672 17.2998 9.65041 18.1802 10.3841C18.7318 10.8438 19.5637 11.8117 20.5689 13.1243C21.4723 14.3039 22.4931 15.7316 23.5411 17.2519L20.6465 20.1465C20.4513 20.3417 20.4513 20.6583 20.6465 20.8536C20.8418 21.0488 21.1584 21.0488 21.3537 20.8536L24.1161 18.0911C26.3545 21.3771 28.6305 24.9358 30.0733 27.2602C30.2941 27.6292 30.5625 28.2581 30.6406 28.9159C30.7185 29.5717 30.6024 30.1857 30.1536 30.6394C30.1216 30.6717 30.0926 30.7082 30.0677 30.7489C29.9121 31.0027 29.4805 31.3689 28.6545 31.3624C27.8183 31.3557 26.5518 30.9621 24.8072 29.6052C23.6423 28.6991 22.0981 27.5253 20.4347 26.2725L23.3537 23.3536C23.5489 23.1583 23.5489 22.8417 23.3537 22.6465C23.1584 22.4512 22.8418 22.4512 22.6465 22.6465L19.6465 25.6465L19.6391 25.6541L19.6281 25.6659C17.673 24.1973 15.6144 22.6641 13.8511 21.3561L13.8537 21.3536L16.8537 18.3536C17.0489 18.1583 17.0489 17.8417 16.8537 17.6465C16.6584 17.4512 16.3418 17.4512 16.1465 17.6465L13.1465 20.6465C13.1099 20.6831 13.0801 20.7241 13.0572 20.7677C12.1936 20.128 11.4262 19.5612 10.8111 19.1079C10.4025 18.757 9.91961 18.071 9.83531 17.1838C9.7525 16.312 10.0469 15.161 11.3539 13.8534C12.4658 12.7409 12.7532 12.4538 12.8274 12.3798C12.8496 12.3577 12.8696 12.3367 12.8897 12.315Z" fill="#FFDC20"></path> </svg> 