<?xml version="1.0" encoding="UTF-8"?> <svg xmlns="http://www.w3.org/2000/svg" width="1200" height="554" viewBox="0 0 1200 554" fill="none"> <path fill-rule="evenodd" clip-rule="evenodd" d="M24 0C10.7451 0 0 10.7451 0 24V530C0 543.255 10.7451 554 24 554H1176C1189.25 554 1200 543.255 1200 530V24C1200 10.7451 1189.25 0 1176 0H24ZM44 80C30.7451 80 20 90.7451 20 104V370C20 383.255 30.7451 394 44 394H1156C1169.25 394 1180 383.255 1180 370V104C1180 90.7451 1169.25 80 1156 80H44Z" fill="#E8EFDF"></path> </svg> 