<?xml version="1.0" encoding="UTF-8"?> <svg xmlns="http://www.w3.org/2000/svg" width="307" height="364" viewBox="0 0 307 364" fill="none"> <g opacity="0.29"> <path d="M291.596 121.092C298.825 100.562 249.154 47.039 234.946 48.8291C220.738 50.6193 184.754 92.8575 170.615 90.5915C156.475 88.3255 219.379 58.2557 213.963 44.7957C208.547 31.3356 158.945 19.8697 153.144 26.6677C147.343 33.4657 124.229 58.5276 118.179 56.3976C112.129 54.2675 143.105 26.4637 139.48 21.1386C135.854 15.8135 87.9055 -4.10463 81.1075 1.87761C71.0918 10.6697 45.8939 45.7927 49.8141 53.9956C53.7342 62.1985 84.8691 62.3118 89.809 57.9384C94.7488 53.565 100.255 62.9916 84.3932 67.5689C68.5312 72.1462 45.8712 64.8497 40.9767 71.2398C36.0821 77.63 5.24183 116.424 9.56989 126.372C13.8979 136.319 68.0327 121.545 73.6297 124.876C79.2268 128.207 79.8159 141.984 58.7648 142.007C37.7137 142.03 2.47731 141.826 1.07239 151.502C-0.332534 161.177 0.755182 215.879 5.85368 224.489C10.9522 233.1 56.0683 224.489 68.3953 214.678C80.7223 204.866 96.8563 196.55 97.2868 201.603C97.7173 206.656 53.3717 239.898 30.9609 247.603C8.55019 255.307 16.5945 257.482 20.4693 267.679C24.3442 277.876 53.5983 318.053 63.8179 312.161C74.0376 306.269 114.123 262.037 118.451 245.926C122.779 229.815 124.705 259.001 116.82 269.787C108.934 280.573 84.6198 305.272 87.6336 317.826C90.6474 330.38 121.012 331.966 139.389 334.209C157.766 336.453 191.031 309.532 198.645 291.858C198.645 291.858 247.772 306.473 265.469 278.466C283.167 250.458 283.733 243.161 277.388 236.159C271.044 229.157 231.751 228.886 225.86 218.643C219.968 208.401 265.333 229.973 283.688 222.11C302.043 214.247 309.86 163.466 304.83 148.782C299.799 134.099 232.544 161.268 220.557 152.952C208.57 144.636 284.39 141.576 291.596 121.092ZM128.92 195.462C128.536 196.719 127.815 197.848 126.835 198.725C124.743 201.213 121.894 202.948 118.723 203.665C118.118 203.773 117.496 203.735 116.908 203.554C116.321 203.372 115.786 203.053 115.347 202.623C114.916 201.854 114.69 200.988 114.69 200.107C114.69 199.226 114.916 198.36 115.347 197.592C116.842 193.309 120.627 191.27 124.728 189.82C125.438 189.492 126.241 189.427 126.994 189.638C127.456 189.87 127.848 190.223 128.127 190.658C128.623 191.342 128.954 192.132 129.091 192.966C129.229 193.8 129.17 194.655 128.92 195.462ZM120.853 155.331C120.766 159.155 119.535 162.865 117.318 165.981C116.209 167.528 114.74 168.781 113.039 169.634C111.338 170.487 109.455 170.913 107.552 170.876C104.902 170.432 102.315 169.671 99.8473 168.61C96.9695 167.726 93.6385 167.228 91.7351 164.871C91.3856 164.472 91.1715 163.972 91.1233 163.443C91.1614 163.01 91.2219 162.579 91.3045 162.152C91.3045 160.905 90.3301 159.886 90.0356 158.662C89.537 156.691 91.1459 154.855 92.6188 153.45C95.3606 150.799 99.1222 145.429 102.816 144.25C106.387 143.425 110.055 143.098 113.715 143.276C115.004 143.47 116.222 143.987 117.257 144.78C118.291 145.572 119.107 146.614 119.63 147.808C120.7 150.194 121.122 152.82 120.853 155.422V155.331ZM209.227 179.781C209.294 180.366 209.234 180.959 209.05 181.518C208.866 182.077 208.563 182.59 208.162 183.022C205.7 185.598 202.396 187.206 198.849 187.554C192.393 188.742 185.756 188.495 179.407 186.829C177.956 186.466 176.302 185.763 175.985 184.313C175.87 183.33 176.137 182.34 176.733 181.549C180.562 175.476 188.244 173.233 194.861 174.366L201.477 175.431C203.775 175.587 205.985 176.37 207.868 177.697C208.607 178.218 209.131 178.992 209.34 179.872L209.227 179.781ZM189.082 123.358C188.442 125.734 187.128 127.875 185.298 129.521C180.766 134.257 160.372 147.332 155.84 135.979C155.532 135.084 155.446 134.128 155.591 133.192C156.18 129.363 159.398 126.508 162.638 124.378C168.272 120.681 174.566 118.104 181.174 116.786C182.916 116.256 184.786 116.336 186.477 117.013C187.573 117.639 188.433 118.608 188.924 119.771C189.416 120.934 189.511 122.226 189.196 123.448L189.082 123.358Z" fill="#ADB797"></path> <path d="M291.596 121.092C298.825 100.562 249.154 47.039 234.946 48.8291C220.738 50.6193 184.754 92.8575 170.615 90.5915C156.475 88.3255 219.379 58.2557 213.963 44.7957C208.547 31.3356 158.945 19.8697 153.144 26.6677C147.343 33.4657 124.229 58.5276 118.179 56.3976C112.129 54.2675 143.105 26.4637 139.48 21.1386C135.854 15.8135 87.9055 -4.10463 81.1075 1.87761C71.0918 10.6697 45.8939 45.7927 49.8141 53.9956C53.7342 62.1985 84.8691 62.3118 89.809 57.9384C94.7488 53.565 100.255 62.9916 84.3932 67.5689C68.5312 72.1462 45.8712 64.8497 40.9767 71.2398C36.0821 77.63 5.24183 116.424 9.56989 126.372C13.8979 136.319 68.0327 121.545 73.6297 124.876C79.2268 128.207 79.8159 141.984 58.7648 142.007C37.7137 142.03 2.47731 141.826 1.07239 151.502C-0.332534 161.177 0.755182 215.879 5.85368 224.489C10.9522 233.1 56.0683 224.489 68.3953 214.678C80.7223 204.866 96.8563 196.55 97.2868 201.603C97.7173 206.656 53.3717 239.898 30.9609 247.603C8.55019 255.307 16.5945 257.482 20.4693 267.679C24.3442 277.876 53.5983 318.053 63.8179 312.161C74.0376 306.269 114.123 262.037 118.451 245.926C122.779 229.815 124.705 259.001 116.82 269.787C108.934 280.573 84.6198 305.272 87.6336 317.826C90.6474 330.38 121.012 331.966 139.389 334.209C157.766 336.453 191.031 309.532 198.645 291.858C198.645 291.858 247.772 306.473 265.469 278.466C283.167 250.458 283.733 243.161 277.388 236.159C271.044 229.157 231.751 228.886 225.86 218.643C219.968 208.401 265.333 229.973 283.688 222.11C302.043 214.247 309.86 163.466 304.83 148.782C299.799 134.099 232.544 161.268 220.557 152.952C208.57 144.636 284.39 141.576 291.596 121.092ZM128.92 195.462C128.536 196.719 127.815 197.848 126.835 198.725C124.743 201.213 121.894 202.948 118.723 203.665C118.118 203.773 117.496 203.735 116.908 203.554C116.321 203.372 115.786 203.053 115.347 202.623C114.916 201.854 114.69 200.988 114.69 200.107C114.69 199.226 114.916 198.36 115.347 197.592C116.842 193.309 120.627 191.27 124.728 189.82C125.438 189.492 126.241 189.427 126.994 189.638C127.456 189.87 127.848 190.223 128.127 190.658C128.623 191.342 128.954 192.132 129.091 192.966C129.229 193.8 129.17 194.655 128.92 195.462ZM120.853 155.331C120.766 159.155 119.535 162.865 117.318 165.981C116.209 167.528 114.74 168.781 113.039 169.634C111.338 170.487 109.455 170.913 107.552 170.876C104.902 170.432 102.315 169.671 99.8473 168.61C96.9695 167.726 93.6385 167.228 91.7351 164.871C91.3856 164.472 91.1715 163.972 91.1233 163.443C91.1614 163.01 91.2219 162.579 91.3045 162.152C91.3045 160.905 90.3301 159.886 90.0356 158.662C89.537 156.691 91.1459 154.855 92.6188 153.45C95.3606 150.799 99.1222 145.429 102.816 144.25C106.387 143.425 110.055 143.098 113.715 143.276C115.004 143.47 116.222 143.987 117.257 144.78C118.291 145.572 119.107 146.614 119.63 147.808C120.7 150.194 121.122 152.82 120.853 155.422V155.331ZM209.227 179.781C209.294 180.366 209.234 180.959 209.05 181.518C208.866 182.077 208.563 182.59 208.162 183.022C205.7 185.598 202.396 187.206 198.849 187.554C192.393 188.742 185.756 188.495 179.407 186.829C177.956 186.466 176.302 185.763 175.985 184.313C175.87 183.33 176.137 182.34 176.733 181.549C180.562 175.476 188.244 173.233 194.861 174.366L201.477 175.431C203.775 175.587 205.985 176.37 207.868 177.697C208.607 178.218 209.131 178.992 209.34 179.872L209.227 179.781ZM189.082 123.358C188.442 125.734 187.128 127.875 185.298 129.521C180.766 134.257 160.372 147.332 155.84 135.979C155.532 135.084 155.446 134.128 155.591 133.192C156.18 129.363 159.398 126.508 162.638 124.378C168.272 120.681 174.566 118.104 181.174 116.786C182.916 116.256 184.786 116.336 186.477 117.013C187.573 117.639 188.433 118.608 188.924 119.771C189.416 120.934 189.511 122.226 189.196 123.448L189.082 123.358Z" fill="#ADB797"></path> <mask id="mask0_2829_3663" style="mask-type:luminance" maskUnits="userSpaceOnUse" x="0" y="0" width="307" height="335"> <path d="M291.595 121.092C298.824 100.562 249.153 47.039 234.945 48.8291C220.738 50.6193 184.753 92.8575 170.614 90.5915C156.474 88.3255 219.378 58.2557 213.962 44.7957C208.546 31.3356 158.944 19.8697 153.143 26.6677C147.342 33.4657 124.229 58.5276 118.178 56.3976C112.128 54.2675 143.104 26.4637 139.479 21.1386C135.853 15.8135 87.9046 -4.10463 81.1066 1.87761C71.0909 10.6697 45.893 45.7927 49.8132 53.9956C53.7333 62.1985 84.8682 62.3118 89.808 57.9384C94.7479 53.565 100.254 62.9916 84.3923 67.5689C68.5303 72.1462 45.8703 64.8497 40.9758 71.2398C36.0812 77.63 5.24091 116.424 9.56897 126.372C13.897 136.319 68.0318 121.545 73.6288 124.876C79.2259 128.207 79.815 141.984 58.7639 142.007C37.7127 142.03 2.47639 141.826 1.07147 151.502C-0.33345 161.177 0.754266 215.879 5.85277 224.489C10.9513 233.1 56.0673 224.489 68.3944 214.678C80.7214 204.866 96.8553 196.55 97.2859 201.603C97.7164 206.656 53.3708 239.898 30.96 247.603C8.54928 255.307 16.5936 257.482 20.4684 267.679C24.3433 277.876 53.5974 318.053 63.817 312.161C74.0367 306.269 114.122 262.037 118.45 245.926C122.778 229.815 124.704 259.001 116.819 269.787C108.933 280.573 84.6189 305.272 87.6327 317.826C90.6465 330.38 121.011 331.966 139.388 334.209C157.765 336.453 191.03 309.532 198.644 291.858C198.644 291.858 247.771 306.473 265.468 278.466C283.166 250.458 283.732 243.161 277.388 236.159C271.043 229.157 231.75 228.886 225.859 218.643C219.967 208.401 265.332 229.973 283.687 222.11C302.042 214.247 309.859 163.466 304.829 148.782C299.798 134.099 232.543 161.268 220.556 152.952C208.569 144.636 284.39 141.576 291.595 121.092ZM128.919 195.462C128.535 196.719 127.814 197.848 126.834 198.725C124.742 201.213 121.893 202.948 118.722 203.665C118.117 203.773 117.495 203.735 116.907 203.554C116.32 203.372 115.785 203.053 115.346 202.623C114.915 201.854 114.689 200.988 114.689 200.107C114.689 199.226 114.915 198.36 115.346 197.592C116.841 193.309 120.626 191.27 124.727 189.82C125.437 189.492 126.24 189.427 126.993 189.638C127.456 189.87 127.847 190.223 128.126 190.658C128.622 191.342 128.953 192.132 129.09 192.966C129.228 193.8 129.169 194.655 128.919 195.462ZM120.852 155.331C120.765 159.155 119.534 162.865 117.317 165.981C116.208 167.528 114.74 168.781 113.038 169.634C111.337 170.487 109.454 170.913 107.551 170.876C104.901 170.432 102.315 169.671 99.8464 168.61C96.9686 167.726 93.6376 167.228 91.7342 164.871C91.3847 164.472 91.1706 163.972 91.1224 163.443C91.1605 163.01 91.221 162.579 91.3036 162.152C91.3036 160.905 90.3292 159.886 90.0347 158.662C89.5361 156.691 91.145 154.855 92.6179 153.45C95.3597 150.799 99.1213 145.429 102.815 144.25C106.386 143.425 110.054 143.098 113.714 143.276C115.003 143.47 116.221 143.987 117.256 144.78C118.29 145.572 119.107 146.614 119.629 147.808C120.699 150.194 121.121 152.82 120.852 155.422V155.331ZM209.226 179.781C209.293 180.366 209.233 180.959 209.049 181.518C208.865 182.077 208.562 182.59 208.161 183.022C205.699 185.598 202.395 187.206 198.848 187.554C192.393 188.742 185.755 188.495 179.406 186.829C177.955 186.466 176.301 185.763 175.984 184.313C175.869 183.33 176.137 182.34 176.732 181.549C180.561 175.476 188.243 173.233 194.86 174.366L201.477 175.431C203.774 175.587 205.984 176.37 207.867 177.697C208.606 178.218 209.13 178.992 209.34 179.872L209.226 179.781ZM189.082 123.358C188.441 125.734 187.127 127.875 185.297 129.521C180.765 134.257 160.371 147.332 155.839 135.979C155.531 135.084 155.445 134.128 155.59 133.192C156.179 129.363 159.397 126.508 162.637 124.378C168.272 120.681 174.565 118.104 181.173 116.786C182.915 116.256 184.785 116.336 186.476 117.013C187.572 117.639 188.432 118.608 188.923 119.771C189.415 120.934 189.51 122.226 189.195 123.448L189.082 123.358Z" fill="white"></path> </mask> <g mask="url(#mask0_2829_3663)"> <path d="M17.1817 290.339C26.2457 287.076 155.272 186.806 155.272 186.806Z" fill="#ADB797"></path> </g> <g style="mix-blend-mode:multiply" opacity="0.21"> <path d="M128.761 87.8043C133.882 87.0112 138.301 79.5108 142.221 74.6162C146.141 69.7216 151.738 64.6005 158.287 64.3285C159.143 65.0578 159.785 66.0058 160.144 67.0714C160.503 68.137 160.566 69.2801 160.326 70.3787C159.824 72.5588 158.95 74.6361 157.743 76.5196C152.327 86.1728 145.303 97.1629 141.451 107.383C137.598 117.602 144.872 128.116 147.433 137.566C148.77 142.528 149.019 148.42 153.098 151.57C162.842 159.093 178.386 140.965 187.926 148.782L168.371 165.143C163.839 168.904 161.437 180.778 165.991 185.945C166.92 186.987 168.257 187.599 169.232 188.573C171.906 191.179 171.702 195.485 173.356 198.816C175.622 203.506 181.4 205.614 186.612 205.41C191.824 205.206 196.786 203.144 201.794 201.761C206.802 200.379 212.286 199.359 217.18 201.218C212.104 208.22 200.843 205.75 193.433 210.282C184.482 215.675 187.043 225.328 190.917 233.327C191.917 235.602 193.359 237.655 195.16 239.367C196.962 241.079 199.086 242.415 201.409 243.297C205.057 244.476 209.295 244.204 212.263 246.583C215.866 249.438 216.047 254.876 214.892 259.341C213.736 263.805 211.561 268.065 211.583 272.665C211.583 274.568 211.969 276.426 211.946 278.33C211.83 281.192 210.786 283.938 208.971 286.154C207.155 288.37 204.668 289.934 201.885 290.611C193.082 292.656 184.006 293.26 175.01 292.401C169.164 291.835 161.981 293.149 159.828 298.633C154.344 297.795 150.764 291.835 150.764 286.329C150.764 280.822 153.528 275.565 156.633 270.965C158.899 267.543 161.527 264.167 162.23 260.066C162.569 257.812 162.569 255.521 162.23 253.268C160.524 240.016 156.252 227.224 149.654 215.607C148.784 213.725 147.372 212.146 145.597 211.075C140.929 208.809 136.058 213.454 132.319 217.102C125.562 223.658 116.881 227.875 107.551 229.135C110.338 219.799 118.609 213.273 125.679 206.815C131.341 202.146 135.619 196.018 138.052 189.095C141.111 178.807 135.944 175.068 130.574 166.82C125.203 158.571 124.954 147.876 120.921 138.812C119.131 134.801 113.556 127.233 108.571 127.482C107.179 127.741 105.743 127.64 104.402 127.187C103.273 126.372 102.407 125.246 101.909 123.947C100.293 120.981 98.0081 118.433 95.2348 116.505C92.4614 114.578 89.2767 113.324 85.9336 112.844C83.7809 112.549 81.5829 112.594 79.4302 112.232C76.8518 111.773 74.4054 110.754 72.2638 109.246C70.1221 107.739 68.3373 105.78 67.0352 103.508C66.8145 103.209 66.6633 102.865 66.5928 102.5C66.5222 102.136 66.534 101.76 66.6273 101.4C66.8571 101.05 67.1695 100.761 67.537 100.56C67.9044 100.358 68.3157 100.25 68.7347 100.245C73.8369 99.3653 79.0316 99.152 84.1888 99.6102C86.8834 100.192 89.6919 99.9309 92.2331 98.8624C93.395 97.9725 94.3695 96.8618 95.1006 95.5941C95.8317 94.3263 96.305 92.9265 96.4932 91.4752C98.3513 83.7255 99.4616 75.3186 100.731 67.433C101.022 65.9409 101.136 64.4197 101.07 62.901C100.802 60.942 100.315 59.0191 99.6203 57.168C98.0377 51.8247 97.8041 46.1724 98.9404 40.7168C110.429 51.2084 111.267 71.0359 120.966 83.5895C123.73 87.0339 126.336 88.1668 128.761 87.8043Z" fill="#ADB797"></path> </g> <path d="M92.0287 24.4697C120.444 127.663 217.633 363.713 217.633 363.713L235.761 355.056L92.0287 24.4697Z" fill="#ADB797"></path> </g> </svg> 