<?xml version="1.0" encoding="UTF-8"?> <svg xmlns="http://www.w3.org/2000/svg" width="313" height="193" viewBox="0 0 313 193" fill="none"> <g opacity="0.29"> <g style="mix-blend-mode:multiply" opacity="0.21"> <path d="M231.497 87.8601C231.56 90.58 235.244 93.3461 237.526 95.7017C239.807 98.0572 242.181 101.279 241.889 104.701C241.443 105.099 240.897 105.372 240.308 105.491C239.719 105.61 239.109 105.571 238.543 105.379C237.456 104.977 236.45 104.394 235.569 103.655C230.82 100.228 225.469 95.8875 220.305 93.2336C215.142 90.5796 209.072 93.7135 203.883 94.4804C201.167 94.8703 198.03 94.6322 196.084 96.5515C191.426 101.153 199.981 110.375 195.191 114.847L187.842 103.649C186.156 101.077 180.02 99.0561 176.947 101.098C176.328 101.516 175.913 102.159 175.33 102.624C173.774 103.818 171.498 103.47 169.617 104.118C166.973 105.03 165.471 107.886 165.219 110.607C165.175 113.347 165.478 116.079 166.121 118.74C166.559 121.447 166.681 124.357 165.363 126.773C161.994 123.696 164.064 117.988 162.213 113.861C159.979 108.856 154.669 109.588 150.168 111.101C148.894 111.478 147.706 112.1 146.676 112.929C145.645 113.759 144.791 114.78 144.164 115.933C143.297 117.753 143.143 119.975 141.72 121.382C139.957 123.075 137.062 122.824 134.775 121.941C132.489 121.059 130.374 119.653 127.927 119.377C126.922 119.261 125.904 119.384 124.911 119.209C123.399 118.974 122.01 118.26 120.956 117.177C119.901 116.094 119.239 114.7 119.069 113.208C118.589 108.497 118.889 103.735 119.959 99.1059C120.661 96.0983 120.446 92.2862 117.689 90.7995C118.511 87.9815 121.885 86.4727 124.84 86.8184C127.796 87.1641 130.345 88.9367 132.58 90.841C134.087 92.3702 135.901 93.5767 137.909 94.3852C139.067 94.6707 140.263 94.7904 141.458 94.7406C148.603 94.6865 155.678 93.2691 162.29 90.5678C163.351 90.2309 164.292 89.6004 164.999 88.7526C166.559 86.4664 164.376 83.6355 162.7 81.456C159.684 77.528 158.038 72.7468 158.003 67.8132C162.769 69.8391 165.598 74.5563 168.599 78.7147C170.692 81.9495 173.648 84.5585 177.149 86.2621C182.411 88.4999 184.747 86.0447 189.469 83.759C194.191 81.4733 199.944 82.0703 205.027 80.5317C207.271 79.8465 211.654 77.4314 211.906 74.8174C211.86 74.0771 212.009 73.3364 212.338 72.6659C212.845 72.131 213.499 71.7527 214.221 71.5782C215.894 70.9251 217.393 69.902 218.601 68.589C219.808 67.2761 220.691 65.709 221.18 64.0107C221.475 62.905 221.613 61.7523 221.944 60.6584C222.36 59.3436 223.066 58.1331 224.013 57.1133C224.959 56.0935 226.122 55.2896 227.419 54.7591C227.589 54.6558 227.781 54.5949 227.98 54.5818C228.179 54.5686 228.377 54.6037 228.558 54.6838C228.732 54.8258 228.867 55.0091 228.949 55.2165C229.03 55.424 229.057 55.6488 229.026 55.8699C229.15 58.5798 228.908 61.2966 228.305 63.9495C227.821 65.3198 227.773 66.799 228.167 68.1904C228.962 69.5228 230.265 70.4879 231.792 70.8736C235.785 72.3202 240.155 73.4329 244.258 74.5822C245.043 74.8313 245.856 74.9918 246.679 75.0605C247.74 75.0315 248.797 74.8964 249.831 74.6572C252.772 74.1625 255.787 74.3966 258.601 75.3383C252.244 80.6469 241.621 79.8418 234.335 84.0965C232.246 85.2918 231.466 86.5774 231.497 87.8601Z" fill="#ADB797"></path> </g> <path d="M267.488 72.9643C210.944 81.2217 79.4683 116.678 79.4683 116.678L82.8224 126.609L267.488 72.9643Z" fill="#ADB797"></path> </g> <path d="M50.8249 138.055C50.6563 137.55 51.1138 136.791 51.8483 135.129C52.9801 132.541 56.4598 128.543 59.0725 127.556C61.6853 126.569 64.8519 127.556 67.585 128.58C65.6506 126.132 63.2059 124.135 60.421 122.728C63.2023 118.502 67.6452 115.72 71.9557 113.096L80.3839 107.87C80.5714 107.718 80.7871 107.605 81.0185 107.537C81.25 107.469 81.4926 107.447 81.7325 107.473C82.0942 107.608 82.4053 107.852 82.6234 108.171C84.3813 110.29 86.0911 112.506 87.9694 114.492C87.849 109.303 87.3192 105.257 90.4858 100.826C91.437 99.5141 92.3882 97.3107 93.5561 96.2391C95.2538 94.6739 98.3722 94.409 100.455 93.5903C102.485 92.9085 104.275 91.6541 105.608 89.9781C105.729 89.8096 105.861 89.6169 106.054 89.5928C106.153 89.5957 106.251 89.6198 106.34 89.6634C106.429 89.707 106.508 89.7691 106.572 89.8457C109.281 92.338 112.026 94.8063 114.819 97.1421C115.518 96.0103 115.783 85.9567 115.554 85.9807C124.993 84.8369 132.844 78.6 141.585 75.2407C142.237 74.9173 142.969 74.7878 143.692 74.8675C144.404 75.087 145.039 75.5046 145.522 76.0715C147.124 77.5645 154.432 86.2817 156.539 85.7038C159.609 84.861 155.335 76.3966 154.336 74.5063L158.297 72.0982C163.031 77.4997 167.442 83.1766 171.505 89.0992C170.073 86.9801 168.158 74.1812 169.434 71.7972C171.517 67.8961 182.679 67.1857 186.712 66.1743C197.067 63.6097 207.47 61.0331 218.077 59.8291C218.967 59.6395 219.895 59.7364 220.726 60.106C223.508 61.7435 226.494 69.5818 226.891 72.5798L228.372 60.4672L245.289 57.2765C246.609 56.9187 247.995 56.8774 249.334 57.1561C250.805 57.7405 252.064 58.7563 252.946 60.0699C254.859 62.4809 256.476 65.1124 257.762 67.9082L255.848 57.0718C261.061 57.3006 269.092 54.5915 273.824 55.8678C276.449 56.5661 283.131 66.3429 282 68.9436C283.107 66.3791 284.408 63.8747 285.684 61.4184C285.945 60.7497 286.448 60.2037 287.093 59.8893C287.763 59.7546 288.46 59.8523 289.067 60.1662C296.111 62.9475 304.178 65.163 310.644 69.0159C311.294 69.4012 297.086 82.1519 296.605 81.7546C294.371 79.0771 292.907 75.8437 292.366 72.3992C292.078 75.0517 292.171 77.7318 292.643 80.3579C293.45 83.8496 293.655 83.97 290.681 85.9446C288.368 87.474 286.224 89.2459 284.287 91.2303C281.542 94.1682 277.184 95.6612 275.474 99.2974C273.205 97.2254 271.417 94.6815 270.236 91.8444C270.155 94.2742 270.702 96.6839 271.826 98.8398C266.431 104.691 259.617 109.038 252.886 113.288C251.357 111.926 249.947 110.436 248.672 108.833C249.069 109.482 249.314 110.212 249.392 110.968C249.469 111.724 249.375 112.489 249.117 113.204C249.018 113.558 248.807 113.87 248.515 114.095C248.122 114.299 247.681 114.391 247.239 114.36C245.43 114.466 243.701 115.145 242.303 116.298C239.488 113.885 237.277 110.846 235.849 107.425C235.774 110.076 236.009 112.726 236.547 115.323C236.716 116.13 237.751 118.297 237.45 119.031C237.149 119.766 235.115 120.368 234.464 120.705C228.179 123.908 222.255 127.544 215.669 129.964C212.066 127.254 209.241 123.641 207.482 119.489C207.819 123.502 208.16 127.548 208.505 131.626C208.546 131.862 208.503 132.104 208.385 132.312C208.21 132.492 207.973 132.599 207.723 132.613L204.327 133.179C200.572 128.766 197.801 123.602 196.2 118.032C195.763 124.634 196.095 131.265 197.187 137.79C193.491 138.32 190.276 139.934 186.712 140.74C182.077 141.8 177.778 143.835 173.372 145.556C171.003 143.793 168.993 141.595 167.448 139.079C167.853 141.487 168.668 143.808 169.856 145.942C165.71 147.302 161.41 148.139 157.057 148.434C153.445 144.112 149.64 139.428 149.026 133.817C146.634 139.181 146.271 145.23 148.003 150.842C140.229 153.426 132.112 154.835 123.922 155.02C123.437 155.064 122.948 155.002 122.489 154.84C122.109 154.64 121.773 154.366 121.502 154.033C119.783 152.174 118.373 150.052 117.324 147.748C116.577 146.098 116.373 143.498 115.024 142.257C115.156 143.353 114.952 144.473 115.024 145.568C115.166 146.789 115.404 147.997 115.734 149.181C116.281 151.318 117.382 153.274 118.925 154.852L118.323 155.598L111.243 154.695C111.077 154.686 110.916 154.636 110.774 154.551C110.623 154.418 110.517 154.241 110.473 154.045C109.566 151.396 108.639 148.723 107.691 146.026C106.861 143.618 105.067 139.657 105.476 137.068C103.988 139.324 103.072 141.908 102.807 144.598C102.543 147.288 102.938 150.001 103.959 152.504C96.8672 151.625 82.0816 154.563 77.4702 147.688C75.4412 144.096 74.551 139.973 74.9176 135.864L73.4367 144.702C73.3975 145.026 73.2995 145.34 73.1477 145.629C71.7992 147.748 56.833 140.885 54.6657 139.982C52.1011 138.922 51.0175 138.669 50.8249 138.055Z" fill="#7A8C5B"></path> <mask id="mask0_2868_2130" style="mask-type:luminance" maskUnits="userSpaceOnUse" x="49" y="56" width="263" height="99"> <path d="M49.8646 137.965C49.6971 137.47 50.1608 136.724 50.907 135.091C52.0569 132.547 55.5756 128.612 58.2091 127.633C60.8425 126.654 64.025 127.609 66.7711 128.602C64.8349 126.209 62.3831 124.26 59.5866 122.891C62.4035 118.734 66.8863 115.988 71.2352 113.396L79.7389 108.236C79.9283 108.086 80.1458 107.974 80.379 107.906C80.6122 107.838 80.8564 107.816 81.0977 107.84C81.4612 107.972 81.7732 108.21 81.9913 108.522C83.7514 110.593 85.4625 112.759 87.3443 114.7C87.2451 109.611 86.7292 105.645 89.9346 101.285C90.8974 99.9941 91.864 97.8289 93.0438 96.773C94.7589 95.2307 97.8982 94.9582 99.9979 94.1466C102.044 93.4696 103.85 92.2318 105.199 90.5824C105.321 90.4166 105.455 90.227 105.649 90.2026C105.749 90.2051 105.847 90.2283 105.937 90.2707C106.026 90.3131 106.106 90.3737 106.169 90.4485C108.885 92.8822 111.637 95.2922 114.438 97.572C115.145 96.459 115.455 86.5962 115.224 86.6207C124.729 85.4602 132.655 79.3103 141.466 75.9795C142.124 75.6596 142.86 75.5296 143.588 75.6048C144.303 75.8172 144.941 76.2243 145.425 76.7784C147.03 78.2363 154.347 86.7573 156.47 86.1818C159.564 85.3425 155.298 77.0572 154.301 75.2071L158.297 72.8288C163.038 78.1078 167.453 83.6583 171.517 89.4513C170.084 87.3785 168.212 74.8318 169.506 72.4881C171.619 68.653 182.854 67.9106 186.917 66.902C197.349 64.3442 207.828 61.7743 218.508 60.5499C219.404 60.3603 220.337 60.4516 221.172 60.8108C223.964 62.4056 226.936 70.082 227.323 73.0212L228.865 61.1339L245.902 57.935C247.232 57.5786 248.627 57.5325 249.974 57.8004C251.451 58.3676 252.714 59.3589 253.597 60.6438C255.511 63.001 257.127 65.5757 258.41 68.3128L256.529 57.6911C261.775 57.8943 269.868 55.2041 274.625 56.4367C277.263 57.111 283.946 66.6739 282.796 69.2295C283.922 66.7094 285.241 64.2475 286.536 61.833C286.801 61.1759 287.309 60.6383 287.96 60.3273C288.635 60.1924 289.336 60.2854 289.946 60.5909C297.022 63.2903 305.131 65.4305 311.621 69.1835C312.274 69.5588 297.922 82.124 297.439 81.7362C295.203 79.119 293.743 75.9534 293.214 72.5768C292.913 75.1799 292.995 77.8084 293.459 80.3824C294.256 83.8041 294.461 83.9214 291.46 85.8705C289.126 87.3801 286.961 89.1269 285.004 91.0814C282.229 93.9743 277.836 95.4566 276.1 99.0304C273.825 97.0072 272.037 94.5191 270.861 91.741C270.769 94.1248 271.309 96.4862 272.431 98.5964C266.978 104.358 260.101 108.65 253.31 112.846C251.777 111.516 250.365 110.06 249.088 108.494C249.484 109.128 249.729 109.843 249.803 110.585C249.878 111.326 249.78 112.076 249.518 112.779C249.416 113.127 249.202 113.434 248.908 113.655C248.512 113.857 248.067 113.949 247.623 113.921C245.802 114.032 244.059 114.705 242.647 115.842C239.824 113.487 237.613 110.514 236.19 107.164C236.104 109.765 236.328 112.364 236.859 114.909C237.025 115.7 238.058 117.821 237.752 118.543C237.446 119.265 235.396 119.863 234.74 120.197C228.402 123.364 222.425 126.955 215.787 129.356C212.172 126.712 209.345 123.179 207.592 119.114C207.914 123.049 208.241 127.016 208.571 131.015C208.61 131.246 208.566 131.484 208.446 131.688C208.27 131.866 208.031 131.972 207.779 131.986L204.36 132.555C200.599 128.242 197.832 123.188 196.245 117.731C195.778 124.209 196.083 130.711 197.155 137.108C193.433 137.643 190.191 139.238 186.601 140.044C181.931 141.102 177.597 143.116 173.155 144.823C170.779 143.103 168.765 140.955 167.221 138.493C167.619 140.854 168.429 143.127 169.616 145.215C165.438 146.566 161.107 147.405 156.725 147.712C153.108 143.487 149.3 138.908 148.705 133.407C146.276 138.678 145.884 144.614 147.603 150.111C139.769 152.678 131.595 154.092 123.352 154.308C122.864 154.353 122.372 154.294 121.911 154.136C121.529 153.943 121.192 153.675 120.921 153.349C119.2 151.532 117.789 149.457 116.743 147.201C115.999 145.586 115.804 143.036 114.452 141.825C114.581 142.899 114.37 143.998 114.438 145.073C114.576 146.27 114.81 147.453 115.138 148.613C115.679 150.708 116.778 152.622 118.325 154.163L117.716 154.898L110.595 154.041C110.428 154.032 110.266 153.984 110.123 153.901C109.971 153.771 109.866 153.598 109.822 153.406C108.921 150.811 107.999 148.193 107.057 145.552C106.232 143.193 104.443 139.315 104.866 136.774C103.359 138.993 102.426 141.532 102.149 144.171C101.871 146.81 102.257 149.47 103.274 151.921C96.1408 151.088 81.2492 154.03 76.6377 147.305C74.6112 143.79 73.7329 139.749 74.1192 135.717L72.5914 144.392C72.5506 144.71 72.4507 145.019 72.2966 145.303C70.9306 147.387 55.8988 140.716 53.7216 139.839C51.1453 138.81 50.0559 138.567 49.8646 137.965Z" fill="white"></path> </mask> <g mask="url(#mask0_2868_2130)"> <path d="M64.8255 131.716L65.3114 158.469" stroke="#717C57" stroke-miterlimit="10"></path> <path d="M84.9294 131.62L94.2364 169.246" stroke="#717C57" stroke-miterlimit="10"></path> <path d="M106.865 124.945L126.482 161.291" stroke="#717C57" stroke-miterlimit="10"></path> <path d="M128.764 118.387L163.919 160.878" stroke="#717C57" stroke-miterlimit="10"></path> <path d="M162.048 108.38L198.444 141.735" stroke="#717C57" stroke-miterlimit="10"></path> <path d="M199.102 97.604L244.688 130.49" stroke="#717C57" stroke-miterlimit="10"></path> <path d="M230.702 88.6958L272.782 114.546" stroke="#717C57" stroke-miterlimit="10"></path> <path d="M251.096 83.1675L300.984 92.8756" stroke="#717C57" stroke-miterlimit="10"></path> <path d="M276.908 76.6464L321.672 68.2965" stroke="#717C57" stroke-miterlimit="10"></path> <path d="M282.324 52.0361L259.894 80.2401" stroke="#717C57" stroke-miterlimit="10"></path> <path d="M248.34 49.2276L239.781 85.8663" stroke="#717C57" stroke-miterlimit="10"></path> <path d="M232.771 39.7146L212.738 91.213" stroke="#717C57" stroke-miterlimit="10"></path> <path d="M197.643 50.5821L181.8 99.9956" stroke="#717C57" stroke-miterlimit="10"></path> <path d="M151.583 61.6851L140.568 110.024" stroke="#717C57" stroke-miterlimit="10"></path> <path d="M114.433 78.0229L119.769 117.405" stroke="#717C57" stroke-miterlimit="10"></path> <path d="M88.6829 84.7183L98.7309 124.748" stroke="#717C57" stroke-miterlimit="10"></path> <path d="M64.4945 106.936L78.9111 128.406" stroke="#717C57" stroke-miterlimit="10"></path> </g> <g style="mix-blend-mode:multiply" opacity="0.21"> <path d="M103.815 137.597C108.631 136.177 113.447 134.575 118.42 134.647C121.466 134.647 124.44 135.382 127.522 135.406C132.23 135.406 136.806 133.961 141.285 132.48C149.942 129.627 158.671 126.737 166.569 122.162C169.194 120.632 171.795 118.887 174.781 118.321C178.465 117.634 182.294 118.826 185.99 118.248C191.252 117.43 195.262 113.3 199.933 110.747C203.642 108.725 207.796 107.701 211.865 106.545C236.391 99.6341 259.22 87.8707 281.868 76.1675C267.5 79.2739 253.023 81.7422 238.438 83.5723C226.253 85.1014 214.02 86.173 201.944 88.3884C189.925 90.5456 178.125 93.7856 166.69 98.0689C164.041 99.0682 161.308 100.14 158.478 100.031C155.649 99.9231 153.229 98.7311 150.568 98.3097C146.751 97.6956 142.886 98.6227 139.141 99.5137C131.797 101.332 124.452 103.126 117.276 105.534C103.887 110.085 80.9022 118.778 72.5222 130.987C62.9742 144.822 97.7106 139.391 103.815 137.597Z" fill="#7A8C5B"></path> </g> <path d="M283.746 75.4215C289.248 69.016 0.797729 151.276 0.797729 151.276L3.7717 157.067C3.7717 157.067 280.7 78.9493 283.746 75.4215Z" fill="#ADB797"></path> </svg> 