<?xml version="1.0" encoding="UTF-8"?> <svg xmlns="http://www.w3.org/2000/svg" width="340" height="287" viewBox="0 0 340 287" fill="none"> <path d="M337.469 79.3146C331.713 93.2958 321.743 121.757 303.275 138.525C284.807 155.294 264.005 157.945 244.178 159.531C226.186 160.959 215.966 165.944 197.181 181.738C186.395 199.322 236.247 283.255 236.247 283.255L211.321 286.314C211.321 286.314 198.744 220.033 181.863 188.876C155.079 189.827 143.817 192.841 129.02 204.443C113.339 216.702 96.2759 228.848 71.3046 228.961C46.3333 229.075 19.753 214.889 6.06636 208.567C-7.62028 202.245 4.34419 201.769 22.0643 194.971C39.7844 188.173 45.2002 179.359 71.1006 171.699C97.001 164.04 113.747 180.605 134.231 181.919C146.994 182.613 159.788 182.439 172.527 181.398C153.696 168.255 143.205 164.335 125.734 164.358C105.816 164.358 84.9458 163.519 65.1183 148.292C45.2908 133.064 33.0771 105.51 26.2111 92.0496C19.3452 78.5896 29.0663 85.5915 47.149 91.1658C65.2316 96.7402 74.9982 93.0693 100.173 102.949C125.349 112.829 128.317 136.169 143.681 149.787C154.538 159.255 166.123 167.854 178.328 175.506C171.099 152.189 165.208 142.423 150.909 131.501C135.047 119.423 118.981 105.985 112.546 81.8752C106.11 57.765 113.112 28.443 115.854 13.578C118.596 -1.28695 122.04 10.179 133.008 25.6105C143.975 41.0419 153.968 44.0331 167.927 67.1916C181.885 90.3501 170.193 110.699 174.022 130.844C177.099 146.124 181.504 161.106 187.188 175.62C191.674 160.46 194.791 144.929 196.501 129.212C198.608 108.818 185.035 89.557 196.886 65.2655C208.737 40.9739 218.413 37.0764 227.931 20.7159C237.448 4.35537 239.872 -7.35985 243.928 7.11989C247.985 21.5996 257.524 50.1739 253.355 74.828C249.186 99.4821 234.275 114.256 219.592 127.694C206.698 139.5 201.622 149.47 196.66 171.903C206.746 164.049 216.285 155.516 225.211 146.366C239.419 131.546 240.552 108.048 264.776 96.1284C288.999 84.2092 299.106 87.0644 316.667 80.0851C334.229 73.1058 343.202 65.4694 337.469 79.3146Z" fill="#5E7439"></path> <path d="M312.974 95.2226C304.977 107.312 294.484 117.549 282.202 125.247C261.242 138.639 211.684 159.237 187.823 185.296C191.841 164.421 197.547 143.907 204.886 123.955C214.935 96.9197 223.416 69.3269 230.288 41.3145" stroke="#404024" stroke-miterlimit="10"></path> <path d="M77.9004 117.588C109.375 143.148 141.892 153.413 155.692 166.397C165.064 174.737 175.981 181.158 187.824 185.296C187.824 185.296 182.386 175.189 174.432 150.943C166.478 126.697 145.427 98.2588 132.262 51.0127" stroke="#404024" stroke-miterlimit="10"></path> <path d="M187.822 185.295C171.235 185.295 140.802 187.923 118.301 194.359C95.7997 200.794 48.5762 200.59 48.5762 200.59" stroke="#404024" stroke-miterlimit="10"></path> </svg> 