<?xml version="1.0" encoding="UTF-8"?> <svg xmlns="http://www.w3.org/2000/svg" width="222" height="208" viewBox="0 0 222 208" fill="none"> <path d="M195.131 167.378C209.579 164.404 223.173 117.013 217.189 109.416C211.205 101.818 174.253 95.738 170.641 86.768C167.029 77.7979 206.34 103.709 212.24 95.8825C218.14 88.0562 207.424 55.3667 201.5 54.3794C195.576 53.3921 172.977 48.7686 172.11 44.5304C171.243 40.2922 198.081 48.4676 199.923 44.5304C201.765 40.5932 196.552 5.89288 190.712 4.0507C182.151 1.31754 153.038 -1.01829 149.679 4.0507C146.319 9.11969 157.095 27.2404 161.334 28.5769C165.572 29.9134 162.056 36.367 153.881 28.7816C145.705 21.1962 142.057 5.61596 136.615 4.96578C131.172 4.3156 98.0134 0.0292291 93.7631 6.01329C89.5129 11.9973 116.917 38.2212 116.941 42.616C116.965 47.0107 109.187 52.164 101.83 39.9912C94.4735 27.8184 82.3248 7.36181 76.2324 9.89028C70.1399 12.4188 38.9073 32.1288 35.6804 38.0888C32.4536 44.0487 53.139 67.1663 63.1686 70.8506C73.1982 74.5349 83.6372 80.9886 80.7836 83.0113C77.93 85.0341 43.3261 70.971 31.0449 60.6765C18.7637 50.382 20.341 55.8603 15.7898 61.6036C11.2385 67.3468 -1.81322 98.3267 5.15815 102.192C12.1295 106.057 51.6941 113.811 62.5304 110.704C73.3667 107.598 57.1484 118.88 48.1542 118.085C39.1601 117.29 16.4038 111.8 10.1549 117.94C3.90595 124.081 13.6105 142.19 18.7156 153.604C23.8207 165.018 50.9958 174.867 63.8789 173.109C63.8789 173.109 72.548 206.63 94.931 207.111C117.314 207.593 121.721 205.365 123.551 199.249C125.381 193.132 111.86 170.352 115.725 163.345C119.59 156.337 122.949 190.086 133.882 197.997C144.814 205.907 176.938 192.735 183.68 184.692C190.423 176.649 151.256 147.247 151.882 137.41C152.508 127.573 180.755 170.352 195.131 167.378ZM95.3283 99.2056C94.4666 99.4155 93.5644 99.3906 92.7156 99.1334C90.6085 98.5675 88.3449 97.9293 87.0205 96.1594C86.7463 95.8461 86.5516 95.4713 86.4531 95.0668C86.3546 94.6623 86.3551 94.2399 86.4546 93.8356C86.8279 92.7038 88.1764 92.2824 89.3443 92.0537C92.3303 91.4155 94.8467 92.9085 97.1103 94.7748C97.5374 95.0612 97.8522 95.4867 98.0013 95.9788C98.0265 96.327 97.9601 96.6757 97.8087 96.9902C97.603 97.5312 97.2703 98.0148 96.8386 98.4003C96.407 98.7859 95.889 99.0621 95.3283 99.2056ZM115.797 80.5431C113.554 81.8227 110.98 82.4054 108.404 82.2167C107.123 82.1101 105.887 81.6953 104.801 81.0076C103.715 80.32 102.811 79.3798 102.167 78.2674C101.489 76.5887 101.016 74.8341 100.759 73.0419C100.277 71.0673 99.398 68.9602 100.108 67.0217C100.209 66.6746 100.42 66.3701 100.71 66.1548C100.951 65.9983 101.264 65.9622 101.517 65.8177C102.264 65.4324 102.492 64.4572 103.094 63.8672C104.07 62.8919 105.683 63.1809 107.007 63.5421C109.5 64.2043 113.919 64.5053 115.881 66.2271C117.611 68.0212 119.082 70.0474 120.252 72.2473C120.59 73.0544 120.72 73.9333 120.632 74.8038C120.544 75.6744 120.239 76.5091 119.746 77.232C118.724 78.6747 117.342 79.8246 115.737 80.5671L115.797 80.5431ZM132.485 140.263C132.173 140.505 131.812 140.677 131.428 140.766C131.043 140.856 130.644 140.861 130.257 140.781C127.901 140.261 125.806 138.921 124.346 137C121.404 133.679 119.233 129.748 117.988 125.49C117.774 125.032 117.685 124.526 117.729 124.023C117.773 123.52 117.95 123.037 118.241 122.624C118.763 122.223 119.415 122.03 120.071 122.082C124.887 122.179 128.897 125.839 130.583 130.113C131.148 131.522 131.702 132.919 132.256 134.315C132.974 135.706 133.283 137.271 133.147 138.83C133.076 139.383 132.822 139.896 132.425 140.287L132.485 140.263ZM158.119 108.958C156.523 109.428 154.826 109.428 153.23 108.958C148.872 107.911 134.267 100.795 139.24 94.1968C139.647 93.7013 140.173 93.3163 140.769 93.0771C143.177 92.0657 145.97 92.9446 148.318 94.0764C152.41 96.0579 156.087 98.7997 159.154 102.156C160.031 102.972 160.622 104.048 160.84 105.226C160.837 106.064 160.565 106.879 160.065 107.551C159.564 108.222 158.861 108.716 158.059 108.958H158.119Z" fill="#95AC70"></path> <mask id="mask0_2868_2282" style="mask-type:luminance" maskUnits="userSpaceOnUse" x="2" y="1" width="218" height="206"> <path d="M195.603 165.987C210.233 162.939 224.32 116.012 218.325 108.551C212.33 101.089 175.014 95.3601 171.427 86.5244C167.84 77.6887 207.398 102.993 213.42 95.2162C219.441 87.4389 208.844 55.2207 202.862 54.2898C196.88 53.359 174.064 48.9613 173.219 44.7802C172.373 40.5992 199.448 48.4744 201.339 44.5704C203.23 40.6663 198.21 6.41983 192.319 4.64372C183.684 2.0078 154.266 -0.0804567 150.833 4.95333C147.4 9.98712 158.164 27.8101 162.439 29.0986C166.714 30.3872 163.113 36.7903 154.903 29.3571C146.692 21.924 143.116 6.5574 137.619 5.95605C132.121 5.3547 98.6275 1.36973 94.287 7.31438C89.9466 13.259 117.463 38.9629 117.455 43.305C117.448 47.647 109.546 52.7974 102.197 40.8255C94.8472 28.8536 82.7128 8.7331 76.5348 11.2773C70.3569 13.8216 38.6369 33.5319 35.3313 39.445C32.0257 45.3581 52.7717 68.0434 62.8852 71.6081C72.9987 75.1727 83.5061 81.4705 80.6064 83.4907C77.7067 85.5108 42.823 71.8768 30.481 61.7979C18.139 51.719 19.6939 57.12 15.0509 62.829C10.4078 68.538 -3.01239 99.2463 4.00786 103.012C11.0281 106.779 50.9729 114.141 61.9512 110.99C72.9296 107.839 56.4506 119.109 47.363 118.391C38.2754 117.674 15.3079 112.421 8.94558 118.535C2.58322 124.65 12.2635 142.469 17.3422 153.708C22.4209 164.948 49.8244 174.474 62.8624 172.64C62.8624 172.64 71.3841 205.695 94.0105 206.002C116.637 206.308 121.108 204.074 123.003 198.017C124.898 191.96 111.392 169.554 115.351 162.601C119.309 155.648 122.461 188.968 133.457 196.702C144.453 204.435 177.026 191.178 183.901 183.181C190.777 175.183 151.39 146.427 152.095 136.703C152.799 126.979 181.047 169.034 195.603 165.987ZM95.1942 99.3818C94.3215 99.5957 93.4095 99.5778 92.5532 99.3301C90.427 98.7869 88.143 98.1734 86.8168 96.4346C86.5418 96.1272 86.3477 95.7583 86.2511 95.3593C86.1544 94.9604 86.158 94.5431 86.2615 94.1429C86.6471 93.0218 88.0135 92.5952 89.196 92.3604C92.2195 91.7073 94.7529 93.1635 97.0279 94.9904C97.4577 95.2702 97.7728 95.6882 97.92 96.1733C97.943 96.5172 97.8733 96.8622 97.7179 97.1741C97.506 97.7102 97.1662 98.1905 96.727 98.5747C96.2878 98.9589 95.7621 99.2357 95.1942 99.3818ZM116.024 80.7877C113.746 82.069 111.14 82.6641 108.537 82.4971C107.243 82.4015 105.996 82.0009 104.903 81.3297C103.81 80.6584 102.903 79.7363 102.26 78.6421C101.587 76.9885 101.121 75.2585 100.874 73.4896C100.401 71.5422 99.5279 69.4669 100.26 67.5462C100.364 67.2025 100.58 66.9 100.875 66.6851C101.12 66.5287 101.436 66.4906 101.693 66.346C102.451 65.9596 102.689 64.9943 103.302 64.4068C104.295 63.4358 105.924 63.7092 107.261 64.0561C109.776 64.6916 114.241 64.9557 116.213 66.642C117.948 68.4017 119.421 70.3925 120.588 72.5573C120.924 73.3523 121.049 74.2197 120.954 75.0805C120.858 75.9414 120.544 76.7684 120.041 77.4863C118.996 78.9196 117.591 80.0661 115.963 80.8119L116.024 80.7877ZM132.463 139.669C132.146 139.91 131.78 140.082 131.391 140.174C131.001 140.265 130.598 140.273 130.207 140.197C127.829 139.701 125.72 138.393 124.258 136.506C121.308 133.246 119.141 129.379 117.914 125.181C117.7 124.73 117.614 124.231 117.662 123.734C117.711 123.236 117.893 122.758 118.19 122.348C118.721 121.948 119.381 121.752 120.044 121.798C124.913 121.857 128.94 125.444 130.613 129.654C131.175 131.042 131.725 132.418 132.275 133.793C132.99 135.162 133.291 136.707 133.143 138.248C133.067 138.795 132.806 139.303 132.402 139.693L132.463 139.669ZM158.606 108.544C156.99 109.02 155.274 109.033 153.664 108.581C149.265 107.579 134.551 100.658 139.626 94.1015C140.042 93.6088 140.576 93.2244 141.18 92.9836C143.622 91.9661 146.44 92.8134 148.805 93.914C152.928 95.8409 156.626 98.5222 159.703 101.815C160.583 102.615 161.173 103.674 161.385 104.836C161.376 105.664 161.095 106.471 160.584 107.139C160.073 107.806 159.358 108.299 158.546 108.545L158.606 108.544Z" fill="white"></path> </mask> <g mask="url(#mask0_2868_2282)"> <path d="M153.069 -16.666L171.444 30.3908" stroke="#8E9C6D" stroke-miterlimit="10"></path> <path d="M101.583 -12.4653L149.123 60.1799" stroke="#8E9C6D" stroke-miterlimit="10"></path> <path d="M44.7932 13.0693L131.815 81.9156" stroke="#8E9C6D" stroke-miterlimit="10"></path> <path d="M1.36145 68.4468C6.38555 72.3989 109.762 110.605 109.762 110.605" stroke="#8E9C6D" stroke-miterlimit="10"></path> <path d="M-11.7474 132.421L82.9075 137.86" stroke="#8E9C6D" stroke-miterlimit="10"></path> <path d="M78.4897 158.81L108.39 224.843" stroke="#8E9C6D" stroke-miterlimit="10"></path> <path d="M98.0095 125.112L175.237 212.077" stroke="#8E9C6D" stroke-miterlimit="10"></path> <path d="M123.378 95.9238L240.822 160.391" stroke="#8E9C6D" stroke-miterlimit="10"></path> <path d="M140.232 69.895L222.558 78.6823" stroke="#8E9C6D" stroke-miterlimit="10"></path> <path d="M175.342 25.6035L218.679 26.3015" stroke="#8E9C6D" stroke-miterlimit="10"></path> </g> </svg> 