<?xml version="1.0" encoding="UTF-8"?> <svg xmlns="http://www.w3.org/2000/svg" width="27" height="44" viewBox="0 0 27 44" fill="none"> <path fill-rule="evenodd" clip-rule="evenodd" d="M0.692307 0.899662C3.40287 0.403137 7.6631 0.344411 11.6761 1.78505C15.7095 3.23296 19.5028 6.20293 21.18 11.7415L21.1807 11.7437C21.6041 13.1651 21.6347 14.4675 21.3627 15.5435C22.3 16.1939 23.2564 17.0544 24.1083 18.0736C26.1439 20.5094 27.6422 23.9316 26.7252 27.6247C25.8533 31.136 24.8765 33.7648 22.8247 36.1377C20.9623 38.2917 18.2443 40.2002 14.0094 42.3998C13.9582 42.4831 13.9059 42.5649 13.8525 42.6447C14.3804 42.5545 14.9466 42.4762 15.5043 42.4279C16.1268 42.3739 16.7526 42.356 17.3098 42.4051C17.854 42.453 18.393 42.5693 18.7956 42.8289C19.0276 42.9786 19.0944 43.288 18.9448 43.5201C18.7951 43.7522 18.4856 43.819 18.2536 43.6693C18.0567 43.5423 17.7134 43.4445 17.2221 43.4012C16.7438 43.3591 16.1808 43.373 15.5907 43.4242C14.411 43.5264 13.1778 43.7725 12.407 43.9677C12.1526 44.0321 11.8916 43.8888 11.8094 43.6395C11.7273 43.3902 11.8518 43.1198 12.0947 43.0203C12.1265 43.0073 12.1595 42.9911 12.1937 42.9716C12.1459 42.9299 12.1054 42.8784 12.0753 42.8182C11.9521 42.5711 12.0525 42.2708 12.2996 42.1476C12.641 41.9774 12.9727 41.8093 13.2951 41.6433C13.3572 41.5344 13.4182 41.4218 13.478 41.3065C13.9269 40.4409 14.2801 39.472 14.4659 38.8489C14.5448 38.5843 14.8232 38.4338 15.0879 38.5127C15.3525 38.5916 15.5031 38.8701 15.4242 39.1347C15.2893 39.5871 15.0739 40.2052 14.7987 40.8469C18.2655 38.9534 20.5067 37.2897 22.0683 35.4837C23.9665 33.2883 24.8961 30.8415 25.7547 27.3837C26.5681 24.1078 25.2552 21.0055 23.3409 18.7149C22.6095 17.8397 21.7991 17.0947 21.0053 16.5163C20.8684 16.7899 20.7073 17.0403 20.5244 17.2646C20.0249 17.8769 19.3639 18.2883 18.6127 18.4198C17.8606 18.5514 17.0568 18.3958 16.2827 17.9423C16.2656 17.9323 16.2491 17.9213 16.2333 17.9093C15.5518 17.3923 15.1946 16.5258 15.4284 15.7141C15.6724 14.8668 16.4918 14.28 17.7533 14.1802C18.5275 14.119 19.4897 14.4365 20.4613 14.9788C20.6066 14.1616 20.5604 13.1647 20.2226 12.0303C18.6533 6.84921 15.1309 4.08775 11.3383 2.72624C7.52513 1.35736 3.44898 1.41133 0.872489 1.88329C0.600867 1.93305 0.340338 1.75319 0.290581 1.48157C0.240829 1.20995 0.420685 0.949418 0.692307 0.899662ZM19.7495 16.6325C19.9058 16.4409 20.0454 16.2159 20.1621 15.96C19.1843 15.3829 18.3562 15.1357 17.8322 15.1771C16.8338 15.2561 16.4808 15.673 16.3893 15.9908C16.2894 16.3377 16.4264 16.7874 16.8151 17.0951C17.4012 17.4314 17.9572 17.5193 18.4403 17.4347C18.9316 17.3488 19.3863 17.0777 19.7495 16.6325Z" fill="#517D45"></path> </svg> 