<?xml version="1.0" encoding="UTF-8"?> <svg xmlns="http://www.w3.org/2000/svg" width="181" height="153" viewBox="0 0 181 153" fill="none"> <path d="M180.063 42.2626C177.005 49.6915 171.707 64.8142 161.895 73.7241C152.082 82.6339 141.029 84.0427 130.493 84.8855C120.933 85.644 115.503 88.2929 105.522 96.685C99.7904 106.028 126.279 150.626 126.279 150.626L113.035 152.251C113.035 152.251 106.352 117.033 97.3823 100.478C83.1506 100.983 77.1665 102.585 69.3042 108.749C60.9723 115.263 51.9059 121.717 38.6374 121.777C25.369 121.837 11.2456 114.3 3.97321 110.941C-3.29916 107.582 3.05814 107.329 12.4737 103.717C21.8893 100.104 24.7669 95.4208 38.529 91.3512C52.2912 87.2815 61.189 96.083 72.0735 96.7814C78.8546 97.1503 85.6531 97.0577 92.4217 96.5044C82.4161 89.521 76.8414 87.4381 67.5583 87.4501C56.9749 87.4501 45.8857 87.0046 35.3504 78.9134C24.8151 70.8223 18.3253 56.1813 14.6771 49.0293C11.0289 41.8774 16.1942 45.5978 25.8024 48.5597C35.4106 51.5217 40.6 49.5711 53.9768 54.8207C67.3537 60.0703 68.931 72.4719 77.0943 79.7081C82.8634 84.7386 89.0189 89.308 95.504 93.3739C91.6631 80.9844 88.5327 75.795 80.9352 69.9916C72.507 63.5741 63.9703 56.4341 60.5508 43.6232C57.1314 30.8122 60.8519 15.232 62.3087 7.33357C63.7656 -0.564902 65.5958 5.52751 71.4233 13.727C77.2508 21.9265 82.5606 23.5158 89.9775 35.8211C97.3943 48.1263 91.1815 58.9385 93.2163 69.6424C94.8511 77.7615 97.1918 85.7223 100.212 93.4341C102.596 85.3792 104.252 77.1265 105.16 68.7755C106.28 57.9392 99.068 47.7049 105.365 34.7976C111.662 21.8904 116.803 19.8194 121.86 11.1263C126.917 2.43314 128.206 -3.79172 130.361 3.90206C132.516 11.5958 137.585 26.7787 135.37 39.8786C133.154 52.9785 125.232 60.8288 117.43 67.9688C110.579 74.2418 107.882 79.5396 105.245 91.4595C110.604 87.286 115.672 82.7523 120.416 77.89C127.965 70.0157 128.567 57.5298 141.438 51.1966C154.309 44.8633 159.679 46.3804 169.01 42.672C178.342 38.9636 183.11 34.906 180.063 42.2626Z" fill="#5E7439"></path> <path d="M167.049 50.7153C162.799 57.1388 157.224 62.5784 150.698 66.6688C139.561 73.7846 113.228 84.7293 100.55 98.5757C102.685 87.4837 105.717 76.5835 109.616 65.9825C114.956 51.617 119.462 36.9556 123.114 22.0713" stroke="#404024" stroke-miterlimit="10"></path> <path d="M42.1421 62.5992C58.8661 76.1807 76.1441 81.635 83.4766 88.5341C88.4565 92.9654 94.257 96.377 100.55 98.5758C100.55 98.5758 97.6601 93.2058 93.434 80.3226C89.2078 67.4394 78.0223 52.3287 71.0269 27.2246" stroke="#404024" stroke-miterlimit="10"></path> <path d="M100.549 98.5752C91.7352 98.5752 75.565 99.9719 63.6089 103.391C51.6528 106.811 26.5607 106.702 26.5607 106.702" stroke="#404024" stroke-miterlimit="10"></path> </svg> 