<?xml version="1.0" encoding="UTF-8"?> <svg xmlns="http://www.w3.org/2000/svg" width="191" height="81" viewBox="0 0 191 81" fill="none"> <path d="M73.9999 69V76.4649C73.9999 76.4876 73.9923 76.5094 73.9783 76.5273C73.3221 77.3691 72.8344 79 75.9999 79" stroke="#FFDC20" stroke-linecap="round"></path> <path d="M73.9999 59V66.4649C73.9999 66.4876 73.9923 66.5094 73.9783 66.5273C73.3221 67.3691 72.8344 69 75.9999 69" stroke="#FFDC20" stroke-linecap="round"></path> <path d="M73.9999 49V56.4649C73.9999 56.4876 73.9923 56.5094 73.9783 56.5273C73.3221 57.3691 72.8344 59 75.9999 59" stroke="#FFDC20" stroke-linecap="round"></path> <path d="M78.0001 69V76.4649C78.0001 76.4876 78.0077 76.5094 78.0217 76.5273C78.6779 77.3691 79.1656 79 76.0001 79" stroke="#FFDC20" stroke-linecap="round"></path> <path d="M78.0001 59V66.4649C78.0001 66.4876 78.0077 66.5094 78.0217 66.5273C78.6779 67.3691 79.1656 69 76.0001 69" stroke="#FFDC20" stroke-linecap="round"></path> <path d="M78.0001 49V56.4649C78.0001 56.4876 78.0077 56.5094 78.0217 56.5273C78.6779 57.3691 79.1656 59 76.0001 59" stroke="#FFDC20" stroke-linecap="round"></path> <path d="M77.9703 49.0293C76.7795 50.1772 74.8644 49.5092 74.0246 49.0145C74.0082 49.0049 73.9957 48.9911 73.9874 48.974C73.8221 48.6333 73.6103 48 74.0002 48C74.3849 48 76.6507 47.0749 77.8613 46.5593C77.9273 46.5312 78.0002 46.5799 78.0002 46.6517V48.9586C78.0002 48.9851 77.9894 49.0109 77.9703 49.0293Z" stroke="#FFDC20" stroke-linecap="round"></path> <path d="M78.5 65L79.5 63.5M79.5 63.5C79.6647 60.8644 81.8482 55.5263 89.2365 55.016C89.3279 55.0097 89.3817 55.1187 89.3173 55.1839C87.9294 56.5893 85.3825 59.3524 85 60.5C84.5 62 82.5 64.5 79.5 63.5Z" stroke="#FFDC20" stroke-linecap="round"></path> <path d="M74 56L73.1818 54.8M73.1818 54.8C73.0474 52.6975 71.2707 48.4453 65.267 48.0164C65.1751 48.0098 65.1224 48.1202 65.1878 48.1851C66.3313 49.3205 68.3723 51.4922 68.6818 52.4C69.0909 53.6 70.7273 55.6 73.1818 54.8Z" stroke="#FFDC20" stroke-linecap="round"></path> <path fill-rule="evenodd" clip-rule="evenodd" d="M37.2054 47C36.8988 47 36.6222 47.0927 36.3974 47.2819C36.1818 47.4634 36.0488 47.704 35.9634 47.9442C35.7976 48.4105 35.7669 49.008 35.7669 49.5781C35.7669 49.869 35.7754 50.1712 35.7837 50.466L35.7837 50.4661L35.7839 50.473C35.7923 50.7728 35.8004 51.0653 35.8004 51.3461C35.8004 51.7607 35.7819 52.1177 35.7318 52.4041C35.5385 52.3638 35.3316 52.4206 35.1851 52.5672L33.7806 53.9716H32.4407C32.2134 53.9716 32.0057 54.1 31.904 54.3033L30.9973 56.1168H29.7975C29.4661 56.1168 29.1975 56.3854 29.1975 56.7168V57.958L27.8749 58.8398C27.6497 58.9899 27.5529 59.2721 27.6385 59.5287L28.0529 60.772L26.7062 62.1186C26.5455 62.2793 26.4894 62.517 26.5613 62.7326L27.0007 64.0508L26.1008 65.4007C25.9664 65.6023 25.9664 65.8648 26.1008 66.0664L27.0007 67.4163L26.5613 68.7345C26.4894 68.9501 26.5455 69.1878 26.7062 69.3485L28.0529 70.6951L27.6385 71.9383C27.5529 72.195 27.6497 72.4772 27.8749 72.6273L29.1975 73.509V75.2866C29.1975 75.6179 29.4661 75.8866 29.7975 75.8866H30.9973L31.8958 77.6836C32.0216 77.9351 32.3052 78.0655 32.578 77.9973L34.3034 77.5659L35.1332 78.8106C35.2968 79.056 35.6144 79.1461 35.8825 79.0232L37.2054 78.4169L38.5284 79.0232C38.7964 79.1461 39.114 79.056 39.2776 78.8106L40.1074 77.5659L41.8329 77.9973C42.1057 78.0655 42.3893 77.9351 42.515 77.6836L43.4135 75.8866H44.6133C44.9447 75.8866 45.2133 75.6179 45.2133 75.2866V73.509L46.536 72.6273C46.7611 72.4772 46.8579 72.195 46.7724 71.9383L46.358 70.6951L47.7046 69.3485C47.8653 69.1878 47.9214 68.9501 47.8495 68.7345L47.4101 67.4163L48.3101 66.0664C48.4444 65.8648 48.4444 65.6023 48.3101 65.4007L47.4101 64.0508L47.8495 62.7326C47.9214 62.517 47.8653 62.2793 47.7046 62.1186L46.358 60.772L46.7724 59.5287C46.8579 59.2721 46.7611 58.9899 46.536 58.8398L45.2133 57.958V56.7168C45.2133 56.3854 44.9447 56.1168 44.6133 56.1168H43.4135L42.5068 54.3033C42.4052 54.1 42.1974 53.9716 41.9701 53.9716H40.6302L39.3129 52.6543C39.3014 51.7476 39.2142 50.4843 38.9812 49.4055C38.8564 48.8276 38.6821 48.2652 38.432 47.8352C38.1882 47.416 37.7951 47 37.2054 47ZM38.312 52.5968C38.2974 51.7384 38.2125 50.5829 38.0038 49.6166C37.8873 49.0772 37.7398 48.6341 37.5676 48.3379C37.389 48.0309 37.2593 48 37.2054 48C37.1098 48 37.068 48.0246 37.0414 48.047C37.0056 48.0771 36.9543 48.1423 36.9056 48.2792C36.8033 48.567 36.7669 49.0085 36.7669 49.5781C36.7669 49.8547 36.7751 50.145 36.7835 50.4449L36.7835 50.4454V50.4455C36.7918 50.7425 36.8004 51.049 36.8004 51.3461C36.8004 51.8993 36.7721 52.4771 36.6295 52.9505L37.2054 53.3344L38.312 52.5968ZM35.6603 53.5062L36.9184 54.345C36.9433 54.3624 36.9695 54.3774 36.9968 54.3898C37.0636 54.4206 37.1348 54.4355 37.2054 54.4354C37.3072 54.4353 37.4078 54.4042 37.4924 54.345L38.7506 53.5062L40.0403 54.7959C40.1528 54.9084 40.3054 54.9716 40.4645 54.9716H41.7229L42.6296 56.7851C42.7313 56.9884 42.939 57.1168 43.1663 57.1168H44.2133V58.1721C44.2133 58.3727 44.3136 58.56 44.4805 58.6713L45.7271 59.5024L45.3311 60.6903C45.2592 60.9059 45.3154 61.1436 45.4761 61.3043L46.8227 62.6509L46.3996 63.9202C46.341 64.0958 46.3669 64.2887 46.4696 64.4427L47.3301 65.7335L46.4696 67.0243C46.3669 67.1784 46.341 67.3712 46.3996 67.5469L46.8227 68.8162L45.4761 70.1628C45.3154 70.3235 45.2592 70.5612 45.3311 70.7768L45.7271 71.9647L44.4805 72.7957C44.3136 72.907 44.2133 73.0944 44.2133 73.295V74.8866H43.1663C42.939 74.8866 42.7313 75.015 42.6296 75.2183L41.7641 76.9493L40.0765 76.5274C39.8305 76.4659 39.5724 76.5657 39.4317 76.7767L38.6348 77.972L37.4165 77.4136L37.4046 77.4083C37.3398 77.3801 37.2721 77.3667 37.2054 77.3668C37.1388 77.3667 37.0711 77.3801 37.0062 77.4083L36.9943 77.4136L35.776 77.972L34.9791 76.7767C34.8385 76.5657 34.5804 76.4659 34.3344 76.5274L32.6467 76.9493L31.7812 75.2183C31.6796 75.015 31.4718 74.8866 31.2445 74.8866H30.1975V73.295C30.1975 73.0944 30.0972 72.907 29.9303 72.7957L28.6838 71.9647L29.0797 70.7768C29.1516 70.5612 29.0955 70.3235 28.9348 70.1628L27.5882 68.8162L28.0113 67.5469C28.0698 67.3712 28.044 67.1784 27.9413 67.0243L27.0807 65.7335L27.9413 64.4427C28.044 64.2887 28.0698 64.0958 28.0113 63.9202L27.5882 62.6509L28.9348 61.3043C29.0955 61.1436 29.1516 60.9059 29.0797 60.6903L28.6838 59.5024L29.9303 58.6713C30.0972 58.56 30.1975 58.3727 30.1975 58.1721V57.1168H31.2445C31.4718 57.1168 31.6796 56.9884 31.7812 56.7851L32.6879 54.9716H33.9463C34.1054 54.9716 34.2581 54.9084 34.3706 54.7959L35.6603 53.5062ZM35.9966 57.3893C35.8309 57.1684 35.5175 57.1236 35.2966 57.2893C35.0757 57.455 35.0309 57.7684 35.1966 57.9893C35.5057 58.4015 36.0815 58.9298 36.8178 59.0896C37.1982 59.1722 37.6163 59.1542 38.0398 58.9739C38.4591 58.7954 38.853 58.471 39.2143 57.9893C39.3799 57.7684 39.3352 57.455 39.1143 57.2893C38.8933 57.1236 38.5799 57.1684 38.4143 57.3893C38.1319 57.7657 37.869 57.9597 37.648 58.0538C37.4314 58.1461 37.226 58.1549 37.0299 58.1124C36.6133 58.0219 36.2238 57.6922 35.9966 57.3893ZM35.9966 72.4052C35.8309 72.1843 35.5175 72.1395 35.2966 72.3052C35.0757 72.4709 35.0309 72.7843 35.1966 73.0052C35.5057 73.4173 36.0815 73.9456 36.8178 74.1055C37.1982 74.188 37.6163 74.1701 38.0398 73.9897C38.4591 73.8112 38.853 73.4868 39.2143 73.0052C39.3799 72.7843 39.3352 72.4709 39.1143 72.3052C38.8933 72.1395 38.5799 72.1843 38.4143 72.4052C38.1319 72.7816 37.869 72.9756 37.648 73.0697C37.4314 73.1619 37.226 73.1708 37.0299 73.1282C36.6133 73.0378 36.2238 72.7081 35.9966 72.4052ZM35.2966 64.7973C35.5175 64.6316 35.8309 64.6763 35.9966 64.8973C36.2238 65.2002 36.6133 65.5299 37.0299 65.6203C37.226 65.6629 37.4314 65.654 37.648 65.5618C37.869 65.4677 38.1319 65.2737 38.4143 64.8973C38.5799 64.6763 38.8933 64.6316 39.1143 64.7973C39.3352 64.9629 39.3799 65.2763 39.2143 65.4972C38.853 65.9789 38.4591 66.3033 38.0398 66.4818C37.6163 66.6622 37.1982 66.6801 36.8178 66.5975C36.0815 66.4377 35.5057 65.9094 35.1966 65.4972C35.0309 65.2763 35.0757 64.9629 35.2966 64.7973ZM41.8957 64.8973C41.73 64.6763 41.4166 64.6316 41.1957 64.7973C40.9747 64.9629 40.93 65.2763 41.0957 65.4972C41.4048 65.9094 41.9805 66.4377 42.7169 66.5975C43.0973 66.6801 43.5154 66.6622 43.9389 66.4818C44.3582 66.3033 44.7521 65.9789 45.1133 65.4972C45.279 65.2763 45.2343 64.9629 45.0133 64.7973C44.7924 64.6316 44.479 64.6763 44.3133 64.8973C44.031 65.2737 43.7681 65.4677 43.5471 65.5618C43.3305 65.654 43.1251 65.6629 42.929 65.6203C42.5124 65.5299 42.1228 65.2002 41.8957 64.8973ZM29.3975 64.7973C29.6184 64.6316 29.9318 64.6763 30.0975 64.8973C30.3247 65.2002 30.7142 65.5299 31.1308 65.6203C31.327 65.6629 31.5323 65.654 31.749 65.5618C31.9699 65.4677 32.2329 65.2737 32.5152 64.8973C32.6809 64.6763 32.9943 64.6316 33.2152 64.7973C33.4361 64.9629 33.4809 65.2763 33.3152 65.4972C32.954 65.9789 32.56 66.3033 32.1407 66.4818C31.7172 66.6622 31.2991 66.6801 30.9187 66.5975C30.1824 66.4377 29.6066 65.9094 29.2975 65.4972C29.1318 65.2763 29.1766 64.9629 29.3975 64.7973ZM39.7505 60.607C39.5849 60.3861 39.2715 60.3413 39.0505 60.507C38.8296 60.6727 38.7849 60.9861 38.9505 61.207C39.2596 61.6191 39.8354 62.1475 40.5718 62.3073C40.9522 62.3899 41.3703 62.3719 41.7938 62.1916C42.213 62.013 42.607 61.6886 42.9682 61.207C43.1339 60.9861 43.0891 60.6727 42.8682 60.507C42.6473 60.3413 42.3339 60.3861 42.1682 60.607C41.8859 60.9834 41.6229 61.1774 41.402 61.2715C41.1853 61.3638 40.98 61.3726 40.7839 61.3301C40.3672 61.2396 39.9777 60.9099 39.7505 60.607ZM39.0505 69.0875C39.2715 68.9218 39.5849 68.9666 39.7505 69.1875C39.9777 69.4904 40.3672 69.8201 40.7839 69.9105C40.98 69.9531 41.1853 69.9443 41.402 69.852C41.6229 69.7579 41.8859 69.5639 42.1682 69.1875C42.3339 68.9666 42.6473 68.9218 42.8682 69.0875C43.0891 69.2532 43.1339 69.5666 42.9682 69.7875C42.607 70.2691 42.213 70.5935 41.7938 70.7721C41.3703 70.9524 40.9522 70.9704 40.5718 70.8878C39.8354 70.728 39.2596 70.1996 38.9505 69.7875C38.7849 69.5666 38.8296 69.2532 39.0505 69.0875ZM32.2426 60.607C32.0769 60.3861 31.7635 60.3413 31.5426 60.507C31.3217 60.6727 31.2769 60.9861 31.4426 61.207C31.7517 61.6191 32.3275 62.1475 33.0639 62.3073C33.4442 62.3899 33.8623 62.3719 34.2859 62.1916C34.7051 62.013 35.0991 61.6886 35.4603 61.207C35.626 60.9861 35.5812 60.6727 35.3603 60.507C35.1394 60.3413 34.826 60.3861 34.6603 60.607C34.378 60.9834 34.115 61.1774 33.8941 61.2715C33.6774 61.3638 33.4721 61.3726 33.276 61.3301C32.8593 61.2396 32.4698 60.9099 32.2426 60.607ZM31.5426 69.0875C31.7635 68.9218 32.0769 68.9666 32.2426 69.1875C32.4698 69.4904 32.8593 69.8201 33.276 69.9105C33.4721 69.9531 33.6774 69.9443 33.8941 69.852C34.115 69.7579 34.378 69.5639 34.6603 69.1875C34.826 68.9666 35.1394 68.9218 35.3603 69.0875C35.5812 69.2532 35.626 69.5666 35.4603 69.7875C35.0991 70.2691 34.7051 70.5935 34.2859 70.7721C33.8623 70.9524 33.4442 70.9704 33.0639 70.8878C32.3275 70.728 31.7517 70.1996 31.4426 69.7875C31.2769 69.5666 31.3217 69.2532 31.5426 69.0875Z" fill="#FFDC20"></path> <path d="M10.5 8.5C15.8333 10.6667 23.8 19.5 13 37.5" stroke="#FFDC20" stroke-linecap="round"></path> <path d="M17 29.5C19 27 24.6 22.8 31 26M17 29.5C24.2 34.3 29.3333 29.1666 31 26M17 29.5L31 26" stroke="#FFDC20" stroke-linecap="round"></path> <path d="M18 22.6554C16 20.1554 10.4 15.9554 4 19.1554M18 22.6554C10.8 27.4554 5.66667 22.322 4 19.1554M18 22.6554L4 19.1554" stroke="#FFDC20" stroke-linecap="round"></path> <path d="M16.4586 12.9964C17.7712 10.8597 21.7224 7.04824 27.0261 8.89597M16.4586 12.9964C22.5436 16.0057 26.039 11.5166 27.0261 8.89597M16.4586 12.9964L27.0261 8.89597" stroke="#FFDC20" stroke-linecap="round"></path> <path fill-rule="evenodd" clip-rule="evenodd" d="M8.68578 25.522C8.32901 25.4376 8.07039 25.6904 7.9995 25.9217C7.87374 26.3319 7.72378 27.0748 7.79847 27.7988C7.31112 27.7528 6.67735 27.7789 6.01423 27.9717C5.56854 28.1012 5.46295 28.6297 5.71889 28.9404L5.72741 28.9507C5.8449 29.0934 6.05299 29.3461 6.32961 29.5624C6.54008 29.7269 6.81125 29.8873 7.13578 29.9598C7.04669 30.2915 6.99918 30.6402 6.99918 31C6.99918 33.2091 8.79004 35 10.9992 35C13.2083 35 14.9992 33.2091 14.9992 31C14.9992 28.7909 13.2083 27 10.9992 27C10.6249 27 10.2626 27.0514 9.91894 27.1476C9.82817 26.8585 9.70063 26.5588 9.55024 26.3009C9.45469 26.137 9.34169 25.9757 9.21182 25.8423C9.08758 25.7148 8.91169 25.5754 8.68578 25.522ZM8.99227 27.5391C8.94379 27.3668 8.87639 27.1853 8.79815 27.0187C8.77699 27.2295 8.77067 27.4514 8.79011 27.6648C8.85615 27.621 8.92356 27.5791 8.99227 27.5391ZM7.66408 28.7908C7.46475 28.7745 7.23103 28.7735 6.97804 28.7993C7.15204 28.9284 7.32485 29 7.49918 29C7.51076 29 7.52225 29.0004 7.53363 29.0012C7.57499 28.9296 7.6185 28.8595 7.66408 28.7908ZM13.9992 31C13.9992 32.6569 12.656 34 10.9992 34C9.34233 34 7.99918 32.6569 7.99918 31C7.99918 29.3431 9.34233 28 10.9992 28C12.656 28 13.9992 29.3431 13.9992 31Z" fill="#FFDC20"></path> <path fill-rule="evenodd" clip-rule="evenodd" d="M28.5144 21.0705C28.5458 20.7702 28.3498 20.5242 28.1009 20.447C27.6911 20.3199 26.9487 20.1675 26.2245 20.2399C26.2721 19.7527 26.2481 19.1188 26.0574 18.4551C25.9293 18.0089 25.4011 17.9016 25.0896 18.1566L25.0793 18.1651C24.9362 18.2821 24.6829 18.4893 24.4657 18.7653C24.2998 18.9761 24.1379 19.2481 24.0648 19.5741C23.8327 19.5333 23.5941 19.5117 23.3505 19.5109C21.0451 19.5034 19.1701 21.3662 19.1626 23.6716C19.1583 24.989 19.7653 26.1661 20.7148 26.9334L21.3433 26.1556C20.6195 25.5707 20.1593 24.6763 20.1626 23.6749C20.1683 21.9218 21.5941 20.5052 23.3472 20.5109C25.1004 20.5166 26.517 21.9424 26.5113 23.6955C26.51 24.0767 26.4419 24.4409 26.3184 24.7778L27.2573 25.1219C27.4202 24.6774 27.5096 24.1979 27.5113 23.6988C27.5127 23.2554 27.445 22.8279 27.3182 22.4266C28.001 22.1887 28.4539 21.6484 28.5144 21.0705ZM26.9001 21.5095C27.0923 21.4589 27.2311 21.3766 27.3281 21.2884C27.1362 21.254 26.923 21.2285 26.7077 21.2224C26.7757 21.3153 26.8399 21.411 26.9001 21.5095ZM25.2416 19.9697C25.2494 19.802 25.2462 19.6151 25.2266 19.4162C25.1141 19.5668 25.0449 19.7167 25.0282 19.8677C25.1004 19.8997 25.1716 19.9338 25.2416 19.9697Z" fill="#FFDC20"></path> <path fill-rule="evenodd" clip-rule="evenodd" d="M6.23269 14.7367C6.17965 14.4394 6.35731 14.1799 6.59997 14.0849C6.9995 13.9285 7.729 13.7228 8.45653 13.7427C8.3738 13.2602 8.35197 12.6262 8.49413 11.9504C8.58967 11.4962 9.1087 11.351 9.43779 11.5828L9.44875 11.5905C9.59989 11.6969 9.86757 11.8853 10.1041 12.1448C10.2848 12.343 10.4659 12.6026 10.5624 12.9225C10.7909 12.8651 11.0274 12.8262 11.2703 12.8078C13.5691 12.6337 15.5739 14.3561 15.748 16.655C15.8475 17.9686 15.3272 19.1864 14.4357 20.0204L13.7525 19.2901C14.4321 18.6544 14.8265 17.729 14.7509 16.7305C14.6185 14.9824 13.094 13.6726 11.3458 13.805C9.59768 13.9374 8.28788 15.4619 8.42029 17.21C8.4374 17.4359 8.41865 17.5927 8.41117 17.6552L8.40897 17.6743C8.41312 17.6889 8.42488 17.724 8.45667 17.7945L7.54509 18.2056C7.44303 17.9793 7.39724 17.8142 7.41074 17.6128C7.41359 17.5702 7.41709 17.5391 7.42019 17.5116C7.4272 17.4492 7.43219 17.4049 7.42315 17.2856C7.38966 16.8434 7.42632 16.4122 7.52375 16.0027C6.82556 15.8148 6.33476 15.3087 6.23269 14.7367ZM7.87445 15.0578C7.6791 15.0213 7.53469 14.9492 7.43161 14.8682C7.6205 14.8201 7.83125 14.7792 8.04557 14.7576C7.98451 14.8551 7.92741 14.9552 7.87445 15.0578ZM9.41729 13.4022C9.3974 13.2355 9.38704 13.0488 9.39223 12.849C9.51533 12.9911 9.59522 13.1356 9.62278 13.285C9.55304 13.3222 9.48452 13.3613 9.41729 13.4022Z" fill="#FFDC20"></path> <path fill-rule="evenodd" clip-rule="evenodd" d="M55.238 13.5022C55.3371 12.5274 55.3756 11.4886 55.299 10.4657C52.3147 14.6468 47.3517 14.6223 44.9963 14.0164C44.5982 13.9141 44.4383 13.4671 44.6314 13.137C45.7342 11.2525 47.7814 10.0237 49.8235 9.24464C51.877 8.46122 54.0066 8.10146 55.3846 8.00647C55.6878 7.98557 55.9405 8.19125 56.006 8.46407C56.0408 8.60927 56.0725 8.75639 56.1013 8.90509C56.3985 10.443 56.3849 12.0776 56.2372 13.5604C62.56 14.1816 67.5 19.5139 67.5 26C67.5 26.4633 67.4309 27.1163 67.3657 27.6339C67.3493 27.7642 67.3329 27.8878 67.3175 28H70H71H72H73C73 28.3377 72.9824 28.6713 72.948 29C72.4483 33.7766 68.409 37.5 63.5 37.5C62.5464 37.5 61.6256 37.3594 60.7572 37.098C59.0336 37.9939 57.0752 38.5 55 38.5C48.0964 38.5 42.5 32.9035 42.5 26C42.5 19.0964 48.0964 13.5 55 13.5C55.0795 13.5 55.1589 13.5007 55.238 13.5022ZM69.9091 29H66.8008C66.6512 29.3629 66.4223 29.6938 66.1321 29.9774L68.0525 32.2819C69.0133 31.4084 69.6772 30.2645 69.9091 29ZM64 30.9696C64.4775 30.911 64.9239 30.7699 65.3188 30.5636L67.2616 32.895C66.3333 33.5056 65.2193 33.8979 64 33.9827V30.9696ZM63.5 35C65.2751 35 66.9061 34.4244 68.1906 33.4624C68.2363 33.4435 68.28 33.4174 68.3201 33.3841C68.351 33.3583 68.378 33.3296 68.401 33.2988C69.7375 32.221 70.6619 30.7102 70.924 29H71.9418C71.4469 33.2231 67.8561 36.5 63.5 36.5C59.1439 36.5 55.5531 33.2231 55.0582 29H56.076C56.3381 30.7102 57.2625 32.221 58.599 33.2988C58.622 33.3296 58.649 33.3583 58.6799 33.3841C58.72 33.4174 58.7637 33.4435 58.8094 33.4624C60.0939 34.4244 61.7249 35 63.5 35ZM59.7384 32.895C60.6667 33.5056 61.7807 33.8979 63 33.9827V30.9696C62.5225 30.911 62.0761 30.7699 61.6812 30.5636L59.7384 32.895ZM60.8679 29.9774C60.5777 29.6938 60.3488 29.3629 60.1992 29H57.0909C57.3228 30.2645 57.9867 31.4084 58.9475 32.2819L60.8679 29.9774ZM63.5 30C64.4903 30 65.2456 29.567 65.6554 29H61.3446C61.7544 29.567 62.5097 30 63.5 30ZM66.3735 27.509C66.3507 27.6904 66.3278 27.8586 66.3079 28H66H61H60H57H56H55H54C54 28.3377 54.0176 28.6713 54.052 29C54.4048 32.372 56.5215 35.2192 59.463 36.602C58.0911 37.1802 56.5834 37.5 55 37.5C48.6487 37.5 43.5 32.3512 43.5 26C43.5 19.6487 48.6487 14.5 55 14.5C55.038 14.5 55.0759 14.5001 55.1138 14.5005C54.9447 15.6537 54.7102 16.6621 54.5176 17.3684C54.514 17.3817 54.5109 17.395 54.5084 17.4083C53.9504 17.3413 53.4876 17.1847 53.2236 17.0527C52.9766 16.9292 52.6763 17.0294 52.5528 17.2763C52.4293 17.5233 52.5294 17.8237 52.7764 17.9472C53.5253 18.3216 55.4332 18.8424 57.2236 17.9472C57.4706 17.8237 57.5707 17.5233 57.4472 17.2763C57.3237 17.0294 57.0234 16.9292 56.7764 17.0527C56.3678 17.257 55.9468 17.3674 55.5405 17.4141C55.7312 16.6861 55.9546 15.6884 56.1166 14.5535C61.9439 15.115 66.5 20.0254 66.5 26C66.5 26.3939 66.4388 26.9909 66.3735 27.509ZM50.1799 10.179C51.9215 9.51454 53.7298 9.17022 55.0196 9.04101C52.6545 13.246 48.2822 13.6103 45.806 13.169C46.7952 11.8226 48.4211 10.85 50.1799 10.179Z" fill="#FFDC20"></path> <path d="M90.9998 14.5C90.6665 14.5 89.7998 14.8 88.9998 16C88.2148 17.1775 86.0818 18.9329 86.0023 18.9981C85.9998 19.0002 85.9989 19.0007 85.9962 19.0026C84.4931 20.0085 81.0024 25.0047 83.4998 30.5C86.026 36.0586 89.4997 36 90.9998 36" stroke="#FFDC20" stroke-linecap="round"></path> <path d="M104.375 17C104.042 17 103.175 17.3 102.375 18.5C101.59 19.6775 99.4568 21.4329 99.3773 21.4981C99.3748 21.5002 99.3739 21.5007 99.3712 21.5026C97.8681 22.5085 94.3774 27.5047 96.8748 33C99.401 38.5586 102.875 38.5 104.375 38.5" stroke="#FFDC20" stroke-linecap="round"></path> <path d="M91 14.5C91.3333 14.5 92.2 14.8 93 16C93.785 17.1775 95.918 18.9329 95.9975 18.9981C96.0001 19.0002 96.0011 19.0009 96.0038 19.0027C96.6762 19.451 97.7462 20.2658 98.5 22M91 36C92.2047 36 94.6821 36.0378 96.9195 33.174" stroke="#FFDC20" stroke-linecap="round"></path> <path d="M91 14.5C91 14.5 91.7843 12.2511 89.4586 9.46431" stroke="#FFDC20" stroke-linecap="round"></path> <path d="M91.137 12.9783C92.5605 13.1455 95.7574 12.4558 97.239 8.38489C97.258 8.33259 97.2317 8.274 97.1787 8.2572C95.5668 7.74686 92.0936 7.5739 90.3467 10.7908" stroke="#FFDC20" stroke-linecap="round"></path> <path d="M104.375 17C104.708 17 105.575 17.3 106.375 18.5C107.16 19.6775 109.293 21.4329 109.373 21.4981C109.375 21.5002 109.376 21.5007 109.379 21.5026C110.882 22.5085 114.373 27.5047 111.875 33C109.349 38.5586 105.875 38.5 104.375 38.5" stroke="#FFDC20" stroke-linecap="round"></path> <path d="M104 21C103.801 21 103.284 21.1953 102.806 21.9767C102.343 22.734 101.095 23.8582 101.019 23.9269C101.016 23.9292 101.014 23.931 101.011 23.933C100.113 24.5906 98.0321 27.8423 99.5223 31.4186C101.031 35.0382 103.104 35 104 35" stroke="#FFDC20" stroke-linecap="round"></path> <path d="M104 21C104.239 21 104.86 21.1953 105.433 21.9767C105.991 22.7376 107.5 23.869 107.579 23.9278C107.581 23.9297 107.583 23.9309 107.586 23.9326C108.663 24.5891 111.162 27.8414 109.373 31.4186C107.563 35.0382 105.075 35 104 35" stroke="#FFDC20" stroke-linecap="round"></path> <circle cx="101.466" cy="28.4658" r="0.465774" fill="#FFDC20"></circle> <circle cx="104.329" cy="23.4658" r="0.465774" fill="#FFDC20"></circle> <circle cx="101.466" cy="31.4658" r="0.465774" fill="#FFDC20"></circle> <circle cx="106.192" cy="25.3289" r="0.465774" fill="#FFDC20"></circle> <circle cx="108.056" cy="28.1235" r="0.465774" fill="#FFDC20"></circle> <circle cx="108.056" cy="30.9182" r="0.465774" fill="#FFDC20"></circle> <circle cx="104.466" cy="27.4658" r="0.465774" fill="#FFDC20"></circle> <circle cx="106.466" cy="29.4658" r="0.465774" fill="#FFDC20"></circle> <circle cx="102.466" cy="26.4658" r="0.465774" fill="#FFDC20"></circle> <circle cx="103.466" cy="30.4658" r="0.465774" fill="#FFDC20"></circle> <circle cx="105.261" cy="32.7813" r="0.465774" fill="#FFDC20"></circle> <circle cx="103.466" cy="32.4658" r="0.465774" fill="#FFDC20"></circle> <path fill-rule="evenodd" clip-rule="evenodd" d="M189.744 12.9799C189.836 12.7198 190.122 12.5841 190.383 12.6768C190.643 12.7695 190.778 13.0555 190.686 13.3156C186.667 24.5902 168.326 44.174 129.35 35.5901C131.322 36.8227 133.831 38.0794 135.243 38.7318C135.493 38.8476 135.603 39.1447 135.487 39.3954C135.371 39.6461 135.074 39.7554 134.823 39.6395C133.348 38.9582 130.684 37.6225 128.633 36.3208C128.03 35.9374 127.865 35.2902 128.068 34.7348C128.263 34.2036 128.777 33.7919 129.434 33.737C131.46 33.5677 133.598 32.9382 134.645 31.4404C134.803 31.2141 135.115 31.159 135.341 31.3172C135.567 31.4754 135.623 31.7872 135.464 32.0135C134.231 33.7777 131.925 34.4686 129.93 34.6932C168.201 42.9755 185.92 23.7085 189.744 12.9799Z" fill="#FFDC20"></path> </svg> 