<?xml version="1.0" encoding="UTF-8"?> <svg xmlns="http://www.w3.org/2000/svg" width="60" height="60" viewBox="0 0 60 60" fill="none"> <g filter="url(#filter0_d_2750_4839)"> <ellipse cx="30" cy="26" rx="20" ry="20" transform="rotate(-180 30 26)" fill="white"></ellipse> <path d="M10.5 26C10.5 15.2304 19.2305 6.5 30 6.5C40.7696 6.5 49.5 15.2304 49.5 26C49.5 36.7696 40.7696 45.5 30 45.5C19.2304 45.5 10.5 36.7695 10.5 26Z" stroke="white"></path> </g> <g clip-path="url(#clip0_2750_4839)"> <path d="M24.7947 26.4595L35.2298 26.4595C35.4841 26.4595 35.6902 26.2536 35.6902 25.9999C35.6902 25.7462 35.4841 25.5403 35.2298 25.5403L24.7947 25.5403C24.5404 25.5403 24.3343 25.7461 24.3343 25.9999C24.3343 26.2538 24.5404 26.4595 24.7947 26.4595Z" fill="#517D45"></path> <path d="M24.3773 26.325L28.8888 30.8291C29.0687 31.0085 29.3599 31.0085 29.5398 30.8291C29.7196 30.6496 29.7196 30.3585 29.5398 30.1791L25.3538 26L29.5398 21.8208C29.7196 21.6414 29.7196 21.3503 29.5398 21.1709C29.4499 21.0811 29.3322 21.0363 29.2143 21.0363C29.0964 21.0363 28.9787 21.0811 28.8888 21.1709L24.3773 25.675C24.1975 25.8546 24.1975 26.1456 24.3773 26.325Z" fill="#517D45"></path> </g> <defs> <filter id="filter0_d_2750_4839" x="0" y="0" width="60" height="60" filterUnits="userSpaceOnUse" color-interpolation-filters="sRGB"> <feFlood flood-opacity="0" result="BackgroundImageFix"></feFlood> <feColorMatrix in="SourceAlpha" type="matrix" values="0 0 0 0 0 0 0 0 0 0 0 0 0 0 0 0 0 0 127 0" result="hardAlpha"></feColorMatrix> <feOffset dy="4"></feOffset> <feGaussianBlur stdDeviation="5"></feGaussianBlur> <feComposite in2="hardAlpha" operator="out"></feComposite> <feColorMatrix type="matrix" values="0 0 0 0 0.839857 0 0 0 0 0.883333 0 0 0 0 0.783958 0 0 0 1 0"></feColorMatrix> <feBlend mode="normal" in2="BackgroundImageFix" result="effect1_dropShadow_2750_4839"></feBlend> <feBlend mode="normal" in="SourceGraphic" in2="effect1_dropShadow_2750_4839" result="shape"></feBlend> </filter> <clipPath id="clip0_2750_4839"> <rect width="11.4478" height="11.4286" fill="white" transform="translate(35.6902 31.7142) rotate(-180)"></rect> </clipPath> </defs> </svg> 