<?xml version="1.0" encoding="UTF-8"?> <svg xmlns="http://www.w3.org/2000/svg" width="146" height="170" viewBox="0 0 146 170" fill="none"> <g opacity="0.29"> <path d="M57.2253 96.7616L75.2878 74.4736C58.905 55.7257 61.0391 35.0151 83.4587 20.024C80.1811 39.2897 86.4043 46.9358 80.8752 66.8637C87.8834 58.435 97.733 48.8744 99.685 38.0495C105.708 18.4466 127.38 7.82644 145.224 0.156291C138.083 7.88664 132.05 16.5803 125.584 24.8766C118.545 34.4241 109.597 42.4037 99.3103 48.3084C95.0841 50.7166 92.0856 55.3645 89.0029 59.6029C107.894 48.4048 120.512 46.7552 142.592 45.3102C128.973 61.8065 118.509 74.9312 96.6226 67.6223C85.583 64.2628 85.583 64.3592 78.5627 73.1732C73.8183 79.0854 69.0016 84.9494 64.5341 91.295C80.3316 78.8566 99.666 84.5159 118.135 83.5646C103.686 94.8832 84.0595 107.153 65.7853 96.8098C62.6915 95.2204 60.6447 95.2806 58.3447 98.5076C54.2023 104.323 49.4339 109.682 45.3155 115.75C62.0275 107.033 79.0257 116.425 96.5551 115.979C84.622 129.875 60.5068 132.15 47.6624 120.94C44.653 118.315 42.847 118.472 40.3303 121.65C33.3582 130.597 26.0851 139.303 18.8601 148.201C32.4048 145.6 43.8784 145.323 56.4948 150.898C24.1661 170.862 23.7366 144.625 13.8146 154.968C9.52786 159.784 5.2652 164.601 0.990493 169.417L0.159884 168.695C7.6016 159.556 14.935 150.332 22.5211 141.314C24.809 138.592 24.6046 137.22 21.9924 134.727C11.2908 125.359 13.8346 101.963 21.9989 91.8609C20.1316 99.7719 25.091 104.745 26.8118 110.717C28.5325 116.69 30.205 122.83 31.8535 128.779L50.7709 105.503C31.5096 94.233 34.5112 69.0672 45.9631 52.9202C47.2971 68.3568 57.5407 81.1444 57.2253 96.7616Z" fill="#ADB797"></path> <path d="M57.2253 96.7616L75.2878 74.4736C58.905 55.7257 61.0391 35.0151 83.4587 20.024C80.1811 39.2897 86.4043 46.9358 80.8752 66.8637C87.8834 58.435 97.733 48.8744 99.685 38.0495C105.708 18.4466 127.38 7.82644 145.224 0.156291C138.083 7.88664 132.05 16.5803 125.584 24.8766C118.545 34.4241 109.597 42.4037 99.3103 48.3084C95.0841 50.7166 92.0856 55.3645 89.0029 59.6029C107.894 48.4048 120.512 46.7552 142.592 45.3102C128.973 61.8065 118.509 74.9312 96.6226 67.6223C85.583 64.2628 85.583 64.3592 78.5627 73.1732C73.8183 79.0854 69.0016 84.9494 64.5341 91.295C80.3316 78.8566 99.666 84.5159 118.135 83.5646C103.686 94.8832 84.0595 107.153 65.7853 96.8098C62.6915 95.2204 60.6447 95.2806 58.3447 98.5076C54.2023 104.323 49.4339 109.682 45.3155 115.75C62.0275 107.033 79.0257 116.425 96.5551 115.979C84.622 129.875 60.5068 132.15 47.6624 120.94C44.653 118.315 42.847 118.472 40.3303 121.65C33.3582 130.597 26.0851 139.303 18.8601 148.201C32.4048 145.6 43.8784 145.323 56.4948 150.898C24.1661 170.862 23.7366 144.625 13.8146 154.968C9.52786 159.784 5.2652 164.601 0.990493 169.417L0.159884 168.695C7.6016 159.556 14.935 150.332 22.5211 141.314C24.809 138.592 24.6046 137.22 21.9924 134.727C11.2908 125.359 13.8346 101.963 21.9989 91.8609C20.1316 99.7719 25.091 104.745 26.8118 110.717C28.5325 116.69 30.205 122.83 31.8535 128.779L50.7709 105.503C31.5096 94.233 34.5112 69.0672 45.9631 52.9202C47.2971 68.3568 57.5407 81.1444 57.2253 96.7616Z" fill="#ADB797"></path> <mask id="mask0_2863_797" style="mask-type:luminance" maskUnits="userSpaceOnUse" x="0" y="0" width="146" height="170"> <path d="M57.2278 96.7658L75.2903 74.4727C58.9139 55.7247 61.051 35.0113 83.4686 20.0153C80.1884 39.2838 86.4091 46.9299 80.8778 66.8611C87.886 58.4303 97.7352 48.8673 99.6886 38.0408C105.713 18.4347 127.383 7.81032 145.224 0.136825C138.084 7.86909 132.051 16.5646 125.584 24.8628C118.545 34.4125 109.598 42.3942 99.3122 48.301C95.0865 50.7101 92.0879 55.3589 89.0051 59.5983C107.895 48.3962 120.51 46.7447 142.586 45.2966C128.967 61.7967 118.503 74.9245 96.6219 67.6176C85.5851 64.2592 85.5851 64.3556 78.5647 73.1717C73.8203 79.0852 69.0037 84.9505 64.536 91.2975C80.3324 78.8555 99.6619 84.5129 118.127 83.559C103.679 94.8809 84.0549 107.155 65.7861 96.8128C62.6931 95.2236 60.6468 95.2841 58.3467 98.5118C54.2042 104.329 49.4358 109.689 45.3173 115.758C62.0273 107.037 79.0205 116.428 96.5464 115.98C84.6134 129.879 60.5027 132.158 47.6628 120.948C44.6544 118.324 42.8488 118.48 40.3321 121.66C33.3599 130.609 26.0868 139.316 18.8618 148.217C32.4042 145.614 43.8755 145.335 56.4885 150.909C24.163 170.88 23.7379 144.639 13.8162 154.985C9.52955 159.803 5.26694 164.62 0.992306 169.438L0.161985 168.716C7.60371 159.574 14.9371 150.349 22.5232 141.328C24.8111 138.606 24.6069 137.233 21.9957 134.741C11.2978 125.373 13.845 101.974 22.0093 91.8693C20.141 99.7815 25.0987 104.754 26.8181 110.727C28.5375 116.7 30.2087 122.842 31.8558 128.79L50.7732 105.51C31.5177 94.2404 34.5229 69.0711 45.9751 52.9205C47.3063 68.3589 57.5457 81.1467 57.2278 96.7658Z" fill="white"></path> </mask> <g mask="url(#mask0_2863_797)"> <path d="M150.617 -5.26277C134.58 3.65121 123.933 19.5374 112.372 33.7978C109.919 37.0878 107.003 40.0048 103.714 42.4579C100.366 44.8895 96.2021 45.9184 92.1085 45.3257" fill="#ADB797"></path> <path d="M148.385 41.6928C143.714 41.3803 139.572 44.4524 135.863 47.3075C131.251 50.8494 126.458 54.3793 120.92 56.1145C113.696 58.392 105.702 57.4536 98.4176 59.6227C94.8507 60.7115 91.5417 62.5137 88.6913 64.92C85.8409 67.3264 83.5084 70.2866 81.8354 73.6214" fill="#ADB797"></path> <path d="M146.555 48.9192C142.136 53.1719 137.572 57.5088 131.924 59.9066C125.796 62.5093 118.945 62.5945 112.432 63.9445C104.808 65.5365 97.6492 68.8545 91.5046 73.6439" fill="#ADB797"></path> <path d="M87.6696 14.3414C82.9867 19.4355 78.352 24.6982 75.149 30.8276C71.946 36.9571 70.2469 44.1099 71.8212 50.8889C72.4215 52.8278 72.8597 54.8134 73.1311 56.8251C73.5022 62.9902 68.314 67.8917 63.5954 71.854" fill="#ADB797"></path> <path d="M93.6171 15.931C85.2051 23.351 79.8987 33.6718 78.7578 44.8322C78.1541 50.9493 78.7538 57.3071 76.7062 63.0872C74.9597 67.904 71.4445 71.866 68.0255 75.6956" fill="#ADB797"></path> <path d="M61.3299 100.614C62.885 94.2294 69.3755 90.1569 75.7809 88.8429C82.1862 87.529 88.8678 88.2991 95.4173 87.9128C107.164 87.2065 118.396 82.8317 127.53 75.4043" fill="#ADB797"></path> <path d="M66.8558 104.056C70.5895 99.608 76.4896 97.5343 82.2689 96.9309C88.0482 96.3276 93.8632 96.9294 99.6543 97.013C105.445 97.0966 111.477 96.3606 116.451 93.3952" fill="#ADB797"></path> <path d="M45.6449 107.055C50.9607 103.852 52.8627 96.7955 51.9268 90.6549C50.9908 84.5142 47.9744 78.9397 45.3909 73.2929C42.9878 67.8749 40.8492 62.1799 40.4423 56.2318C40.0353 50.2837 41.4321 44.0464 45.2573 39.4945" fill="#ADB797"></path> <path d="M39.5054 104.984C43.3443 100.986 44.5251 94.989 43.8171 89.4984C43.109 84.0078 40.7286 78.8787 38.2399 73.9302C35.7512 68.9817 33.1182 64.0332 31.8086 58.6631" fill="#ADB797"></path> <path d="M40.269 127.079C40.1748 120.486 46.5454 115.327 53.0232 114.169C59.501 113.011 66.0862 114.709 72.5753 115.853C85.4452 118.13 99.0622 118.104 111.224 113.438" fill="#ADB797"></path> <path d="M47.0598 125.989C49.469 122.081 54.7309 121.056 59.318 121.357C66.5419 121.826 73.3797 124.587 80.3985 126.395C87.4173 128.202 95.1708 128.961 101.613 125.656" fill="#ADB797"></path> <path d="M16.953 140.683C21.7657 134.866 26.7711 128.123 25.8233 120.669C25.1155 115.143 21.2561 110.64 18.4313 105.848C13.5085 97.4292 11.6143 87.5753 13.0639 77.926" fill="#ADB797"></path> <path d="M14.8858 155.031C18.8971 149.001 27.3015 147.54 34.4649 148.685C41.6284 149.83 48.3939 152.916 55.6057 153.735C61.5891 154.405 67.6438 153.485 73.1609 151.068" fill="#ADB797"></path> <path d="M20.0277 155.3C20.8712 152.89 24.0499 152.371 26.6023 152.516C30.9934 152.773 35.3105 153.763 39.3758 155.442C41.6368 156.53 43.965 157.471 46.346 158.262C48.7591 159.04 51.379 158.863 53.6664 157.766" fill="#ADB797"></path> <path d="M17.8526 138.02C20.3908 131.133 19.1553 123.463 17.3666 116.347C15.578 109.231 13.2606 102.067 13.6956 94.7465" fill="#ADB797"></path> </g> </g> </svg> 