<?xml version="1.0" encoding="UTF-8"?> <svg xmlns="http://www.w3.org/2000/svg" width="181" height="169" viewBox="0 0 181 169" fill="none"> <path d="M103.197 160.604C113.539 165.757 145.025 143.085 145.025 135.488C145.025 127.89 125.098 106.073 127.217 98.8489C129.336 91.6247 141.064 126.686 148.517 124.712C155.97 122.737 165.253 97.3078 162.038 93.804C158.823 90.3003 147.144 76.4659 148.649 73.4197C150.154 70.3735 162.809 88.4822 165.855 86.9651C168.901 85.448 182.507 61.4275 179.846 57.4542C175.872 51.5905 159.016 35.9983 154.441 37.5274C149.865 39.0565 147.758 55.4675 149.733 58.3572C151.707 61.2469 146.386 63.5346 145.013 54.8655C143.64 46.1965 148.974 34.7942 145.916 31.736C142.858 28.6777 124.448 9.91887 118.909 11.5564C113.371 13.1938 117.633 42.7048 115.502 45.4379C113.371 48.1711 106.074 47.5691 107.435 36.4679C108.796 25.3666 111.24 6.80042 106.231 5.42782C101.222 4.05522 72.3133 1.02105 67.4369 3.15219C62.5606 5.28333 64.1017 29.641 68.5085 36.7809C72.9153 43.9208 76.2023 52.9752 73.4932 52.8668C70.7841 52.7584 56.1912 27.1968 53.6026 14.8675C51.0139 2.53813 49.3403 6.65594 43.7174 8.02854C38.0946 9.40114 14.9651 22.1759 17.3972 27.9553C19.8294 33.7347 40.5267 57.7672 48.7021 61.1145C56.8775 64.4617 41.3936 63.5225 36.2163 58.7064C31.0389 53.8902 19.6367 39.4418 12.7858 40.1522C5.93479 40.8626 3.15347 56.8281 0.745399 66.364C-1.66267 75.9 10.3777 95.2609 19.1912 100.39C19.1912 100.39 8.25858 125.338 21.8642 136.511C35.4698 147.685 39.2745 148.455 43.3803 145.565C47.4861 142.676 50.2192 121.991 55.9986 119.558C61.778 117.126 47.4861 139.63 50.3757 149.816C53.2654 160.002 79.6218 167.479 87.6888 165.757C95.7558 164.035 85.8587 126.819 90.9999 121.039C96.1411 115.26 92.8661 155.439 103.197 160.604ZM74.613 69.9521C73.9764 69.6624 73.4311 69.2045 73.0357 68.6276C71.8649 67.3596 71.1381 65.7453 70.9647 64.0282C70.9427 63.6983 71.0013 63.3681 71.1356 63.066C71.2699 62.7639 71.4757 62.4991 71.7353 62.2944C72.1689 62.1161 72.6408 62.0512 73.1064 62.106C73.572 62.1608 74.0159 62.3334 74.3962 62.6075C76.5515 63.667 77.3823 65.8102 77.8639 68.0617C78.018 68.4483 78.018 68.8792 77.8639 69.2658C77.7137 69.5001 77.501 69.6878 77.2498 69.8076C76.8531 70.0385 76.4072 70.1721 75.9488 70.1972C75.4904 70.2223 75.0326 70.1383 74.613 69.9521ZM96.2856 68.3266C94.2778 68.0296 92.404 67.141 90.9036 65.7741C90.1672 65.0875 89.6083 64.2326 89.2749 63.2826C88.9414 62.3327 88.8434 61.316 88.9891 60.3198C89.3805 58.9503 89.9428 57.6356 90.6628 56.4067C91.325 54.9378 91.7946 53.216 93.1672 52.3731C93.4008 52.2128 93.6784 52.1287 93.9618 52.1324C94.1857 52.1854 94.4067 52.2497 94.624 52.325C95.2742 52.4454 95.8883 51.9517 96.5505 51.8795C97.6221 51.747 98.477 52.7103 99.1271 53.5772C100.331 55.2026 102.932 57.5385 103.305 59.5974C103.511 61.5354 103.447 63.4927 103.112 65.4129C102.926 66.0755 102.577 66.6811 102.098 67.1752C101.619 67.6692 101.024 68.0359 100.367 68.2423C99.0445 68.6216 97.6452 68.6466 96.3097 68.3146L96.2856 68.3266ZM77.599 113.358C77.2878 113.355 76.9809 113.285 76.6985 113.155C76.4162 113.024 76.1649 112.834 75.9615 112.599C74.7638 111.128 74.1204 109.283 74.1434 107.386C73.9483 103.901 74.5196 100.415 75.817 97.1753C76.106 96.4408 76.5755 95.6101 77.3582 95.5258C77.886 95.5346 78.3903 95.7458 78.7669 96.1158C81.7168 98.5239 82.379 102.726 81.3676 106.194L80.3562 109.601C80.1271 110.812 79.5546 111.933 78.7067 112.828C78.4072 113.123 78.0171 113.31 77.599 113.358ZM108.675 106.458C107.469 105.954 106.43 105.119 105.677 104.05C103.486 101.281 97.9111 89.7825 104.196 88.121C104.686 87.9945 105.199 87.9945 105.689 88.121C107.676 88.6748 108.964 90.5291 109.867 92.4194C111.457 95.6467 112.409 99.1501 112.673 102.738C112.833 103.692 112.668 104.671 112.203 105.519C111.792 106.031 111.228 106.398 110.593 106.567C109.958 106.736 109.287 106.698 108.675 106.458Z" fill="#ADB797"></path> <path d="M103.197 160.604C113.539 165.757 145.025 143.085 145.025 135.488C145.025 127.89 125.098 106.073 127.217 98.8489C129.336 91.6247 141.064 126.686 148.517 124.712C155.97 122.737 165.253 97.3078 162.038 93.804C158.823 90.3003 147.144 76.4659 148.649 73.4197C150.154 70.3735 162.809 88.4822 165.855 86.9651C168.901 85.448 182.507 61.4275 179.846 57.4542C175.872 51.5905 159.016 35.9983 154.441 37.5274C149.865 39.0565 147.758 55.4675 149.733 58.3572C151.707 61.2469 146.386 63.5346 145.013 54.8655C143.64 46.1965 148.974 34.7942 145.916 31.736C142.858 28.6777 124.448 9.91887 118.909 11.5564C113.371 13.1938 117.633 42.7048 115.502 45.4379C113.371 48.1711 106.074 47.5691 107.435 36.4679C108.796 25.3666 111.24 6.80042 106.231 5.42782C101.222 4.05522 72.3133 1.02105 67.4369 3.15219C62.5606 5.28333 64.1017 29.641 68.5085 36.7809C72.9153 43.9208 76.2023 52.9752 73.4932 52.8668C70.7841 52.7584 56.1912 27.1968 53.6026 14.8675C51.0139 2.53813 49.3403 6.65594 43.7174 8.02854C38.0946 9.40114 14.9651 22.1759 17.3972 27.9553C19.8294 33.7347 40.5267 57.7672 48.7021 61.1145C56.8775 64.4617 41.3936 63.5225 36.2163 58.7064C31.0389 53.8902 19.6367 39.4418 12.7858 40.1522C5.93479 40.8626 3.15347 56.8281 0.745399 66.364C-1.66267 75.9 10.3777 95.2609 19.1912 100.39C19.1912 100.39 8.25858 125.338 21.8642 136.511C35.4698 147.685 39.2745 148.455 43.3803 145.565C47.4861 142.676 50.2192 121.991 55.9986 119.558C61.778 117.126 47.4861 139.63 50.3757 149.816C53.2654 160.002 79.6218 167.479 87.6888 165.757C95.7558 164.035 85.8587 126.819 90.9999 121.039C96.1411 115.26 92.8661 155.439 103.197 160.604ZM74.613 69.9521C73.9764 69.6624 73.4311 69.2045 73.0357 68.6276C71.8649 67.3596 71.1381 65.7453 70.9647 64.0282C70.9427 63.6983 71.0013 63.3681 71.1356 63.066C71.2699 62.7639 71.4757 62.4991 71.7353 62.2944C72.1689 62.1161 72.6408 62.0512 73.1064 62.106C73.572 62.1608 74.0159 62.3334 74.3962 62.6075C76.5515 63.667 77.3823 65.8102 77.8639 68.0617C78.018 68.4483 78.018 68.8792 77.8639 69.2658C77.7137 69.5001 77.501 69.6878 77.2498 69.8076C76.8531 70.0385 76.4072 70.1721 75.9488 70.1972C75.4904 70.2223 75.0326 70.1383 74.613 69.9521ZM96.2856 68.3266C94.2778 68.0296 92.404 67.141 90.9036 65.7741C90.1672 65.0875 89.6083 64.2326 89.2749 63.2826C88.9414 62.3327 88.8434 61.316 88.9891 60.3198C89.3805 58.9503 89.9428 57.6356 90.6628 56.4067C91.325 54.9378 91.7946 53.216 93.1672 52.3731C93.4008 52.2128 93.6784 52.1287 93.9618 52.1324C94.1857 52.1854 94.4067 52.2497 94.624 52.325C95.2742 52.4454 95.8883 51.9517 96.5505 51.8795C97.6221 51.747 98.477 52.7103 99.1271 53.5772C100.331 55.2026 102.932 57.5385 103.305 59.5974C103.511 61.5354 103.447 63.4927 103.112 65.4129C102.926 66.0755 102.577 66.6811 102.098 67.1752C101.619 67.6692 101.024 68.0359 100.367 68.2423C99.0445 68.6216 97.6452 68.6466 96.3097 68.3146L96.2856 68.3266ZM77.599 113.358C77.2878 113.355 76.9809 113.285 76.6985 113.155C76.4162 113.024 76.1649 112.834 75.9615 112.599C74.7638 111.128 74.1204 109.283 74.1434 107.386C73.9483 103.901 74.5196 100.415 75.817 97.1753C76.106 96.4408 76.5755 95.6101 77.3582 95.5258C77.886 95.5346 78.3903 95.7458 78.7669 96.1158C81.7168 98.5239 82.379 102.726 81.3676 106.194L80.3562 109.601C80.1271 110.812 79.5546 111.933 78.7067 112.828C78.4072 113.123 78.0171 113.31 77.599 113.358ZM108.675 106.458C107.469 105.954 106.43 105.119 105.677 104.05C103.486 101.281 97.9111 89.7825 104.196 88.121C104.686 87.9945 105.199 87.9945 105.689 88.121C107.676 88.6748 108.964 90.5291 109.867 92.4194C111.457 95.6467 112.409 99.1501 112.673 102.738C112.833 103.692 112.668 104.671 112.203 105.519C111.792 106.031 111.228 106.398 110.593 106.567C109.958 106.736 109.287 106.698 108.675 106.458Z" fill="#ADB797"></path> <mask id="mask0_2868_2092" style="mask-type:luminance" maskUnits="userSpaceOnUse" x="1" y="1" width="179" height="167"> <path d="M103.756 161.745C114.046 167.078 145.025 144.448 144.956 136.751C144.888 129.054 124.957 106.736 126.991 99.4396C129.025 92.1434 140.954 127.792 148.318 125.872C155.681 123.951 164.647 98.2888 161.431 94.7044C158.216 91.12 146.525 76.978 147.989 73.9081C149.452 70.8382 162.147 89.3211 165.15 87.817C168.153 86.3129 181.412 62.1241 178.741 58.0699C174.754 52.0864 157.92 36.1076 153.402 37.6074C148.884 39.1072 146.945 55.7107 148.927 58.6597C150.908 61.6086 145.658 63.8688 144.221 55.0712C142.784 46.2736 147.964 34.7793 144.908 31.6479C141.851 28.5166 123.451 9.3128 117.98 10.912C112.509 12.5112 116.996 42.4553 114.909 45.2013C112.823 47.9473 105.592 47.2586 106.84 36.0264C108.087 24.7943 110.341 6.01083 105.369 4.56614C100.396 3.12146 71.738 -0.264641 66.9277 1.84182C62.1174 3.94827 63.8624 28.6421 68.2908 35.9233C72.7192 43.2045 76.0559 52.4131 73.3719 52.2741C70.6879 52.1351 56.0061 26.0805 53.3317 13.5614C50.6573 1.04238 49.0368 5.19615 43.4804 6.52605C37.924 7.85595 15.1319 20.5486 17.5925 26.4301C20.0531 32.3116 40.7669 56.8829 48.8936 60.3623C57.0203 63.8417 41.6771 62.7231 36.5063 57.7878C31.3356 52.8526 19.9135 38.0915 13.1349 38.7372C6.3563 39.383 3.74506 55.5279 1.44577 65.163C-0.853522 74.7981 11.2447 94.543 20.0194 99.8346C20.0194 99.8346 9.41593 124.992 22.9908 136.458C36.5657 147.925 40.3407 148.747 44.381 145.864C48.4213 142.981 50.9425 122.053 56.6443 119.652C62.3462 117.25 48.3939 139.894 51.3472 150.245C54.3005 160.596 80.4702 168.456 88.4441 166.799C96.418 165.142 86.282 127.33 91.3219 121.53C96.3617 115.73 93.4789 156.401 103.756 161.745ZM74.6342 69.5956C74.0012 69.2953 73.457 68.8254 73.0602 68.2368C71.8894 66.9394 71.1551 65.2962 70.968 63.5546C70.9431 63.2202 70.9983 62.8863 71.1285 62.5817C71.2588 62.2771 71.4603 62.011 71.7156 61.8064C72.1433 61.6304 72.6101 61.5698 73.0717 61.6303C73.5333 61.6909 73.9745 61.8705 74.3537 62.1523C76.4976 63.249 77.3397 65.4293 77.8368 67.7156C77.993 68.1089 77.9968 68.5454 77.8477 68.9354C77.701 69.1712 77.4921 69.359 77.2444 69.4777C76.8535 69.7074 76.4131 69.8379 75.9594 69.8584C75.5056 69.8789 75.0515 69.7888 74.6342 69.5956ZM96.0836 68.1828C94.0924 67.8603 92.2287 66.9397 90.7305 65.5387C89.995 64.8352 89.4338 63.963 89.0951 62.997C88.7563 62.0309 88.6501 60.9999 88.7855 59.9922C89.1608 58.609 89.7059 57.2831 90.4079 56.0458C91.0505 54.5647 91.5001 52.8254 92.852 51.9864C93.0819 51.8264 93.3561 51.7442 93.6368 51.751C93.859 51.8072 94.0784 51.8747 94.2944 51.9533C94.9394 52.0823 95.5431 51.5888 96.1983 51.5228C97.2584 51.4002 98.1137 52.3853 98.7654 53.2706C99.9724 54.9303 102.569 57.3249 102.957 59.4148C103.179 61.3805 103.132 63.3628 102.819 65.3046C102.64 65.9738 102.3 66.5837 101.83 67.079C101.36 67.5744 100.774 67.9395 100.125 68.1415C98.8185 68.5115 97.4329 68.5217 96.1073 68.1709L96.0836 68.1828ZM77.9811 113.603C77.6729 113.597 77.3683 113.523 77.0875 113.388C76.8067 113.252 76.5561 113.057 76.3525 112.817C75.1532 111.313 74.4994 109.437 74.5052 107.515C74.2806 103.983 74.8151 100.458 76.071 97.189C76.3506 96.4481 76.8082 95.6114 77.5825 95.5345C78.1054 95.5491 78.6067 95.7685 78.983 96.1475C81.9261 98.619 82.6196 102.883 81.6491 106.386L80.678 109.827C80.4621 111.052 79.905 112.18 79.0734 113.078C78.7794 113.374 78.3948 113.559 77.9811 113.603ZM108.696 106.949C107.497 106.424 106.46 105.568 105.705 104.477C103.51 101.647 97.886 89.9378 104.096 88.3223C104.579 88.1995 105.088 88.205 105.574 88.3384C107.547 88.921 108.839 90.8135 109.751 92.7383C111.354 96.0252 112.328 99.5848 112.622 103.223C112.789 104.19 112.634 105.181 112.181 106.035C111.779 106.55 111.223 106.915 110.596 107.08C109.97 107.244 109.304 107.198 108.696 106.949Z" fill="white"></path> </mask> <g mask="url(#mask0_2868_2092)"> <path d="M31.9997 4.79004C33.0954 9.75066 77.5002 84.4009 77.5002 84.4009Z" fill="#ADB797"></path> </g> </svg> 