<?xml version="1.0" encoding="UTF-8"?> <svg xmlns="http://www.w3.org/2000/svg" width="36" height="36" viewBox="0 0 36 36" fill="none"> <path fill-rule="evenodd" clip-rule="evenodd" d="M6.95713 1.11192C6.81988 0.966794 6.65714 0.979391 6.56307 1.06161C5.62734 1.87946 3.92235 3.92427 2.07281 7.88018C-0.735105 14.7627 2.59061 19.5392 5.14212 21.5462C4.99346 20.9138 4.81558 20.2548 4.60367 19.5746C3.8793 17.2495 3.93506 14.7437 4.28406 12.5769C4.63333 10.4084 5.28266 8.54015 5.78367 7.46804C5.90058 7.21787 6.19816 7.10984 6.44833 7.22675C6.69851 7.34365 6.80654 7.64123 6.68963 7.89141C6.22764 8.88003 5.6058 10.6593 5.27133 12.7359C4.9366 14.8142 4.89606 17.1511 5.55841 19.2771C6.96517 23.7926 6.93638 27.4557 6.73069 28.7761C6.68819 29.0489 6.43255 29.2357 6.15969 29.1932C5.88684 29.1507 5.70011 28.895 5.74261 28.6222C5.87273 27.7868 5.93389 25.7137 5.43718 22.9654C5.42376 22.9587 5.41053 22.9514 5.39751 22.9435C2.56168 21.2093 -2.20372 15.6984 1.15178 7.49048L1.15641 7.47914L1.1616 7.46805C3.05017 3.42561 4.83085 1.24748 5.90498 0.308669C6.45855 -0.175151 7.22992 -0.0550041 7.68369 0.424812C9.34436 2.18084 11.211 5.05233 11.814 8.47118C12.4213 11.9147 11.7388 15.8812 8.34501 19.7553C8.16304 19.963 7.84715 19.9839 7.63944 19.8019C7.43173 19.62 7.41085 19.3041 7.59281 19.0964C10.7805 15.4575 11.3856 11.7997 10.8292 8.64487C10.2684 5.46539 8.52008 2.76461 6.95713 1.11192ZM6.10924 35.7112C8.37352 30.8649 16.0687 21.5647 28.7065 23.0137C28.9809 23.0452 29.2288 22.8483 29.2602 22.5739C29.2917 22.2996 29.0948 22.0517 28.8204 22.0202C20.4983 21.066 14.2397 24.5586 10.1527 28.5379C10.0798 26.573 10.3872 23.9099 11.5107 21.5579C12.769 18.9237 15.0431 16.684 19.0039 16.2131C26.603 15.3095 32.5035 19.6499 34.8975 22.3429C35.0149 22.4751 35.0364 22.6734 34.9387 22.8395C33.1972 25.8024 30.0693 29.5745 26.0306 31.7773C22.0214 33.964 17.1137 34.6109 11.6913 31.3613C11.4544 31.2194 11.1474 31.2963 11.0054 31.5332C10.8635 31.77 10.9404 32.0771 11.1773 32.2191C16.9451 35.6757 22.234 34.9871 26.5095 32.6552C30.7555 30.3393 34.0002 26.4096 35.8008 23.3462C36.1102 22.8199 36.061 22.1466 35.6449 21.6785C33.1255 18.8444 26.9265 14.264 18.8858 15.2201C14.5281 15.7382 11.9881 18.2383 10.6084 21.1268C9.24076 23.9899 9.00553 27.2384 9.20414 29.3639C9.20801 29.4053 9.21683 29.445 9.22995 29.4826C7.30981 31.5494 5.96272 33.6624 5.20325 35.2879C5.08636 35.5381 5.19442 35.8357 5.4446 35.9525C5.69478 36.0694 5.99235 35.9614 6.10924 35.7112Z" fill="#FFDC20"></path> </svg> 