<?xml version="1.0" encoding="UTF-8"?> <svg xmlns="http://www.w3.org/2000/svg" width="150" height="166" viewBox="0 0 150 166" fill="none"> <path d="M84.6439 99.6099L64.8014 78.7921C44.1041 92.6987 23.8642 87.9548 11.8239 63.7898C30.4623 69.4969 38.8785 64.3075 57.9384 72.3384C50.4614 64.3075 42.286 53.3508 31.7627 50.0036C13.1002 41.5753 5.27392 18.6987 0.000244141 0C6.75488 8.06704 14.6173 15.1588 22.01 22.6238C30.5899 30.8283 37.3715 40.7259 41.9248 51.6892C43.779 56.1803 47.945 59.6961 51.8099 63.3443C43.1168 43.1887 43.0927 30.4621 44.4773 8.36806C59.0943 24.0205 70.7734 36.0609 60.7318 56.8184C55.9879 67.3297 56.0842 67.3538 63.9225 75.493C69.1721 80.9594 74.3735 86.4738 80.0927 91.7114C69.7862 74.4576 77.8652 56.0117 79.274 37.5298C88.6534 53.3508 98.3218 74.3492 85.7155 91.1455C83.7409 94.0111 83.5482 96.0459 86.45 98.743C91.6875 103.559 96.3953 109.013 101.886 113.866C95.3719 96.1784 106.858 80.5139 108.664 63.0674C120.922 76.685 120.091 100.898 107.328 112.204C104.342 114.853 104.27 116.695 107.099 119.561C115.082 127.628 122.752 135.948 130.686 144.243C129.831 130.481 131.023 119.067 138.163 107.268C153.816 141.884 127.76 138.958 136.743 150.119C140.957 154.935 145.171 159.824 149.421 164.688L148.602 165.41C140.487 156.862 132.264 148.409 124.293 139.728C121.885 137.116 120.5 137.152 117.695 139.415C107.039 148.843 84.1623 143.328 75.1923 133.889C82.8018 136.754 88.3644 132.48 94.517 131.481C100.67 130.481 106.955 129.663 113.059 128.784L92.4943 107.087C78.8405 124.774 54.2782 118.561 39.7334 105.112C55.1691 105.835 69.1961 97.2981 84.6439 99.6099Z" fill="#323824"></path> <mask id="mask0_2868_2218" style="mask-type:luminance" maskUnits="userSpaceOnUse" x="0" y="0" width="150" height="166"> <path d="M84.6437 99.6099L64.8012 78.7921C44.1038 92.6987 23.864 87.9548 11.8236 63.7898C30.4621 69.4969 38.8783 64.3075 57.9382 72.3384C50.4611 64.3075 42.2857 53.3508 31.7625 50.0036C13.0999 41.5753 5.27367 18.6987 0 0C6.75464 8.06704 14.617 15.1588 22.0098 22.6238C30.5897 30.8283 37.3712 40.7259 41.9245 51.6892C43.7787 56.1803 47.9447 59.6961 51.8097 63.3443C43.1165 43.1887 43.0924 30.4621 44.4771 8.36806C59.0941 24.0205 70.7732 36.0609 60.7315 56.8184C55.9876 67.3297 56.084 67.3538 63.9223 75.493C69.1719 80.9594 74.3733 86.4738 80.0925 91.7114C69.7859 74.4576 77.865 56.0117 79.2737 37.5298C88.6532 53.3508 98.3215 74.3492 85.7153 91.1455C83.7407 94.0111 83.548 96.0459 86.4497 98.743C91.6873 103.559 96.3951 109.013 101.885 113.866C95.3716 96.1784 106.858 80.5139 108.664 63.0674C120.921 76.685 120.091 100.898 107.328 112.204C104.342 114.853 104.269 116.695 107.099 119.561C115.082 127.628 122.751 135.948 130.686 144.243C129.831 130.481 131.023 119.067 138.163 107.268C153.816 141.884 127.76 138.958 136.742 150.119C140.956 154.935 145.171 159.824 149.421 164.688L148.602 165.41C140.487 156.862 132.263 148.409 124.293 139.728C121.884 137.116 120.5 137.152 117.694 139.415C107.039 148.843 84.1621 143.328 75.192 133.889C82.8015 136.754 88.3642 132.48 94.5168 131.481C100.669 130.481 106.954 129.663 113.059 128.784L92.494 107.087C78.8402 124.774 54.2779 118.561 39.7332 105.112C55.1689 105.835 69.1959 97.2981 84.6437 99.6099Z" fill="white"></path> </mask> <g mask="url(#mask0_2868_2218)"> <path d="M-4.67224 -6.05615C2.11852 10.993 16.5067 23.5751 29.1732 36.8556C32.1203 39.7086 34.6388 42.9734 36.6503 46.5482C38.6615 50.1747 39.1757 54.4437 38.0831 58.444" stroke="#4A4F3D" stroke-miterlimit="10"></path> <path d="M41.6352 2.15527C40.7322 6.75469 43.2486 11.2457 45.6085 15.2913C48.5343 20.3121 51.412 25.5256 52.4354 31.2448C53.7598 38.7339 51.8093 46.4999 53.0254 54.0131C53.6518 57.6888 55.0187 61.199 57.0429 64.3305C59.0671 67.462 61.7065 70.1496 64.8009 72.2301" stroke="#4A4F3D" stroke-miterlimit="10"></path> <path d="M48.6546 4.90039C52.2667 9.83694 56.0112 14.918 57.6608 20.8177C59.4548 27.2232 58.6722 34.0621 59.1779 40.6723C59.7782 48.4364 62.1551 55.9586 66.1251 62.658" stroke="#4A4F3D" stroke-miterlimit="10"></path> <path d="M6.77875 58.8892C11.2457 64.1869 15.8692 69.4486 21.5402 73.4219C27.2112 77.3952 34.1224 79.9718 41.0095 79.2735C42.9971 78.9221 45.0112 78.7408 47.0296 78.7317C53.1823 79.1531 57.3964 84.9083 60.7075 90.0977" stroke="#4A4F3D" stroke-miterlimit="10"></path> <path d="M9.12622 53.1943C15.4093 62.4971 24.9728 69.085 35.904 71.6402C41.9241 73.0248 48.2935 73.1934 53.7478 75.9988C58.3231 78.4068 61.7907 82.344 65.1499 86.2331" stroke="#4A4F3D" stroke-miterlimit="10"></path> <path d="M88.9779 96.0217C82.8494 93.6739 79.6346 86.7145 79.153 80.1766C78.6714 73.6387 80.357 67.1249 80.7544 60.5749C81.5401 48.8381 78.6307 37.1498 72.4345 27.1509" stroke="#4A4F3D" stroke-miterlimit="10"></path> <path d="M93.0962 90.9891C89.171 86.7148 87.8707 80.5862 88.0031 74.7948C88.1356 69.0034 89.5443 63.3083 90.3149 57.553C91.0855 51.7977 91.1817 45.7414 88.8459 40.4316" stroke="#4A4F3D" stroke-miterlimit="10"></path> <path d="M93.3724 112.396C90.868 106.713 84.1134 103.968 77.9126 104.064C71.7119 104.161 65.788 106.473 59.8521 108.351C54.1691 110.109 48.2452 111.445 42.2973 111.096C36.3493 110.747 30.3412 108.556 26.2715 104.149" stroke="#4A4F3D" stroke-miterlimit="10"></path> <path d="M90.5307 118.224C87.0631 113.902 81.2717 111.975 75.7332 111.975C70.1946 111.975 64.8005 113.685 59.575 115.515C54.3495 117.345 49.112 119.344 43.5975 119.97" stroke="#4A4F3D" stroke-miterlimit="10"></path> <path d="M112.529 120.295C105.991 119.561 101.692 112.577 101.367 106.003C101.042 99.4293 103.583 93.1081 105.545 86.8351C109.446 74.3613 111.156 60.8881 108.074 48.1855" stroke="#4A4F3D" stroke-miterlimit="10"></path> <path d="M112.287 113.456C108.675 110.555 108.386 105.221 109.277 100.718C110.662 93.6138 114.274 87.1722 116.959 80.4417C119.644 73.7111 121.39 66.1137 118.933 59.2988" stroke="#4A4F3D" stroke-miterlimit="10"></path> <path d="M123.051 145.147C117.898 139.68 111.854 133.792 104.341 133.792C98.7659 133.792 93.8173 137.043 88.6881 139.235C79.7076 143.046 69.6935 143.671 60.309 141.005" stroke="#4A4F3D" stroke-miterlimit="10"></path> <path d="M137.043 149.035C131.552 144.291 131.215 135.791 133.262 128.819C135.309 121.848 139.282 115.575 140.968 108.495C142.397 102.643 142.26 96.5181 140.571 90.7358" stroke="#4A4F3D" stroke-miterlimit="10"></path> <path d="M137.957 143.978C135.658 142.835 135.549 139.62 136.031 137.103C136.842 132.78 138.376 128.624 140.57 124.81C141.934 122.704 143.16 120.512 144.242 118.248C145.328 115.956 145.487 113.334 144.688 110.928" stroke="#4A4F3D" stroke-miterlimit="10"></path> <path d="M120.535 143.882C114.021 140.487 106.268 140.74 98.9831 141.607C91.6987 142.474 84.2939 143.87 77.0817 142.498" stroke="#4A4F3D" stroke-miterlimit="10"></path> </g> </svg> 