<?xml version="1.0" encoding="UTF-8"?> <svg xmlns="http://www.w3.org/2000/svg" width="471" height="558" viewBox="0 0 471 558" fill="none"> <path d="M455.358 328.675C482.097 310.547 470.246 202.98 451.755 192.557C433.264 182.133 353.116 200.624 338.251 185.441C323.386 170.259 424.88 189.973 430.341 169.24C435.802 148.506 386.789 90.9493 373.895 93.9177C361.002 96.8862 311.286 106.313 305.915 98.4497C300.545 90.5867 361.931 84.7404 362.429 75.2459C362.928 65.7514 323.386 -0.370563 310.062 0.762437C290.393 2.39396 229.347 21.9269 226.764 35.115C224.181 48.3031 261.117 75.9936 270.86 75.2005C280.604 74.4074 278.814 90.4054 255.882 81.8399C232.95 73.2744 212.533 44.6548 200.932 47.8499C189.33 51.045 118.426 70.0567 114.824 85.7374C111.221 101.418 188.74 131.624 192.457 140.552C196.173 149.48 184.684 166.384 159.577 147.826C134.47 129.267 92.73 97.8379 82.533 108.148C72.336 118.459 25.2485 184.512 23.7303 199.287C22.2121 214.061 83.4394 243.746 106.893 242.862C130.346 241.978 156.745 246.419 152.824 252.832C148.904 259.245 66.7163 259.63 33.1795 249.003C-0.357269 238.375 7.36979 248.051 2.97375 263.618C-1.42229 279.186 -2.12476 352.899 15.2555 354.916C32.6357 356.932 119.491 339.688 138.866 324.325C158.24 308.961 134.764 345.421 115.821 351.29C96.8768 357.159 46.1184 365.067 38.5499 382.742C30.9815 400.417 65.742 429.082 85.7054 448.003C105.669 466.924 169.004 464.25 193.703 449.906C193.703 449.906 239.295 510.748 285.136 492.96C330.977 475.172 338.07 467.037 336.688 453.101C335.305 439.165 288.807 404.088 290.824 386.708C292.84 369.327 327.896 434.973 356.538 441.93C385.18 448.887 439.519 395.205 446.521 373.316C453.523 351.426 349.4 324.279 342.466 303.772C335.532 283.265 428.642 346.713 455.358 328.675ZM195.81 273.589C194.238 274.743 192.382 275.447 190.44 275.628C185.681 276.24 180.538 276.761 176.391 274.337C175.572 273.93 174.863 273.333 174.322 272.596C173.782 271.859 173.427 271.002 173.286 270.099C173.105 267.493 175.552 265.567 177.682 264.049C183.211 260.287 189.556 261.194 195.81 263.12C196.936 263.35 197.942 263.977 198.643 264.887C199.02 265.58 199.178 266.37 199.096 267.153C199.088 268.408 198.787 269.643 198.216 270.761C197.646 271.878 196.822 272.847 195.81 273.589ZM221.688 218.752C218.205 223.217 213.472 226.546 208.092 228.314C205.418 229.163 202.578 229.35 199.815 228.861C197.053 228.371 194.45 227.22 192.23 225.504C189.171 222.966 187.358 219.273 185.002 216.078C182.373 212.452 178.838 208.94 178.657 204.431C178.588 203.639 178.771 202.846 179.178 202.165C179.541 201.643 180.13 201.303 180.538 200.782C181.738 199.377 181.376 197.225 182.101 195.525C183.257 192.738 186.792 191.967 189.783 191.605C195.402 190.857 204.625 187.775 210.063 189.634C215.05 191.81 219.71 194.67 223.909 198.131C225.274 199.478 226.274 201.149 226.817 202.988C227.36 204.827 227.428 206.773 227.013 208.645C226.164 212.426 224.326 215.914 221.688 218.752ZM305.53 326.069C305.1 326.825 304.51 327.479 303.802 327.984C303.094 328.488 302.284 328.833 301.429 328.993C296.375 330.33 290.982 328.562 286.246 326.251C277.506 321.933 269.824 315.743 263.745 308.123C262.34 306.401 260.981 304.112 261.887 302.095C262.616 300.826 263.811 299.891 265.218 299.489C275.143 295.637 286.269 299.738 293.294 307.012L300.092 314.128C302.705 316.367 304.637 319.295 305.666 322.58C305.981 323.699 305.933 324.889 305.53 325.979V326.069ZM331.43 241.072C328.562 243.336 325.099 244.721 321.46 245.06C311.739 246.601 276.14 244.335 280.672 226.773C281.079 225.432 281.82 224.216 282.825 223.238C286.904 219.159 293.271 218.706 299.004 218.956C308.984 219.546 318.76 222.038 327.805 226.297C330.336 227.23 332.488 228.975 333.923 231.26C334.563 232.949 334.656 234.796 334.188 236.541C333.721 238.285 332.716 239.839 331.317 240.981L331.43 241.072Z" fill="#A5BD7B"></path> <mask id="mask0_2829_3790" style="mask-type:luminance" maskUnits="userSpaceOnUse" x="0" y="0" width="471" height="497"> <path d="M455.362 328.675C482.101 310.547 470.25 202.98 451.759 192.557C433.268 182.133 353.12 200.624 338.255 185.441C323.39 170.259 424.884 189.973 430.345 169.24C435.806 148.506 386.793 90.9493 373.899 93.9177C361.006 96.8862 311.29 106.313 305.919 98.4497C300.549 90.5867 361.935 84.7404 362.433 75.2459C362.932 65.7514 323.39 -0.370563 310.066 0.762437C290.397 2.39396 229.351 21.9269 226.768 35.115C224.185 48.3031 261.12 75.9936 270.864 75.2005C280.608 74.4074 278.818 90.4054 255.886 81.8399C232.954 73.2744 212.537 44.6548 200.935 47.8499C189.334 51.045 118.43 70.0567 114.827 85.7374C111.224 101.418 188.744 131.624 192.461 140.552C196.177 149.48 184.688 166.384 159.581 147.826C134.474 129.267 92.7339 97.8379 82.5369 108.148C72.3399 118.459 25.2524 184.512 23.7342 199.287C22.216 214.061 83.4433 243.746 106.896 242.862C130.35 241.978 156.748 246.419 152.828 252.832C148.908 259.245 66.7202 259.63 33.1834 249.003C-0.353363 238.375 7.37369 248.051 2.97765 263.618C-1.41839 279.186 -2.12085 352.899 15.2594 354.916C32.6396 356.932 119.495 339.688 138.87 324.325C158.244 308.961 134.768 345.421 115.824 351.29C96.8807 357.159 46.1223 365.067 38.5538 382.742C30.9854 400.417 65.7459 429.082 85.7093 448.003C105.673 466.924 169.007 464.25 193.707 449.906C193.707 449.906 239.299 510.748 285.14 492.96C330.981 475.172 338.074 467.037 336.691 453.101C335.309 439.165 288.811 404.088 290.828 386.708C292.844 369.327 327.899 434.973 356.542 441.93C385.184 448.887 439.523 395.205 446.525 373.316C453.526 351.426 349.404 324.279 342.47 303.772C335.536 283.265 428.646 346.713 455.362 328.675ZM195.814 273.589C194.242 274.743 192.386 275.447 190.444 275.628C185.685 276.24 180.541 276.761 176.395 274.337C175.576 273.93 174.866 273.333 174.326 272.596C173.786 271.859 173.431 271.002 173.29 270.099C173.109 267.493 175.556 265.567 177.686 264.049C183.215 260.287 189.56 261.194 195.814 263.12C196.94 263.35 197.946 263.977 198.647 264.887C199.023 265.58 199.181 266.37 199.1 267.153C199.092 268.408 198.791 269.643 198.22 270.761C197.65 271.878 196.826 272.847 195.814 273.589ZM221.692 218.752C218.209 223.217 213.476 226.546 208.096 228.314C205.422 229.163 202.582 229.35 199.819 228.861C197.057 228.371 194.454 227.22 192.234 225.504C189.175 222.966 187.362 219.273 185.005 216.078C182.377 212.452 178.842 208.94 178.661 204.431C178.592 203.639 178.775 202.846 179.182 202.165C179.544 201.643 180.134 201.303 180.541 200.782C181.742 199.377 181.38 197.225 182.105 195.525C183.261 192.738 186.796 191.967 189.787 191.605C195.406 190.857 204.629 187.775 210.067 189.634C215.054 191.81 219.714 194.67 223.913 198.131C225.278 199.478 226.278 201.149 226.821 202.988C227.364 204.827 227.432 206.773 227.017 208.645C226.168 212.426 224.33 215.914 221.692 218.752ZM305.534 326.069C305.104 326.825 304.514 327.479 303.806 327.984C303.097 328.488 302.288 328.833 301.433 328.993C296.379 330.33 290.986 328.562 286.25 326.251C277.51 321.933 269.828 315.743 263.749 308.123C262.344 306.401 260.984 304.112 261.891 302.095C262.619 300.826 263.815 299.891 265.222 299.489C275.147 295.637 286.273 299.738 293.298 307.012L300.096 314.128C302.709 316.367 304.641 319.295 305.67 322.58C305.984 323.699 305.937 324.889 305.534 325.979V326.069ZM331.434 241.072C328.566 243.336 325.103 244.721 321.464 245.06C311.743 246.601 276.144 244.335 280.676 226.773C281.083 225.432 281.824 224.216 282.829 223.238C286.908 219.159 293.275 218.706 299.008 218.956C308.988 219.546 318.764 222.038 327.809 226.297C330.34 227.23 332.492 228.975 333.927 231.26C334.567 232.949 334.66 234.796 334.192 236.541C333.724 238.285 332.72 239.839 331.321 240.981L331.434 241.072Z" fill="white"></path> </mask> <g mask="url(#mask0_2829_3790)"> <path d="M216.23 -10.3857L292.979 70.7143" stroke="#9EAD7A" stroke-miterlimit="10"></path> <path d="M115.075 40.5083L272.63 150.477" stroke="#9EAD7A" stroke-miterlimit="10"></path> <path d="M20.9212 139.057L255.747 209.733" stroke="#9EAD7A" stroke-miterlimit="10"></path> <path d="M-21.0439 287.729C-7.44795 291.808 235.014 286.438 235.014 286.438" stroke="#9EAD7A" stroke-miterlimit="10"></path> <path d="M5.98834 429.853L202.926 362.938" stroke="#9EAD7A" stroke-miterlimit="10"></path> <path d="M211.222 407.94L327.309 518.453" stroke="#9EAD7A" stroke-miterlimit="10"></path> <path d="M222.55 322.24L452.549 437.716" stroke="#9EAD7A" stroke-miterlimit="10"></path> <path d="M249.608 241.299L542.693 278.507" stroke="#9EAD7A" stroke-miterlimit="10"></path> <path d="M262.366 175.857L437.142 126.367" stroke="#9EAD7A" stroke-miterlimit="10"></path> <path d="M296.807 57.2093L385.431 22.6074" stroke="#9EAD7A" stroke-miterlimit="10"></path> </g> <g style="mix-blend-mode:multiply" opacity="0.21"> <path d="M290.824 145.107C297.622 148.71 309.519 143.679 318.537 141.323C327.941 138.853 338.682 137.81 346.749 143.271C347.128 144.905 347.056 146.611 346.541 148.208C346.026 149.804 345.088 151.23 343.826 152.335C341.306 154.491 338.431 156.193 335.328 157.366C320.35 164.164 302.268 170.962 288.649 179.731C275.03 188.501 274.373 207.444 269.071 220.972C266.283 228.065 261.412 235.294 263.474 242.635C268.414 260.22 302.947 252.379 307.411 270.099L269.66 272.365C261.004 272.864 247.589 284.851 248.45 295.025C248.609 297.11 249.628 299.014 249.968 301.053C250.852 306.491 246.819 311.454 245.821 316.915C244.439 324.551 249.424 332.097 255.792 336.493C262.159 340.889 269.841 342.906 277.092 345.557C284.344 348.208 291.731 351.947 295.9 358.473C283.686 362.326 272.447 349.409 259.644 348.208C244.213 346.69 238.729 360.467 236.304 373.406C235.478 377.001 235.377 380.724 236.008 384.358C236.638 387.992 237.987 391.464 239.975 394.571C243.261 399.103 248.541 402.592 250.014 408.167C251.758 414.761 247.158 421.4 241.833 425.683C236.508 429.966 230.163 433.138 226.107 438.644C224.453 440.91 223.252 443.471 221.575 445.692C218.906 448.997 215.235 451.345 211.116 452.383C206.996 453.421 202.651 453.093 198.734 451.447C186.434 445.99 175.101 438.575 165.175 429.49C158.716 423.621 148.995 418.862 141.608 423.485C135.807 417.616 136.691 407.374 141.608 400.825C146.525 394.276 154.411 390.469 162.183 387.727C167.939 385.688 174.057 383.898 178.476 379.683C180.79 377.303 182.738 374.592 184.254 371.639C193.936 354.349 200.155 335.338 202.564 315.669C203.197 312.637 202.929 309.486 201.793 306.605C198.281 299.807 188.197 301.03 180.629 302.073C166.787 303.886 152.728 301.234 140.498 294.504C152.054 285.848 167.69 285.44 181.966 284.058C192.706 282.948 203.561 280.478 212.353 273.884C225.088 264.321 222.232 255.302 223.116 240.755C224 226.207 233.291 213.177 236.486 198.788C237.913 192.444 237.958 178.53 231.954 174.338C230.069 173.42 228.453 172.031 227.263 170.305C226.612 168.346 226.573 166.236 227.15 164.255C227.846 159.298 227.377 154.247 225.78 149.503C224.183 144.759 221.502 140.453 217.95 136.927C215.684 134.661 212.965 132.757 210.721 130.423C208.056 127.598 206.043 124.222 204.825 120.533C203.608 116.845 203.215 112.934 203.674 109.077C203.673 108.528 203.797 107.985 204.036 107.491C204.276 106.996 204.624 106.562 205.056 106.222C205.641 106.016 206.266 105.952 206.881 106.035C207.495 106.118 208.082 106.345 208.591 106.698C215.432 110.176 221.799 114.517 227.535 119.614C230.571 122.334 233.744 125.393 237.8 125.823C241.856 126.254 246.071 123.557 249.379 120.815C258.443 113.202 267.213 104.206 275.687 95.8893C277.395 94.3754 278.916 92.6639 280.219 90.7908C281.617 88.2136 282.733 85.494 283.55 82.6786C286.38 74.9061 291.099 67.9598 297.282 62.4658C301.678 85.1258 285.159 109.485 285.612 133.006C285.544 139.759 287.629 143.407 290.824 145.107Z" fill="#A5BD7B"></path> </g> <path d="M303.062 37.2227C245.71 185.26 152.781 552.216 152.781 552.216L181.967 557.904L303.062 37.2227Z" fill="#DCE8C0"></path> </svg> 