<?xml version="1.0" encoding="UTF-8"?> <svg xmlns="http://www.w3.org/2000/svg" width="221" height="717" viewBox="0 0 221 717" fill="none"> <path d="M175.784 601.185C174.606 601.525 172.906 600.437 169.122 598.647C163.299 595.883 154.325 587.634 152.218 581.426C150.11 575.217 152.603 568.192 155.096 561.961C149.365 566.258 144.633 571.747 141.228 578.049C131.711 571.387 125.615 561.009 119.791 550.857L108.461 531.098C108.098 530.742 107.826 530.303 107.667 529.82C107.509 529.336 107.469 528.822 107.551 528.319C107.633 527.817 107.835 527.342 108.14 526.935C108.444 526.527 108.842 526.198 109.3 525.977C114.262 522.079 119.451 518.295 124.142 514.125C112.2 514.125 102.887 515.009 92.9393 507.463C89.9708 505.197 84.9856 502.931 82.5837 500.121C79.1167 496.133 78.7088 489.018 76.9414 484.259C75.4948 479.53 72.6895 475.33 68.8744 472.182C68.4892 471.91 68.0813 471.593 68.036 471.139C68.0483 470.911 68.1092 470.687 68.2147 470.484C68.3202 470.281 68.4678 470.103 68.6477 469.961C74.5167 463.888 80.3629 457.747 85.8919 451.493C83.354 449.839 60.3089 448.593 60.3542 449.227C58.3148 427.496 44.4921 409.096 37.3316 388.816C36.6354 387.292 36.3841 385.604 36.6064 383.944C37.1462 382.343 38.1094 380.917 39.3937 379.82C42.9513 376.239 63.3907 360.015 62.1897 355.143C60.4675 348.05 40.7759 357.25 36.3799 359.516C34.6426 356.495 32.9054 353.413 31.1681 350.271C43.8749 339.782 57.2003 330.066 71.0724 321.175C66.1098 324.303 36.6291 327.973 31.236 324.824C22.3986 319.793 21.4923 294.233 19.4303 284.829C14.1958 260.855 9.05194 236.835 6.78594 212.407C6.40268 210.352 6.67215 208.229 7.55644 206.335C11.4086 200.058 29.6951 193.69 36.6064 192.897L9.05194 188.75C6.93701 175.744 4.84469 162.737 2.77508 149.73C2.04974 146.683 2.04974 143.509 2.77508 140.462C4.19994 137.093 6.619 134.239 9.70903 132.282C15.3598 128.03 21.499 124.47 27.9957 121.677L2.91103 125.393C3.77211 113.451 -1.93818 94.8927 1.23422 84.0612C3.0017 78.079 25.843 63.3727 31.7573 66.1372C25.9563 63.418 20.2762 60.442 14.7169 57.2092C13.2772 56.5646 12.1185 55.422 11.4539 53.9914C11.154 52.4399 11.4193 50.8323 12.2017 49.4594C18.9997 33.4615 24.6194 15.0842 33.8647 0.491198C34.7937 -0.959042 63.1641 32.4418 62.2124 33.5294C55.9132 38.4459 48.4071 41.5767 40.4814 42.5934C46.5521 43.421 52.7102 43.3752 58.768 42.4575C66.8349 40.826 66.9709 40.3501 71.4575 47.3068C74.8123 52.7196 78.7482 57.7497 83.1954 62.3077C89.7441 68.7884 92.894 78.8948 101.12 83.0642C96.1929 88.1793 90.1958 92.1412 83.558 94.6662C89.1294 94.982 94.6894 93.8746 99.7146 91.4484C112.812 104.206 122.375 120.113 131.733 135.817C128.502 139.244 124.985 142.39 121.219 145.221C122.737 144.35 124.429 143.829 126.174 143.696C127.918 143.563 129.67 143.82 131.303 144.45C132.105 144.72 132.808 145.225 133.319 145.9C133.723 146.866 133.848 147.926 133.682 148.959C133.808 153.115 135.253 157.122 137.806 160.403C132.093 166.713 124.986 171.601 117.049 174.679C123.115 175.011 129.198 174.638 135.177 173.568C137.036 173.228 141.976 171.03 143.743 171.71C145.51 172.39 146.666 177.148 147.391 178.667C154.37 193.305 162.324 207.105 167.468 222.401C161.029 230.511 152.552 236.766 142.905 240.529L170.822 238.965C171.371 238.872 171.936 238.985 172.408 239.282C172.798 239.703 173.024 240.25 173.042 240.823C173.405 243.429 173.768 246.035 174.107 248.641C163.745 256.977 151.725 263.01 138.848 266.338C153.943 267.76 169.153 267.418 184.168 265.319C185.166 273.839 188.7 281.317 190.287 289.542C192.417 300.26 196.79 310.253 200.574 320.473C196.375 325.789 191.208 330.264 185.347 333.661C190.884 332.856 196.246 331.125 201.209 328.54C204.091 338.113 205.758 348.01 206.171 357.998C196.02 366.065 185.052 374.449 172.181 375.492C184.315 381.356 198.166 382.612 211.156 379.026C216.624 397.001 219.389 415.688 219.359 434.475C219.435 435.587 219.264 436.701 218.861 437.739C218.383 438.619 217.727 439.391 216.935 440.005C212.551 443.784 207.595 446.844 202.251 449.069C198.399 450.677 192.417 450.995 189.471 454.008C192.009 453.782 194.569 454.326 197.085 454.122C199.928 453.88 202.747 453.41 205.514 452.717C210.457 451.597 215.015 449.189 218.725 445.737L220.402 447.188C219.556 452.581 218.71 457.974 217.864 463.367C217.849 463.746 217.731 464.114 217.524 464.432C217.194 464.765 216.778 465.001 216.323 465.112C210.129 467.106 203.936 469.07 197.742 471.003C192.122 472.748 182.945 476.623 177.031 475.535C182.11 479.1 187.98 481.375 194.134 482.164C200.289 482.954 206.543 482.234 212.357 480.067C209.91 496.292 215.711 530.395 199.6 540.66C191.2 545.109 181.64 546.88 172.204 545.736L192.417 549.702C193.16 549.802 193.876 550.048 194.524 550.427C199.305 553.644 182.605 587.566 180.384 592.484C177.869 598.285 177.212 600.755 175.784 601.185Z" fill="#7A8C5B"></path> <mask id="mask0_2829_3682" style="mask-type:luminance" maskUnits="userSpaceOnUse" x="0" y="0" width="221" height="602"> <path d="M175.784 601.185C174.606 601.525 172.906 600.437 169.122 598.647C163.299 595.883 154.325 587.634 152.218 581.426C150.11 575.217 152.603 568.192 155.096 561.961C149.365 566.258 144.633 571.747 141.228 578.049C131.711 571.387 125.615 561.009 119.791 550.857L108.461 531.098C108.098 530.742 107.826 530.303 107.667 529.82C107.509 529.336 107.469 528.822 107.551 528.319C107.633 527.817 107.835 527.342 108.14 526.935C108.444 526.527 108.842 526.198 109.3 525.977C114.262 522.079 119.451 518.295 124.142 514.125C112.2 514.125 102.887 515.009 92.9393 507.463C89.9708 505.197 84.9856 502.931 82.5837 500.121C79.1167 496.133 78.7088 489.018 76.9414 484.259C75.4948 479.53 72.6895 475.33 68.8744 472.182C68.4892 471.91 68.0813 471.593 68.036 471.139C68.0483 470.911 68.1092 470.687 68.2147 470.484C68.3202 470.281 68.4678 470.103 68.6477 469.961C74.5167 463.888 80.3629 457.747 85.8919 451.493C83.354 449.839 60.3089 448.593 60.3542 449.227C58.3148 427.496 44.4921 409.096 37.3316 388.816C36.6354 387.292 36.3841 385.604 36.6064 383.944C37.1462 382.343 38.1094 380.917 39.3937 379.82C42.9513 376.239 63.3907 360.015 62.1897 355.143C60.4675 348.05 40.7759 357.25 36.3799 359.516C34.6426 356.495 32.9054 353.413 31.1681 350.271C43.8749 339.782 57.2003 330.066 71.0724 321.175C66.1098 324.303 36.6291 327.973 31.236 324.824C22.3986 319.793 21.4923 294.233 19.4303 284.829C14.1958 260.855 9.05194 236.835 6.78594 212.407C6.40268 210.352 6.67215 208.229 7.55644 206.335C11.4086 200.058 29.6951 193.69 36.6064 192.897L9.05194 188.75C6.93701 175.744 4.84469 162.737 2.77508 149.73C2.04974 146.683 2.04974 143.509 2.77508 140.462C4.19994 137.093 6.619 134.239 9.70903 132.282C15.3598 128.03 21.499 124.47 27.9957 121.677L2.91103 125.393C3.77211 113.451 -1.93818 94.8927 1.23422 84.0612C3.0017 78.079 25.843 63.3727 31.7573 66.1372C25.9563 63.418 20.2762 60.442 14.7169 57.2092C13.2772 56.5646 12.1185 55.422 11.4539 53.9914C11.154 52.4399 11.4193 50.8323 12.2017 49.4594C18.9997 33.4615 24.6194 15.0842 33.8647 0.491198C34.7937 -0.959042 63.1641 32.4418 62.2124 33.5294C55.9132 38.4459 48.4071 41.5767 40.4814 42.5934C46.5521 43.421 52.7102 43.3752 58.768 42.4575C66.8349 40.826 66.9709 40.3501 71.4575 47.3068C74.8123 52.7196 78.7482 57.7497 83.1954 62.3077C89.7441 68.7884 92.894 78.8948 101.12 83.0642C96.1929 88.1793 90.1958 92.1412 83.558 94.6662C89.1294 94.982 94.6894 93.8746 99.7146 91.4484C112.812 104.206 122.375 120.113 131.733 135.817C128.502 139.244 124.985 142.39 121.219 145.221C122.737 144.35 124.429 143.829 126.174 143.696C127.918 143.563 129.67 143.82 131.303 144.45C132.105 144.72 132.808 145.225 133.319 145.9C133.723 146.866 133.848 147.926 133.682 148.959C133.808 153.115 135.253 157.122 137.806 160.403C132.093 166.713 124.986 171.601 117.049 174.679C123.115 175.011 129.198 174.638 135.177 173.568C137.036 173.228 141.976 171.03 143.743 171.71C145.51 172.39 146.666 177.148 147.391 178.667C154.37 193.305 162.324 207.105 167.468 222.401C161.029 230.511 152.552 236.766 142.905 240.529L170.822 238.965C171.371 238.872 171.936 238.985 172.408 239.282C172.798 239.703 173.024 240.25 173.042 240.823C173.405 243.429 173.768 246.035 174.107 248.641C163.745 256.977 151.725 263.01 138.848 266.338C153.943 267.76 169.153 267.418 184.168 265.319C185.166 273.839 188.7 281.317 190.287 289.542C192.417 300.26 196.79 310.253 200.574 320.473C196.375 325.789 191.208 330.264 185.347 333.661C190.884 332.856 196.246 331.125 201.209 328.54C204.091 338.113 205.758 348.01 206.171 357.998C196.02 366.065 185.052 374.449 172.181 375.492C184.315 381.356 198.166 382.612 211.156 379.026C216.624 397.001 219.389 415.688 219.359 434.475C219.435 435.587 219.264 436.701 218.861 437.739C218.383 438.619 217.727 439.391 216.935 440.005C212.551 443.784 207.595 446.844 202.251 449.069C198.399 450.677 192.417 450.995 189.471 454.008C192.009 453.782 194.569 454.326 197.085 454.122C199.928 453.88 202.747 453.41 205.514 452.717C210.457 451.597 215.015 449.189 218.725 445.737L220.402 447.188C219.556 452.581 218.71 457.974 217.864 463.367C217.849 463.746 217.731 464.114 217.524 464.432C217.194 464.765 216.778 465.001 216.323 465.112C210.129 467.106 203.936 469.07 197.742 471.003C192.122 472.748 182.945 476.623 177.031 475.535C182.11 479.1 187.98 481.375 194.134 482.164C200.289 482.954 206.543 482.234 212.357 480.067C209.91 496.292 215.711 530.395 199.6 540.66C191.2 545.109 181.64 546.88 172.204 545.736L192.417 549.702C193.16 549.802 193.876 550.048 194.524 550.427C199.305 553.644 182.605 587.566 180.384 592.484C177.869 598.285 177.212 600.755 175.784 601.185Z" fill="white"></path> </mask> <g mask="url(#mask0_2829_3682)"> <path d="M162.121 568.646L223.575 569.212" stroke="#717C57" stroke-miterlimit="10"></path> <path d="M162.961 522.419L250.361 503.634" stroke="#717C57" stroke-miterlimit="10"></path> <path d="M148.82 471.57L234.338 429.241" stroke="#717C57" stroke-miterlimit="10"></path> <path d="M134.861 420.767L236.037 343.405" stroke="#717C57" stroke-miterlimit="10"></path> <path d="M114.038 343.768L194.254 262.939" stroke="#717C57" stroke-miterlimit="10"></path> <path d="M91.5341 258L171.479 156.188" stroke="#717C57" stroke-miterlimit="10"></path> <path d="M73.2031 184.967L136.583 90.6558" stroke="#717C57" stroke-miterlimit="10"></path> <path d="M62.0548 137.924L88.3857 24.4429" stroke="#717C57" stroke-miterlimit="10"></path> <path d="M49.2737 78.2606L32.7319 -24.5479" stroke="#717C57" stroke-miterlimit="10"></path> <path d="M-7.21716 65.0273L56.548 117.236" stroke="#717C57" stroke-miterlimit="10"></path> <path d="M-15.7372 142.683L68.1274 163.893" stroke="#717C57" stroke-miterlimit="10"></path> <path d="M-38.6918 178.146L78.8456 225.959" stroke="#717C57" stroke-miterlimit="10"></path> <path d="M-15.9185 259.337L96.9963 297.61" stroke="#717C57" stroke-miterlimit="10"></path> <path d="M6.69623 365.612L117.345 392.985" stroke="#717C57" stroke-miterlimit="10"></path> <path d="M41.9108 451.358L132.913 441.727" stroke="#717C57" stroke-miterlimit="10"></path> <path d="M55.5508 510.818L148.547 490.514" stroke="#717C57" stroke-miterlimit="10"></path> <path d="M104.927 567.694L155.731 536.242" stroke="#717C57" stroke-miterlimit="10"></path> </g> <g style="mix-blend-mode:multiply" opacity="0.21"> <path d="M178.027 479.547C175.036 468.489 171.659 457.295 172.158 445.851C172.475 438.849 174.22 431.983 174.424 424.981C174.832 414.195 171.682 403.59 168.578 393.257C162.573 373.203 156.477 352.99 146.462 334.636C143.131 328.495 139.301 322.422 138.191 315.534C136.831 307.036 139.822 298.335 138.735 289.814C137.194 277.714 127.971 268.219 122.397 257.365C117.978 248.709 115.893 239.124 113.514 229.697C99.1928 173.047 73.6323 119.842 48.2305 67.1572C54.4393 100.286 59.1829 133.664 62.461 167.292C65.2029 195.322 66.9931 223.466 71.1398 251.315C75.3826 279.059 82.1248 306.362 91.2845 332.891C93.4145 339.055 95.7032 345.377 95.2727 351.858C94.8421 358.338 91.9643 363.822 90.7407 369.986C89.0865 378.687 90.9899 387.615 92.8934 396.271C96.6096 413.243 100.326 430.261 105.447 446.826C115.032 477.847 133.568 531.143 161.009 551.062C192.167 573.722 181.811 493.664 178.027 479.547Z" fill="#7A8C5B"></path> </g> <path d="M46.7591 62.7158C32.4153 49.6863 202.932 716.751 202.932 716.751L216.528 710.271C216.528 710.271 54.6901 69.899 46.7591 62.7158Z" fill="#ADB797"></path> </svg> 