<?xml version="1.0" encoding="UTF-8"?> <svg xmlns="http://www.w3.org/2000/svg" width="282" height="312" viewBox="0 0 282 312" fill="none"> <path d="M159.267 187.539L122.037 148.382C83.0844 174.555 44.993 165.604 22.333 120.148C57.4106 130.866 73.2726 121.1 109.121 136.214C95.0715 121.123 79.6628 100.502 59.8579 94.1797C24.7349 78.3177 10.1192 35.2637 0.103516 0.0727539C12.8158 15.255 27.5901 28.6017 41.526 42.6736C57.6423 58.1176 70.381 76.7357 78.9377 97.3521C82.4273 105.804 90.381 112.444 97.5415 119.287C81.181 81.3542 81.1357 57.4025 83.7416 15.8441C111.251 45.3021 133.254 67.9621 114.333 107.005C105.427 126.81 105.586 126.833 120.337 142.151C130.24 152.439 140.006 162.84 150.793 172.697C131.373 140.225 146.6 105.51 149.252 70.7266C166.904 100.502 185.1 140.021 161.375 171.654C157.659 177.047 157.273 180.877 162.734 185.93C172.591 194.994 181.451 205.282 191.784 214.414C179.525 181.103 201.166 151.623 204.542 118.811C227.61 144.417 226.046 189.986 202.049 211.264C196.43 216.249 196.271 219.739 201.619 225.132C216.62 240.291 231.077 255.949 245.987 271.585C244.401 245.684 246.644 224.203 260.082 201.996C289.54 267.121 240.503 261.637 257.408 282.62C265.316 291.684 273.27 300.907 281.269 310.039L279.728 311.398C264.432 295.332 248.978 279.403 233.977 263.087C229.445 258.17 226.817 258.215 221.56 262.498C201.483 280.218 158.429 269.863 141.57 252.097C155.891 257.468 166.337 249.423 177.826 247.565C189.315 245.707 201.256 244.144 212.722 242.489L173.86 201.701C148.164 234.989 101.915 223.274 74.5416 197.963C103.864 199.254 130.195 183.211 159.267 187.539Z" fill="#323824"></path> <mask id="mask0_2829_3712" style="mask-type:luminance" maskUnits="userSpaceOnUse" x="0" y="0" width="282" height="312"> <path d="M159.267 187.539L122.037 148.382C83.0844 174.555 44.993 165.604 22.333 120.148C57.4106 130.866 73.2726 121.1 109.121 136.214C95.0715 121.123 79.6628 100.502 59.8579 94.1797C24.7349 78.3177 10.1192 35.2637 0.103516 0.0727539C12.8158 15.255 27.5901 28.6017 41.526 42.6736C57.6423 58.1176 70.381 76.7357 78.9377 97.3521C82.4273 105.804 90.381 112.444 97.5415 119.287C81.181 81.3542 81.1357 57.4025 83.7416 15.8441C111.251 45.3021 133.254 67.9621 114.333 107.005C105.427 126.81 105.586 126.833 120.337 142.151C130.24 152.439 140.006 162.84 150.793 172.697C131.373 140.225 146.6 105.51 149.252 70.7266C166.904 100.502 185.1 140.021 161.375 171.654C157.659 177.047 157.273 180.877 162.734 185.93C172.591 194.994 181.451 205.282 191.784 214.414C179.525 181.103 201.166 151.623 204.542 118.811C227.61 144.417 226.046 189.986 202.049 211.264C196.43 216.249 196.271 219.739 201.619 225.132C216.62 240.291 231.077 255.949 245.987 271.585C244.401 245.684 246.644 224.203 260.082 201.996C289.54 267.121 240.503 261.637 257.408 282.62C265.316 291.684 273.27 300.907 281.269 310.039L279.728 311.398C264.432 295.332 248.978 279.403 233.977 263.087C229.445 258.17 226.817 258.215 221.56 262.498C201.483 280.218 158.429 269.863 141.57 252.097C155.891 257.468 166.337 249.423 177.826 247.565C189.315 245.707 201.256 244.144 212.722 242.489L173.86 201.701C148.164 234.989 101.915 223.274 74.5416 197.963C103.864 199.254 130.195 183.211 159.267 187.539Z" fill="white"></path> </mask> <g mask="url(#mask0_2829_3712)"> <path d="M-8.89252 -11.3027C3.86506 20.7612 30.9664 44.4635 54.7821 69.4575C60.3356 74.8206 65.0762 80.9659 68.8539 87.6988C72.6454 94.5131 73.6213 102.54 71.5732 110.064" stroke="#4A4F3D" stroke-miterlimit="10"></path> <path d="M78.3477 4.15137C76.6482 12.7848 81.3615 21.2596 85.8028 28.8734C91.3319 38.3226 96.7476 48.1117 98.651 58.8979C101.166 72.9924 97.4727 87.6081 99.784 101.725C100.95 108.645 103.512 115.255 107.314 121.153C111.116 127.052 116.079 132.114 121.9 136.033" stroke="#4A4F3D" stroke-miterlimit="10"></path> <path d="M91.5371 9.36328C98.3351 18.6312 105.382 28.1937 108.509 39.3198C111.886 51.3749 110.413 64.2458 111.365 76.6635C112.484 91.303 116.949 105.49 124.417 118.131" stroke="#4A4F3D" stroke-miterlimit="10"></path> <path d="M12.7474 110.902C21.1543 120.873 29.8331 130.798 40.5286 138.253C51.2241 145.708 64.2083 150.58 77.1699 149.266C80.9104 148.602 84.701 148.261 88.4999 148.246C100.056 149.039 107.987 159.871 114.242 169.66" stroke="#4A4F3D" stroke-miterlimit="10"></path> <path d="M17.1442 100.185C28.9512 117.665 46.9138 130.053 67.4494 134.877C78.7794 137.46 90.7439 137.778 101.032 143.08C109.62 147.499 116.168 154.999 122.468 162.318" stroke="#4A4F3D" stroke-miterlimit="10"></path> <path d="M167.425 180.809C155.891 176.277 149.864 163.293 148.957 150.966C148.051 138.639 151.087 126.402 151.948 114.075C153.435 91.996 147.967 70.0056 136.313 51.1938" stroke="#4A4F3D" stroke-miterlimit="10"></path> <path d="M175.174 171.314C167.787 163.27 165.339 151.759 165.611 140.836C165.883 129.914 168.489 119.219 169.939 108.41C171.39 97.6012 171.571 86.1806 167.175 76.1875" stroke="#4A4F3D" stroke-miterlimit="10"></path> <path d="M175.695 211.626C171.004 200.931 158.292 195.764 146.599 195.946C134.907 196.127 123.781 200.478 112.609 203.99C101.891 207.298 90.7652 209.813 79.5712 209.156C68.3771 208.499 57.0698 204.398 49.4787 196.127" stroke="#4A4F3D" stroke-miterlimit="10"></path> <path d="M170.347 222.594C163.821 214.459 152.922 210.811 142.498 210.834C132.074 210.856 121.945 214.051 112.088 217.496C102.231 220.94 92.3968 224.702 82.0411 225.857" stroke="#4A4F3D" stroke-miterlimit="10"></path> <path d="M211.772 226.491C199.445 225.086 191.378 211.943 190.743 199.571C190.109 187.199 194.913 175.325 198.606 163.496C205.948 140.021 209.166 114.664 203.387 90.7578" stroke="#4A4F3D" stroke-miterlimit="10"></path> <path d="M211.318 213.621C204.52 208.159 203.976 198.098 205.63 189.624C208.259 176.254 215.057 164.131 220.087 151.487C225.118 138.842 228.449 124.499 223.826 111.696" stroke="#4A4F3D" stroke-miterlimit="10"></path> <path d="M231.575 273.239C221.877 262.951 210.501 251.893 196.339 251.871C185.87 251.871 176.557 258.011 166.881 262.136C149.974 269.294 131.128 270.453 113.471 265.421" stroke="#4A4F3D" stroke-miterlimit="10"></path> <path d="M257.839 280.581C247.506 271.653 246.872 255.655 250.724 242.512C254.576 229.37 262.054 217.586 265.249 204.262C267.931 193.254 267.665 181.734 264.479 170.861" stroke="#4A4F3D" stroke-miterlimit="10"></path> <path d="M259.606 271.041C255.301 268.775 255.074 262.86 255.981 258.124C257.514 249.989 260.401 242.168 264.524 234.989C267.093 231.022 269.409 226.897 271.458 222.639C273.488 218.314 273.788 213.377 272.296 208.839" stroke="#4A4F3D" stroke-miterlimit="10"></path> <path d="M226.772 270.927C214.535 264.537 199.919 265.013 186.21 266.645C172.501 268.276 158.565 270.905 145.014 268.344" stroke="#4A4F3D" stroke-miterlimit="10"></path> </g> </svg> 