<?xml version="1.0" encoding="UTF-8"?> <svg xmlns="http://www.w3.org/2000/svg" width="282" height="312" viewBox="0 0 282 312" fill="none"> <path d="M159.517 188.013L122.173 148.834C83.2204 175.006 45.1289 166.078 22.4689 120.6C57.5466 131.34 73.3859 121.574 109.257 136.688C95.1848 121.574 79.7987 100.953 59.9939 94.6539C24.8709 78.7919 10.1419 35.7379 0.216797 0.546875C12.9291 15.7291 27.7261 29.0758 41.6393 43.125C57.7867 58.5658 70.5496 77.1932 79.1189 97.8262C82.6086 106.278 90.449 112.895 97.7228 119.761C81.3623 81.8283 81.3169 57.8767 83.9228 16.2956C111.432 45.7536 133.412 68.4136 114.514 107.479C105.586 127.262 105.767 127.307 120.519 142.625C130.399 152.913 140.188 163.291 150.951 173.148C131.554 140.676 146.759 105.961 149.41 71.1781C167.062 100.953 185.258 140.472 161.533 172.083C157.817 177.476 157.454 181.306 162.916 186.382C172.773 195.446 181.633 205.711 191.966 214.843C179.707 181.555 201.324 152.074 204.723 119.24C227.791 144.868 226.228 190.438 202.208 211.715C196.588 216.701 196.452 220.168 201.778 225.561C216.801 240.743 231.235 256.401 246.168 272.014C244.56 246.113 246.803 224.632 260.24 202.425C289.698 267.572 240.662 262.066 257.566 283.072C265.497 292.136 273.428 301.336 281.427 310.49L279.886 311.85C264.614 295.761 249.137 279.854 234.136 263.516C229.604 258.599 226.998 258.667 221.718 262.927C201.664 280.67 158.61 270.292 141.729 252.526C156.05 257.919 166.519 249.875 178.098 247.994C189.677 246.113 201.506 244.572 212.994 242.918L174.291 202.085C148.594 235.372 102.368 223.68 74.9948 198.369C104.045 199.728 130.444 183.662 159.517 188.013Z" fill="#323824"></path> <mask id="mask0_2829_4008" style="mask-type:luminance" maskUnits="userSpaceOnUse" x="0" y="0" width="282" height="312"> <path d="M159.515 188.013L122.171 148.834C83.2184 175.006 45.127 166.078 22.467 120.6C57.5447 131.34 73.384 121.574 109.255 136.688C95.1829 121.574 79.7968 100.953 59.9919 94.6539C24.8689 78.7919 10.1399 35.7379 0.214844 0.546875C12.9271 15.7291 27.7241 29.0758 41.6374 43.125C57.7848 58.5658 70.5477 77.1932 79.117 97.8262C82.6066 106.278 90.447 112.895 97.7209 119.761C81.3604 81.8283 81.315 57.8767 83.9209 16.2956C111.43 45.7536 133.41 68.4136 114.512 107.479C105.584 127.262 105.765 127.307 120.517 142.625C130.397 152.913 140.186 163.291 150.949 173.148C131.552 140.676 146.757 105.961 149.408 71.1781C167.06 100.953 185.256 140.472 161.531 172.083C157.815 177.476 157.453 181.306 162.914 186.382C172.771 195.446 181.631 205.711 191.964 214.843C179.705 181.555 201.322 152.074 204.721 119.24C227.789 144.868 226.226 190.438 202.206 211.715C196.586 216.701 196.45 220.168 201.776 225.561C216.799 240.743 231.233 256.401 246.166 272.014C244.558 246.113 246.801 224.632 260.238 202.425C289.696 267.572 240.66 262.066 257.564 283.072C265.495 292.136 273.427 301.336 281.426 310.49L279.884 311.85C264.612 295.761 249.135 279.854 234.134 263.516C229.602 258.599 226.996 258.667 221.716 262.927C201.662 280.67 158.608 270.292 141.727 252.526C156.048 257.919 166.517 249.875 178.096 247.994C189.675 246.113 201.504 244.572 212.992 242.918L174.289 202.085C148.593 235.372 102.366 223.68 74.9928 198.369C104.043 199.728 130.442 183.662 159.515 188.013Z" fill="white"></path> </mask> <g mask="url(#mask0_2829_4008)"> <path d="M-8.57623 -10.8511C4.20401 21.2355 31.2827 44.9152 55.121 69.9091C60.6675 75.2785 65.4073 81.4227 69.1929 88.1505C72.9781 94.9756 73.9458 103.01 71.8895 110.539" stroke="#4A4F3D" stroke-miterlimit="10"></path> <path d="M78.5747 4.60303C76.8752 13.2591 81.6112 21.7113 86.0525 29.3251C91.5589 38.7743 96.9746 48.5861 98.9007 59.3496C101.393 73.4441 97.7223 88.0598 100.011 102.2C101.19 109.117 103.762 115.724 107.572 121.617C111.382 127.511 116.349 132.569 122.173 136.484" stroke="#4A4F3D" stroke-miterlimit="10"></path> <path d="M91.7851 9.76953C98.5831 19.0601 105.63 28.6227 108.735 39.7261C112.111 51.7812 110.638 64.652 111.59 77.0924C112.72 91.7045 117.193 105.861 124.665 118.47" stroke="#4A4F3D" stroke-miterlimit="10"></path> <path d="M12.9736 111.376C21.3805 121.347 30.082 131.249 40.7548 138.727C51.4277 146.205 64.4345 151.054 77.396 149.74C81.1368 149.079 84.9272 148.737 88.726 148.72C100.305 149.513 108.236 160.345 114.468 170.111" stroke="#4A4F3D" stroke-miterlimit="10"></path> <path d="M17.3922 100.658C29.217 118.166 47.2155 130.564 67.788 135.373C79.118 137.979 91.1052 138.296 101.37 143.576C109.981 148.108 116.507 155.518 122.829 162.837" stroke="#4A4F3D" stroke-miterlimit="10"></path> <path d="M167.674 181.26C156.14 176.842 150.09 163.744 149.183 151.44C148.277 139.135 151.449 126.876 152.197 114.549C153.676 92.4604 148.2 70.463 136.539 51.645" stroke="#4A4F3D" stroke-miterlimit="10"></path> <path d="M175.425 171.789C168.038 163.744 165.59 152.21 165.84 141.311C166.089 130.411 168.74 119.693 170.19 108.862C171.641 98.0302 171.822 86.6322 167.426 76.6392" stroke="#4A4F3D" stroke-miterlimit="10"></path> <path d="M175.945 212.078C171.231 201.382 158.519 196.216 146.849 196.397C135.179 196.578 124.031 200.929 112.859 204.464C102.164 207.772 91.0149 210.288 79.8209 209.631C68.6268 208.973 57.3195 204.849 49.6604 196.556" stroke="#4A4F3D" stroke-miterlimit="10"></path> <path d="M170.596 223.045C164.07 214.91 153.171 211.285 142.747 211.285C132.323 211.285 122.172 214.502 112.337 217.947C102.503 221.391 92.6457 225.153 82.2674 226.331" stroke="#4A4F3D" stroke-miterlimit="10"></path> <path d="M211.998 226.943C199.693 225.56 191.603 212.418 190.992 200.045C190.38 187.673 195.161 175.776 198.855 163.971C206.197 140.495 209.414 115.138 203.613 91.2319" stroke="#4A4F3D" stroke-miterlimit="10"></path> <path d="M211.542 214.072C204.744 208.611 204.201 198.572 205.877 190.097C208.483 176.728 215.281 164.605 220.334 151.938C225.388 139.271 228.673 124.973 224.051 112.147" stroke="#4A4F3D" stroke-miterlimit="10"></path> <path d="M231.8 273.713C222.102 263.425 210.727 252.345 196.587 252.345C186.095 252.345 176.782 258.463 167.129 262.587C150.227 269.76 131.381 270.935 113.719 265.918" stroke="#4A4F3D" stroke-miterlimit="10"></path> <path d="M258.132 281.032C247.799 272.104 247.164 256.106 251.016 242.986C254.869 229.865 262.347 218.06 265.519 204.736C268.209 193.722 267.951 182.194 264.771 171.312" stroke="#4A4F3D" stroke-miterlimit="10"></path> <path d="M259.855 271.515C255.526 269.362 255.322 263.312 256.229 258.576C257.755 250.438 260.643 242.617 264.772 235.44C267.338 231.476 269.647 227.351 271.683 223.09C273.726 218.777 274.026 213.842 272.521 209.313" stroke="#4A4F3D" stroke-miterlimit="10"></path> <path d="M227.066 271.334C214.807 264.944 200.214 265.419 186.505 267.051C172.795 268.683 158.859 271.311 145.286 268.728" stroke="#4A4F3D" stroke-miterlimit="10"></path> </g> </svg> 