<?xml version="1.0" encoding="UTF-8"?> <svg xmlns="http://www.w3.org/2000/svg" width="452" height="369" viewBox="0 0 452 369" fill="none"> <path d="M180.492 207.728L237.437 158.828C203.877 102.948 218.969 50.6717 283.618 22.528C266.26 70.4312 278.678 93.0911 255.202 141.787C277.16 123.32 306.821 103.266 316.973 76.4134C341.491 28.8274 402.197 11.5605 451.709 0.117188C429.752 16.6816 410.196 36.2599 389.712 54.5012C367.169 75.8094 340.448 92.2061 311.24 102.654C299.253 106.914 289.509 117.473 279.516 126.923C333.288 106.891 366.508 108.523 423.996 115.049C381.305 151.146 348.289 180.06 295.378 151.078C268.549 137.323 268.503 137.482 246.206 156.924C231.25 169.931 216.159 182.779 201.724 197.01C248.132 172.379 295.197 195.922 343.191 202.04C300.658 224.428 244.552 246.885 202.359 211.762C195.13 206.233 189.851 205.439 182.441 212.668C169.094 225.697 154.32 237.277 140.905 250.941C187.97 236.302 227.33 268.366 272.628 275.368C235.465 305.551 172.38 300.294 144.553 265.398C138.027 257.263 133.223 256.81 125.36 263.834C103.267 283.594 80.516 302.605 57.8107 322.116C93.8401 321.708 123.525 326.331 153.345 346.543C60.9151 382.799 71.9959 315.204 41.6768 337.162C28.4131 347.51 15.1797 357.903 1.97646 368.342L0.208984 366.076C23.5714 345.999 46.73 325.673 70.455 306.027C77.5929 300.09 77.7062 296.442 72.1545 288.828C48.9733 259.755 66.3762 200.771 92.2086 178.61C83.7111 198.098 94.1573 213.189 95.9475 229.368C97.7376 245.548 99.0519 262.089 100.479 278.133L159.939 227.08C115.571 189.102 135.013 125.79 172.085 89.6015C168.142 130.05 188.559 167.688 180.492 207.728Z" fill="#515B3B"></path> <mask id="mask0_2829_3987" style="mask-type:luminance" maskUnits="userSpaceOnUse" x="0" y="0" width="452" height="369"> <path d="M180.495 207.728L237.439 158.828C203.88 102.948 218.972 50.6717 283.621 22.528C266.263 70.4312 278.681 93.0911 255.205 141.787C277.162 123.32 306.824 103.266 316.976 76.4134C341.494 28.8274 402.2 11.5605 451.712 0.117188C429.755 16.6816 410.199 36.2599 389.715 54.5012C367.171 75.8094 340.451 92.2061 311.243 102.654C299.256 106.914 289.512 117.473 279.519 126.923C333.291 106.891 366.511 108.523 423.999 115.049C381.308 151.146 348.292 180.06 295.381 151.078C268.552 137.323 268.506 137.482 246.209 156.924C231.253 169.931 216.162 182.779 201.727 197.01C248.135 172.379 295.2 195.922 343.194 202.04C300.661 224.428 244.555 246.885 202.362 211.762C195.133 206.233 189.853 205.439 182.444 212.668C169.097 225.697 154.323 237.277 140.908 250.941C187.973 236.302 227.333 268.366 272.63 275.368C235.468 305.551 172.383 300.294 144.556 265.398C138.03 257.263 133.226 256.81 125.363 263.834C103.27 283.594 80.519 302.605 57.8136 322.116C93.843 321.708 123.528 326.331 153.348 346.543C60.9181 382.799 71.9988 315.204 41.6797 337.162C28.4161 347.51 15.1826 357.903 1.97939 368.342L0.211914 366.076C23.5744 345.999 46.7329 325.673 70.4579 306.027C77.5958 300.09 77.7091 296.442 72.1574 288.828C48.9762 259.755 66.3791 200.771 92.2115 178.61C83.714 198.098 94.1603 213.189 95.9504 229.368C97.7406 245.548 99.0548 262.089 100.482 278.133L159.942 227.08C115.574 189.102 135.016 125.79 172.088 89.6015C168.145 130.05 188.562 167.688 180.495 207.728Z" fill="white"></path> </mask> <g mask="url(#mask0_2829_3987)"> <path d="M468.138 -11.4395C422.818 4.03733 387.967 39.9308 351.643 71.2243C343.531 78.2035 335.124 85.0921 325.335 89.4655C315.546 93.8389 304.125 95.4478 294.11 91.7315" stroke="#6B7258" stroke-miterlimit="10"></path> <path d="M440.561 108.364C428.687 105.395 416.609 111.355 405.755 116.975C392.159 123.954 378.291 130.775 363.2 132.678C343.486 135.171 323.454 129.03 303.695 131.228C294.021 132.369 284.68 135.465 276.239 140.326C267.798 145.187 260.433 151.713 254.59 159.507" stroke="#6B7258" stroke-miterlimit="10"></path> <path d="M432.586 126.288C419.216 135.148 405.394 144.19 389.826 147.724C372.877 151.554 355.202 148.608 337.822 149.061C317.472 149.601 297.518 154.802 279.495 164.266" stroke="#6B7258" stroke-miterlimit="10"></path> <path d="M297.078 9.88281C282.666 20.8276 268.299 32.1802 257.219 46.4787C246.138 60.7772 238.434 78.452 239.34 96.512C239.612 101.814 240.609 107.14 239.974 112.374C238.048 128.372 222.481 138.614 208.454 146.591" stroke="#6B7258" stroke-miterlimit="10"></path> <path d="M311.649 16.7266C286.583 31.8867 268.145 55.9309 260.007 84.0721C255.611 99.5035 254.342 116.159 246.275 130.049C239.477 141.674 228.668 150.217 218.063 158.442" stroke="#6B7258" stroke-miterlimit="10"></path> <path d="M189.284 219.511C196.218 203.83 214.799 196.352 231.953 195.99C249.107 195.627 265.943 200.68 282.915 202.788C313.456 206.392 344.359 200.346 371.289 185.498" stroke="#6B7258" stroke-miterlimit="10"></path> <path d="M201.885 230.932C213.555 221.233 229.712 218.65 244.939 219.783C260.167 220.916 274.714 225.312 289.625 228.099C304.535 230.887 320.329 231.906 334.491 226.513" stroke="#6B7258" stroke-miterlimit="10"></path> <path d="M145.937 228.825C161.119 223.046 169.186 205.779 169.753 189.555C170.319 173.33 164.994 157.582 160.961 141.856C157.109 126.787 154.412 111.151 156.111 95.6972C157.811 80.2431 164.314 64.7889 176.302 54.9092" stroke="#6B7258" stroke-miterlimit="10"></path> <path d="M131.207 220.622C142.945 212.147 148.769 197.282 149.471 182.825C150.174 168.368 146.457 154.069 142.356 140.179C138.255 126.288 133.768 112.352 132.861 97.895" stroke="#6B7258" stroke-miterlimit="10"></path> <path d="M122.8 277.793C125.61 260.82 144.395 250.601 161.594 250.601C178.793 250.601 194.95 258.078 211.084 264.038C243.125 275.889 278.067 282.166 311.626 275.776" stroke="#6B7258" stroke-miterlimit="10"></path> <path d="M140.678 278.065C148.723 269.159 162.704 269.001 174.351 271.879C192.706 276.411 209.044 286.721 226.243 294.539C243.442 302.356 263.065 308.021 281.17 302.515" stroke="#6B7258" stroke-miterlimit="10"></path> <path d="M56.5419 302.062C71.5202 289.327 87.6541 274.326 88.6738 254.725C89.4216 240.177 81.5586 226.831 76.5054 213.167C67.7521 189.215 67.4483 162.99 75.6443 138.842" stroke="#6B7258" stroke-miterlimit="10"></path> <path d="M44.5327 337.886C57.6301 324.29 79.9276 324.449 97.829 330.703C115.73 336.957 131.706 348.061 149.947 353.522C165.024 358.035 181.027 358.481 196.332 354.813" stroke="#6B7258" stroke-miterlimit="10"></path> <path d="M57.6308 341.014C60.9165 335.19 69.3233 335.349 75.7588 336.913C86.9322 339.599 97.5729 344.149 107.234 350.373C112.553 354.219 118.116 357.716 123.889 360.842C129.729 363.978 136.552 364.749 142.946 362.994" stroke="#6B7258" stroke-miterlimit="10"></path> <path d="M60.1006 295.558C69.7991 279.016 70.1843 258.736 68.8927 239.588C67.6011 220.44 64.9045 201.066 69.4365 182.326" stroke="#6B7258" stroke-miterlimit="10"></path> </g> </svg> 