<?xml version="1.0" encoding="UTF-8"?> <svg xmlns="http://www.w3.org/2000/svg" width="190" height="294" viewBox="0 0 190 294" fill="none"> <path d="M2.96783 289.606C2.46213 273.352 4.17189 245.274 6.97729 241.036C9.78269 236.797 49.263 240.458 50.166 238.628C51.0691 236.797 20.5949 224.3 18.5481 221.265C16.5012 218.231 20.1253 197.1 25.7 183.061C31.2747 169.022 40.4013 156.789 44.784 146.784C49.1667 136.778 51.0209 138.235 55.4758 138.259C59.9308 138.283 74.8006 146.001 76.7271 143.533C78.6535 141.065 61.195 134.792 60.6773 130.397C60.1595 126.002 68.07 122.27 70.8032 112.469C73.5363 102.668 84.5774 92.4337 89.4537 91.2898C94.3301 90.146 119.013 110.073 121.541 107.508C124.07 104.944 100.29 78.828 102.156 75.8179C104.023 72.8078 111.199 72.5068 116.605 64.0545C122.011 55.6021 130.295 50.16 133.461 53.1339C136.628 56.1079 161.154 79.3819 163.044 76.9136C164.935 74.4454 141.372 48.8475 140.168 43.9712C138.964 39.0948 143.587 39.8775 147.091 36.5664C150.595 33.2553 179.154 31.1723 181.623 32.4485C184.091 33.7248 152.991 118.802 135.291 152.696C117.592 186.589 58.9314 251.571 58.9314 251.571L2.96783 289.606Z" fill="#585840"></path> <path d="M2.97913 289.583C3.29218 288.86 13.4422 265.779 23.7728 255.761C34.1034 245.744 33.3088 232.884 38.1129 221.711C42.917 210.538 44.4702 214.27 44.4702 214.27C44.4702 214.27 72.0065 225.48 74.4988 222.951C76.9912 220.423 56.7514 214.523 57.8109 209.334C58.8705 204.144 67.997 182.472 73.367 180.726C78.737 178.98 96.0631 184.157 100.386 183.134C104.708 182.11 77.7256 175.235 77.5089 169.119C77.2922 163.002 98.6638 126.424 108.296 108.568C117.928 90.712 127.838 90.0739 130.583 89.7488C133.328 89.4237 145.248 101.596 145.994 102.367C145.417 101.392 132.124 78.8643 133.147 73.8314C134.171 68.7986 148.691 54.6873 151.605 50.9548C154.519 47.2223 164.103 62.2847 164.549 56.6498C164.994 51.015 162.068 45.2476 164.549 42.2014C165.861 40.5398 170.81 37.8067 175.06 35.6394C178.672 33.8574 181.682 32.4728 181.682 32.4728C187.461 133.913 135.399 189.696 112.655 214.824C96.5808 232.596 65.589 253.088 44.4582 266.453C35.7048 271.98 28.6371 276.278 25.025 278.662C23.6283 279.589 22.2557 280.456 20.9313 281.239H20.835C20.0764 281.696 19.2938 282.13 18.5353 282.575C13.6142 285.458 8.39925 287.807 2.97913 289.583Z" fill="#7A8C5B"></path> <mask id="mask0_2868_2266" style="mask-type:luminance" maskUnits="userSpaceOnUse" x="3" y="30" width="179" height="262"> <path d="M180.847 30.871C186.102 133.249 134.57 189.792 112.044 215.259C89.5182 240.726 37.5588 271.855 25.3831 280.065C18.6696 284.752 11.376 288.493 3.70062 291.187C3.70062 291.187 13.9723 267.233 24.3528 256.928C34.7333 246.623 33.8496 233.792 38.6324 222.503C43.4152 211.214 44.9305 214.951 44.9305 214.951C44.9305 214.951 72.0262 226.146 74.4937 223.583C76.9612 221.019 57.0472 215.152 58.1136 209.909C59.18 204.666 68.2563 182.759 73.557 180.961C78.8578 179.163 95.9146 184.325 100.192 183.212C104.469 182.099 77.8651 175.35 77.701 169.189C77.537 163.027 98.7227 126.068 108.293 108C117.864 89.9318 127.634 89.244 130.342 88.8915C133.049 88.5391 145.515 101.598 145.515 101.598C145.515 101.598 131.811 78.0188 132.878 72.7876C133.944 67.5564 148.293 53.4051 151.169 49.6122C154.045 45.8193 163.44 60.9948 163.903 55.3165C164.366 49.6383 161.507 43.8047 163.965 40.7308C166.422 37.6569 180.847 30.871 180.847 30.871Z" fill="white"></path> </mask> <g mask="url(#mask0_2868_2266)"> <path d="M43.9567 276.306L-16.6146 278.127" stroke="#717C57" stroke-miterlimit="10"></path> <path d="M73.5395 256.422L5.38443 246.912" stroke="#717C57" stroke-miterlimit="10"></path> <path d="M115.761 233.925L23.0392 191.917" stroke="#717C57" stroke-miterlimit="10"></path> <path d="M143.619 200.561L16.9257 138.977" stroke="#717C57" stroke-miterlimit="10"></path> <path d="M170.88 181.725L62.4004 107.929" stroke="#717C57" stroke-miterlimit="10"></path> <path d="M179.254 150.102L84.4664 42.0725" stroke="#717C57" stroke-miterlimit="10"></path> <path d="M191.25 118.617L127.541 27.1066" stroke="#717C57" stroke-miterlimit="10"></path> </g> <g style="mix-blend-mode:multiply" opacity="0.21"> <path d="M112.547 214.836C96.4729 232.608 65.481 253.101 44.3502 266.465C83.373 240.181 113.269 210.887 121.264 194.5C130.896 174.634 137.181 164.146 147.091 140.523C157 116.9 159.287 117.382 164.862 95.0107C170.437 72.6397 177.011 65.1265 176.987 52.3998C176.715 46.7752 176.035 41.1779 174.952 35.6517C178.564 33.8698 181.574 32.4851 181.574 32.4851C187.353 133.925 135.291 189.708 112.547 214.836Z" fill="#7A8C5B"></path> </g> <path d="M2.96741 289.606C76.7748 254.533 199.887 164.603 179.178 11.4742L183.789 2.91357L188.69 -0.000180232C188.69 -0.000180232 193.675 86.883 165.645 146.892C137.615 206.901 74.7279 259.217 2.96741 289.606Z" fill="#ADB797"></path> </svg> 