<?xml version="1.0" encoding="UTF-8"?> <svg xmlns="http://www.w3.org/2000/svg" width="36" height="36" viewBox="0 0 36 36" fill="none"> <path fill-rule="evenodd" clip-rule="evenodd" d="M20.1925 3.01878C20.369 2.82476 20.3861 2.5647 20.298 2.36605C20.2071 2.16126 19.9856 1.98763 19.6989 2.01447C18.891 2.09008 17.8123 2.47351 16.8846 3.4004C15.9951 4.28921 15.271 5.65071 15.0339 7.64991C13.385 8.44204 11.8091 9.90781 10.4966 11.7659C10.4411 11.7256 10.3843 11.6888 10.3272 11.6551C10.0823 11.5105 9.7968 11.4015 9.50764 11.3179C8.92909 11.1505 8.26615 11.0647 7.71518 11.0263C7.47337 11.0095 7.30795 11.1425 7.22895 11.2316C7.14764 11.3233 7.10053 11.4267 7.07394 11.5111C7.04663 11.5978 7.02976 11.6999 7.03624 11.8065C7.04204 11.902 7.07171 12.0732 7.21088 12.2152C7.35292 12.3601 7.49992 12.5968 7.49992 13C7.49992 13.6193 7.5427 14.3902 7.62883 15.0749C7.67187 15.417 7.7268 15.7464 7.79524 16.0287C7.84763 16.2448 7.91585 16.4686 8.01131 16.6533C7.63521 17.7457 7.35208 18.8776 7.18241 20.0187C6.12181 20.1437 5.28731 20.8681 4.85015 21.3756C4.6066 21.6583 4.72792 21.981 4.81455 22.1136C4.90527 22.2525 5.09019 22.4155 5.35203 22.422C5.55384 22.427 5.86717 22.5789 6.23801 22.888C6.56363 23.1594 6.86119 23.4906 7.05892 23.7462C7.66245 30.3678 12.7937 34 17.6856 34C22.5751 34 28.2579 30.3714 28.9333 23.7561C29.1309 23.4992 29.432 23.1629 29.7618 22.888C30.1327 22.5789 30.446 22.427 30.6478 22.422C30.9096 22.4155 31.0946 22.2525 31.1853 22.1136C31.2719 21.981 31.3932 21.6583 31.1497 21.3756C30.7097 20.8648 29.8672 20.1344 28.7969 20.0164C28.6151 18.9146 28.3168 17.8215 27.9246 16.7642C28.0546 16.5631 28.1412 16.2903 28.2046 16.0287C28.273 15.7464 28.328 15.417 28.371 15.0749C28.4571 14.3902 28.4999 13.6193 28.4999 13C28.4999 12.5968 28.6469 12.3601 28.789 12.2152C28.9281 12.0732 28.9578 11.902 28.9636 11.8065C28.9701 11.6999 28.9532 11.5978 28.9259 11.5111C28.8993 11.4267 28.8522 11.3233 28.7709 11.2316C28.6919 11.1425 28.5265 11.0095 28.2847 11.0263C27.7337 11.0647 27.0707 11.1505 26.4922 11.3179C26.203 11.4015 25.9175 11.5105 25.6726 11.6551C25.5449 11.7305 25.4179 11.8218 25.306 11.9324C23.8746 10.0059 22.1609 8.48216 20.4143 7.66324L19.4739 4.84188C19.3773 4.55223 19.4374 4.21592 19.6092 3.85922C19.7787 3.50734 20.0265 3.20113 20.1925 3.01878ZM19.2107 7.21476L18.5252 5.15811C18.3119 4.51839 18.4819 3.89532 18.7083 3.42526C18.7312 3.37781 18.7549 3.33123 18.7794 3.2856C18.3887 3.45924 17.9762 3.72337 17.5914 4.10781C16.955 4.74371 16.3727 5.73075 16.1054 7.23527C16.6309 7.08134 17.1597 7 17.6856 7C18.1877 7 18.6982 7.07412 19.2107 7.21476ZM15.6012 8.48977C15.6693 8.47571 15.7328 8.44765 15.7883 8.40849C16.4335 8.14023 17.0721 8 17.6856 8C19.8167 8 22.3856 9.68425 24.4934 12.5155C26.5681 15.3024 27.9999 18.955 27.9999 22.4286C27.9999 29.2361 22.4418 33 17.6856 33C13.0022 33 7.99992 29.3041 7.99992 22.4286C7.99992 18.9277 9.29331 15.2657 11.2129 12.4867C12.5425 10.5616 14.0851 9.17675 15.6012 8.48977ZM8.63582 15.0634C9.01842 14.1994 9.45755 13.3725 9.94162 12.5999C9.90938 12.574 9.86904 12.5459 9.81875 12.5162C9.67123 12.4291 9.47188 12.3486 9.22974 12.2785C8.94857 12.1972 8.63322 12.1365 8.31741 12.0929C8.42878 12.3439 8.49992 12.6445 8.49992 13C8.49992 13.5807 8.54047 14.3098 8.62101 14.9501C8.62582 14.9883 8.63076 15.0261 8.63582 15.0634ZM27.3788 14.9501C27.3622 15.082 27.3441 15.2086 27.3246 15.3282C26.9108 14.4393 26.4333 13.5874 25.907 12.7904C25.9219 12.7695 25.9353 12.7472 25.9471 12.7236C25.9687 12.6805 26.03 12.6054 26.1811 12.5162C26.3286 12.4291 26.528 12.3486 26.7701 12.2785C27.0513 12.1972 27.3666 12.1365 27.6824 12.0929C27.5711 12.3439 27.4999 12.6445 27.4999 13C27.4999 13.5807 27.4594 14.3098 27.3788 14.9501ZM7.00127 22.2256C7.00642 21.8369 7.02628 21.4471 7.06004 21.0572C6.68906 21.1523 6.34586 21.3556 6.059 21.5893C6.3645 21.7254 6.64548 21.9258 6.87824 22.1198C6.91978 22.1545 6.96082 22.1898 7.00127 22.2256ZM28.9984 22.2257C28.9927 21.8364 28.9705 21.4459 28.9329 21.0554C29.3065 21.1497 29.6522 21.3541 29.9408 21.5893C29.6353 21.7254 29.3544 21.9258 29.1216 22.1198C29.08 22.1545 29.0389 22.1898 28.9984 22.2257ZM24.9999 22C24.9999 27.2115 21.042 30 17.7713 30C14.5713 30 10.9999 27.2821 10.9999 22C10.9999 19.3115 11.9299 16.4977 13.3055 14.3679C14.7199 12.178 16.4013 11 17.7713 11C18.4471 11 19.2357 11.28 20.0769 11.8756C20.9124 12.4672 21.7446 13.3331 22.4851 14.3967C23.9721 16.5329 24.9999 19.3372 24.9999 22ZM25.9999 22C25.9999 27.799 21.5584 31 17.7713 31C13.9843 31 9.99992 27.799 9.99992 22C9.99992 16.201 13.9843 10 17.7713 10C21.5584 10 25.9999 16.201 25.9999 22ZM18.9999 15.5C18.9999 15.7761 18.7761 16 18.4999 16C18.2238 16 17.9999 15.7761 17.9999 15.5C17.9999 15.2239 18.2238 15 18.4999 15C18.7761 15 18.9999 15.2239 18.9999 15.5ZM18.4999 13C18.7761 13 18.9999 12.7761 18.9999 12.5C18.9999 12.2239 18.7761 12 18.4999 12C18.2238 12 17.9999 12.2239 17.9999 12.5C17.9999 12.7761 18.2238 13 18.4999 13ZM15.9999 13.5C15.9999 13.7761 15.7761 14 15.4999 14C15.2238 14 14.9999 13.7761 14.9999 13.5C14.9999 13.2239 15.2238 13 15.4999 13C15.7761 13 15.9999 13.2239 15.9999 13.5ZM16.4999 18C16.7761 18 16.9999 17.7761 16.9999 17.5C16.9999 17.2239 16.7761 17 16.4999 17C16.2238 17 15.9999 17.2239 15.9999 17.5C15.9999 17.7761 16.2238 18 16.4999 18ZM18.9999 19.5C18.9999 19.7761 18.7761 20 18.4999 20C18.2238 20 17.9999 19.7761 17.9999 19.5C17.9999 19.2239 18.2238 19 18.4999 19C18.7761 19 18.9999 19.2239 18.9999 19.5ZM16.4999 23C16.7761 23 16.9999 22.7761 16.9999 22.5C16.9999 22.2239 16.7761 22 16.4999 22C16.2238 22 15.9999 22.2239 15.9999 22.5C15.9999 22.7761 16.2238 23 16.4999 23ZM16.9999 25.5C16.9999 25.7761 16.7761 26 16.4999 26C16.2238 26 15.9999 25.7761 15.9999 25.5C15.9999 25.2239 16.2238 25 16.4999 25C16.7761 25 16.9999 25.2239 16.9999 25.5ZM18.4999 29C18.7761 29 18.9999 28.7761 18.9999 28.5C18.9999 28.2239 18.7761 28 18.4999 28C18.2238 28 17.9999 28.2239 17.9999 28.5C17.9999 28.7761 18.2238 29 18.4999 29ZM21.9999 18.5C21.9999 18.7761 21.7761 19 21.4999 19C21.2238 19 20.9999 18.7761 20.9999 18.5C20.9999 18.2239 21.2238 18 21.4999 18C21.7761 18 21.9999 18.2239 21.9999 18.5ZM23.4999 22C23.7761 22 23.9999 21.7761 23.9999 21.5C23.9999 21.2239 23.7761 21 23.4999 21C23.2238 21 22.9999 21.2239 22.9999 21.5C22.9999 21.7761 23.2238 22 23.4999 22ZM19.9999 22.5C19.9999 22.7761 19.7761 23 19.4999 23C19.2238 23 18.9999 22.7761 18.9999 22.5C18.9999 22.2239 19.2238 22 19.4999 22C19.7761 22 19.9999 22.2239 19.9999 22.5ZM20.4999 27C20.7761 27 20.9999 26.7761 20.9999 26.5C20.9999 26.2239 20.7761 26 20.4999 26C20.2238 26 19.9999 26.2239 19.9999 26.5C19.9999 26.7761 20.2238 27 20.4999 27ZM22.9999 24.5C22.9999 24.7761 22.7761 25 22.4999 25C22.2238 25 21.9999 24.7761 21.9999 24.5C21.9999 24.2239 22.2238 24 22.4999 24C22.7761 24 22.9999 24.2239 22.9999 24.5ZM21.4999 16C21.7761 16 21.9999 15.7761 21.9999 15.5C21.9999 15.2239 21.7761 15 21.4999 15C21.2238 15 20.9999 15.2239 20.9999 15.5C20.9999 15.7761 21.2238 16 21.4999 16ZM14.9999 19.5C14.9999 19.7761 14.7761 20 14.4999 20C14.2238 20 13.9999 19.7761 13.9999 19.5C13.9999 19.2239 14.2238 19 14.4999 19C14.7761 19 14.9999 19.2239 14.9999 19.5ZM14.4999 28C14.7761 28 14.9999 27.7761 14.9999 27.5C14.9999 27.2239 14.7761 27 14.4999 27C14.2238 27 13.9999 27.2239 13.9999 27.5C13.9999 27.7761 14.2238 28 14.4999 28ZM12.9999 21.5C12.9999 21.7761 12.7761 22 12.4999 22C12.2238 22 11.9999 21.7761 11.9999 21.5C11.9999 21.2239 12.2238 21 12.4999 21C12.7761 21 12.9999 21.2239 12.9999 21.5ZM12.4999 25C12.7761 25 12.9999 24.7761 12.9999 24.5C12.9999 24.2239 12.7761 24 12.4999 24C12.2238 24 11.9999 24.2239 11.9999 24.5C11.9999 24.7761 12.2238 25 12.4999 25ZM13.9999 16.5C13.9999 16.7761 13.7761 17 13.4999 17C13.2238 17 12.9999 16.7761 12.9999 16.5C12.9999 16.2239 13.2238 16 13.4999 16C13.7761 16 13.9999 16.2239 13.9999 16.5Z" fill="#FFDC20"></path> </svg> 