<?xml version="1.0" encoding="UTF-8"?> <svg xmlns="http://www.w3.org/2000/svg" width="36" height="36" viewBox="0 0 36 36" fill="none"> <path fill-rule="evenodd" clip-rule="evenodd" d="M15.238 8.50218C15.3371 7.52745 15.3756 6.48864 15.299 5.46567C12.3147 9.64684 7.35173 9.62228 4.99625 9.01644C4.59819 8.91406 4.43829 8.46707 4.63142 8.13702C5.73417 6.25252 7.78144 5.0237 9.82349 4.24464C11.877 3.46122 14.0066 3.10146 15.3846 3.00647C15.6878 2.98557 15.9405 3.19125 16.006 3.46407C16.0408 3.60927 16.0725 3.75639 16.1013 3.90509C16.3985 5.44299 16.3849 7.07764 16.2372 8.56041C22.56 9.18163 27.5 14.5139 27.5 21C27.5 21.4633 27.4309 22.1163 27.3657 22.6339C27.3493 22.7642 27.3329 22.8878 27.3175 23H30H31H32H33C33 23.3377 32.9824 23.6713 32.948 24C32.4483 28.7766 28.409 32.5 23.5 32.5C22.5464 32.5 21.6256 32.3594 20.7572 32.098C19.0336 32.9939 17.0752 33.5 15 33.5C8.09644 33.5 2.5 27.9035 2.5 21C2.5 14.0964 8.09644 8.49995 15 8.49995C15.0795 8.49995 15.1589 8.5007 15.238 8.50218ZM29.9091 24H26.8008C26.6512 24.3629 26.4223 24.6938 26.1321 24.9774L28.0525 27.2819C29.0133 26.4084 29.6772 25.2645 29.9091 24ZM24 25.9696C24.4775 25.911 24.9239 25.7699 25.3188 25.5636L27.2616 27.895C26.3333 28.5056 25.2193 28.8979 24 28.9827V25.9696ZM23.5 30C25.2751 30 26.9061 29.4244 28.1906 28.4624C28.2363 28.4435 28.28 28.4174 28.3201 28.3841C28.351 28.3583 28.378 28.3296 28.401 28.2988C29.7375 27.221 30.6619 25.7102 30.924 24H31.9418C31.4469 28.2231 27.8561 31.5 23.5 31.5C19.1439 31.5 15.5531 28.2231 15.0582 24H16.076C16.3381 25.7102 17.2625 27.221 18.599 28.2988C18.622 28.3296 18.649 28.3583 18.6799 28.3841C18.72 28.4174 18.7637 28.4435 18.8094 28.4624C20.0939 29.4244 21.7249 30 23.5 30ZM19.7384 27.895C20.6667 28.5056 21.7807 28.8979 23 28.9827V25.9696C22.5225 25.911 22.0761 25.7699 21.6812 25.5636L19.7384 27.895ZM20.8679 24.9774C20.5777 24.6938 20.3488 24.3629 20.1992 24H17.0909C17.3228 25.2645 17.9867 26.4084 18.9475 27.2819L20.8679 24.9774ZM23.5 25C24.4903 25 25.2456 24.567 25.6554 24H21.3446C21.7544 24.567 22.5097 25 23.5 25ZM26.3735 22.509C26.3507 22.6904 26.3278 22.8586 26.3079 23H26H21H20H17H16H15H14C14 23.3377 14.0176 23.6713 14.052 24C14.4048 27.372 16.5215 30.2192 19.463 31.602C18.0911 32.1802 16.5834 32.5 15 32.5C8.64873 32.5 3.5 27.3512 3.5 21C3.5 14.6487 8.64873 9.49995 15 9.49995C15.038 9.49995 15.0759 9.50014 15.1138 9.50051C14.9447 10.6537 14.7102 11.6621 14.5176 12.3684C14.514 12.3817 14.5109 12.395 14.5084 12.4083C13.9504 12.3413 13.4876 12.1847 13.2236 12.0527C12.9766 11.9292 12.6763 12.0294 12.5528 12.2763C12.4293 12.5233 12.5294 12.8237 12.7764 12.9472C13.5253 13.3216 15.4332 13.8424 17.2236 12.9472C17.4706 12.8237 17.5707 12.5233 17.4472 12.2763C17.3237 12.0294 17.0234 11.9292 16.7764 12.0527C16.3678 12.257 15.9468 12.3674 15.5405 12.4141C15.7312 11.6861 15.9546 10.6884 16.1166 9.55347C21.9439 10.115 26.5 15.0254 26.5 21C26.5 21.3939 26.4388 21.9909 26.3735 22.509ZM10.1799 5.17896C11.9215 4.51454 13.7298 4.17022 15.0196 4.04101C12.6545 8.24596 8.28222 8.6103 5.806 8.16901C6.79516 6.82257 8.42112 5.84996 10.1799 5.17896Z" fill="#FFDC20"></path> </svg> 