<?xml version="1.0" encoding="UTF-8"?> <svg xmlns="http://www.w3.org/2000/svg" width="36" height="36" viewBox="0 0 36 36" fill="none"> <path fill-rule="evenodd" clip-rule="evenodd" d="M15.0214 1.65508C15.2306 1.43935 15.5521 1.4212 15.7827 1.57495L17.0458 2.417C17.2778 2.57168 17.3727 2.86582 17.2748 3.12691L16.1068 6.24151C19.622 7.50396 22.4038 10.6349 23.6317 14.582C23.9997 14.5419 24.3736 14.5214 24.7523 14.5214C30.4115 14.5214 34.9993 19.1091 34.9993 24.7684C34.9993 30.4277 30.4115 35.0155 24.7523 35.0155C21.749 35.0155 19.0475 33.7235 17.1733 31.665C15.7817 32.3442 14.2506 32.7208 12.6429 32.7208C6.1235 32.7208 0.964355 26.5829 0.964355 19.1791C0.964355 11.7754 6.1235 5.63746 12.6429 5.63746C12.687 5.63746 12.7311 5.63774 12.775 5.63831C12.9077 5.1267 13.0918 4.64191 13.3004 4.19649C13.8215 3.08415 14.5138 2.17864 15.0214 1.65508ZM16.227 3.07299L15.1485 5.94886C14.7064 5.83705 14.2546 5.7542 13.7945 5.70218C13.9034 5.32816 14.0444 4.96557 14.206 4.62069C14.6001 3.77927 15.1039 3.07045 15.514 2.59767L16.227 3.07299ZM14.8097 6.89677C14.4112 6.80004 14.0049 6.72948 13.5924 6.6866C13.5447 7.09676 13.5438 7.51363 13.6032 7.92985C13.7127 8.69596 13.9203 9.0632 14.083 9.2216C14.218 9.35309 14.3453 9.36644 14.4783 9.32653C14.6381 9.27858 14.807 9.14572 14.9119 8.97896C15.0232 8.80182 14.9972 8.70445 14.9899 8.68988C14.6674 8.04469 14.6963 7.37758 14.8097 6.89677ZM12.6133 8.07127C12.5438 7.58474 12.5423 7.10415 12.5916 6.6376C6.7864 6.67001 1.96436 12.198 1.96436 19.1791C1.96436 26.1808 6.81485 31.7208 12.6429 31.7208C14.0089 31.7208 15.3155 31.4196 16.5181 30.8687C15.2534 29.1644 14.5052 27.0538 14.5052 24.7684C14.5052 19.8357 17.9907 15.717 22.6331 14.7408C21.4623 11.1087 18.9129 8.31561 15.7694 7.18511C15.7102 7.48014 15.7022 7.87832 15.8844 8.2428C16.1099 8.694 15.9674 9.17884 15.7585 9.51115C15.5431 9.85383 15.188 10.1576 14.7657 10.2844C14.3165 10.4191 13.8034 10.3451 13.3853 9.93806C12.9949 9.5579 12.7367 8.93538 12.6133 8.07127ZM24.7523 34.0155C29.8593 34.0155 33.9993 29.8754 33.9993 24.7684C33.9993 19.6614 29.8593 15.5214 24.7523 15.5214C19.6453 15.5214 15.5052 19.6614 15.5052 24.7684C15.5052 29.8754 19.6453 34.0155 24.7523 34.0155ZM32.1364 24.7683C32.1364 28.8464 28.8305 32.1523 24.7524 32.1523C20.6744 32.1523 17.3685 28.8464 17.3685 24.7683C17.3685 20.6903 20.6744 17.3844 24.7524 17.3844C28.8305 17.3844 32.1364 20.6903 32.1364 24.7683ZM33.1364 24.7683C33.1364 29.3987 29.3827 33.1523 24.7524 33.1523C20.1221 33.1523 16.3685 29.3987 16.3685 24.7683C16.3685 20.138 20.1221 16.3844 24.7524 16.3844C29.3827 16.3844 33.1364 20.138 33.1364 24.7683ZM23.8214 19.6448C23.8214 19.9021 23.6129 20.1106 23.3556 20.1106C23.0984 20.1106 22.8899 19.9021 22.8899 19.6448C22.8899 19.3876 23.0984 19.179 23.3556 19.179C23.6129 19.179 23.8214 19.3876 23.8214 19.6448ZM19.6291 21.9737C19.8864 21.9737 20.0949 21.7652 20.0949 21.508C20.0949 21.2507 19.8864 21.0422 19.6291 21.0422C19.3719 21.0422 19.1634 21.2507 19.1634 21.508C19.1634 21.7652 19.3719 21.9737 19.6291 21.9737ZM21.9582 24.3026C21.9582 24.5598 21.7496 24.7684 21.4924 24.7684C21.2351 24.7684 21.0266 24.5598 21.0266 24.3026C21.0266 24.0454 21.2351 23.8368 21.4924 23.8368C21.7496 23.8368 21.9582 24.0454 21.9582 24.3026ZM24.2873 30.3577C24.5445 30.3577 24.753 30.1491 24.753 29.8919C24.753 29.6346 24.5445 29.4261 24.2873 29.4261C24.03 29.4261 23.8215 29.6346 23.8215 29.8919C23.8215 30.1491 24.03 30.3577 24.2873 30.3577ZM19.1633 26.1657C19.1633 26.423 18.9547 26.6315 18.6975 26.6315C18.4403 26.6315 18.2317 26.423 18.2317 26.1657C18.2317 25.9085 18.4403 25.7 18.6975 25.7C18.9547 25.7 19.1633 25.9085 19.1633 26.1657ZM26.1505 20.1106C26.4078 20.1106 26.6163 19.9021 26.6163 19.6448C26.6163 19.3876 26.4078 19.179 26.1505 19.179C25.8933 19.179 25.6847 19.3876 25.6847 19.6448C25.6847 19.9021 25.8933 20.1106 26.1505 20.1106ZM23.3556 22.9054C23.6129 22.9054 23.8214 22.6968 23.8214 22.4396C23.8214 22.1823 23.6129 21.9738 23.3556 21.9738C23.0984 21.9738 22.8899 22.1823 22.8899 22.4396C22.8899 22.6968 23.0984 22.9054 23.3556 22.9054ZM24.753 27.0972C24.753 27.3545 24.5445 27.563 24.2873 27.563C24.03 27.563 23.8215 27.3545 23.8215 27.0972C23.8215 26.84 24.03 26.6315 24.2873 26.6315C24.5445 26.6315 24.753 26.84 24.753 27.0972ZM21.4924 28.4946C21.7496 28.4946 21.9582 28.2861 21.9582 28.0289C21.9582 27.7716 21.7496 27.5631 21.4924 27.5631C21.2351 27.5631 21.0266 27.7716 21.0266 28.0289C21.0266 28.2861 21.2351 28.4946 21.4924 28.4946ZM28.4795 21.508C28.4795 21.7652 28.271 21.9737 28.0138 21.9737C27.7565 21.9737 27.548 21.7652 27.548 21.508C27.548 21.2507 27.7565 21.0422 28.0138 21.0422C28.271 21.0422 28.4795 21.2507 28.4795 21.508ZM29.877 24.7684C30.1343 24.7684 30.3428 24.5598 30.3428 24.3026C30.3428 24.0454 30.1343 23.8368 29.877 23.8368C29.6198 23.8368 29.4113 24.0454 29.4113 24.3026C29.4113 24.5598 29.6198 24.7684 29.877 24.7684ZM30.3428 27.0972C30.3428 27.3545 30.1343 27.563 29.877 27.563C29.6198 27.563 29.4113 27.3545 29.4113 27.0972C29.4113 26.84 29.6198 26.6315 29.877 26.6315C30.1343 26.6315 30.3428 26.84 30.3428 27.0972ZM26.1505 24.7684C26.4078 24.7684 26.6163 24.5598 26.6163 24.3026C26.6163 24.0454 26.4078 23.8368 26.1505 23.8368C25.8933 23.8368 25.6847 24.0454 25.6847 24.3026C25.6847 24.5598 25.8933 24.7684 26.1505 24.7684ZM27.5479 26.1657C27.5479 26.423 27.3394 26.6315 27.0821 26.6315C26.8249 26.6315 26.6164 26.423 26.6164 26.1657C26.6164 25.9085 26.8249 25.7 27.0821 25.7C27.3394 25.7 27.5479 25.9085 27.5479 26.1657ZM27.0821 29.4261C27.3394 29.4261 27.5479 29.2176 27.5479 28.9604C27.5479 28.7031 27.3394 28.4946 27.0821 28.4946C26.8249 28.4946 26.6164 28.7031 26.6164 28.9604C26.6164 29.2176 26.8249 29.4261 27.0821 29.4261Z" fill="#FFDC20"></path> </svg> 