<?xml version="1.0" encoding="UTF-8"?> <svg xmlns="http://www.w3.org/2000/svg" width="375" height="313" viewBox="0 0 375 313" fill="none"> <g opacity="0.29"> <path d="M201.8 132.862C246.1 206.031 253.918 282.418 253.918 282.418C253.918 282.418 190.13 240.089 145.717 166.852C101.303 93.6148 93.5985 17.2959 93.5985 17.2959C93.5985 17.2959 157.477 59.7834 201.8 132.862Z" fill="#ADB797"></path> <g style="mix-blend-mode:multiply" opacity="0.39"> <path d="M198.242 179.337C231.734 234.65 254.009 282.417 254.009 282.417C254.009 282.417 221.99 240.542 188.499 185.251C155.007 129.961 132.709 82.1709 132.709 82.1709C132.709 82.1709 164.751 124.047 198.242 179.337Z" fill="#ADB797"></path> </g> <path d="M283.423 141.563C283.582 219.378 253.965 282.508 253.965 282.508C253.965 282.508 224.054 219.468 223.896 141.654C223.737 63.8393 253.354 0.708496 253.354 0.708496C253.354 0.708496 283.287 63.7486 283.423 141.563Z" fill="#ADB797"></path> <g style="mix-blend-mode:multiply" opacity="0.39"> <path d="M258.858 176.028C258.858 234.831 253.873 282.53 253.873 282.53C253.873 282.53 248.616 234.944 248.503 176.028C248.389 117.112 253.488 69.5264 253.488 69.5264C253.488 69.5264 258.768 117.203 258.858 176.028Z" fill="#ADB797"></path> </g> <path d="M112.677 244.983C181.564 281.239 251.266 284.072 251.266 284.072C251.266 284.072 209.277 228.351 140.39 192.185C71.5039 156.02 1.77911 153.074 1.77911 153.074C1.77911 153.074 43.7681 208.795 112.677 244.983Z" fill="#ADB797"></path> <g style="mix-blend-mode:multiply" opacity="0.39"> <path d="M154.598 239.182C206.648 266.556 251.311 284.072 251.311 284.072C251.311 284.072 211.52 257.333 159.447 229.982C107.375 202.632 62.7797 185.093 62.7797 185.093C62.7797 185.093 102.525 211.832 154.598 239.182Z" fill="#ADB797"></path> </g> <path d="M126.07 312.42C169.284 311.371 211.858 301.734 251.312 284.072C211.515 267.113 168.609 258.669 125.354 259.282C82.0984 259.894 39.4494 269.551 0.148438 287.63C40.0674 304.147 82.869 312.574 126.07 312.42Z" fill="#ADB797"></path> <g style="mix-blend-mode:multiply" opacity="0.39"> <path d="M156.434 290.031C208.847 289.306 251.266 284.072 251.266 284.072C251.266 284.072 208.711 280.061 156.298 280.809C103.886 281.557 61.466 286.768 61.466 286.768C61.466 286.768 104.022 290.779 156.434 290.031Z" fill="#ADB797"></path> </g> <path d="M338.416 183.824C317.464 221.615 289.211 254.867 255.299 281.647C258.7 238.523 271.088 196.587 291.666 158.537C312.245 120.487 340.558 87.1646 374.785 60.7119C370.934 103.753 358.571 145.599 338.416 183.824Z" fill="#ADB797"></path> <g style="mix-blend-mode:multiply" opacity="0.39"> <path d="M304.517 200.366C279.591 246.479 255.299 281.647 255.299 281.647C255.299 281.647 271.433 242.083 296.382 195.97C321.33 149.857 345.599 114.734 345.599 114.734C345.599 114.734 329.443 154.253 304.517 200.366Z" fill="#ADB797"></path> </g> </g> </svg> 