<?xml version="1.0" encoding="UTF-8"?> <svg xmlns="http://www.w3.org/2000/svg" width="189" height="291" viewBox="0 0 189 291" fill="none"> <path d="M2.17376 0.465332C1.66807 16.7198 3.37782 44.7979 6.18322 49.0361C8.98862 53.2743 48.4689 49.6141 49.372 51.4442C50.275 53.2743 19.8008 65.7722 17.754 68.8064C15.7071 71.8405 19.3313 92.9714 24.906 107.01C30.4806 121.049 39.6072 133.282 43.9899 143.288C48.3726 153.294 50.2268 151.837 54.6818 151.813C59.1367 151.788 74.0065 144.071 75.933 146.539C77.8594 149.007 60.4009 155.28 59.8832 159.675C59.3655 164.07 67.276 167.802 70.0091 177.603C72.7423 187.404 83.7833 197.638 88.6597 198.782C93.536 199.926 118.219 179.999 120.747 182.564C123.276 185.128 99.496 211.244 101.362 214.254C103.228 217.264 110.405 217.565 115.811 226.017C121.217 234.47 129.501 239.912 132.667 236.938C135.834 233.964 160.36 210.69 162.25 213.158C164.141 215.626 140.578 241.224 139.374 246.101C138.17 250.977 142.793 250.194 146.297 253.505C149.801 256.816 178.36 258.9 180.829 257.623C183.297 256.347 152.197 171.27 134.497 137.376C116.798 103.483 58.1373 38.5008 58.1373 38.5008L2.17376 0.465332Z" fill="#585840"></path> <path d="M2.18506 0.489746C2.49811 1.21217 12.6481 24.2935 22.9787 34.3111C33.3094 44.3287 32.5147 57.1878 37.3188 68.3612C42.1229 79.5347 43.6761 75.8021 43.6761 75.8021C43.6761 75.8021 71.2124 64.5926 73.7048 67.1211C76.1971 69.6495 55.9573 75.5493 57.0168 80.7387C58.0764 85.9281 67.203 107.601 72.573 109.347C77.943 111.092 95.269 105.915 99.5915 106.939C103.914 107.962 76.9316 114.837 76.7148 120.953C76.4981 127.07 97.8698 163.649 107.502 181.504C117.134 199.36 127.044 199.998 129.789 200.324C132.534 200.649 144.454 188.476 145.2 187.705C144.622 188.681 131.33 211.208 132.353 216.241C133.377 221.274 147.897 235.385 150.811 239.117C153.725 242.85 163.309 227.788 163.755 233.422C164.2 239.057 161.274 244.825 163.755 247.871C165.067 249.532 170.016 252.266 174.266 254.433C177.878 256.215 180.888 257.599 180.888 257.599C186.667 156.159 134.605 100.377 111.861 75.2483C95.7868 57.4767 64.7949 36.984 43.6641 23.6193C34.9108 18.0927 27.8431 13.7943 24.2309 11.4104C22.8343 10.4832 21.4617 9.61633 20.1372 8.8337H20.0409C19.2823 8.37617 18.4998 7.94273 17.7412 7.49724C12.8202 4.61411 7.60518 2.26495 2.18506 0.489746Z" fill="#7A8C5B"></path> <mask id="mask0_2868_2169" style="mask-type:luminance" maskUnits="userSpaceOnUse" x="0" y="0" width="183" height="258"> <path d="M182.339 257.413C187.598 156.563 134.756 100.776 111.656 75.6497C88.5565 50.5237 35.3074 19.7719 22.8284 11.6637C15.9473 7.03588 8.47349 3.33862 0.609863 0.672363C0.609863 0.672363 11.1579 24.2875 21.801 34.4563C32.4441 44.6251 31.5545 57.2645 36.4662 68.3934C41.3779 79.5223 42.9252 75.8433 42.9252 75.8433C42.9252 75.8433 70.6605 64.859 73.1906 67.3884C75.7206 69.9179 55.3337 75.665 56.4321 80.8323C57.5305 85.9996 66.8519 107.596 72.2826 109.376C77.7133 111.156 95.175 106.098 99.5566 107.202C103.938 108.305 76.7012 114.91 76.5406 120.98C76.3801 127.05 98.1209 163.495 107.944 181.311C117.767 199.126 127.773 199.82 130.547 200.171C133.32 200.523 146.071 187.678 146.071 187.678C146.071 187.678 132.065 210.885 133.163 216.04C134.262 221.196 148.973 235.16 151.923 238.902C154.873 242.643 164.477 227.708 164.958 233.303C165.439 238.898 162.517 244.64 165.038 247.672C167.559 250.704 182.339 257.413 182.339 257.413Z" fill="white"></path> </mask> <g mask="url(#mask0_2868_2169)"> <path d="M43.1948 13.7204L-17.441 11.9893" stroke="#717C57" stroke-miterlimit="10"></path> <path d="M72.8805 33.9718L4.45527 42.8377" stroke="#717C57" stroke-miterlimit="10"></path> <path d="M115.437 56.8872L21.7744 97.4138" stroke="#717C57" stroke-miterlimit="10"></path> <path d="M143.503 90.5495L15.4536 150.056" stroke="#717C57" stroke-miterlimit="10"></path> <path d="M170.827 109.348L60.8655 181.141" stroke="#717C57" stroke-miterlimit="10"></path> <path d="M179.371 141.004L82.7606 246.963" stroke="#717C57" stroke-miterlimit="10"></path> <path d="M191.16 172.201L126.043 262.219" stroke="#717C57" stroke-miterlimit="10"></path> </g> <g style="mix-blend-mode:multiply" opacity="0.21"> <path d="M111.753 75.2359C95.6788 57.4644 64.687 36.9717 43.5562 23.6069C82.5789 49.891 112.475 79.1852 120.47 95.5721C130.102 115.439 136.387 125.926 146.296 149.549C156.206 173.172 158.493 172.691 164.068 195.062C169.643 217.433 176.217 224.946 176.193 237.672C175.921 243.297 175.241 248.894 174.158 254.421C177.77 256.202 180.78 257.587 180.78 257.587C186.559 156.147 134.497 100.364 111.753 75.2359Z" fill="#7A8C5B"></path> </g> <path d="M2.17334 0.465332C75.9807 35.5389 199.093 125.468 178.384 278.598L182.995 287.158L187.896 290.072C187.896 290.072 192.881 203.189 164.851 143.18C136.821 83.1705 73.9338 30.8552 2.17334 0.465332Z" fill="#ADB797"></path> </svg> 