<?xml version="1.0" encoding="UTF-8"?> <svg xmlns="http://www.w3.org/2000/svg" width="153" height="56" viewBox="0 0 153 56" fill="none"> <path d="M137.631 22.938C137.378 22.9422 137.137 23.0456 136.958 23.2264C136.779 23.4072 136.677 23.6512 136.672 23.9069V35.5806C136.672 35.8375 136.773 36.084 136.953 36.2657C137.133 36.4474 137.377 36.5495 137.631 36.5495C137.886 36.5495 138.13 36.4474 138.309 36.2657C138.489 36.084 138.59 35.8375 138.59 35.5806V23.9069C138.587 23.6509 138.485 23.4062 138.306 23.2251C138.127 23.0441 137.885 22.941 137.631 22.938Z" fill="#E8EFDF"></path> <path d="M137.631 19.7046C137.407 19.7046 137.187 19.7718 137.001 19.8978C136.814 20.0238 136.669 20.2029 136.583 20.4124C136.497 20.6219 136.475 20.8525 136.518 21.0749C136.562 21.2973 136.67 21.5016 136.829 21.662C136.988 21.8223 137.19 21.9315 137.41 21.9758C137.63 22.02 137.858 21.9973 138.065 21.9105C138.273 21.8237 138.45 21.6768 138.574 21.4882C138.699 21.2997 138.766 21.078 138.766 20.8512C138.766 20.7006 138.736 20.5515 138.679 20.4124C138.622 20.2733 138.539 20.1469 138.433 20.0404C138.328 19.9339 138.203 19.8495 138.065 19.7919C137.928 19.7342 137.78 19.7046 137.631 19.7046Z" fill="#E8EFDF"></path> <path d="M94.3912 25.852C93.5775 24.6925 92.4339 23.8106 91.1124 23.3235C89.8208 22.8662 88.4223 22.8161 87.1019 23.1796C85.7816 23.5432 84.6016 24.3033 83.7182 25.3593C82.8128 26.466 82.2659 27.8271 82.1515 29.2583C82.0542 30.6279 82.3703 31.995 83.058 33.1793C83.7457 34.3635 84.7727 35.3092 86.0034 35.8913C87.3328 36.5077 88.821 36.6834 90.2551 36.3933C91.5609 36.1203 92.7555 35.4574 93.6842 34.4905V35.5785C93.6842 35.8354 93.7852 36.0819 93.965 36.2636C94.1449 36.4453 94.3888 36.5474 94.6431 36.5474C94.8974 36.5474 95.1413 36.4453 95.3212 36.2636C95.501 36.0819 95.602 35.8354 95.602 35.5785V29.7416C95.6048 28.35 95.1819 26.9915 94.3912 25.852ZM93.6587 30.1946C93.6618 30.2597 93.6555 30.325 93.6403 30.3884V30.4351C93.5935 30.7238 93.5256 31.0087 93.4369 31.2872C93.3976 31.4063 93.3514 31.5207 93.3075 31.6421L93.2913 31.6841C93.2567 31.7565 93.222 31.8289 93.1851 31.9013C93.0583 32.1551 92.9123 32.3987 92.7483 32.6297L92.6605 32.7488L92.6259 32.7908C92.5357 32.8982 92.4433 33.0056 92.3463 33.106C92.2492 33.2064 92.1614 33.2951 92.0621 33.3838L91.9049 33.5216L91.8425 33.5753L91.7039 33.678L91.5514 33.7831C91.4266 33.8671 91.2972 33.9442 91.1678 34.0165C91.0384 34.0889 90.9368 34.1403 90.812 34.1963L90.7496 34.222L90.7981 34.208C90.7219 34.229 90.6479 34.2663 90.567 34.2944C90.305 34.392 90.0363 34.47 89.7629 34.5278L89.548 34.5675H89.4926C89.3562 34.5815 89.2222 34.5932 89.0859 34.5979C88.7983 34.6065 88.5104 34.5963 88.224 34.5675H88.1824L87.9675 34.5278C87.8273 34.4967 87.6864 34.4617 87.5447 34.4228C87.4153 34.3878 87.2882 34.3457 87.1634 34.299L86.9924 34.2337L86.9231 34.201C86.6644 34.0833 86.4149 33.9459 86.1767 33.7901C86.1241 33.7577 86.0732 33.7227 86.0242 33.685L85.8902 33.5869L85.8717 33.5566C85.8117 33.5052 85.7516 33.4539 85.6938 33.4002C85.4845 33.2117 85.2891 33.008 85.1092 32.7908L85.0584 32.7254L84.9937 32.6227C84.9082 32.499 84.825 32.3729 84.7487 32.2445C84.6725 32.1161 84.617 32.011 84.557 31.8943C84.5246 31.8289 84.4946 31.7658 84.4645 31.7005L84.4368 31.6421C84.349 31.3829 84.2543 31.1285 84.1896 30.86C84.1549 30.7176 84.1272 30.5728 84.1018 30.428V30.393C84.1018 30.3253 84.0879 30.2553 84.0833 30.1876C84.0602 29.8861 84.0602 29.5832 84.0833 29.2817C84.0809 29.2268 84.0855 29.1719 84.0971 29.1183V29.1486C84.0994 29.1245 84.0994 29.1003 84.0971 29.0762V29.0576C84.0988 29.0377 84.1026 29.0181 84.1087 28.9992C84.1318 28.8684 84.1549 28.7377 84.1872 28.6093C84.2543 28.3338 84.3698 28.0746 84.446 27.8038L84.4622 27.7688C84.4876 27.7104 84.5154 27.6544 84.5431 27.5984C84.6101 27.4629 84.684 27.3322 84.7603 27.2014C84.8257 27.0857 84.8983 26.9742 84.9775 26.8676C85.0122 26.8185 85.0538 26.7695 85.0861 26.7182C84.9359 26.9726 85.0722 26.7345 85.1323 26.6645C85.3034 26.4585 85.4887 26.265 85.6869 26.0854C85.7839 25.9967 85.8902 25.9173 85.9873 25.8286L85.8925 25.9127L86.0034 25.8216L86.1999 25.6862C86.4363 25.5315 86.6834 25.3942 86.9393 25.2753H86.9647C87.0201 25.2566 87.0756 25.2286 87.1311 25.2099C87.2651 25.1586 87.4014 25.1142 87.5377 25.0745C87.6741 25.0348 87.8196 25.0021 87.9606 24.9718L88.1755 24.9321H88.2101C88.5017 24.9002 88.7951 24.8892 89.0882 24.8994C89.2312 24.9021 89.3739 24.913 89.5157 24.9321L89.7468 24.9764C90.0287 25.0332 90.306 25.1112 90.5763 25.2099C90.6294 25.2286 90.6849 25.2543 90.7403 25.2753H90.7658C90.9021 25.3383 91.0361 25.406 91.1678 25.4807C91.2995 25.5555 91.3989 25.6138 91.5052 25.6862L91.66 25.7913C91.727 25.838 91.9465 26.0247 91.7178 25.8286C91.9234 26.0107 92.1337 26.1788 92.3232 26.3796C92.4133 26.473 92.5011 26.5734 92.5866 26.6738C92.6305 26.7275 92.6721 26.7859 92.7183 26.8396C92.5196 26.6061 92.6975 26.8162 92.7414 26.8769C92.9033 27.1097 93.0485 27.3539 93.1758 27.6077C93.2035 27.6637 93.229 27.7198 93.2567 27.7781C93.2627 27.7903 93.2681 27.8027 93.2729 27.8155C93.3121 27.9532 93.3768 28.0863 93.4207 28.2241C93.5012 28.481 93.5645 28.743 93.6102 29.0085C93.6126 29.0279 93.6126 29.0475 93.6102 29.0669V29.1206C93.6077 29.1756 93.6131 29.2306 93.6264 29.284C93.6264 29.4335 93.6426 29.5852 93.6426 29.737C93.6452 29.8881 93.6398 30.0393 93.6264 30.1899" fill="#E8EFDF"></path> <path d="M78.2466 21.9084C77.4423 20.7603 76.3153 19.8827 75.0117 19.3892C73.7227 18.9298 72.3263 18.8757 71.0063 19.2342C69.6863 19.5926 68.5048 20.3467 67.6175 21.3971C66.5881 22.6275 66.016 24.1824 66 25.7934V35.5759C66 35.8329 66.101 36.0794 66.2809 36.2611C66.4607 36.4428 66.7046 36.5449 66.9589 36.5449C67.2133 36.5449 67.4572 36.4428 67.637 36.2611C67.8168 36.0794 67.9179 35.8329 67.9179 35.5759V25.7887C67.9148 25.6391 67.921 25.4894 67.9364 25.3405C67.9336 25.2753 67.9398 25.2101 67.9548 25.1467V25.1C68.0018 24.812 68.0698 24.528 68.1582 24.2502C68.1975 24.1288 68.2414 24.0167 68.2853 23.8953L68.3038 23.8532L68.4077 23.6361C68.5361 23.3827 68.6828 23.1392 68.8468 22.9077C68.8606 22.8843 68.9323 22.7933 68.9346 22.7863L68.9507 22.7653C69.0463 22.6516 69.1456 22.5396 69.2488 22.4291C69.3389 22.3357 69.4337 22.2423 69.5307 22.1536L69.6902 22.0135L69.7502 21.9621L69.8681 21.8734C69.9259 21.8314 69.9836 21.7917 70.0437 21.7543C70.1685 21.6703 70.2956 21.5932 70.4273 21.5209C70.559 21.4485 70.6583 21.3971 70.7808 21.3387L70.8363 21.3177H70.797C70.864 21.2967 70.9287 21.264 70.9957 21.2407C71.266 21.142 71.5433 21.0639 71.8252 21.0072L72.0401 20.9675H72.0748C72.2181 20.9512 72.359 20.9395 72.5023 20.9348C72.7822 20.9232 73.0625 20.9325 73.341 20.9628H73.3064L73.3803 20.9745H73.4496L73.6022 21.0025C73.7547 21.0329 73.9025 21.0679 74.0504 21.1099C74.1983 21.152 74.3092 21.1893 74.434 21.236L74.5796 21.292L74.6489 21.3224C74.9053 21.4418 75.1531 21.5791 75.3906 21.7333C75.4992 21.8057 75.6009 21.8944 75.7118 21.9668L75.7049 21.9528L75.7442 21.9808C75.8042 22.0298 75.8643 22.0835 75.9221 22.1349C76.1301 22.3248 76.3246 22.5292 76.5044 22.7466C76.5252 22.7723 76.5529 22.8143 76.576 22.8493L76.5344 22.7793C76.5691 22.8376 76.6176 22.8937 76.6569 22.9497C76.7493 23.0828 76.8325 23.2159 76.9134 23.3536C76.9942 23.4914 77.0659 23.6361 77.1444 23.7809L77.1906 23.8836C77.2068 23.928 77.2461 24.0214 77.253 24.0447C77.3659 24.3524 77.4518 24.6696 77.5095 24.9926C77.5234 25.0626 77.528 25.1397 77.5442 25.2097C77.4749 24.9109 77.5442 25.1654 77.5442 25.2564C77.5604 25.4362 77.5673 25.616 77.5696 25.7934V35.5759C77.5696 35.8329 77.6706 36.0794 77.8505 36.2611C78.0303 36.4428 78.2742 36.5449 78.5285 36.5449C78.7829 36.5449 79.0268 36.4428 79.2066 36.2611C79.3864 36.0794 79.4875 35.8329 79.4875 35.5759V25.7701C79.485 24.3879 79.0623 23.0399 78.2767 21.9084" fill="#E8EFDF"></path> <path d="M117.214 25.3129C116.556 24.3768 115.635 23.6619 114.571 23.2606C113.53 22.8872 112.402 22.8407 111.335 23.1275C110.268 23.4142 109.312 24.0206 108.593 24.8669C108.468 25.021 108.35 25.1798 108.24 25.3455L108.219 25.3129C107.558 24.3732 106.63 23.6578 105.559 23.2606C104.519 22.8874 103.392 22.841 102.325 23.1277C101.258 23.4145 100.303 24.0208 99.5837 24.8669C98.7435 25.8701 98.2775 27.1389 98.2666 28.4531V35.5763C98.2666 35.8333 98.3676 36.0798 98.5475 36.2615C98.7273 36.4432 98.9712 36.5453 99.2255 36.5453C99.4799 36.5453 99.7238 36.4432 99.9036 36.2615C100.083 36.0798 100.184 35.8333 100.184 35.5763V28.4531V28.1169C100.182 28.0697 100.187 28.0225 100.198 27.9768C100.237 27.7469 100.291 27.52 100.36 27.2974C100.383 27.2273 100.411 27.1596 100.436 27.0919C100.441 27.0745 100.448 27.0573 100.455 27.0406C100.454 27.032 100.455 27.0234 100.458 27.0153C100.46 27.0072 100.465 26.9999 100.471 26.9939V27.0196L100.538 26.8818C100.642 26.6854 100.76 26.4973 100.892 26.3191C100.915 26.2818 100.945 26.2491 100.968 26.2117L100.952 26.2374C101.019 26.1557 101.086 26.0787 101.157 26.0039L101.388 25.7705L101.506 25.6654L101.576 25.6164L101.518 25.6514C101.698 25.5417 101.862 25.4179 102.047 25.3035C102.137 25.2545 102.229 25.2078 102.322 25.1634H102.278L102.326 25.1471L102.363 25.1331L102.477 25.0864C102.663 25.021 102.854 24.9672 103.047 24.9253L103.2 24.8949H103.288C103.378 24.8949 103.468 24.8763 103.558 24.8716C103.776 24.8665 103.993 24.8743 104.21 24.8949L104.351 24.9206C104.475 24.9463 104.598 24.9767 104.72 25.0117C104.806 25.0374 104.891 25.063 104.975 25.0934L105.102 25.1424C105.306 25.2384 105.503 25.3476 105.693 25.4693C105.751 25.5066 105.809 25.551 105.866 25.593L105.908 25.6234L105.95 25.6514L105.927 25.6374C105.963 25.6677 106.003 25.7004 106.04 25.7354C106.206 25.8853 106.361 26.0485 106.502 26.2234L106.488 26.2001C106.488 26.2164 106.511 26.2327 106.523 26.2491L106.571 26.3168C106.641 26.4172 106.708 26.5223 106.77 26.6296C106.832 26.737 106.89 26.8468 106.943 26.9588C106.966 27.0055 106.985 27.0592 107.01 27.1059C107.01 27.0826 106.987 27.0662 106.98 27.0499C106.98 27.0756 107.006 27.1036 107.013 27.1223C107.098 27.3617 107.165 27.6076 107.211 27.8577C107.214 27.9132 107.223 27.9681 107.239 28.0212L107.223 27.9628C107.23 27.988 107.234 28.0138 107.237 28.0398C107.248 28.1706 107.253 28.3037 107.253 28.4344V35.5577C107.253 35.8146 107.354 36.0611 107.534 36.2428C107.714 36.4245 107.957 36.5266 108.212 36.5266C108.466 36.5266 108.71 36.4245 108.89 36.2428C109.07 36.0611 109.171 35.8146 109.171 35.5577V28.1145L109.185 27.9745C109.223 27.7443 109.278 27.5172 109.349 27.295C109.369 27.225 109.397 27.1573 109.423 27.0896C109.426 27.0715 109.432 27.0541 109.441 27.0382C109.449 27.0233 109.455 27.0076 109.46 26.9915V27.0196C109.48 26.9729 109.503 26.9285 109.527 26.8818C109.625 26.6843 109.739 26.4946 109.866 26.3145C109.892 26.2771 109.922 26.2444 109.945 26.2071L109.929 26.2327C109.993 26.151 110.063 26.074 110.134 25.9993L110.365 25.7658L110.483 25.6607L110.55 25.6117L110.492 25.6467C110.673 25.537 110.837 25.4133 111.022 25.2989C111.111 25.2506 111.203 25.2039 111.299 25.1588H111.271L111.317 25.1424L111.354 25.1284L111.47 25.0817C111.656 25.0166 111.846 24.9629 112.038 24.9206L112.193 24.8903H112.279C112.369 24.8903 112.459 24.8716 112.549 24.8669C112.767 24.8619 112.986 24.8697 113.203 24.8903L113.344 24.916C113.466 24.9416 113.591 24.972 113.711 25.007C113.831 25.042 113.882 25.0584 113.968 25.0887L114.095 25.1378C114.298 25.2338 114.495 25.343 114.684 25.4646C114.744 25.502 114.8 25.5463 114.857 25.5884L114.901 25.6187L114.943 25.6467L114.917 25.6327C114.957 25.6631 114.994 25.6958 115.033 25.7308C115.2 25.8806 115.354 26.0438 115.495 26.2187L115.479 26.1954L115.514 26.2444C115.53 26.2678 115.548 26.2888 115.562 26.3121C115.634 26.4127 115.7 26.5171 115.761 26.625C115.823 26.7324 115.883 26.8421 115.936 26.9542C115.957 27.0009 115.976 27.0546 116.001 27.1013L115.971 27.0452C115.983 27.0687 115.994 27.0929 116.003 27.1176C116.091 27.3565 116.158 27.6026 116.204 27.8531C116.2 27.9088 116.209 27.9647 116.23 28.0165C116.233 27.996 116.228 27.9751 116.216 27.9581C116.218 27.9837 116.218 28.0095 116.216 28.0352C116.216 28.1659 116.232 28.299 116.234 28.4297V35.553C116.234 35.81 116.336 36.0564 116.515 36.2381C116.695 36.4198 116.939 36.5219 117.193 36.5219C117.448 36.5219 117.692 36.4198 117.871 36.2381C118.051 36.0564 118.152 35.81 118.152 35.553V28.4204C118.147 27.3103 117.808 26.2281 117.18 25.3175" fill="#E8EFDF"></path> <path d="M132.856 25.8515C132.042 24.6917 130.897 23.8105 129.574 23.3253C128.283 22.8671 126.885 22.8163 125.564 23.1794C124.244 23.5426 123.064 24.3026 122.18 25.3588C121.275 26.4655 120.728 27.8266 120.614 29.2578C120.516 30.6268 120.831 31.9936 121.518 33.1778C122.205 34.362 123.231 35.3079 124.461 35.8908C125.79 36.5071 127.278 36.6828 128.713 36.3928C130.021 36.1211 131.218 35.4582 132.149 34.49V42.0312C132.149 42.2881 132.25 42.5346 132.429 42.7163C132.609 42.898 132.853 43.0001 133.107 43.0001C133.362 43.0001 133.606 42.898 133.786 42.7163C133.965 42.5346 134.066 42.2881 134.066 42.0312V29.7411C134.068 28.3497 133.645 26.9915 132.856 25.8515ZM132.114 30.3902V30.4345C132.067 30.7233 131.999 31.0082 131.911 31.2867C131.871 31.4058 131.825 31.5202 131.781 31.6416C131.776 31.656 131.77 31.6701 131.763 31.6836C131.73 31.7568 131.696 31.8292 131.659 31.9008C131.527 32.1526 131.376 32.3938 131.208 32.6222L131.12 32.7413L131.086 32.7833C130.996 32.893 130.903 32.9981 130.806 33.0985C130.709 33.1989 130.619 33.2876 130.522 33.3763L130.365 33.5141L130.302 33.5677L130.164 33.6705L130.011 33.7755C129.886 33.8596 129.757 33.9366 129.628 34.009C129.498 34.0814 129.397 34.1328 129.272 34.1888L129.209 34.2145L129.258 34.2005C129.182 34.2215 129.108 34.2588 129.027 34.2869C128.765 34.3844 128.496 34.4625 128.223 34.5203L128.008 34.56H127.952C127.816 34.574 127.682 34.5857 127.546 34.5904C127.257 34.599 126.969 34.5888 126.681 34.56H126.633L126.418 34.5203C126.275 34.49 126.136 34.4549 125.995 34.4153C125.854 34.3756 125.739 34.3382 125.612 34.2915L125.443 34.2261L125.374 34.1935C125.117 34.0739 124.87 33.9349 124.634 33.7779L124.482 33.6728L124.35 33.5748L124.322 33.5514L124.142 33.395C123.934 33.2059 123.739 33.0022 123.56 32.7856L123.509 32.7226C123.488 32.6922 123.451 32.6409 123.437 32.6245C123.352 32.5008 123.269 32.3747 123.192 32.2463C123.116 32.1179 123.061 32.0128 123.001 31.8961C122.968 31.8307 122.938 31.7677 122.908 31.7023L122.88 31.6439C122.793 31.3848 122.698 31.1303 122.633 30.8618C122.598 30.7194 122.568 30.5746 122.545 30.4299V30.3948L122.525 30.1894C122.501 29.8879 122.501 29.585 122.525 29.2835C122.522 29.2285 122.527 29.1734 122.541 29.1201V29.1504C122.543 29.1264 122.543 29.1021 122.541 29.0781C122.538 29.0721 122.538 29.0654 122.541 29.0594C122.538 29.04 122.538 29.0204 122.541 29.001C122.564 28.8703 122.587 28.7395 122.619 28.6111C122.684 28.3356 122.802 28.0765 122.878 27.8056C122.882 27.7935 122.888 27.7818 122.894 27.7706C122.92 27.7122 122.947 27.6562 122.975 27.6002C123.042 27.4671 123.114 27.334 123.192 27.2033C123.259 27.088 123.331 26.9765 123.41 26.8694C123.444 26.8204 123.486 26.7713 123.518 26.72C123.368 26.9745 123.504 26.7363 123.564 26.6663C123.738 26.4566 123.926 26.26 124.128 26.0779C124.228 25.9892 124.334 25.9098 124.431 25.8211L124.338 25.9052C124.362 25.8818 124.417 25.8374 124.447 25.8141L124.643 25.6787C124.88 25.524 125.127 25.3867 125.383 25.2678H125.408C125.464 25.2491 125.519 25.2211 125.572 25.2024C125.709 25.151 125.845 25.1067 125.981 25.067C126.118 25.0273 126.261 24.9946 126.404 24.9643L126.619 24.9246H126.654C126.945 24.8927 127.239 24.8817 127.532 24.8919C127.675 24.8946 127.817 24.9056 127.959 24.9246L128.202 24.9689C128.484 25.0256 128.761 25.1037 129.031 25.2024C129.085 25.2211 129.14 25.2468 129.195 25.2678H129.221C129.357 25.3308 129.491 25.3985 129.623 25.4732C129.755 25.5479 129.854 25.6063 129.96 25.6787L130.115 25.7837C130.182 25.8304 130.402 26.0172 130.173 25.8211C130.376 26.0032 130.587 26.1713 130.778 26.3721C130.868 26.4655 130.956 26.5659 131.042 26.6663C131.086 26.72 131.127 26.7783 131.173 26.832C130.975 26.5986 131.153 26.8087 131.197 26.8694C131.358 27.1022 131.502 27.3464 131.629 27.6002C131.659 27.6562 131.684 27.7122 131.712 27.7706L131.728 27.808C131.767 27.9457 131.832 28.0811 131.876 28.2165C131.957 28.4732 132.019 28.7353 132.063 29.001C132.07 29.0198 132.075 29.0394 132.077 29.0594C132.075 29.0662 132.075 29.0736 132.077 29.0804C132.075 29.1037 132.075 29.1271 132.077 29.1504V29.1201C132.074 29.1751 132.08 29.2301 132.093 29.2835C132.093 29.4329 132.109 29.5824 132.109 29.7318V29.7528C132.112 29.8985 132.107 30.0443 132.093 30.1894C132.096 30.2553 132.09 30.3213 132.075 30.3855" fill="#E8EFDF"></path> <path d="M151.174 25.4877C150.542 24.5092 149.626 23.7517 148.551 23.3188C147.506 22.9081 146.36 22.8323 145.271 23.1017C144.181 23.371 143.2 23.9726 142.46 24.8247C141.608 25.8266 141.13 27.099 141.111 28.4202V35.5691C141.111 35.8261 141.212 36.0725 141.392 36.2542C141.572 36.4359 141.815 36.538 142.07 36.538C142.324 36.538 142.568 36.4359 142.748 36.2542C142.928 36.0725 143.029 35.8261 143.029 35.5691V28.098L143.043 27.9509C143.08 27.7262 143.133 27.5046 143.202 27.2878C143.232 27.1991 143.271 27.1127 143.301 27.024C143.329 26.9656 143.355 26.9096 143.385 26.8559C143.484 26.6583 143.598 26.4686 143.727 26.2885L143.798 26.1975C143.872 26.1111 143.948 26.0271 144.029 25.9453C144.11 25.8636 144.179 25.7959 144.26 25.7259L144.378 25.6231C144.553 25.4958 144.736 25.3796 144.926 25.2753C145.011 25.2286 145.099 25.1912 145.185 25.1469L145.353 25.0862C145.566 25.0119 145.784 24.9549 146.005 24.9157L146.079 24.904H146.132C146.252 24.904 146.363 24.8877 146.495 24.8854H146.86L147.024 24.9017C147.244 24.9375 147.461 24.9898 147.673 25.0581L147.944 25.1562L148.108 25.2356C148.304 25.3367 148.492 25.4522 148.671 25.5811L148.718 25.6161L148.766 25.6558C148.854 25.7293 148.938 25.8073 149.018 25.8893C149.095 25.9626 149.168 26.0405 149.235 26.1228L149.339 26.2442V26.2559C149.476 26.4516 149.602 26.6551 149.716 26.8652C149.744 26.9189 149.771 26.975 149.797 27.0333V27.0543C149.836 27.1617 149.878 27.2691 149.91 27.3789C149.942 27.4886 149.979 27.6123 150.007 27.7478C150.021 27.8108 150.032 27.8738 150.044 27.9369C150.044 28.0629 150.062 28.1843 150.067 28.3081C150.062 28.3523 150.062 28.3969 150.067 28.4412V28.8124C150.065 28.8482 150.065 28.884 150.067 28.9198V35.5621C150.067 35.8191 150.168 36.0655 150.348 36.2472C150.528 36.4289 150.772 36.531 151.026 36.531C151.28 36.531 151.524 36.4289 151.704 36.2472C151.884 36.0655 151.985 35.8191 151.985 35.5621V28.8241C152.071 27.6495 151.777 26.4784 151.146 25.4877" fill="#E8EFDF"></path> <path d="M27.9422 0.026421C27.6051 0.11545 27.3559 0.376854 27.2642 0.740546C27.1928 1.02847 27.2771 1.34859 27.486 1.58348C27.704 1.82405 27.8561 1.88277 28.3453 1.90739C32.7027 2.12523 36.9428 3.52128 40.6497 5.95536C41.8609 6.75094 42.9878 7.64312 44.122 8.70579C44.3822 8.94825 44.4793 9.02781 44.5819 9.07895C44.8128 9.1926 45.062 9.20397 45.3002 9.11115C45.8059 8.91415 46.035 8.3061 45.7949 7.79656C45.7272 7.65449 45.5861 7.50106 45.1206 7.07296C42.8558 4.99309 40.3382 3.35269 37.5438 2.13849C34.8447 0.96596 31.8305 0.230998 28.95 0.0415748C28.1823 -0.00956939 28.0851 -0.0114636 27.9422 0.026421Z" fill="#E8EFDF"></path> <path d="M12.4754 2.19146C12.3947 2.19903 12.2298 2.22366 12.1089 2.2445C11.1762 2.41687 10.3077 2.81845 9.5729 3.42081C9.34386 3.60834 8.87844 4.08569 8.70436 4.3111C8.36721 4.74867 7.97875 5.45522 7.85048 5.86437C7.74237 6.2148 7.71305 6.41938 7.71305 6.8399C7.71489 7.17328 7.72038 7.24716 7.76253 7.45552C7.78818 7.58623 7.84132 7.77754 7.87797 7.88173C7.91461 7.98591 7.94943 8.0863 7.95493 8.10525C7.96226 8.12798 7.87247 8.23784 7.62693 8.50303C6.7364 9.4653 6.0566 10.2912 5.37679 11.2345C5.05246 11.6853 5.00665 11.7535 4.74096 12.1532C3.39234 14.1819 2.29292 16.4266 1.50866 18.7451C0.849012 20.6943 0.418406 22.6169 0.183864 24.6646C-0.0286909 26.502 -0.0580087 28.5573 0.101407 30.4231C0.445892 34.4938 1.60761 38.3334 3.56824 41.8832C5.63332 45.6224 8.58526 48.888 12.0649 51.288C13.0837 51.9908 13.9559 52.5136 15.0517 53.08C15.7461 53.438 16.6385 53.849 17.223 54.0801C17.2945 54.1085 17.3715 54.1407 17.3971 54.1502C17.7672 54.3112 18.7164 54.6427 19.5226 54.8927C21.5126 55.5103 23.8855 55.9043 26.1192 55.9876C26.7385 56.0103 28.0322 56.0009 28.5654 55.9668C31.2443 55.8001 33.5402 55.3303 36.0872 54.4249C37.2856 53.9987 37.7199 53.8111 38.9549 53.1841C41.6503 51.8127 43.9554 50.1212 46.0901 47.9447C47.7154 46.2854 49.0989 44.4839 50.2697 42.4988C52.4466 38.8031 53.7494 34.6661 54.0976 30.3378C54.1745 29.385 54.2167 27.9985 54.1745 27.7541C54.0481 27.0059 53.1466 26.7161 52.6243 27.2559C52.4191 27.4681 52.3586 27.648 52.3586 28.0458C52.3586 28.4057 52.3275 29.243 52.2945 29.7696C52.1149 32.6639 51.4296 35.6019 50.3064 38.2955C49.7219 39.6934 48.9853 41.099 48.1753 42.3567C47.9353 42.7299 47.6348 43.1769 47.6146 43.1883C47.6073 43.194 47.6293 43.1163 47.6678 43.014C48.1442 41.7127 48.5253 40.1291 48.6847 38.7956C48.7012 38.6592 48.7177 38.5361 48.7214 38.5209C48.7251 38.5058 48.7525 38.2273 48.78 37.9053C48.8277 37.356 48.8295 37.2537 48.8295 36.3047C48.8313 35.4068 48.8258 35.2344 48.7892 34.7987C48.7177 33.9388 48.6243 33.2606 48.4795 32.5181C48.3348 31.7737 48.3091 31.5426 48.3091 30.9913C48.3091 29.7393 48.6389 28.6198 49.3151 27.5836C49.4342 27.3999 49.4763 27.3109 49.5093 27.1707C49.6651 26.485 49.0494 25.858 48.3934 26.036C48.1204 26.1099 47.9701 26.2387 47.7466 26.5873C47.1602 27.5003 46.7626 28.5269 46.5794 29.5991C46.4969 30.0897 46.4694 30.4363 46.4694 30.9819C46.4676 31.5672 46.5006 31.9479 46.5977 32.4688C46.6325 32.6564 46.6856 32.9424 46.7168 33.1034C46.8341 33.7323 46.9312 34.5336 46.9733 35.2249C47.0026 35.6834 47.0026 36.9013 46.9733 37.356C46.9074 38.4262 46.7461 39.4983 46.5024 40.5004C45.8977 42.9818 44.758 45.3004 43.1822 47.2552C41.5935 49.2252 39.5321 50.858 37.3955 51.8374C35.6053 52.6613 33.8169 53.2448 31.9552 53.6179C30.537 53.9021 29.3166 54.0384 27.7298 54.0953C27.0317 54.118 26.2053 54.101 25.3844 54.0441C21.6537 53.7884 17.9945 52.6576 14.731 50.752C10.8702 48.4978 7.66541 45.2663 5.38961 41.3338C3.3905 37.8788 2.17381 33.8876 1.90629 29.8927C1.82933 28.7694 1.822 27.3203 1.8843 26.3221C2.00707 24.4108 2.3314 22.4635 2.80598 20.8004C2.84079 20.6754 2.87927 20.5428 2.88844 20.5068C3.03502 19.9518 3.44547 18.766 3.7753 17.9477C4.84907 15.2806 6.3681 12.7878 8.26093 10.5905C8.35072 10.4863 8.59625 10.2116 8.80881 9.98053L9.19177 9.56191L9.38784 9.6623C9.62604 9.78732 9.88441 9.88014 10.1519 9.93886C10.3278 9.97864 10.4011 9.98432 10.7548 9.98432C11.1781 9.98432 11.2953 9.96917 11.6984 9.85741C13.4044 9.38953 14.8025 8.24352 15.6124 6.65237C16.0375 5.81323 16.2849 4.87179 16.3105 3.99476C16.3178 3.74851 16.3142 3.60455 16.2995 3.54583C16.2482 3.33557 16.1163 3.13289 15.944 2.9984C15.8194 2.90179 15.2771 2.62713 14.9985 2.52105C14.5734 2.35626 14.0695 2.23502 13.6334 2.19146C13.408 2.16873 12.7026 2.16873 12.4754 2.19146ZM13.6682 4.11031C13.9486 4.16525 14.3609 4.28648 14.4213 4.33383C14.4378 4.3452 14.4305 4.40581 14.3994 4.56303C14.13 5.86058 13.3622 6.95355 12.2756 7.58244C11.8194 7.84574 11.1964 8.06547 10.8281 8.09388C10.2014 8.13934 9.63154 7.65063 9.55275 6.99523C9.53076 6.81149 9.55458 6.5766 9.61138 6.42696C9.86608 5.75261 10.4341 5.06122 11.0553 4.66343C11.5684 4.33573 12.0063 4.17851 12.6971 4.07622C12.829 4.05727 13.5088 4.0819 13.6682 4.11031Z" fill="#E8EFDF"></path> <path d="M22.1156 6.80412C21.663 6.84201 21.2306 6.91588 20.9063 7.01249C19.9443 7.29473 19.0886 7.80996 18.4033 8.51651C18.1577 8.77033 18.0294 8.93702 17.8737 9.20601C17.5567 9.75154 17.3936 10.4751 17.4486 11.0813C17.4596 11.2101 17.4742 11.3275 17.4797 11.3427C17.4871 11.3635 17.4193 11.4166 17.2287 11.5397C15.3597 12.735 13.6831 14.2977 12.2923 16.1427C10.7018 18.2491 9.52178 20.7741 8.90793 23.3862C8.81448 23.7764 8.74485 24.1212 8.64957 24.6553C8.54146 25.2634 8.43152 26.2995 8.39854 27.0307C8.37471 27.5744 8.38571 28.9155 8.41869 29.372C8.46084 29.9743 8.56895 30.8855 8.64957 31.342C8.85113 32.4653 9.03803 33.2324 9.33854 34.1549C9.8516 35.7366 10.5332 37.1781 11.4403 38.6064C13.7949 42.3115 17.357 45.1017 21.4376 46.4352C22.3208 46.7231 23.0428 46.9069 23.904 47.0622C24.4592 47.1626 25.3296 47.2725 25.5733 47.2725C25.8115 47.2725 25.9929 47.2005 26.1853 47.0338C26.4565 46.7989 26.5646 46.3746 26.4455 46.028C26.3099 45.6321 25.9966 45.4029 25.5513 45.3688C25.1702 45.3422 24.3749 45.2248 23.8655 45.1206C20.855 44.5088 18.0331 43.0464 15.7536 40.9135C15.4257 40.6086 14.7422 39.8925 14.4618 39.5629C13.1993 38.0817 12.2282 36.4886 11.5026 34.7042C11.4476 34.5679 11.3871 34.4144 11.3688 34.3633C11.3505 34.3102 11.3047 34.1871 11.268 34.0886C10.8301 32.9085 10.4966 31.4803 10.3353 30.1013C10.2492 29.3568 10.2254 28.9022 10.2254 27.9892C10.2254 26.9057 10.2785 26.1613 10.427 25.2047C11.1324 20.668 13.5585 16.5935 17.1774 13.8677C17.4816 13.6385 17.9543 13.3089 18.1797 13.1687L18.2951 13.0986L18.4454 13.2369C19.116 13.8507 19.7244 14.0836 20.8018 14.1405C21.1206 14.1575 21.6117 14.1405 21.9031 14.1045C23.5174 13.9018 25.0163 13.0532 26.0699 11.7462C26.5683 11.1249 27.0887 10.155 27.1436 9.73828C27.1986 9.3386 27.0557 9.06583 26.4931 8.49567C25.5715 7.5656 24.4042 6.98976 23.1308 6.84011C22.8852 6.8117 22.2879 6.79086 22.1156 6.80412ZM23.1417 8.76086C23.5614 8.84421 23.8545 8.9446 24.2045 9.12266C24.5215 9.28367 24.8587 9.51855 25.0969 9.74397L25.1445 9.78943L25.0712 9.91634C24.6021 10.7176 23.9425 11.3503 23.1509 11.7575C22.724 11.9773 22.33 12.108 21.8224 12.1951C21.6209 12.2311 21.5109 12.2368 21.117 12.2368C20.7102 12.2387 20.6204 12.233 20.4207 12.1951C19.8765 12.0947 19.5228 11.7841 19.3378 11.2442C19.3011 11.1381 19.2956 11.0851 19.2956 10.8559C19.2956 10.621 19.3011 10.5736 19.3433 10.4429C19.4349 10.1569 19.587 9.94665 19.8911 9.67956C20.4097 9.22495 21.0803 8.89535 21.7382 8.77223C22.0845 8.70782 22.0698 8.70972 22.5279 8.7154C22.8577 8.71919 22.9805 8.72866 23.1417 8.76086Z" fill="#E8EFDF"></path> <path d="M45.9731 9.96731C45.2365 10.0753 44.8187 10.2401 44.3148 10.617C43.6203 11.1361 43.1274 11.9809 43.0157 12.8352C42.9369 13.4451 42.9937 13.7198 43.252 13.9926C43.7065 14.4699 44.4797 14.3203 44.7454 13.7008C44.7802 13.6194 44.7967 13.5341 44.8114 13.3599C44.8224 13.233 44.8462 13.0606 44.8663 12.9791C44.9873 12.4866 45.3226 12.1135 45.8082 11.9335C45.9456 11.8824 45.9713 11.8786 46.2479 11.8786C46.51 11.8786 46.5558 11.8843 46.6694 11.9241C46.9461 12.0207 47.1495 12.157 47.3235 12.3635C47.5526 12.6306 47.657 12.9053 47.6864 13.3163C47.7523 14.2786 47.4426 15.2731 46.8435 16.0251C46.5943 16.3395 46.2113 16.6805 45.8723 16.8926C45.0587 17.4003 44.0986 17.5556 43.0963 17.3453C42.3413 17.1862 41.4087 17.1578 40.5951 17.2677C38.5502 17.5442 36.7398 18.6088 35.4425 20.2984C34.5208 21.4994 33.94 23.011 33.8062 24.5605C33.6449 26.4036 34.0884 28.2258 35.0778 29.7791C35.2702 30.084 35.4297 30.2526 35.5964 30.3341C35.9556 30.5121 36.3532 30.4458 36.6299 30.1598C36.7673 30.0158 36.8333 29.9022 36.8772 29.7279C36.9487 29.4476 36.9102 29.2354 36.7215 28.8888C36.5767 28.6179 36.5181 28.4417 36.4888 28.1728C36.3898 27.2957 36.9688 26.4774 37.8081 26.3107C37.9913 26.2728 38.279 26.2747 38.4567 26.3126C39.1677 26.4642 39.6991 27.0646 39.7742 27.8072C39.8145 28.1936 39.7412 28.9456 39.6075 29.5252C39.0064 32.1165 36.9102 34.0828 34.3467 34.4578C33.8392 34.5317 33.3554 34.4597 32.9468 34.2476C32.5785 34.0562 32.3073 33.8119 32.0618 33.4501C31.9134 33.2323 31.7704 32.8723 31.7173 32.5825C31.6696 32.3173 31.6916 32.0768 31.7888 31.84C31.9243 31.5028 31.9243 31.2585 31.7869 30.963C31.6861 30.747 31.415 30.5292 31.1767 30.4724C30.8524 30.3947 30.4603 30.533 30.2569 30.7982C30.07 31.0425 29.8923 31.624 29.8556 32.109C29.7805 33.1432 30.2771 34.3896 31.087 35.1966C31.7686 35.8766 32.6775 36.3009 33.601 36.3729C33.6889 36.3805 33.7567 36.3918 33.7494 36.3975C33.7237 36.4259 33.1154 36.5794 32.7801 36.6438C32.2652 36.7423 31.9757 36.7669 31.2867 36.7669C30.5995 36.7669 30.3302 36.7442 29.7841 36.6438C26.6673 36.0698 24.1166 33.7664 23.1821 30.6788C22.8816 29.6863 22.7662 28.8244 22.7918 27.7333C22.8028 27.2503 22.812 27.1177 22.867 26.7199C23.1253 24.8825 23.9206 23.2061 25.1593 21.8915C25.8574 21.149 26.5519 20.6167 27.4277 20.1526C27.6458 20.037 27.7246 19.984 27.8089 19.8969C28.0324 19.6658 28.124 19.3324 28.0526 19.0142C27.9628 18.6258 27.6659 18.3455 27.2793 18.2868C27.0613 18.2546 26.9128 18.2906 26.5958 18.4554C24.9449 19.3172 23.5266 20.647 22.5316 22.2703C22.255 22.7231 21.8995 23.4258 21.7419 23.8331C21.7236 23.8842 21.6741 24.0111 21.6356 24.1153C21.5128 24.4336 21.3516 24.9526 21.2655 25.3087C21.0932 26.0133 20.9998 26.6441 20.9521 27.4113C20.8697 28.7297 21.0896 30.3095 21.5275 31.5691C21.7217 32.126 21.8097 32.3439 22.0424 32.8193C23.0465 34.8897 24.6627 36.5472 26.6783 37.5738C26.9843 37.7292 27.0631 37.7651 27.3563 37.8902C28.6096 38.4168 29.9032 38.6763 31.2867 38.6763C32.9926 38.6763 34.5721 38.2804 36.0673 37.4772C38.7902 36.0149 40.7527 33.344 41.4013 30.2242C41.5534 29.4855 41.656 28.347 41.6194 27.7788C41.5058 25.9603 40.148 24.5339 38.3908 24.3862C37.4343 24.3047 36.4411 24.6665 35.7375 25.3504L35.6056 25.4792L35.6166 25.1193C35.644 24.1759 35.8456 23.3557 36.2597 22.5052C37.1686 20.6394 38.8855 19.4006 40.9249 19.1392C41.1796 19.107 42.0445 19.107 42.2992 19.1392C43.5287 19.2964 44.6868 19.8306 45.57 20.6508C45.7954 20.8591 45.8467 20.9103 46.0281 21.113C46.3267 21.4463 46.6144 21.8593 46.8526 22.2969C47.1476 22.8405 47.5819 23.5148 47.8586 23.8596C48.0363 24.0831 48.3827 24.4336 48.6483 24.6628C49.068 25.0227 49.4692 25.2897 49.9768 25.553C51.0487 26.1043 51.9319 26.2615 52.8701 26.0645C54.0557 25.8182 55.0653 25.0132 55.6022 23.888C56.1464 22.7458 56.1317 21.4066 55.5619 20.2549C54.8875 18.8929 53.4583 18.0292 51.9833 18.0879C51.6717 18.1011 51.5215 18.1333 51.3676 18.2167C51.2393 18.2887 51.0616 18.4743 50.9974 18.605C50.7885 19.0312 50.904 19.5502 51.2686 19.8135C51.4885 19.9745 51.5307 19.984 51.9649 19.9897C52.478 19.9935 52.6832 20.0389 53.0259 20.2151C53.2952 20.3553 53.5133 20.5352 53.691 20.7625C54.1986 21.416 54.303 22.2779 53.964 23.0186C53.5682 23.8823 52.6777 24.3635 51.7615 24.21C51.3602 24.1437 50.7079 23.8482 50.2297 23.5148C49.843 23.2478 49.3996 22.8272 49.1742 22.5109C48.9415 22.1889 48.6428 21.7078 48.4285 21.3119C47.9539 20.4367 47.2796 19.6184 46.5191 18.9876C46.4055 18.8948 46.3121 18.8134 46.3121 18.8096C46.3121 18.8058 46.3799 18.7679 46.4642 18.7243C47.001 18.4459 47.4775 18.0879 47.9062 17.6427C48.7858 16.7278 49.3318 15.5723 49.4949 14.2843C49.5352 13.9566 49.5389 13.25 49.5022 12.9394C49.3685 11.8085 48.6942 10.8216 47.7047 10.3064C47.2851 10.0885 46.8325 9.97489 46.3304 9.96542C46.1637 9.96163 46.0042 9.96352 45.9731 9.96731Z" fill="#E8EFDF"></path> <path d="M9.36198 12.4963C7.67804 12.6384 6.23413 13.6556 5.47187 15.2316C5.26848 15.6521 5.12738 16.1143 5.04493 16.6238C5.01011 16.836 5.00278 16.9534 5.00278 17.3152C5.00095 17.7225 5.00461 17.7642 5.05042 17.9593C5.11272 18.2245 5.19885 18.4669 5.31062 18.6772C5.40041 18.8458 5.62762 19.1716 5.71374 19.2549C5.73939 19.2815 5.76138 19.3099 5.76138 19.3212C5.76138 19.3326 5.7174 19.4614 5.66243 19.6073C5.50668 20.0259 5.28497 20.6945 5.18419 21.0469C5.00645 21.6758 4.94781 21.8936 4.86352 22.2497C4.40726 24.1572 4.18555 26.0363 4.18555 27.9892C4.18555 30.2945 4.51537 32.6244 5.14754 34.799C6.60427 39.813 9.62034 44.1754 13.745 47.2403C15.3483 48.4318 17.1587 49.4338 19.0204 50.1631C21.604 51.1727 24.2554 51.669 27.0718 51.6709C27.7937 51.6709 27.7956 51.6709 27.9367 51.6235C28.1144 51.5648 28.239 51.4834 28.3545 51.3508C28.8034 50.8299 28.5762 50.0134 27.9238 49.8051C27.8487 49.7805 27.671 49.7748 26.9435 49.7653C26.0438 49.7558 25.8459 49.7464 25.1203 49.6782C23.5372 49.5285 22.0273 49.2046 20.5138 48.6894C18.1244 47.8768 15.8412 46.5944 13.8604 44.954C12.5961 43.9064 11.3739 42.6203 10.3991 41.3151C9.35099 39.9134 8.44396 38.3317 7.78431 36.7576C6.76735 34.3311 6.19382 31.8175 6.05273 29.1523C6.02707 28.6541 6.02707 27.3244 6.05273 26.8243C6.17 24.6459 6.58595 22.5338 7.2969 20.526L7.43983 20.1187L7.71468 20.1073C8.02985 20.0922 8.16178 20.0713 8.38899 20.005C8.92404 19.844 9.41329 19.505 9.97766 18.9026C10.7418 18.0862 11.2182 17.0671 11.3812 15.904C11.4271 15.5707 11.4271 14.741 11.3812 14.4171C11.3134 13.953 11.154 13.3677 11.0074 13.0475C10.892 12.7956 10.6391 12.5891 10.3789 12.5342C10.1316 12.4831 9.71379 12.466 9.36198 12.4963ZM9.54155 14.5686C9.56904 14.7031 9.57637 14.8281 9.57637 15.1558C9.5782 15.5347 9.57453 15.5953 9.52873 15.8188C9.37847 16.586 9.07063 17.1713 8.54475 17.6941C8.1233 18.1146 7.85028 18.251 7.53694 18.2017C7.18513 18.1449 6.90111 17.8589 6.84064 17.499C6.81316 17.3361 6.84614 16.9572 6.91577 16.6693C7.20162 15.4608 8.18743 14.561 9.39863 14.4019C9.5049 14.3868 9.50674 14.3887 9.54155 14.5686Z" fill="#E8EFDF"></path> </svg> 