<?xml version="1.0" encoding="UTF-8"?> <svg xmlns="http://www.w3.org/2000/svg" width="36" height="36" viewBox="0 0 36 36" fill="none"> <path fill-rule="evenodd" clip-rule="evenodd" d="M18.5937 2.76529C18.3117 2.33146 17.6728 2.34295 17.4066 2.78663L12.1421 11.5607L2.49136 14.1927C2.00135 14.3264 1.81231 14.921 2.13519 15.3131L8.27095 22.7636L7.83248 32.41C7.8096 32.9133 8.31006 33.2753 8.78095 33.0959L18 29.5839L27.2191 33.0959C27.69 33.2753 28.1904 32.9133 28.1676 32.41L27.7291 22.7636L33.8674 15.3099C34.188 14.9207 34.0042 14.3304 33.5194 14.1919L24.3108 11.5609L18.5937 2.76529ZM12.9376 12.1786L18.017 3.71291L23.5336 12.2C23.6256 12.3416 23.7658 12.4451 23.9282 12.4915L32.8045 15.0276L26.8838 22.217C26.7736 22.3507 26.717 22.5206 26.7249 22.6938L27.1478 31.9986L18.2492 28.6087C18.0887 28.5475 17.9113 28.5475 17.7508 28.6087L8.85221 31.9986L9.27516 22.6938C9.28302 22.5206 9.2264 22.3507 9.11623 22.217L3.20202 15.0354L12.5215 12.4937C12.6957 12.4463 12.8447 12.3333 12.9376 12.1786ZM18.6864 11.4896C18.5364 10.7393 17.4637 10.7393 17.3136 11.4896L16.2185 16.9652L10.6995 16.2293C9.95041 16.1294 9.59649 17.1233 10.2401 17.5193L15.079 20.4971L13.2223 25.3248C12.9581 26.0117 13.7968 26.5887 14.3439 26.0964L18.0155 22.7919L22.0827 26.1195C22.6576 26.5899 23.4728 25.9589 23.1615 25.2844L20.9451 20.4823L25.7599 17.5193C26.4035 17.1233 26.0496 16.1294 25.3006 16.2293L19.7815 16.9652L18.6864 11.4896ZM17.1439 17.437L18 13.1566L18.8561 17.437C18.9285 17.7988 19.2693 18.0423 19.635 17.9936L24.0345 17.407L20.1943 19.7702C19.8925 19.9559 19.7771 20.3379 19.9256 20.6597L21.7076 24.5206L18.4495 21.8549C18.182 21.636 17.7948 21.6451 17.538 21.8763L14.6046 24.5164L16.1018 20.6235C16.2228 20.3089 16.1024 19.9528 15.8154 19.7761L11.9656 17.407L16.365 17.9936C16.7308 18.0423 17.0716 17.7988 17.1439 17.437Z" fill="#FFDC20"></path> </svg> 