<?xml version="1.0" encoding="UTF-8"?> <svg xmlns="http://www.w3.org/2000/svg" width="376" height="313" viewBox="0 0 376 313" fill="none"> <g opacity="0.29"> <path d="M202.325 133.181C246.625 206.35 254.443 282.737 254.443 282.737C254.443 282.737 190.473 240.408 146.15 167.171C101.827 93.9341 94.0324 17.6152 94.0324 17.6152C94.0324 17.6152 158.002 60.0121 202.325 133.181Z" fill="#ADB797"></path> <g style="mix-blend-mode:multiply" opacity="0.39"> <path d="M198.767 179.566C232.259 234.879 254.533 282.646 254.533 282.646C254.533 282.646 222.56 240.77 189.023 185.48C155.487 130.189 133.235 82.3994 133.235 82.3994C133.235 82.3994 165.276 124.275 198.767 179.566Z" fill="#ADB797"></path> </g> <path d="M283.946 141.769C284.105 219.584 254.488 282.737 254.488 282.737C254.488 282.737 224.577 219.697 224.418 141.883C224.26 64.0681 253.899 0.959961 253.899 0.959961C253.899 0.959961 283.742 63.9548 283.946 141.769Z" fill="#ADB797"></path> <g style="mix-blend-mode:multiply" opacity="0.39"> <path d="M259.383 176.235C259.497 235.151 254.398 282.737 254.398 282.737C254.398 282.737 249.141 235.151 249.028 176.235C248.914 117.319 254.013 69.7334 254.013 69.7334C254.013 69.7334 259.293 117.433 259.383 176.235Z" fill="#ADB797"></path> </g> <path d="M113.203 245.189C182.089 281.445 251.791 284.3 251.791 284.3C251.791 284.3 209.802 228.579 140.984 192.414C72.1653 156.248 2.3725 153.303 2.3725 153.303C2.3725 153.303 44.2935 209.024 113.203 245.189Z" fill="#ADB797"></path> <g style="mix-blend-mode:multiply" opacity="0.39"> <path d="M155.124 239.388C207.242 266.739 251.791 284.3 251.791 284.3C251.791 284.3 212 257.562 159.928 230.211C107.855 202.86 63.2601 185.299 63.2601 185.299C63.2601 185.299 103.051 212.06 155.124 239.388Z" fill="#ADB797"></path> </g> <path d="M126.596 312.648C169.801 311.565 212.359 301.898 251.792 284.21C211.866 267.69 169.057 259.263 125.848 259.42C82.6422 260.478 40.0775 270.114 0.628906 287.768C40.5556 304.322 83.3734 312.78 126.596 312.648Z" fill="#ADB797"></path> <g style="mix-blend-mode:multiply" opacity="0.39"> <path d="M156.96 290.26C209.373 289.512 251.792 284.3 251.792 284.3C251.792 284.3 209.237 280.289 156.824 281.014C104.412 281.74 61.9921 286.974 61.9921 286.974C61.9921 286.974 104.548 291.007 156.96 290.26Z" fill="#ADB797"></path> </g> <path d="M338.943 184.03C318.002 221.855 289.749 255.139 255.826 281.944C259.231 238.817 271.621 196.88 292.198 158.827C312.776 120.774 341.087 87.4464 375.312 60.9863C371.457 104.005 359.094 145.829 338.943 184.03Z" fill="#ADB797"></path> <g style="mix-blend-mode:multiply" opacity="0.39"> <path d="M305.044 200.595C280.118 246.685 255.826 281.876 255.826 281.876C255.826 281.876 271.96 242.289 296.909 196.199C321.857 150.108 346.126 114.895 346.126 114.895C346.126 114.895 329.97 154.482 305.044 200.595Z" fill="#ADB797"></path> </g> </g> </svg> 