<?xml version="1.0" encoding="UTF-8"?> <svg xmlns="http://www.w3.org/2000/svg" width="136" height="163" viewBox="0 0 136 163" fill="none"> <path d="M78.3516 88.0501C58.5103 99.9225 36.5082 107.735 13.6227 111.035C26.9559 92.1445 43.9074 76.0892 63.4938 63.8008C83.3379 51.9226 105.344 44.1056 128.235 40.8037C114.901 59.7012 97.9447 75.7609 78.3516 88.0501Z" fill="#616046"></path> <g style="mix-blend-mode:multiply" opacity="0.39"> <path d="M58.2208 86.605C34.3087 101.27 13.6715 111.035 13.6715 111.035C13.6715 111.035 31.732 97.0439 55.6803 82.3908C79.6286 67.7377 100.23 57.9609 100.23 57.9609C100.23 57.9609 82.133 71.9518 58.2208 86.605Z" fill="#616046"></path> </g> <path d="M74.8108 123.449C53.7784 123.391 32.9672 119.155 13.5856 110.987C32.8482 102.534 53.5978 97.9914 74.6302 97.6221C95.6649 97.6913 116.476 101.94 135.855 110.12C116.59 118.56 95.8407 123.091 74.8108 123.449Z" fill="#616046"></path> <g style="mix-blend-mode:multiply" opacity="0.39"> <path d="M59.7965 112.913C34.2829 113.082 13.5856 110.987 13.5856 110.987C13.5856 110.987 34.2589 108.579 59.7724 108.41C85.2859 108.241 105.983 110.336 105.983 110.336C105.983 110.336 85.31 112.733 59.7965 112.913Z" fill="#616046"></path> </g> <path d="M29.5518 49.629C20.0668 68.3946 14.4066 88.8583 12.9 109.831C29.1785 96.5117 42.6442 80.0869 52.5128 61.5128C61.9978 42.7472 67.6581 22.2835 69.1646 1.31104C52.8895 14.6335 39.4245 31.0576 29.5518 49.629Z" fill="#616046"></path> <g style="mix-blend-mode:multiply" opacity="0.39"> <path d="M32.188 67.8103C20.4487 90.4582 12.9235 109.855 12.9235 109.855C12.9235 109.855 24.434 92.5291 36.1854 69.8812C47.9368 47.2333 55.45 27.8242 55.45 27.8242C55.45 27.8242 43.9033 45.1864 32.188 67.8103Z" fill="#616046"></path> </g> <path d="M0.317091 55.601C0.879602 74.3427 5.16485 92.7852 12.9233 109.855C20.0033 92.4955 23.5639 73.9025 23.3984 55.1555C22.8355 36.4127 18.5589 17.9678 10.8163 0.889648C3.72895 18.2518 0.160199 36.8487 0.317091 55.601Z" fill="#616046"></path> <g style="mix-blend-mode:multiply" opacity="0.39"> <path d="M10.0933 68.7253C10.5147 91.4696 12.9227 109.855 12.9227 109.855C12.9227 109.855 14.5723 91.3853 14.1268 68.6531C13.6813 45.9209 11.3214 27.5112 11.3214 27.5112C11.3214 27.5112 9.6598 45.9811 10.0933 68.7253Z" fill="#616046"></path> </g> <path d="M56.5935 147.433C40.1499 138.429 25.658 126.25 13.9586 111.601C32.642 113.161 50.8295 118.416 67.4659 127.061C83.9148 136.078 98.4073 148.274 110.101 162.941C91.4136 161.369 73.2254 156.097 56.5935 147.433Z" fill="#616046"></path> <g style="mix-blend-mode:multiply" opacity="0.39"> <path d="M49.3452 132.768C29.286 122.052 13.9586 111.601 13.9586 111.601C13.9586 111.601 31.1643 118.512 51.2837 129.228C71.4032 139.944 86.6101 150.395 86.6101 150.395C86.6101 150.395 69.4045 143.484 49.3452 132.768Z" fill="#616046"></path> </g> </svg> 