<?xml version="1.0" encoding="UTF-8"?> <svg xmlns="http://www.w3.org/2000/svg" width="37" height="38" viewBox="0 0 37 38" fill="none"> <path fill-rule="evenodd" clip-rule="evenodd" d="M36.544 0.998092C36.8191 0.973802 37.0224 0.731121 36.9981 0.456049C36.9738 0.180977 36.7311 -0.0223216 36.456 0.00196871C30.7978 0.501623 22.3512 2.86975 15.357 8.36388C8.34237 13.8741 2.80278 22.521 3.0054 35.5078C3.00971 35.7839 3.23703 36.0043 3.51314 36C3.78925 35.9957 4.00958 35.7683 4.00528 35.4922C3.80796 22.8453 9.18327 14.4852 15.9747 9.15027C22.7866 3.79933 31.0374 1.48435 36.544 0.998092ZM0.974477 32.3419C0.887153 32.08 0.603993 31.9384 0.342022 32.0257C0.0800501 32.113 -0.0615299 32.3962 0.025794 32.6582C0.370178 33.6913 1.08898 35.5692 1.9036 37.0622C2.21886 37.64 2.79648 37.8349 3.32752 37.7348C3.83438 37.6392 4.30321 37.2818 4.54773 36.7673C5.09886 35.6076 6.06729 34.4295 7.6375 33.9808C7.90301 33.905 8.05676 33.6282 7.9809 33.3627C7.90504 33.0972 7.62829 32.9434 7.36278 33.0193C5.4239 33.5733 4.27062 35.0207 3.64454 36.338C3.53187 36.5751 3.32318 36.718 3.14218 36.7521C2.98534 36.7817 2.86475 36.7359 2.78142 36.5832C2.00592 35.1619 1.30884 33.345 0.974477 32.3419Z" fill="#517D45"></path> </svg> 