<?xml version="1.0" encoding="UTF-8"?> <svg xmlns="http://www.w3.org/2000/svg" width="36" height="36" viewBox="0 0 36 36" fill="none"> <path fill-rule="evenodd" clip-rule="evenodd" d="M19.9717 4.07443C20.167 3.87916 20.4836 3.87916 20.6788 4.07443C21.2358 4.63141 21.9983 5.60598 22.4422 6.90904C24.0761 6.30833 27.2456 6.22086 29.9465 9.4554C30.1507 9.69992 30.1401 10.094 29.8533 10.3135C29.1251 10.8709 27.9055 11.5065 26.4893 11.6794C25.2663 11.8287 23.8976 11.6311 22.5975 10.749C22.5589 10.9067 22.5144 11.0663 22.4637 11.2279C22.9383 11.3621 23.3932 11.5283 23.8269 11.7254C26.0908 12.7545 27.7348 14.6097 28.5521 17.0618C30.1855 21.9619 27.8009 27.6082 22.8745 30.0714C20.5147 31.2513 17.7262 32.1572 14.8117 32.0151C11.8801 31.8721 8.86464 30.6704 6.07373 27.7131C5.85664 27.4831 5.85109 27.1149 6.08043 26.8803C6.74029 26.2054 8.15665 24.5457 9.02409 22.8108C9.27107 22.3168 9.40869 21.5115 9.56401 20.4428L9.60302 20.1729C9.74289 19.2018 9.90339 18.0876 10.2 16.9922C10.8544 14.5761 12.2043 12.1449 15.5522 11.3079C17.7158 10.767 19.7173 10.6803 21.486 11.002C22.472 7.96946 20.915 5.72477 19.9717 4.78153C19.7765 4.58627 19.7765 4.26969 19.9717 4.07443ZM22.7801 9.63876C23.9732 10.6123 25.2375 10.8248 26.3681 10.6867C27.3677 10.5647 28.2632 10.167 28.8905 9.76685C26.5058 7.17066 23.8838 7.40406 22.6959 7.88251C22.795 8.42638 22.8323 9.01335 22.7801 9.63876ZM23.4131 12.6358C21.4061 11.7235 18.8124 11.5236 15.7947 12.278C12.9405 12.9916 11.7707 15.0182 11.1653 17.2537C10.8854 18.2872 10.7332 19.3424 10.5919 20.3216L10.5536 20.5867C10.4061 21.6016 10.253 22.5891 9.91852 23.258C9.09318 24.9087 7.82644 26.4666 7.06223 27.2974C9.60493 29.8737 12.2844 30.8906 14.8604 31.0162C17.5418 31.147 20.1546 30.3133 22.4273 29.177C26.9325 26.9244 29.0711 21.7811 27.6034 17.378C26.8703 15.1784 25.4132 13.5449 23.4131 12.6358Z" fill="#FFDC20"></path> </svg> 