<?xml version="1.0" encoding="UTF-8"?> <svg xmlns="http://www.w3.org/2000/svg" width="193" height="184" viewBox="0 0 193 184" fill="none"> <g opacity="0.29"> <path d="M80.7697 104.258L99.2587 80.7893C84.3725 60.9452 87.4308 39.0895 109.767 23.3373C105.676 43.664 111.306 51.7557 105.013 72.7742C112.176 63.8993 122.133 53.8389 124.538 42.4182C131.291 21.7445 152.696 10.6039 170.267 2.56506C163.01 10.7022 156.774 19.8599 150.14 28.5967C142.893 38.6525 133.882 47.0468 123.681 53.2466C119.49 55.7751 116.375 60.6717 113.199 65.1359C131.951 53.3762 144.193 51.6758 165.548 50.2223C151.622 67.5919 140.901 81.4128 120.156 73.6261C109.677 70.0439 109.672 70.1456 102.479 79.4272C97.6193 85.6528 92.6927 91.8273 88.0794 98.5114C103.909 85.4324 122.273 91.4694 140.122 90.5252C125.647 102.426 106.135 115.315 89.019 104.337C86.1134 102.649 84.1375 102.706 81.7644 106.105C77.4901 112.231 72.6345 117.872 68.3711 124.265C84.9024 115.116 100.834 125.086 117.754 124.673C105.579 139.302 82.2223 141.626 70.3826 129.751C67.6085 126.97 65.86 127.129 63.2803 130.477C56.1269 139.898 48.6951 149.065 41.3003 158.435C54.4827 155.733 65.5563 155.478 77.4487 161.404C45.3197 182.374 46.1739 154.675 36.1094 165.562C31.7443 170.632 27.4024 175.703 23.0489 180.773L22.2831 180.008C29.8985 170.384 37.4135 160.672 45.1623 151.176C47.4993 148.311 47.3686 146.861 44.971 144.221C35.1078 134.297 38.6909 109.609 47.0493 98.9706C44.8669 107.316 49.4073 112.581 50.7773 118.892C52.1474 125.202 53.4628 131.69 54.7644 137.974L74.1253 113.466C56.1027 101.506 60.2126 74.9496 72.0325 57.9416C72.5723 74.2412 81.8286 87.7735 80.7697 104.258Z" fill="#ADB797"></path> <path d="M80.7697 104.258L99.2587 80.7893C84.3725 60.9452 87.4308 39.0895 109.767 23.3373C105.676 43.664 111.306 51.7557 105.013 72.7742C112.176 63.8993 122.133 53.8389 124.538 42.4182C131.291 21.7445 152.696 10.6039 170.267 2.56506C163.01 10.7022 156.774 19.8599 150.14 28.5967C142.893 38.6525 133.882 47.0468 123.681 53.2466C119.49 55.7751 116.375 60.6717 113.199 65.1359C131.951 53.3762 144.193 51.6758 165.548 50.2223C151.622 67.5919 140.901 81.4128 120.156 73.6261C109.677 70.0439 109.672 70.1456 102.479 79.4272C97.6193 85.6528 92.6927 91.8273 88.0794 98.5114C103.909 85.4324 122.273 91.4694 140.122 90.5252C125.647 102.426 106.135 115.315 89.019 104.337C86.1134 102.649 84.1375 102.706 81.7644 106.105C77.4901 112.231 72.6345 117.872 68.3711 124.265C84.9024 115.116 100.834 125.086 117.754 124.673C105.579 139.302 82.2223 141.626 70.3826 129.751C67.6085 126.97 65.86 127.129 63.2803 130.477C56.1269 139.898 48.6951 149.065 41.3003 158.435C54.4827 155.733 65.5563 155.478 77.4487 161.404C45.3197 182.374 46.1739 154.675 36.1094 165.562C31.7443 170.632 27.4024 175.703 23.0489 180.773L22.2831 180.008C29.8985 170.384 37.4135 160.672 45.1623 151.176C47.4993 148.311 47.3686 146.861 44.971 144.221C35.1078 134.297 38.6909 109.609 47.0493 98.9706C44.8669 107.316 49.4073 112.581 50.7773 118.892C52.1474 125.202 53.4628 131.69 54.7644 137.974L74.1253 113.466C56.1027 101.506 60.2126 74.9496 72.0325 57.9416C72.5723 74.2412 81.8286 87.7735 80.7697 104.258Z" fill="#ADB797"></path> <mask id="mask0_2868_2070" style="mask-type:luminance" maskUnits="userSpaceOnUse" x="23" y="0" width="147" height="184"> <path d="M80.9669 104.694L99.1983 80.5857C84.4068 60.7093 87.3702 38.4941 109.432 22.1476C105.442 42.8294 111.038 50.9415 104.87 72.3616C111.934 63.2422 121.76 52.8739 124.107 41.2519C130.731 20.1739 151.884 8.5196 169.252 0.0746784C162.093 8.44757 155.948 17.8383 149.407 26.8089C142.263 37.1274 133.369 45.7903 123.29 52.2475C119.15 54.8814 116.081 59.8991 112.95 64.4792C131.476 52.2412 143.588 50.313 164.72 48.4833C150.987 66.33 140.416 80.5245 119.861 72.9734C109.478 69.5151 109.474 69.6184 102.381 79.1507C97.5897 85.5451 92.7316 91.8889 88.1849 98.7442C103.814 85.2169 122.008 91.0333 139.672 89.7786C125.379 102.089 106.104 115.484 89.1319 104.636C86.2511 102.973 84.2957 103.064 81.9567 106.55C77.744 112.834 72.9545 118.635 68.7534 125.189C85.0888 115.636 100.886 125.482 117.631 124.781C105.624 139.82 82.5132 142.565 70.7602 130.719C68.0064 127.945 66.2764 128.136 63.7328 131.574C56.6801 141.247 49.351 150.667 42.0591 160.292C55.0987 157.333 66.0581 156.89 77.8459 162.702C46.107 184.502 46.872 156.399 36.9422 167.606C32.6365 172.821 28.3538 178.035 24.0596 183.25L23.2995 182.487C30.8089 172.601 38.2187 162.626 45.8605 152.867C48.1653 149.922 48.0316 148.454 45.651 145.817C35.8599 135.917 39.3345 110.82 47.5764 99.8931C45.4406 108.392 49.9498 113.657 51.3242 120.033C52.6985 126.41 54.0194 132.967 55.3259 139.319L74.4172 114.142C56.5445 102.313 60.5351 75.3137 72.1844 57.8687C72.7661 74.3895 81.967 87.9587 80.9669 104.694Z" fill="white"></path> </mask> <g mask="url(#mask0_2868_2070)"> <path d="M178.011 2.43371C162.288 12.2458 151.466 29.6065 139.83 45.2048C137.351 48.8018 134.442 51.9964 131.194 54.6887C127.889 57.3581 123.857 58.507 119.954 57.8908" fill="#ADB797"></path> <path d="M172.874 49.4052C168.36 49.0314 164.286 52.4883 160.635 55.7017C156.096 59.6879 151.382 63.6598 145.986 65.5985C138.946 68.1432 131.23 67.047 124.135 69.4689C120.66 70.685 117.419 72.7091 114.609 75.4185C111.799 78.1279 109.478 81.4662 107.788 85.2309" fill="#ADB797"></path> <path d="M170.909 57.2914C166.546 62.0996 162.042 67.0029 156.526 69.6959C150.539 72.6189 143.902 72.6766 137.567 74.1737C130.151 75.9396 123.153 79.6698 117.11 85.0781" fill="#ADB797"></path> <path d="M114.794 20.0537C110.09 25.4668 105.424 31.054 102.066 37.5069C98.7074 43.9598 96.7177 51.4394 97.8453 58.4491C98.3098 60.4503 98.6183 62.504 98.7677 64.589C98.7896 70.9903 93.6185 76.2157 88.942 80.4527" fill="#ADB797"></path> <path d="M120.572 21.8889C112.216 29.8154 106.644 40.6845 104.971 52.3256C104.074 58.7056 104.303 65.3066 102.057 71.3713C100.148 76.4261 96.6103 80.6348 93.1707 84.7033" fill="#ADB797"></path> <path d="M85.4388 110.476C87.0324 103.144 93.388 98.5185 99.6249 97.0658C105.862 95.6132 112.34 96.5609 118.704 96.1768C130.12 95.4726 141.083 90.5427 150.05 82.0811" fill="#ADB797"></path> <path d="M90.0731 112.654C93.6842 107.391 99.4376 105.029 105.087 104.431C110.736 103.834 116.431 104.685 122.099 104.912C127.766 105.14 133.661 104.388 138.499 100.935" fill="#ADB797"></path> <path d="M68.0707 112.892C73.2657 109.419 75.4691 102.161 74.9453 95.9476C74.4216 89.7345 71.9048 84.1809 69.8 78.5364C67.8518 73.1175 66.1691 67.4062 66.1325 61.368C66.0959 55.3298 67.7755 48.925 71.6448 44.1388" fill="#ADB797"></path> <path d="M61.9355 110.199C65.7819 105.968 67.234 99.7736 66.8761 94.1609C66.5181 88.5483 64.5625 83.3619 62.4945 78.3644C60.4265 73.367 58.2223 68.3744 57.2902 62.9053" fill="#ADB797"></path> <path d="M62.3651 134.657C62.1806 126.667 68.3504 120.572 74.6811 119.328C81.0118 118.083 87.4877 120.303 93.8616 121.848C106.503 124.921 119.845 125.223 131.695 119.867" fill="#ADB797"></path> <path d="M68.5281 132.3C70.7778 127.498 75.9265 126.396 80.4527 126.929C87.5803 127.763 94.3997 131.449 101.367 133.949C108.335 136.449 115.993 137.663 122.233 133.753" fill="#ADB797"></path> <path d="M37.3853 144.849C42.2554 138.73 47.3605 131.656 46.8956 124.076C46.5461 118.456 43.1676 113.997 40.7806 109.205C36.6249 100.784 35.406 90.786 37.3267 80.8742" fill="#ADB797"></path> <path d="M34.7627 159.757C38.5131 152.334 46.7442 150.8 53.8396 152.489C60.935 154.179 67.7032 158.29 74.8354 159.573C80.7524 160.625 86.6866 159.685 92.0412 156.848" fill="#ADB797"></path> <path d="M39.4511 159.243C40.241 156.336 43.3487 155.786 45.8528 156.026C50.1607 156.45 54.4073 157.76 58.4177 159.903C60.6506 161.281 62.947 162.484 65.2929 163.504C67.67 164.51 70.2353 164.361 72.4605 163.087" fill="#ADB797"></path> <path d="M38.1428 141.454C40.9429 134.362 40.234 126.645 38.9712 119.514C37.7083 112.382 35.9501 105.226 36.7944 97.7882" fill="#ADB797"></path> </g> </g> </svg> 