<?xml version="1.0" encoding="UTF-8"?> <svg xmlns="http://www.w3.org/2000/svg" width="348" height="655" viewBox="0 0 348 655" fill="none"> <path d="M56.777 545.554C55.6667 545.033 55.1002 543.107 53.446 539.255C50.8854 533.318 49.5938 521.127 52.109 515.167C54.6243 509.208 61.173 505.469 67.11 502.455C59.9733 501.893 52.7995 502.882 46.0815 505.355C43.3396 494.025 45.6056 482.265 47.849 470.889C49.3445 463.412 50.8174 455.956 52.381 448.479C52.4163 447.925 52.5606 447.384 52.8056 446.886C53.0506 446.388 53.3914 445.944 53.8085 445.578C54.5999 445.182 55.4939 445.04 56.3691 445.17C62.6913 445.533 69.0587 446.122 75.3582 446.077C66.4302 438.168 58.8164 432.73 56.3238 420.471C55.576 416.823 53.378 411.792 53.378 408.144C53.378 402.841 57.7967 397.222 59.7001 392.418C61.7174 387.9 62.3786 382.893 61.6036 378.006C61.5132 377.795 61.4666 377.567 61.4666 377.338C61.4666 377.108 61.5132 376.88 61.6036 376.669C61.7643 376.511 61.9557 376.387 62.1662 376.305C62.3766 376.223 62.6016 376.185 62.8272 376.193C71.2567 375.514 79.6863 374.766 87.9798 373.723C87.1641 370.778 70.6676 354.644 70.3503 355.052C83.1986 337.399 84.9434 314.445 93.0103 294.481C93.3512 292.803 94.3131 291.315 95.7037 290.315C97.0943 289.315 98.8111 288.877 100.511 289.088C105.541 288.748 131.6 290.063 133.934 285.599C137.311 279.141 116.441 273.068 111.66 271.844L113.926 261.443C130.409 262.016 146.844 263.567 163.143 266.088C157.342 265.182 132.824 248.391 130.807 242.545C127.499 232.937 143.678 213.087 148.346 204.702C160.22 183.266 172.139 161.762 186.664 142.025C187.72 140.243 189.304 138.834 191.196 137.991C198.243 135.725 216.122 143.113 221.878 147.055L203.75 125.642C210.759 114.493 217.776 103.344 224.801 92.1955C226.264 89.4212 228.36 87.0304 230.919 85.2163C234.209 83.6425 237.897 83.0976 241.501 83.6527C248.552 84.1965 255.513 85.5811 262.235 87.7769L240.935 73.9996C249.478 65.5927 257.431 47.8952 266.971 41.845C272.228 38.514 299.126 42.5701 301.732 48.643C299.148 42.7741 296.86 36.7692 294.934 30.6963C294.275 29.2767 294.154 27.6663 294.594 26.1643C295.391 24.8094 296.644 23.7816 298.129 23.2638C313.832 15.7634 330.147 5.657 346.734 0.785097C348.366 0.309237 347.618 44.1337 346.213 44.3149C338.223 43.8689 330.499 41.2865 323.848 36.8372C327.876 41.4579 332.537 45.4859 337.693 48.8016C344.808 52.9031 345.239 52.6312 344.015 60.8341C342.955 67.1121 342.582 73.4871 342.905 79.8459C343.562 89.0458 339.257 98.6989 342.701 107.264C335.625 107.847 328.507 106.865 321.854 104.387C325.813 108.304 330.713 111.137 336.084 112.612C337.512 130.854 334.181 149.095 330.85 167.109C326.163 167.544 321.448 167.582 316.755 167.223C318.468 167.568 320.082 168.293 321.478 169.344C322.874 170.395 324.017 171.745 324.822 173.296C325.254 174.027 325.451 174.873 325.389 175.72C325.104 176.692 324.573 177.574 323.848 178.281C321.155 181.47 319.565 185.444 319.316 189.611C310.888 190.572 302.351 189.547 294.39 186.62C298.731 190.886 303.552 194.634 308.756 197.791C310.365 198.766 315.554 200.442 316.415 202.051C317.276 203.66 315.033 208.056 314.557 209.688C310.138 225.278 307.011 240.913 300.78 255.801C290.588 257.603 280.102 256.696 270.37 253.172L292.35 270.416C292.827 270.703 293.182 271.154 293.347 271.685C293.376 272.264 293.181 272.832 292.804 273.272L288.453 279.866C275.161 279.279 262.146 275.872 250.271 269.873C260.676 280.855 272.318 290.595 284.963 298.9C280.069 305.947 277.757 313.878 273.633 321.13C268.172 330.579 264.864 341.002 260.944 351.177C254.279 352.393 247.444 352.34 240.799 351.018C245.5 354.067 250.677 356.311 256.117 357.657C251.96 366.745 246.685 375.278 240.414 383.059C227.452 382.402 213.675 381.473 203.274 373.723C208.479 386.17 218.03 396.301 230.149 402.23C222.322 419.353 211.989 435.215 199.49 449.295C198.817 450.174 197.958 450.894 196.974 451.402C196.04 451.743 195.044 451.882 194.051 451.81C188.257 451.758 182.506 450.795 177.011 448.955C173.068 447.618 168.355 443.901 164.163 444.219C166.225 445.714 167.766 447.822 169.805 449.317C172.096 451.02 174.521 452.536 177.056 453.849C181.504 456.278 186.516 457.482 191.581 457.339C191.581 458.087 191.785 458.812 191.899 459.605L179.322 470.074C179.05 470.342 178.715 470.536 178.348 470.64C177.885 470.689 177.418 470.594 177.011 470.368C171.059 467.785 165.107 465.172 159.155 462.528C153.784 460.126 144.335 456.976 140.619 452.263C142.09 458.29 145.007 463.867 149.117 468.514C153.226 473.161 158.406 476.737 164.208 478.934C151.654 489.493 133.481 518.929 114.628 516.006C105.418 513.81 97.0954 508.862 90.767 501.82L103.298 518.136C103.796 518.695 104.174 519.351 104.408 520.062C105.881 525.636 70.9395 540.093 66.0223 542.336C60.244 544.761 58.1139 546.189 56.777 545.554Z" fill="#7A8C5B"></path> <mask id="mask0_2829_3754" style="mask-type:luminance" maskUnits="userSpaceOnUse" x="44" y="0" width="304" height="546"> <path d="M56.777 545.554C55.6667 545.033 55.1002 543.107 53.446 539.255C50.8854 533.318 49.5938 521.127 52.109 515.167C54.6243 509.208 61.173 505.469 67.11 502.455C59.9733 501.893 52.7995 502.882 46.0815 505.355C43.3396 494.025 45.6056 482.265 47.849 470.889C49.3445 463.412 50.8174 455.956 52.381 448.479C52.4163 447.925 52.5606 447.384 52.8056 446.886C53.0506 446.388 53.3914 445.944 53.8085 445.578C54.5999 445.182 55.4939 445.04 56.3691 445.17C62.6913 445.533 69.0587 446.122 75.3582 446.077C66.4302 438.168 58.8164 432.73 56.3238 420.471C55.576 416.823 53.378 411.792 53.378 408.144C53.378 402.841 57.7967 397.222 59.7001 392.418C61.7174 387.9 62.3786 382.893 61.6036 378.006C61.5132 377.795 61.4666 377.567 61.4666 377.338C61.4666 377.108 61.5132 376.88 61.6036 376.669C61.7643 376.511 61.9557 376.387 62.1662 376.305C62.3766 376.223 62.6016 376.185 62.8272 376.193C71.2567 375.514 79.6863 374.766 87.9798 373.723C87.1641 370.778 70.6676 354.644 70.3503 355.052C83.1986 337.399 84.9434 314.445 93.0103 294.481C93.3512 292.803 94.3131 291.315 95.7037 290.315C97.0943 289.315 98.8111 288.877 100.511 289.088C105.541 288.748 131.6 290.063 133.934 285.599C137.311 279.141 116.441 273.068 111.66 271.844L113.926 261.443C130.409 262.016 146.844 263.567 163.143 266.088C157.342 265.182 132.824 248.391 130.807 242.545C127.499 232.937 143.678 213.087 148.346 204.702C160.22 183.266 172.139 161.762 186.664 142.025C187.72 140.243 189.304 138.834 191.196 137.991C198.243 135.725 216.122 143.113 221.878 147.055L203.75 125.642C210.759 114.493 217.776 103.344 224.801 92.1955C226.264 89.4212 228.36 87.0304 230.919 85.2163C234.209 83.6425 237.897 83.0976 241.501 83.6527C248.552 84.1965 255.513 85.5811 262.235 87.7769L240.935 73.9996C249.478 65.5927 257.431 47.8952 266.971 41.845C272.228 38.514 299.126 42.5701 301.732 48.643C299.148 42.7741 296.86 36.7692 294.934 30.6963C294.275 29.2767 294.154 27.6663 294.594 26.1643C295.391 24.8094 296.644 23.7816 298.129 23.2638C313.832 15.7634 330.147 5.657 346.734 0.785097C348.366 0.309237 347.618 44.1337 346.213 44.3149C338.223 43.8689 330.499 41.2865 323.848 36.8372C327.876 41.4579 332.537 45.4859 337.693 48.8016C344.808 52.9031 345.239 52.6312 344.015 60.8341C342.955 67.1121 342.582 73.4871 342.905 79.8459C343.562 89.0458 339.257 98.6989 342.701 107.264C335.625 107.847 328.507 106.865 321.854 104.387C325.813 108.304 330.713 111.137 336.084 112.612C337.512 130.854 334.181 149.095 330.85 167.109C326.163 167.544 321.448 167.582 316.755 167.223C318.468 167.568 320.082 168.293 321.478 169.344C322.874 170.395 324.017 171.745 324.822 173.296C325.254 174.027 325.451 174.873 325.389 175.72C325.104 176.692 324.573 177.574 323.848 178.281C321.155 181.47 319.565 185.444 319.316 189.611C310.888 190.572 302.351 189.547 294.39 186.62C298.731 190.886 303.552 194.634 308.756 197.791C310.365 198.766 315.554 200.442 316.415 202.051C317.276 203.66 315.033 208.056 314.557 209.688C310.138 225.278 307.011 240.913 300.78 255.801C290.588 257.603 280.102 256.696 270.37 253.172L292.35 270.416C292.827 270.703 293.182 271.154 293.347 271.685C293.376 272.264 293.181 272.832 292.804 273.272L288.453 279.866C275.161 279.279 262.146 275.872 250.271 269.873C260.676 280.855 272.318 290.595 284.963 298.9C280.069 305.947 277.757 313.878 273.633 321.13C268.172 330.579 264.864 341.002 260.944 351.177C254.279 352.393 247.444 352.34 240.799 351.018C245.5 354.067 250.677 356.311 256.117 357.657C251.96 366.745 246.685 375.278 240.414 383.059C227.452 382.402 213.675 381.473 203.274 373.723C208.479 386.17 218.03 396.301 230.149 402.23C222.322 419.353 211.989 435.215 199.49 449.295C198.817 450.174 197.958 450.894 196.974 451.402C196.04 451.743 195.044 451.882 194.051 451.81C188.257 451.758 182.506 450.795 177.011 448.955C173.068 447.618 168.355 443.901 164.163 444.219C166.225 445.714 167.766 447.822 169.805 449.317C172.096 451.02 174.521 452.536 177.056 453.849C181.504 456.278 186.516 457.482 191.581 457.339C191.581 458.087 191.785 458.812 191.899 459.605L179.322 470.074C179.05 470.342 178.715 470.536 178.348 470.64C177.885 470.689 177.418 470.594 177.011 470.368C171.059 467.785 165.107 465.172 159.155 462.528C153.784 460.126 144.335 456.976 140.619 452.263C142.09 458.29 145.007 463.867 149.117 468.514C153.226 473.161 158.406 476.737 164.208 478.934C151.654 489.493 133.481 518.929 114.628 516.006C105.418 513.81 97.0954 508.862 90.767 501.82L103.298 518.136C103.796 518.695 104.174 519.351 104.408 520.062C105.881 525.636 70.9395 540.093 66.0223 542.336C60.244 544.761 58.1139 546.189 56.777 545.554Z" fill="white"></path> </mask> <g mask="url(#mask0_2829_3754)"> <path d="M67.9717 512.085L113.768 553.1" stroke="#717C57" stroke-miterlimit="10"></path> <path d="M99.1542 477.914L177.173 521.512" stroke="#717C57" stroke-miterlimit="10"></path> <path d="M122.084 430.396L214.265 455.05" stroke="#717C57" stroke-miterlimit="10"></path> <path d="M145.131 383.014L272.208 391.693" stroke="#717C57" stroke-miterlimit="10"></path> <path d="M180.343 311.431L293.938 303.682" stroke="#717C57" stroke-miterlimit="10"></path> <path d="M220.044 232.144L347.302 208.464" stroke="#717C57" stroke-miterlimit="10"></path> <path d="M254.487 165.206L364.343 136.201" stroke="#717C57" stroke-miterlimit="10"></path> <path d="M277.17 122.514L371.843 54.6475" stroke="#717C57" stroke-miterlimit="10"></path> <path d="M306.944 69.2409L362.393 -18.8838" stroke="#717C57" stroke-miterlimit="10"></path> <path d="M273.248 22.0176L286.708 103.322" stroke="#717C57" stroke-miterlimit="10"></path> <path d="M215.602 74.7246L264.571 146.013" stroke="#717C57" stroke-miterlimit="10"></path> <path d="M174.95 86.2129L231.645 199.717" stroke="#717C57" stroke-miterlimit="10"></path> <path d="M138.468 162.237L197.996 265.521" stroke="#717C57" stroke-miterlimit="10"></path> <path d="M85.2863 257.002L150.32 350.588" stroke="#717C57" stroke-miterlimit="10"></path> <path d="M55.1015 344.65L129.834 397.494" stroke="#717C57" stroke-miterlimit="10"></path> <path d="M26.0977 398.31L109.373 444.468" stroke="#717C57" stroke-miterlimit="10"></path> <path d="M25.6439 473.632L84.5826 483.534" stroke="#717C57" stroke-miterlimit="10"></path> </g> <g style="mix-blend-mode:multiply" opacity="0.21"> <path d="M138.737 455.662C143.79 445.397 148.662 434.77 156.593 426.499C161.442 421.446 167.289 417.435 172.093 412.359C179.548 404.519 184.17 394.48 188.68 384.646C197.404 365.634 206.173 346.441 210.773 326.024C212.314 319.226 213.447 312.111 217.163 306.219C221.695 298.946 229.74 294.368 234.566 287.253C241.364 277.147 240.707 263.913 243.63 252.085C245.896 242.681 250.768 234.093 255.209 225.459C281.903 173.341 297.765 116.691 313.468 60.2451C296.277 89.2499 277.809 117.454 258.065 144.858C241.613 167.722 224.301 189.996 209.096 213.721C193.957 237.356 180.995 262.316 170.37 288.295C167.9 294.323 165.453 300.6 160.831 305.177C156.208 309.754 150.475 311.975 145.558 315.805C138.578 321.243 134.228 329.219 129.832 336.969C121.425 352.151 113.018 367.379 105.903 383.218C92.6013 412.857 71.3689 465.111 78.7107 498.286C87.2082 535.743 132.279 468.782 138.737 455.662Z" fill="#7A8C5B"></path> </g> <path d="M315.326 55.9168C313.06 36.6558 0.873047 650.288 0.873047 650.288L15.3075 654.345C15.3075 654.345 316.527 66.567 315.326 55.9168Z" fill="#ADB797"></path> </svg> 