<?xml version="1.0" encoding="UTF-8"?> <svg xmlns="http://www.w3.org/2000/svg" width="244" height="327" viewBox="0 0 244 327" fill="none"> <path d="M126.551 128.732C166.018 147.089 201.448 173.1 230.787 205.255C187.221 204.917 144.208 195.469 104.512 177.518C64.8156 159.566 29.3143 133.508 0.289062 101.019C43.7965 101.801 86.7148 111.221 126.551 128.732Z" fill="#616046"></path> <g style="mix-blend-mode:multiply" opacity="0.39"> <path d="M145.587 161.612C193.694 183.365 230.766 205.255 230.766 205.255C230.766 205.255 189.842 191.863 141.757 170.086C93.6726 148.31 56.5781 126.443 56.5781 126.443C56.5781 126.443 97.4795 139.858 145.587 161.612Z" fill="#616046"></path> </g> <path d="M185.493 96.8043C207.649 129.629 223.055 166.533 230.813 205.368C197.046 184.627 167.991 157.053 145.513 124.417C123.035 91.7812 107.631 54.8048 100.291 15.8628C133.772 36.9342 162.733 64.4473 185.493 96.8043Z" fill="#616046"></path> <g style="mix-blend-mode:multiply" opacity="0.39"> <path d="M184.901 131.36C212.093 170.902 230.72 205.368 230.72 205.368C230.72 205.368 205.159 175.706 177.922 136.164C150.685 96.6226 132.104 62.1567 132.104 62.1567C132.104 62.1567 157.709 91.8186 184.901 131.36Z" fill="#616046"></path> </g> <path d="M118.283 245.318C157.546 240.265 195.412 227.456 229.679 207.634C191.812 195.953 151.918 192.326 112.565 196.986C73.2115 201.646 35.2685 214.489 1.17578 234.69C39.1222 245.954 78.9284 249.567 118.283 245.318Z" fill="#616046"></path> <g style="mix-blend-mode:multiply" opacity="0.39"> <path d="M143.842 222.046C191.428 216.403 229.678 207.634 229.678 207.634C229.678 207.634 190.522 207.996 142.845 213.639C95.1685 219.281 56.9863 228.073 56.9863 228.073C56.9863 228.073 96.1428 227.711 143.842 222.046Z" fill="#616046"></path> </g> <path d="M158.457 284.565C187.053 263.886 211.261 237.737 229.677 207.634C195.046 214.6 162.255 228.735 133.411 249.129C104.568 269.524 80.3104 295.727 62.1973 326.055C96.7154 318.738 129.436 304.634 158.457 284.565Z" fill="#616046"></path> <g style="mix-blend-mode:multiply" opacity="0.39"> <path d="M168.588 255.446C203.53 230.747 229.77 207.634 229.77 207.634C229.77 207.634 199.269 224.583 164.305 249.283C129.341 273.982 103.123 297.118 103.123 297.118C103.123 297.118 133.623 280.168 168.588 255.446Z" fill="#616046"></path> </g> <path d="M242.027 99.8637C245.382 134.979 241.723 170.411 231.263 204.1C213.638 173.493 202.611 139.537 198.892 104.414C195.173 69.2914 198.843 33.7791 209.668 0.159668C226.952 30.923 237.951 64.8138 242.027 99.8637Z" fill="#616046"></path> <g style="mix-blend-mode:multiply" opacity="0.39"> <path d="M226.845 126.67C231.377 169.225 231.377 204.144 231.377 204.144C231.377 204.144 223.967 170.018 219.458 127.463C214.948 84.9073 214.926 49.9883 214.926 49.9883C214.926 49.9883 222.336 84.0916 226.845 126.67Z" fill="#616046"></path> </g> </svg> 