<?xml version="1.0" encoding="UTF-8"?> <svg xmlns="http://www.w3.org/2000/svg" width="36" height="36" viewBox="0 0 36 36" fill="none"> <path d="M10.5 3.5C15.8333 5.66667 23.8 14.5 13 32.5" stroke="#FFDC20" stroke-linecap="round"></path> <path d="M17 24.5C19 22 24.6 17.8 31 21M17 24.5C24.2 29.3 29.3333 24.1666 31 21M17 24.5L31 21" stroke="#FFDC20" stroke-linecap="round"></path> <path d="M18 17.6554C16 15.1554 10.4 10.9554 4 14.1554M18 17.6554C10.8 22.4554 5.66667 17.322 4 14.1554M18 17.6554L4 14.1554" stroke="#FFDC20" stroke-linecap="round"></path> <path d="M16.4586 7.99644C17.7712 5.85973 21.7224 2.04824 27.0261 3.89597M16.4586 7.99644C22.5436 11.0057 26.039 6.51665 27.0261 3.89597M16.4586 7.99644L27.0261 3.89597" stroke="#FFDC20" stroke-linecap="round"></path> <path fill-rule="evenodd" clip-rule="evenodd" d="M8.68578 20.522C8.32901 20.4376 8.07039 20.6904 7.9995 20.9217C7.87374 21.3319 7.72378 22.0748 7.79847 22.7988C7.31112 22.7528 6.67735 22.7789 6.01423 22.9717C5.56854 23.1012 5.46295 23.6297 5.71889 23.9404L5.72741 23.9507C5.8449 24.0934 6.05299 24.3461 6.32961 24.5624C6.54008 24.7269 6.81125 24.8873 7.13578 24.9598C7.04669 25.2915 6.99918 25.6402 6.99918 26C6.99918 28.2091 8.79004 30 10.9992 30C13.2083 30 14.9992 28.2091 14.9992 26C14.9992 23.7909 13.2083 22 10.9992 22C10.6249 22 10.2626 22.0514 9.91894 22.1476C9.82817 21.8585 9.70063 21.5588 9.55024 21.3009C9.45469 21.137 9.34169 20.9757 9.21182 20.8423C9.08758 20.7148 8.91169 20.5754 8.68578 20.522ZM8.99227 22.5391C8.94379 22.3668 8.87639 22.1853 8.79815 22.0187C8.77699 22.2295 8.77067 22.4514 8.79011 22.6648C8.85615 22.621 8.92356 22.5791 8.99227 22.5391ZM7.66408 23.7908C7.46475 23.7745 7.23103 23.7735 6.97804 23.7993C7.15204 23.9284 7.32485 24 7.49918 24C7.51076 24 7.52225 24.0004 7.53363 24.0012C7.57499 23.9296 7.6185 23.8595 7.66408 23.7908ZM13.9992 26C13.9992 27.6569 12.656 29 10.9992 29C9.34233 29 7.99918 27.6569 7.99918 26C7.99918 24.3431 9.34233 23 10.9992 23C12.656 23 13.9992 24.3431 13.9992 26Z" fill="#FFDC20"></path> <path fill-rule="evenodd" clip-rule="evenodd" d="M28.5144 16.0705C28.5458 15.7702 28.3498 15.5242 28.1009 15.447C27.6911 15.3199 26.9487 15.1675 26.2245 15.2399C26.2721 14.7527 26.2481 14.1188 26.0574 13.4551C25.9293 13.0089 25.4011 12.9016 25.0896 13.1566L25.0793 13.1651C24.9362 13.2821 24.6829 13.4893 24.4657 13.7653C24.2998 13.9761 24.1379 14.2481 24.0648 14.5741C23.8327 14.5333 23.5941 14.5117 23.3505 14.5109C21.0451 14.5034 19.1701 16.3662 19.1626 18.6716C19.1583 19.989 19.7653 21.1661 20.7148 21.9334L21.3433 21.1556C20.6195 20.5707 20.1593 19.6763 20.1626 18.6749C20.1683 16.9218 21.5941 15.5052 23.3472 15.5109C25.1004 15.5166 26.517 16.9424 26.5113 18.6955C26.51 19.0767 26.4419 19.4409 26.3184 19.7778L27.2573 20.1219C27.4202 19.6774 27.5096 19.1979 27.5113 18.6988C27.5127 18.2554 27.445 17.8279 27.3182 17.4266C28.001 17.1887 28.4539 16.6484 28.5144 16.0705ZM26.9001 16.5095C27.0923 16.4589 27.2311 16.3766 27.3281 16.2884C27.1362 16.254 26.923 16.2285 26.7077 16.2224C26.7757 16.3153 26.8399 16.411 26.9001 16.5095ZM25.2416 14.9697C25.2494 14.802 25.2462 14.6151 25.2266 14.4162C25.1141 14.5668 25.0449 14.7167 25.0282 14.8677C25.1004 14.8997 25.1716 14.9338 25.2416 14.9697Z" fill="#FFDC20"></path> <path fill-rule="evenodd" clip-rule="evenodd" d="M6.23269 9.73665C6.17965 9.43943 6.35731 9.17986 6.59997 9.08488C6.9995 8.9285 7.729 8.72285 8.45653 8.74265C8.3738 8.26017 8.35197 7.62624 8.49413 6.95045C8.58967 6.49625 9.1087 6.35103 9.43779 6.58279L9.44875 6.5905C9.59989 6.69688 9.86757 6.88528 10.1041 7.14479C10.2848 7.34303 10.4659 7.60262 10.5624 7.92253C10.7909 7.86507 11.0274 7.82623 11.2703 7.80783C13.5691 7.6337 15.5739 9.35613 15.748 11.655C15.8475 12.9686 15.3272 14.1864 14.4357 15.0204L13.7525 14.2901C14.4321 13.6544 14.8265 12.729 14.7509 11.7305C14.6185 9.98236 13.094 8.67256 11.3458 8.80497C9.59768 8.93739 8.28788 10.4619 8.42029 12.21C8.4374 12.4359 8.41865 12.5927 8.41117 12.6552L8.40897 12.6743C8.41312 12.6889 8.42488 12.724 8.45667 12.7945L7.54509 13.2056C7.44303 12.9793 7.39724 12.8142 7.41074 12.6128C7.41359 12.5702 7.41709 12.5391 7.42019 12.5116C7.4272 12.4492 7.43219 12.4049 7.42315 12.2856C7.38966 11.8434 7.42632 11.4122 7.52375 11.0027C6.82556 10.8148 6.33476 10.3087 6.23269 9.73665ZM7.87445 10.0578C7.6791 10.0213 7.53469 9.94919 7.43161 9.86819C7.6205 9.82005 7.83125 9.77916 8.04557 9.75761C7.98451 9.85511 7.92741 9.95525 7.87445 10.0578ZM9.41729 8.40218C9.3974 8.23551 9.38704 8.04881 9.39223 7.84899C9.51533 7.99112 9.59522 8.13562 9.62278 8.28497C9.55304 8.32216 9.48452 8.36125 9.41729 8.40218Z" fill="#FFDC20"></path> </svg> 