<?xml version="1.0" encoding="UTF-8"?> <svg xmlns="http://www.w3.org/2000/svg" width="153" height="56" viewBox="0 0 153 56" fill="none"> <path d="M138.501 22.9355C138.246 22.9398 138.002 23.0431 137.821 23.2238C137.641 23.4045 137.537 23.6484 137.533 23.9039V35.5706C137.533 35.8274 137.635 36.0737 137.817 36.2553C137.998 36.4369 138.244 36.5389 138.501 36.5389C138.757 36.5389 139.004 36.4369 139.185 36.2553C139.367 36.0737 139.468 35.8274 139.468 35.5706V23.9039C139.465 23.648 139.363 23.4035 139.182 23.2225C139.001 23.0416 138.757 22.9386 138.501 22.9355Z" fill="#517D45"></path> <path d="M138.501 19.7041C138.274 19.7041 138.053 19.7713 137.865 19.8972C137.676 20.0231 137.53 20.2021 137.443 20.4115C137.356 20.6209 137.334 20.8513 137.378 21.0736C137.422 21.2959 137.531 21.5 137.691 21.6603C137.851 21.8206 138.055 21.9297 138.277 21.9739C138.5 22.0181 138.73 21.9954 138.939 21.9087C139.148 21.822 139.327 21.6751 139.453 21.4867C139.579 21.2982 139.646 21.0767 139.646 20.85C139.646 20.6995 139.616 20.5505 139.559 20.4115C139.501 20.2725 139.417 20.1461 139.31 20.0397C139.204 19.9333 139.078 19.8489 138.939 19.7913C138.8 19.7337 138.651 19.7041 138.501 19.7041Z" fill="#517D45"></path> <path d="M94.8682 25.8478C94.0471 24.689 92.8932 23.8076 91.5596 23.3208C90.2563 22.8638 88.8451 22.8137 87.5128 23.177C86.1804 23.5404 84.9897 24.3 84.0983 25.3554C83.1847 26.4615 82.6328 27.8218 82.5174 29.2521C82.4192 30.6208 82.7381 31.9872 83.4321 33.1707C84.126 34.3542 85.1624 35.2993 86.4043 35.8811C87.7457 36.4971 89.2474 36.6727 90.6946 36.3828C92.0122 36.11 93.2177 35.4475 94.1547 34.4811V35.5684C94.1547 35.8253 94.2567 36.0716 94.4382 36.2532C94.6196 36.4348 94.8657 36.5368 95.1224 36.5368C95.379 36.5368 95.6251 36.4348 95.8066 36.2532C95.9881 36.0716 96.09 35.8253 96.09 35.5684V29.7351C96.0928 28.3443 95.6661 26.9866 94.8682 25.8478ZM94.1291 30.1878C94.1321 30.2529 94.1258 30.3181 94.1104 30.3814V30.4281C94.0633 30.7167 93.9947 31.0014 93.9052 31.2798C93.8656 31.3988 93.819 31.5131 93.7747 31.6344L93.7584 31.6764C93.7234 31.7488 93.6884 31.8211 93.6511 31.8934C93.5232 32.1472 93.3759 32.3905 93.2104 32.6214L93.1218 32.7404L93.0868 32.7824C92.9959 32.8898 92.9026 32.9971 92.8047 33.0974C92.7068 33.1978 92.6182 33.2864 92.5179 33.3751L92.3594 33.5128L92.2964 33.5664L92.1565 33.6691L92.0026 33.7741C91.8767 33.8581 91.7461 33.9351 91.6156 34.0074C91.485 34.0798 91.3824 34.1311 91.2565 34.1871L91.1935 34.2128L91.2425 34.1988C91.1655 34.2198 91.0909 34.2571 91.0093 34.2851C90.7449 34.3827 90.4737 34.4606 90.1979 34.5184L89.9811 34.5581H89.9251C89.7875 34.5721 89.6523 34.5838 89.5147 34.5884C89.2245 34.597 88.934 34.5869 88.645 34.5581H88.6031L88.3862 34.5184C88.2448 34.4873 88.1025 34.4523 87.9595 34.4134C87.8289 34.3784 87.7007 34.3364 87.5748 34.2898L87.4022 34.2244L87.3323 34.1918C87.0712 34.0742 86.8195 33.9369 86.5792 33.7811C86.5261 33.7488 86.4747 33.7138 86.4253 33.6761L86.29 33.5781L86.2714 33.5478C86.2108 33.4964 86.1501 33.4451 86.0919 33.3914C85.8807 33.2031 85.6835 32.9995 85.5019 32.7824L85.4506 32.7171L85.3854 32.6144C85.2991 32.4908 85.2151 32.3648 85.1382 32.2364C85.0613 32.1081 85.0053 32.0031 84.9447 31.8864C84.912 31.8211 84.8817 31.7581 84.8514 31.6928L84.8234 31.6344C84.7348 31.3754 84.6392 31.1211 84.5739 30.8528C84.539 30.7104 84.511 30.5658 84.4853 30.4211V30.3861C84.4853 30.3184 84.4713 30.2484 84.4667 30.1808C84.4434 29.8795 84.4434 29.5768 84.4667 29.2754C84.4643 29.2206 84.469 29.1657 84.4807 29.1121V29.1424C84.483 29.1184 84.483 29.0942 84.4807 29.0701V29.0514C84.4823 29.0316 84.4862 29.012 84.4923 28.9931C84.5156 28.8624 84.539 28.7318 84.5716 28.6034C84.6392 28.3281 84.7558 28.0691 84.8328 27.7984L84.8491 27.7634C84.8747 27.7051 84.9027 27.6491 84.9307 27.5931C84.9983 27.4578 85.0729 27.3271 85.1499 27.1964C85.2159 27.0807 85.2891 26.9693 85.369 26.8628C85.404 26.8138 85.446 26.7648 85.4786 26.7134C85.3271 26.9678 85.4646 26.7298 85.5253 26.6598C85.6979 26.4539 85.8849 26.2606 86.0849 26.0811C86.1828 25.9924 86.29 25.9131 86.388 25.8244L86.2924 25.9084L86.4043 25.8174L86.6025 25.6821C86.8411 25.5275 87.0904 25.3903 87.3486 25.2714H87.3743C87.4302 25.2528 87.4862 25.2248 87.5421 25.2061C87.6774 25.1548 87.8149 25.1104 87.9525 25.0708C88.0901 25.0311 88.237 24.9984 88.3792 24.9681L88.5961 24.9284H88.631C88.9252 24.8966 89.2213 24.8856 89.5171 24.8958C89.6614 24.8985 89.8054 24.9094 89.9484 24.9284L90.1816 24.9728C90.4661 25.0295 90.7459 25.1075 91.0187 25.2061C91.0723 25.2248 91.1282 25.2504 91.1842 25.2714H91.2098C91.3474 25.3344 91.4827 25.4021 91.6156 25.4768C91.7485 25.5514 91.8487 25.6098 91.956 25.6821L92.1122 25.7871C92.1798 25.8338 92.4013 26.0204 92.1705 25.8244C92.378 26.0064 92.5902 26.1744 92.7814 26.3751C92.8723 26.4684 92.9609 26.5688 93.0472 26.6691C93.0915 26.7228 93.1335 26.7811 93.1801 26.8348C92.9796 26.6014 93.1591 26.8114 93.2034 26.8721C93.3668 27.1047 93.5133 27.3488 93.6418 27.6024C93.6698 27.6584 93.6954 27.7144 93.7234 27.7728C93.7295 27.7849 93.7349 27.7974 93.7397 27.8101C93.7793 27.9478 93.8446 28.0808 93.8889 28.2184C93.9702 28.4752 94.034 28.7371 94.0801 29.0024C94.0826 29.0218 94.0826 29.0414 94.0801 29.0608V29.1144C94.0776 29.1694 94.0831 29.2244 94.0964 29.2778C94.0964 29.4271 94.1128 29.5788 94.1128 29.7304C94.1155 29.8815 94.11 30.0326 94.0964 30.1831" fill="#517D45"></path> <path d="M78.577 21.9067C77.7654 20.7592 76.6282 19.8821 75.3127 19.389C74.0121 18.9299 72.6029 18.8758 71.271 19.234C69.939 19.5923 68.7468 20.3459 67.8514 21.3957C66.8127 22.6254 66.2354 24.1793 66.2192 25.7893V35.566C66.2192 35.8228 66.3212 36.0691 66.5027 36.2507C66.6841 36.4323 66.9302 36.5343 67.1869 36.5343C67.4435 36.5343 67.6896 36.4323 67.8711 36.2507C68.0526 36.0691 68.1545 35.8228 68.1545 35.566V25.7847C68.1514 25.6351 68.1576 25.4855 68.1732 25.3367C68.1703 25.2716 68.1766 25.2064 68.1918 25.143V25.0963C68.2392 24.8086 68.3078 24.5247 68.397 24.247C68.4366 24.1257 68.481 24.0137 68.5253 23.8923L68.5439 23.8503L68.6488 23.6333C68.7784 23.3801 68.9264 23.1367 69.0918 22.9053C69.1058 22.882 69.1781 22.791 69.1804 22.784L69.1968 22.763C69.2931 22.6494 69.3934 22.5374 69.4976 22.427C69.5885 22.3337 69.6841 22.2403 69.782 22.1517L69.9429 22.0117L70.0035 21.9603L70.1224 21.8717C70.1807 21.8297 70.239 21.79 70.2996 21.7527C70.4256 21.6687 70.5538 21.5917 70.6867 21.5193C70.8196 21.447 70.9199 21.3957 71.0434 21.3373L71.0994 21.3163H71.0598C71.1274 21.2953 71.1927 21.2627 71.2603 21.2393C71.5331 21.1407 71.8129 21.0627 72.0974 21.006L72.3142 20.9663H72.3492C72.4937 20.95 72.636 20.9383 72.7805 20.9337C73.063 20.922 73.3459 20.9314 73.6269 20.9617H73.592L73.6666 20.9733H73.7365L73.8904 21.0013C74.0443 21.0317 74.1935 21.0667 74.3427 21.1087C74.492 21.1507 74.6039 21.188 74.7298 21.2347L74.8767 21.2907L74.9466 21.321C75.2054 21.4403 75.4555 21.5776 75.6951 21.7317C75.8047 21.804 75.9073 21.8927 76.0192 21.965L76.0122 21.951L76.0519 21.979C76.1125 22.028 76.1731 22.0817 76.2314 22.133C76.4413 22.3228 76.6376 22.5271 76.819 22.7443C76.84 22.77 76.8679 22.812 76.8913 22.847L76.8493 22.777C76.8843 22.8353 76.9332 22.8913 76.9729 22.9473C77.0661 23.0803 77.1501 23.2133 77.2317 23.351C77.3133 23.4887 77.3856 23.6333 77.4648 23.778L77.5115 23.8807C77.5278 23.925 77.5674 24.0183 77.5744 24.0417C77.6884 24.3492 77.775 24.6662 77.8332 24.989C77.8472 25.059 77.8519 25.136 77.8682 25.206C77.7983 24.9073 77.8682 25.1617 77.8682 25.2527C77.8845 25.4323 77.8915 25.612 77.8939 25.7893V35.566C77.8939 35.8228 77.9958 36.0691 78.1773 36.2507C78.3588 36.4323 78.6049 36.5343 78.8615 36.5343C79.1181 36.5343 79.3643 36.4323 79.5457 36.2507C79.7272 36.0691 79.8291 35.8228 79.8291 35.566V25.766C79.8266 24.3847 79.4001 23.0375 78.6074 21.9067" fill="#517D45"></path> <path d="M117.898 25.309C117.235 24.3735 116.305 23.659 115.231 23.258C114.181 22.8848 113.043 22.8384 111.966 23.1249C110.89 23.4114 109.925 24.0175 109.199 24.8633C109.073 25.0173 108.954 25.176 108.842 25.3417L108.821 25.309C108.154 24.3699 107.218 23.6549 106.138 23.258C105.088 22.8849 103.95 22.8386 102.874 23.1252C101.798 23.4117 100.833 24.0177 100.108 24.8633C99.26 25.8659 98.7898 27.134 98.7788 28.4473V35.5663C98.7788 35.8231 98.8808 36.0695 99.0622 36.2511C99.2437 36.4326 99.4898 36.5347 99.7464 36.5347C100.003 36.5347 100.249 36.4326 100.431 36.2511C100.612 36.0695 100.714 35.8231 100.714 35.5663V28.4473V28.1113C100.712 28.0642 100.716 28.017 100.728 27.9713C100.767 27.7416 100.822 27.5148 100.891 27.2923C100.915 27.2223 100.943 27.1547 100.968 27.087C100.973 27.0695 100.98 27.0524 100.987 27.0357C100.986 27.0272 100.987 27.0185 100.99 27.0104C100.992 27.0023 100.997 26.995 101.003 26.989V27.0147L101.071 26.877C101.175 26.6808 101.295 26.4928 101.428 26.3147C101.451 26.2773 101.481 26.2447 101.505 26.2073L101.488 26.233C101.556 26.1513 101.623 26.0743 101.696 25.9997L101.929 25.7663L102.048 25.6613L102.118 25.6123L102.059 25.6473C102.241 25.5377 102.407 25.414 102.593 25.2997C102.684 25.2507 102.778 25.204 102.871 25.1597H102.827L102.876 25.1433L102.913 25.1293L103.027 25.0827C103.216 25.0173 103.408 24.9635 103.603 24.9217L103.757 24.8913H103.846C103.936 24.8913 104.027 24.8727 104.118 24.868C104.338 24.8629 104.557 24.8707 104.776 24.8913L104.918 24.917C105.044 24.9427 105.168 24.973 105.291 25.008C105.377 25.0337 105.464 25.0593 105.548 25.0897L105.676 25.1387C105.882 25.2346 106.081 25.3437 106.273 25.4653C106.331 25.5027 106.389 25.547 106.448 25.589L106.49 25.6193L106.532 25.6473L106.508 25.6333C106.546 25.6637 106.585 25.6963 106.623 25.7313C106.791 25.8811 106.947 26.0442 107.089 26.219L107.075 26.1957C107.075 26.212 107.098 26.2283 107.11 26.2447L107.159 26.3123C107.229 26.4127 107.296 26.5177 107.359 26.625C107.422 26.7323 107.481 26.842 107.534 26.954C107.558 27.0007 107.576 27.0543 107.602 27.101C107.602 27.0777 107.579 27.0613 107.572 27.045C107.572 27.0707 107.597 27.0987 107.604 27.1173C107.691 27.3566 107.758 27.6024 107.805 27.8523C107.807 27.9077 107.817 27.9626 107.833 28.0157L107.816 27.9573C107.823 27.9825 107.828 28.0083 107.83 28.0343C107.842 28.165 107.847 28.298 107.847 28.4287V35.5477C107.847 35.8045 107.949 36.0508 108.13 36.2324C108.312 36.414 108.558 36.516 108.814 36.516C109.071 36.516 109.317 36.414 109.499 36.2324C109.68 36.0508 109.782 35.8045 109.782 35.5477V28.109L109.796 27.969C109.835 27.7389 109.89 27.512 109.961 27.29C109.982 27.22 110.01 27.1523 110.036 27.0847C110.039 27.0666 110.045 27.0492 110.055 27.0333C110.062 27.0184 110.069 27.0028 110.073 26.9867V27.0147C110.094 26.968 110.118 26.9237 110.141 26.877C110.241 26.6796 110.355 26.49 110.484 26.31C110.509 26.2727 110.54 26.24 110.563 26.2027L110.547 26.2283C110.612 26.1467 110.682 26.0697 110.754 25.995L110.987 25.7617L111.106 25.6567L111.174 25.6077L111.116 25.6427C111.298 25.533 111.463 25.4093 111.65 25.295C111.74 25.2468 111.833 25.2001 111.929 25.155H111.901L111.948 25.1387L111.985 25.1247L112.102 25.078C112.29 25.013 112.481 24.9592 112.676 24.917L112.832 24.8867H112.918C113.009 24.8867 113.1 24.868 113.191 24.8633C113.411 24.8583 113.631 24.8661 113.851 24.8867L113.993 24.9123C114.116 24.938 114.242 24.9683 114.364 25.0033C114.485 25.0383 114.536 25.0547 114.622 25.085L114.751 25.134C114.956 25.23 115.154 25.3391 115.345 25.4607C115.406 25.498 115.462 25.5423 115.52 25.5843L115.564 25.6147L115.606 25.6427L115.581 25.6287C115.62 25.659 115.658 25.6917 115.697 25.7267C115.866 25.8764 116.022 26.0395 116.164 26.2143L116.147 26.191L116.182 26.24C116.199 26.2633 116.217 26.2843 116.231 26.3077C116.304 26.4081 116.371 26.5125 116.432 26.6203C116.495 26.7277 116.555 26.8373 116.609 26.9493C116.63 26.996 116.649 27.0497 116.674 27.0963L116.644 27.0403C116.656 27.0638 116.667 27.0879 116.677 27.1127C116.765 27.3514 116.833 27.5973 116.879 27.8477C116.875 27.9034 116.884 27.9592 116.905 28.011C116.908 27.9905 116.903 27.9696 116.891 27.9527C116.893 27.9783 116.893 28.0041 116.891 28.0297C116.891 28.1603 116.907 28.2933 116.91 28.424V35.543C116.91 35.7998 117.012 36.0461 117.193 36.2277C117.375 36.4093 117.621 36.5113 117.877 36.5113C118.134 36.5113 118.38 36.4093 118.562 36.2277C118.743 36.0461 118.845 35.7998 118.845 35.543V28.4147C118.84 27.3052 118.498 26.2236 117.863 25.3137" fill="#517D45"></path> <path d="M133.682 25.8473C132.86 24.6883 131.705 23.8075 130.371 23.3226C129.068 22.8647 127.657 22.8139 126.324 23.1768C124.992 23.5398 123.801 24.2994 122.909 25.3549C121.996 26.461 121.444 27.8213 121.329 29.2516C121.23 30.6198 121.548 31.9858 122.241 33.1692C122.934 34.3527 123.97 35.2981 125.211 35.8806C126.552 36.4966 128.054 36.6722 129.501 36.3823C130.821 36.1108 132.029 35.4482 132.968 34.4806V42.0173C132.968 42.2741 133.07 42.5204 133.252 42.702C133.433 42.8836 133.679 42.9856 133.936 42.9856C134.193 42.9856 134.439 42.8836 134.62 42.702C134.802 42.5204 134.904 42.2741 134.904 42.0173V29.7346C134.905 28.344 134.478 26.9866 133.682 25.8473ZM132.933 30.3833V30.4276C132.886 30.7162 132.818 31.0009 132.728 31.2793C132.688 31.3983 132.642 31.5126 132.598 31.6339C132.592 31.6483 132.586 31.6624 132.579 31.6759C132.546 31.7491 132.511 31.8214 132.474 31.8929C132.341 32.1447 132.189 32.3857 132.019 32.6139L131.931 32.7329L131.896 32.7749C131.805 32.8846 131.711 32.9896 131.614 33.0899C131.516 33.1903 131.425 33.2789 131.327 33.3676L131.168 33.5053L131.105 33.5589L130.965 33.6616L130.811 33.7666C130.686 33.8506 130.555 33.9276 130.424 33.9999C130.294 34.0723 130.191 34.1236 130.065 34.1796L130.002 34.2053L130.051 34.1913C129.974 34.2123 129.9 34.2496 129.818 34.2776C129.554 34.3751 129.283 34.4531 129.007 34.5109L128.79 34.5506H128.734C128.596 34.5646 128.461 34.5763 128.324 34.5809C128.033 34.5895 127.741 34.5794 127.452 34.5506H127.403L127.186 34.5109C127.041 34.4806 126.901 34.4456 126.759 34.4059C126.617 34.3663 126.5 34.3289 126.372 34.2823L126.202 34.2169L126.132 34.1843C125.873 34.0647 125.624 33.9259 125.386 33.7689L125.232 33.6639L125.099 33.5659L125.071 33.5426L124.889 33.3863C124.679 33.1973 124.483 32.9938 124.301 32.7773L124.25 32.7143C124.229 32.6839 124.192 32.6326 124.178 32.6163C124.092 32.4926 124.008 32.3666 123.931 32.2383C123.854 32.1099 123.798 32.0049 123.737 31.8883C123.705 31.8229 123.674 31.7599 123.644 31.6946L123.616 31.6363C123.527 31.3773 123.432 31.1229 123.366 30.8546C123.331 30.7123 123.301 30.5676 123.278 30.4229V30.3879L123.257 30.1826C123.234 29.8813 123.234 29.5786 123.257 29.2773C123.254 29.2223 123.26 29.1673 123.273 29.1139V29.1443C123.276 29.1202 123.276 29.096 123.273 29.0719C123.271 29.0659 123.271 29.0593 123.273 29.0533C123.271 29.0339 123.271 29.0143 123.273 28.9949C123.297 28.8643 123.32 28.7336 123.352 28.6053C123.418 28.3299 123.537 28.0709 123.614 27.8003C123.618 27.7882 123.624 27.7765 123.63 27.7653C123.656 27.7069 123.684 27.6509 123.712 27.5949C123.779 27.4619 123.851 27.3289 123.931 27.1983C123.998 27.0831 124.071 26.9717 124.15 26.8646C124.185 26.8156 124.227 26.7666 124.259 26.7153C124.108 26.9696 124.246 26.7316 124.306 26.6616C124.481 26.4521 124.671 26.2556 124.875 26.0736C124.975 25.9849 125.083 25.9056 125.181 25.8169L125.087 25.9009C125.111 25.8776 125.167 25.8333 125.197 25.8099L125.395 25.6746C125.634 25.52 125.883 25.3828 126.141 25.2639H126.167C126.223 25.2453 126.279 25.2173 126.332 25.1986C126.47 25.1473 126.607 25.1029 126.745 25.0633C126.883 25.0236 127.027 24.9909 127.172 24.9606L127.389 24.9209H127.424C127.718 24.889 128.014 24.8781 128.31 24.8883C128.454 24.891 128.598 24.9019 128.741 24.9209L128.986 24.9653C129.27 25.0219 129.55 25.0999 129.823 25.1986C129.876 25.2173 129.932 25.2429 129.988 25.2639H130.014C130.152 25.3269 130.287 25.3946 130.42 25.4693C130.553 25.5439 130.653 25.6023 130.76 25.6746L130.916 25.7796C130.984 25.8263 131.206 26.0129 130.975 25.8169C131.18 25.9989 131.392 26.1669 131.586 26.3676C131.677 26.4609 131.765 26.5613 131.851 26.6616C131.896 26.7153 131.938 26.7736 131.984 26.8273C131.784 26.5939 131.963 26.8039 132.008 26.8646C132.17 27.0973 132.316 27.3413 132.444 27.5949C132.474 27.6509 132.5 27.7069 132.528 27.7653L132.544 27.8026C132.584 27.9403 132.649 28.0756 132.693 28.2109C132.775 28.4674 132.838 28.7294 132.882 28.9949C132.889 29.0137 132.894 29.0333 132.896 29.0533C132.894 29.0601 132.894 29.0675 132.896 29.0743C132.894 29.0975 132.894 29.121 132.896 29.1443V29.1139C132.893 29.1689 132.899 29.2239 132.912 29.2773C132.912 29.4266 132.929 29.5759 132.929 29.7253V29.7463C132.931 29.8919 132.926 30.0376 132.912 30.1826C132.915 30.2485 132.909 30.3145 132.894 30.3786" fill="#517D45"></path> <path d="M152.167 25.4838C151.528 24.5058 150.604 23.7488 149.52 23.3161C148.465 22.9056 147.309 22.8299 146.21 23.0991C145.11 23.3683 144.12 23.9695 143.374 24.8211C142.514 25.8224 142.032 27.0941 142.012 28.4144V35.5591C142.012 35.8159 142.114 36.0622 142.296 36.2438C142.477 36.4254 142.723 36.5274 142.98 36.5274C143.236 36.5274 143.483 36.4254 143.664 36.2438C143.846 36.0622 143.947 35.8159 143.947 35.5591V28.0924L143.961 27.9454C143.999 27.7209 144.053 27.4994 144.122 27.2828C144.153 27.1941 144.192 27.1078 144.223 27.0191C144.251 26.9608 144.276 26.9048 144.307 26.8511C144.407 26.6536 144.522 26.4641 144.652 26.2841L144.724 26.1931C144.799 26.1068 144.875 26.0228 144.957 25.9411C145.039 25.8594 145.109 25.7918 145.19 25.7218L145.309 25.6191C145.486 25.4918 145.671 25.3757 145.862 25.2714C145.948 25.2248 146.037 25.1874 146.123 25.1431L146.293 25.0824C146.507 25.0082 146.727 24.9512 146.951 24.9121L147.025 24.9004H147.079C147.2 24.9004 147.312 24.8841 147.445 24.8818H147.813L147.979 24.8981C148.201 24.9339 148.42 24.9861 148.634 25.0544L148.907 25.1524L149.072 25.2318C149.27 25.3329 149.46 25.4483 149.641 25.5771L149.688 25.6121L149.737 25.6518C149.826 25.7252 149.91 25.8031 149.991 25.8851C150.069 25.9583 150.142 26.0362 150.21 26.1184L150.315 26.2398V26.2514C150.453 26.4471 150.58 26.6504 150.695 26.8604C150.723 26.9141 150.751 26.9701 150.777 27.0284V27.0494C150.817 27.1568 150.859 27.2641 150.891 27.3738C150.924 27.4834 150.961 27.6071 150.989 27.7424C151.003 27.8054 151.015 27.8684 151.026 27.9314C151.026 28.0574 151.045 28.1788 151.05 28.3024C151.045 28.3466 151.045 28.3912 151.05 28.4354V28.8064C151.047 28.8422 151.047 28.878 151.05 28.9138V35.5521C151.05 35.8089 151.152 36.0552 151.333 36.2368C151.515 36.4184 151.761 36.5204 152.017 36.5204C152.274 36.5204 152.52 36.4184 152.702 36.2368C152.883 36.0552 152.985 35.8089 152.985 35.5521V28.8181C153.072 27.6442 152.775 26.4739 152.139 25.4838" fill="#517D45"></path> <path d="M27.9422 0.026421C27.6051 0.11545 27.3559 0.376854 27.2642 0.740546C27.1928 1.02847 27.2771 1.34859 27.486 1.58348C27.704 1.82405 27.8561 1.88277 28.3453 1.90739C32.7027 2.12523 36.9428 3.52128 40.6497 5.95536C41.8609 6.75094 42.9878 7.64312 44.122 8.70579C44.3822 8.94825 44.4793 9.02781 44.5819 9.07895C44.8128 9.1926 45.062 9.20397 45.3002 9.11115C45.8059 8.91415 46.035 8.3061 45.7949 7.79656C45.7272 7.65449 45.5861 7.50106 45.1206 7.07296C42.8558 4.99309 40.3382 3.35269 37.5438 2.13849C34.8447 0.96596 31.8305 0.230998 28.95 0.0415748C28.1823 -0.00956939 28.0851 -0.0114636 27.9422 0.026421Z" fill="#517D45"></path> <path d="M12.4754 2.19146C12.3947 2.19903 12.2298 2.22366 12.1089 2.2445C11.1762 2.41687 10.3077 2.81845 9.5729 3.42081C9.34386 3.60834 8.87844 4.08569 8.70436 4.3111C8.36721 4.74867 7.97875 5.45522 7.85048 5.86437C7.74237 6.2148 7.71305 6.41938 7.71305 6.8399C7.71489 7.17328 7.72038 7.24716 7.76253 7.45552C7.78818 7.58623 7.84132 7.77754 7.87797 7.88173C7.91461 7.98591 7.94943 8.0863 7.95493 8.10525C7.96226 8.12798 7.87247 8.23784 7.62693 8.50303C6.7364 9.4653 6.0566 10.2912 5.37679 11.2345C5.05246 11.6853 5.00665 11.7535 4.74096 12.1532C3.39234 14.1819 2.29292 16.4266 1.50866 18.7451C0.849012 20.6943 0.418406 22.6169 0.183864 24.6646C-0.0286909 26.502 -0.0580087 28.5573 0.101407 30.4231C0.445892 34.4938 1.60761 38.3334 3.56824 41.8832C5.63332 45.6224 8.58526 48.888 12.0649 51.288C13.0837 51.9908 13.9559 52.5136 15.0517 53.08C15.7461 53.438 16.6385 53.849 17.223 54.0801C17.2945 54.1085 17.3715 54.1407 17.3971 54.1502C17.7672 54.3112 18.7164 54.6427 19.5226 54.8927C21.5126 55.5103 23.8855 55.9043 26.1192 55.9876C26.7385 56.0103 28.0322 56.0009 28.5654 55.9668C31.2443 55.8001 33.5402 55.3303 36.0872 54.4249C37.2856 53.9987 37.7199 53.8111 38.9549 53.1841C41.6503 51.8127 43.9554 50.1212 46.0901 47.9447C47.7154 46.2854 49.0989 44.4839 50.2697 42.4988C52.4466 38.8031 53.7494 34.6661 54.0976 30.3378C54.1745 29.385 54.2167 27.9985 54.1745 27.7541C54.0481 27.0059 53.1466 26.7161 52.6243 27.2559C52.4191 27.4681 52.3586 27.648 52.3586 28.0458C52.3586 28.4057 52.3275 29.243 52.2945 29.7696C52.1149 32.6639 51.4296 35.6019 50.3064 38.2955C49.7219 39.6934 48.9853 41.099 48.1753 42.3567C47.9353 42.7299 47.6348 43.1769 47.6146 43.1883C47.6073 43.194 47.6293 43.1163 47.6678 43.014C48.1442 41.7127 48.5253 40.1291 48.6847 38.7956C48.7012 38.6592 48.7177 38.5361 48.7214 38.5209C48.7251 38.5058 48.7525 38.2273 48.78 37.9053C48.8277 37.356 48.8295 37.2537 48.8295 36.3047C48.8313 35.4068 48.8258 35.2344 48.7892 34.7987C48.7177 33.9388 48.6243 33.2606 48.4795 32.5181C48.3348 31.7737 48.3091 31.5426 48.3091 30.9913C48.3091 29.7393 48.6389 28.6198 49.3151 27.5836C49.4342 27.3999 49.4763 27.3109 49.5093 27.1707C49.6651 26.485 49.0494 25.858 48.3934 26.036C48.1204 26.1099 47.9701 26.2387 47.7466 26.5873C47.1602 27.5003 46.7626 28.5269 46.5794 29.5991C46.4969 30.0897 46.4694 30.4363 46.4694 30.9819C46.4676 31.5672 46.5006 31.9479 46.5977 32.4688C46.6325 32.6564 46.6856 32.9424 46.7168 33.1034C46.8341 33.7323 46.9312 34.5336 46.9733 35.2249C47.0026 35.6834 47.0026 36.9013 46.9733 37.356C46.9074 38.4262 46.7461 39.4983 46.5024 40.5004C45.8977 42.9818 44.758 45.3004 43.1822 47.2552C41.5935 49.2252 39.5321 50.858 37.3955 51.8374C35.6053 52.6613 33.8169 53.2448 31.9552 53.6179C30.537 53.9021 29.3166 54.0384 27.7298 54.0953C27.0317 54.118 26.2053 54.101 25.3844 54.0441C21.6537 53.7884 17.9945 52.6576 14.731 50.752C10.8702 48.4978 7.66541 45.2663 5.38961 41.3338C3.3905 37.8788 2.17381 33.8876 1.90629 29.8927C1.82933 28.7694 1.822 27.3203 1.8843 26.3221C2.00707 24.4108 2.3314 22.4635 2.80598 20.8004C2.84079 20.6754 2.87927 20.5428 2.88844 20.5068C3.03502 19.9518 3.44547 18.766 3.7753 17.9477C4.84907 15.2806 6.3681 12.7878 8.26093 10.5905C8.35072 10.4863 8.59625 10.2116 8.80881 9.98053L9.19177 9.56191L9.38784 9.6623C9.62604 9.78732 9.88441 9.88014 10.1519 9.93886C10.3278 9.97864 10.4011 9.98432 10.7548 9.98432C11.1781 9.98432 11.2953 9.96917 11.6984 9.85741C13.4044 9.38953 14.8025 8.24352 15.6124 6.65237C16.0375 5.81323 16.2849 4.87179 16.3105 3.99476C16.3178 3.74851 16.3142 3.60455 16.2995 3.54583C16.2482 3.33557 16.1163 3.13289 15.944 2.9984C15.8194 2.90179 15.2771 2.62713 14.9985 2.52105C14.5734 2.35626 14.0695 2.23502 13.6334 2.19146C13.408 2.16873 12.7026 2.16873 12.4754 2.19146ZM13.6682 4.11031C13.9486 4.16525 14.3609 4.28648 14.4213 4.33383C14.4378 4.3452 14.4305 4.40581 14.3994 4.56303C14.13 5.86058 13.3622 6.95355 12.2756 7.58244C11.8194 7.84574 11.1964 8.06547 10.8281 8.09388C10.2014 8.13934 9.63154 7.65063 9.55275 6.99523C9.53076 6.81149 9.55458 6.5766 9.61138 6.42696C9.86608 5.75261 10.4341 5.06122 11.0553 4.66343C11.5684 4.33573 12.0063 4.17851 12.6971 4.07622C12.829 4.05727 13.5088 4.0819 13.6682 4.11031Z" fill="#517D45"></path> <path d="M22.1156 6.80412C21.663 6.84201 21.2306 6.91588 20.9063 7.01249C19.9443 7.29473 19.0886 7.80996 18.4033 8.51651C18.1577 8.77033 18.0294 8.93702 17.8737 9.20601C17.5567 9.75154 17.3936 10.4751 17.4486 11.0813C17.4596 11.2101 17.4742 11.3275 17.4797 11.3427C17.4871 11.3635 17.4193 11.4166 17.2287 11.5397C15.3597 12.735 13.6831 14.2977 12.2923 16.1427C10.7018 18.2491 9.52178 20.7741 8.90793 23.3862C8.81448 23.7764 8.74485 24.1212 8.64957 24.6553C8.54146 25.2634 8.43152 26.2995 8.39854 27.0307C8.37471 27.5744 8.38571 28.9155 8.41869 29.372C8.46084 29.9743 8.56895 30.8855 8.64957 31.342C8.85113 32.4653 9.03803 33.2324 9.33854 34.1549C9.8516 35.7366 10.5332 37.1781 11.4403 38.6064C13.7949 42.3115 17.357 45.1017 21.4376 46.4352C22.3208 46.7231 23.0428 46.9069 23.904 47.0622C24.4592 47.1626 25.3296 47.2725 25.5733 47.2725C25.8115 47.2725 25.9929 47.2005 26.1853 47.0338C26.4565 46.7989 26.5646 46.3746 26.4455 46.028C26.3099 45.6321 25.9966 45.4029 25.5513 45.3688C25.1702 45.3422 24.3749 45.2248 23.8655 45.1206C20.855 44.5088 18.0331 43.0464 15.7536 40.9135C15.4257 40.6086 14.7422 39.8925 14.4618 39.5629C13.1993 38.0817 12.2282 36.4886 11.5026 34.7042C11.4476 34.5679 11.3871 34.4144 11.3688 34.3633C11.3505 34.3102 11.3047 34.1871 11.268 34.0886C10.8301 32.9085 10.4966 31.4803 10.3353 30.1013C10.2492 29.3568 10.2254 28.9022 10.2254 27.9892C10.2254 26.9057 10.2785 26.1613 10.427 25.2047C11.1324 20.668 13.5585 16.5935 17.1774 13.8677C17.4816 13.6385 17.9543 13.3089 18.1797 13.1687L18.2951 13.0986L18.4454 13.2369C19.116 13.8507 19.7244 14.0836 20.8018 14.1405C21.1206 14.1575 21.6117 14.1405 21.9031 14.1045C23.5174 13.9018 25.0163 13.0532 26.0699 11.7462C26.5683 11.1249 27.0887 10.155 27.1436 9.73828C27.1986 9.3386 27.0557 9.06583 26.4931 8.49567C25.5715 7.5656 24.4042 6.98976 23.1308 6.84011C22.8852 6.8117 22.2879 6.79086 22.1156 6.80412ZM23.1417 8.76086C23.5614 8.84421 23.8545 8.9446 24.2045 9.12266C24.5215 9.28367 24.8587 9.51855 25.0969 9.74397L25.1445 9.78943L25.0712 9.91634C24.6021 10.7176 23.9425 11.3503 23.1509 11.7575C22.724 11.9773 22.33 12.108 21.8224 12.1951C21.6209 12.2311 21.5109 12.2368 21.117 12.2368C20.7102 12.2387 20.6204 12.233 20.4207 12.1951C19.8765 12.0947 19.5228 11.7841 19.3378 11.2442C19.3011 11.1381 19.2956 11.0851 19.2956 10.8559C19.2956 10.621 19.3011 10.5736 19.3433 10.4429C19.4349 10.1569 19.587 9.94665 19.8911 9.67956C20.4097 9.22495 21.0803 8.89535 21.7382 8.77223C22.0845 8.70782 22.0698 8.70972 22.5279 8.7154C22.8577 8.71919 22.9805 8.72866 23.1417 8.76086Z" fill="#517D45"></path> <path d="M45.9731 9.96731C45.2365 10.0753 44.8187 10.2401 44.3148 10.617C43.6203 11.1361 43.1274 11.9809 43.0157 12.8352C42.9369 13.4451 42.9937 13.7198 43.252 13.9926C43.7065 14.4699 44.4797 14.3203 44.7454 13.7008C44.7802 13.6194 44.7967 13.5341 44.8114 13.3599C44.8224 13.233 44.8462 13.0606 44.8663 12.9791C44.9873 12.4866 45.3226 12.1135 45.8082 11.9335C45.9456 11.8824 45.9713 11.8786 46.2479 11.8786C46.51 11.8786 46.5558 11.8843 46.6694 11.9241C46.9461 12.0207 47.1495 12.157 47.3235 12.3635C47.5526 12.6306 47.657 12.9053 47.6864 13.3163C47.7523 14.2786 47.4426 15.2731 46.8435 16.0251C46.5943 16.3395 46.2113 16.6805 45.8723 16.8926C45.0587 17.4003 44.0986 17.5556 43.0963 17.3453C42.3413 17.1862 41.4087 17.1578 40.5951 17.2677C38.5502 17.5442 36.7398 18.6088 35.4425 20.2984C34.5208 21.4994 33.94 23.011 33.8062 24.5605C33.6449 26.4036 34.0884 28.2258 35.0778 29.7791C35.2702 30.084 35.4297 30.2526 35.5964 30.3341C35.9556 30.5121 36.3532 30.4458 36.6299 30.1598C36.7673 30.0158 36.8333 29.9022 36.8772 29.7279C36.9487 29.4476 36.9102 29.2354 36.7215 28.8888C36.5767 28.6179 36.5181 28.4417 36.4888 28.1728C36.3898 27.2957 36.9688 26.4774 37.8081 26.3107C37.9913 26.2728 38.279 26.2747 38.4567 26.3126C39.1677 26.4642 39.6991 27.0646 39.7742 27.8072C39.8145 28.1936 39.7412 28.9456 39.6075 29.5252C39.0064 32.1165 36.9102 34.0828 34.3467 34.4578C33.8392 34.5317 33.3554 34.4597 32.9468 34.2476C32.5785 34.0562 32.3073 33.8119 32.0618 33.4501C31.9134 33.2323 31.7704 32.8723 31.7173 32.5825C31.6696 32.3173 31.6916 32.0768 31.7888 31.84C31.9243 31.5028 31.9243 31.2585 31.7869 30.963C31.6861 30.747 31.415 30.5292 31.1767 30.4724C30.8524 30.3947 30.4603 30.533 30.2569 30.7982C30.07 31.0425 29.8923 31.624 29.8556 32.109C29.7805 33.1432 30.2771 34.3896 31.087 35.1966C31.7686 35.8766 32.6775 36.3009 33.601 36.3729C33.6889 36.3805 33.7567 36.3918 33.7494 36.3975C33.7237 36.4259 33.1154 36.5794 32.7801 36.6438C32.2652 36.7423 31.9757 36.7669 31.2867 36.7669C30.5995 36.7669 30.3302 36.7442 29.7841 36.6438C26.6673 36.0698 24.1166 33.7664 23.1821 30.6788C22.8816 29.6863 22.7662 28.8244 22.7918 27.7333C22.8028 27.2503 22.812 27.1177 22.867 26.7199C23.1253 24.8825 23.9206 23.2061 25.1593 21.8915C25.8574 21.149 26.5519 20.6167 27.4277 20.1526C27.6458 20.037 27.7246 19.984 27.8089 19.8969C28.0324 19.6658 28.124 19.3324 28.0526 19.0142C27.9628 18.6258 27.6659 18.3455 27.2793 18.2868C27.0613 18.2546 26.9128 18.2906 26.5958 18.4554C24.9449 19.3172 23.5266 20.647 22.5316 22.2703C22.255 22.7231 21.8995 23.4258 21.7419 23.8331C21.7236 23.8842 21.6741 24.0111 21.6356 24.1153C21.5128 24.4336 21.3516 24.9526 21.2655 25.3087C21.0932 26.0133 20.9998 26.6441 20.9521 27.4113C20.8697 28.7297 21.0896 30.3095 21.5275 31.5691C21.7217 32.126 21.8097 32.3439 22.0424 32.8193C23.0465 34.8897 24.6627 36.5472 26.6783 37.5738C26.9843 37.7292 27.0631 37.7651 27.3563 37.8902C28.6096 38.4168 29.9032 38.6763 31.2867 38.6763C32.9926 38.6763 34.5721 38.2804 36.0673 37.4772C38.7902 36.0149 40.7527 33.344 41.4013 30.2242C41.5534 29.4855 41.656 28.347 41.6194 27.7788C41.5058 25.9603 40.148 24.5339 38.3908 24.3862C37.4343 24.3047 36.4411 24.6665 35.7375 25.3504L35.6056 25.4792L35.6166 25.1193C35.644 24.1759 35.8456 23.3557 36.2597 22.5052C37.1686 20.6394 38.8855 19.4006 40.9249 19.1392C41.1796 19.107 42.0445 19.107 42.2992 19.1392C43.5287 19.2964 44.6868 19.8306 45.57 20.6508C45.7954 20.8591 45.8467 20.9103 46.0281 21.113C46.3267 21.4463 46.6144 21.8593 46.8526 22.2969C47.1476 22.8405 47.5819 23.5148 47.8586 23.8596C48.0363 24.0831 48.3827 24.4336 48.6483 24.6628C49.068 25.0227 49.4692 25.2897 49.9768 25.553C51.0487 26.1043 51.9319 26.2615 52.8701 26.0645C54.0557 25.8182 55.0653 25.0132 55.6022 23.888C56.1464 22.7458 56.1317 21.4066 55.5619 20.2549C54.8875 18.8929 53.4583 18.0292 51.9833 18.0879C51.6717 18.1011 51.5215 18.1333 51.3676 18.2167C51.2393 18.2887 51.0616 18.4743 50.9974 18.605C50.7885 19.0312 50.904 19.5502 51.2686 19.8135C51.4885 19.9745 51.5307 19.984 51.9649 19.9897C52.478 19.9935 52.6832 20.0389 53.0259 20.2151C53.2952 20.3553 53.5133 20.5352 53.691 20.7625C54.1986 21.416 54.303 22.2779 53.964 23.0186C53.5682 23.8823 52.6777 24.3635 51.7615 24.21C51.3602 24.1437 50.7079 23.8482 50.2297 23.5148C49.843 23.2478 49.3996 22.8272 49.1742 22.5109C48.9415 22.1889 48.6428 21.7078 48.4285 21.3119C47.9539 20.4367 47.2796 19.6184 46.5191 18.9876C46.4055 18.8948 46.3121 18.8134 46.3121 18.8096C46.3121 18.8058 46.3799 18.7679 46.4642 18.7243C47.001 18.4459 47.4775 18.0879 47.9062 17.6427C48.7858 16.7278 49.3318 15.5723 49.4949 14.2843C49.5352 13.9566 49.5389 13.25 49.5022 12.9394C49.3685 11.8085 48.6942 10.8216 47.7047 10.3064C47.2851 10.0885 46.8325 9.97489 46.3304 9.96542C46.1637 9.96163 46.0042 9.96352 45.9731 9.96731Z" fill="#517D45"></path> <path d="M9.36198 12.4963C7.67804 12.6384 6.23413 13.6556 5.47187 15.2316C5.26848 15.6521 5.12738 16.1143 5.04493 16.6238C5.01011 16.836 5.00278 16.9534 5.00278 17.3152C5.00095 17.7225 5.00461 17.7642 5.05042 17.9593C5.11272 18.2245 5.19885 18.4669 5.31062 18.6772C5.40041 18.8458 5.62762 19.1716 5.71374 19.2549C5.73939 19.2815 5.76138 19.3099 5.76138 19.3212C5.76138 19.3326 5.7174 19.4614 5.66243 19.6073C5.50668 20.0259 5.28497 20.6945 5.18419 21.0469C5.00645 21.6758 4.94781 21.8936 4.86352 22.2497C4.40726 24.1572 4.18555 26.0363 4.18555 27.9892C4.18555 30.2945 4.51537 32.6244 5.14754 34.799C6.60427 39.813 9.62034 44.1754 13.745 47.2403C15.3483 48.4318 17.1587 49.4338 19.0204 50.1631C21.604 51.1727 24.2554 51.669 27.0718 51.6709C27.7937 51.6709 27.7956 51.6709 27.9367 51.6235C28.1144 51.5648 28.239 51.4834 28.3545 51.3508C28.8034 50.8299 28.5762 50.0134 27.9238 49.8051C27.8487 49.7805 27.671 49.7748 26.9435 49.7653C26.0438 49.7558 25.8459 49.7464 25.1203 49.6782C23.5372 49.5285 22.0273 49.2046 20.5138 48.6894C18.1244 47.8768 15.8412 46.5944 13.8604 44.954C12.5961 43.9064 11.3739 42.6203 10.3991 41.3151C9.35099 39.9134 8.44396 38.3317 7.78431 36.7576C6.76735 34.3311 6.19382 31.8175 6.05273 29.1523C6.02707 28.6541 6.02707 27.3244 6.05273 26.8243C6.17 24.6459 6.58595 22.5338 7.2969 20.526L7.43983 20.1187L7.71468 20.1073C8.02985 20.0922 8.16178 20.0713 8.38899 20.005C8.92404 19.844 9.41329 19.505 9.97766 18.9026C10.7418 18.0862 11.2182 17.0671 11.3812 15.904C11.4271 15.5707 11.4271 14.741 11.3812 14.4171C11.3134 13.953 11.154 13.3677 11.0074 13.0475C10.892 12.7956 10.6391 12.5891 10.3789 12.5342C10.1316 12.4831 9.71379 12.466 9.36198 12.4963ZM9.54155 14.5686C9.56904 14.7031 9.57637 14.8281 9.57637 15.1558C9.5782 15.5347 9.57453 15.5953 9.52873 15.8188C9.37847 16.586 9.07063 17.1713 8.54475 17.6941C8.1233 18.1146 7.85028 18.251 7.53694 18.2017C7.18513 18.1449 6.90111 17.8589 6.84064 17.499C6.81316 17.3361 6.84614 16.9572 6.91577 16.6693C7.20162 15.4608 8.18743 14.561 9.39863 14.4019C9.5049 14.3868 9.50674 14.3887 9.54155 14.5686Z" fill="#517D45"></path> </svg> 